<?xml version="1.0" standalone="no"?><!DOCTYPE svg PUBLIC "-//W3C//DTD SVG 1.1//EN" "http://www.w3.org/Graphics/SVG/1.1/DTD/svg11.dtd"><svg class="icon" height="512" viewBox="0 0 1024 1024" version="1.1" xmlns="http://www.w3.org/2000/svg"><path d="M524.8 96c41.6 0 76.8 35.2 76.8 76.8s-35.2 76.8-76.8 76.8c-41.6 0-76.8-35.2-76.8-76.8S483.2 96 524.8 96M524.8 32C448 32 384 96 384 172.8s64 140.8 140.8 140.8 140.8-64 140.8-140.8S601.6 32 524.8 32L524.8 32zM870.4 227.2c-16-19.2-48-25.6-67.2-6.4L633.6 352c-25.6 19.2-54.4 32-86.4 32l-67.2 0c-32 0-64-9.6-86.4-32L220.8 217.6C201.6 201.6 169.6 204.8 153.6 227.2 137.6 246.4 140.8 278.4 163.2 294.4l220.8 176L384 640l0 32 0 256c0 25.6 22.4 48 48 48S480 953.6 480 928l0-256 96 0 0 256c0 25.6 22.4 48 48 48S672 953.6 672 928l0-256 0-32 0-195.2 188.8-150.4C883.2 278.4 886.4 246.4 870.4 227.2z" /></svg>