<?xml version="1.0" encoding="utf-8"?>
<!-- Generator: Adobe Illustrator 16.0.0, SVG Export Plug-In . SVG Version: 6.00 Build 0)  -->
<!DOCTYPE svg PUBLIC "-//W3C//DTD SVG 1.1//EN" "http://www.w3.org/Graphics/SVG/1.1/DTD/svg11.dtd">
<svg version="1.1" id="Layer_1" xmlns="http://www.w3.org/2000/svg" xmlns:xlink="http://www.w3.org/1999/xlink" x="0px" y="0px"
	 width="300px" height="300px" viewBox="0 0 300 300" enable-background="new 0 0 300 300" xml:space="preserve">
<g id="XMLID_1309_">
	
		<polyline id="XMLID_265_" fill="none" stroke="#000000" stroke-width="5.2828" stroke-linecap="round" stroke-linejoin="round" stroke-miterlimit="10" points="
		66.223,195.031 54.647,231.484 121.84,231.484 110.265,195.031 	"/>
	<g id="XMLID_1337_">
		
			<polyline id="XMLID_264_" fill="none" stroke="#000000" stroke-width="5.2828" stroke-linecap="round" stroke-linejoin="round" stroke-miterlimit="10" points="
			102.056,130.825 117.436,130.825 152.841,99.764 		"/>
		
			<polyline id="XMLID_263_" fill="none" stroke="#000000" stroke-width="5.2828" stroke-linecap="round" stroke-linejoin="round" stroke-miterlimit="10" points="
			25.939,109.701 59.683,130.825 75.193,130.825 		"/>
		
			<polyline id="XMLID_258_" fill="none" stroke="#000000" stroke-width="5.2828" stroke-linecap="round" stroke-linejoin="round" stroke-miterlimit="10" points="
			17.586,114.152 59.177,149.444 66.223,195.031 110.389,195.031 117.435,149.444 152.841,115.734 		"/>
		
			<path id="XMLID_256_" fill="none" stroke="#000000" stroke-width="5.2828" stroke-linecap="round" stroke-linejoin="round" stroke-miterlimit="10" d="
			M98.746,121.372l3.311,9.454c-1.541,5.98-6.762,10.257-12.753,10.549c-6.458,0.315-12.427-4.08-14.11-10.549l3.375-9.421"/>
		
			<path id="XMLID_255_" fill="none" stroke="#000000" stroke-width="5.2828" stroke-linecap="round" stroke-linejoin="round" stroke-miterlimit="10" d="
			M114.497,94.428c0,16.164-11.583,29.267-25.872,29.267c-14.289,0-25.872-13.103-25.872-29.267
			c0-16.164,11.202-26.632,25.49-26.632C102.532,67.796,114.497,78.264,114.497,94.428z"/>
	</g>
	
		<path id="XMLID_252_" fill="none" stroke="#000000" stroke-width="5.2828" stroke-linecap="round" stroke-linejoin="round" stroke-miterlimit="10" d="
		M72.613,98.911c13.205,0.904,20.26-11.578,20.26-11.578s5.444,11.599,21.445,10.502"/>
	
		<path id="XMLID_251_" fill="none" stroke="#000000" stroke-width="5.2828" stroke-linecap="round" stroke-linejoin="round" stroke-miterlimit="10" d="
		M92.874,87.333c0,0,3.076-6.874,0-10.493"/>
	<g id="XMLID_248_">
		
			<path id="XMLID_250_" fill="none" stroke="#000000" stroke-width="5.2828" stroke-linecap="round" stroke-linejoin="round" stroke-miterlimit="10" d="
			M83.338,59.157h10.575c0,0,24.25-8.955,22.979,1.629c0,0-1,6.104-2.899,7.869"/>
		
			<path id="XMLID_249_" fill="none" stroke="#000000" stroke-width="5.2828" stroke-linecap="round" stroke-linejoin="round" stroke-miterlimit="10" d="
			M63.258,68.655c-1.899-1.764-2.9-7.869-2.9-7.869c-1.272-10.583,22.979-1.629,22.979-1.629v8.983"/>
	</g>
	
		<line id="XMLID_247_" fill="none" stroke="#000000" stroke-width="5.2828" stroke-linecap="round" stroke-linejoin="round" stroke-miterlimit="10" x1="93.913" y1="59.157" x2="93.913" y2="68.366"/>
	<g id="XMLID_245_">
		
			<polyline id="XMLID_246_" fill="none" stroke="#000000" stroke-width="5.2828" stroke-linecap="round" stroke-linejoin="round" stroke-miterlimit="10" points="
			70.075,231.484 76.316,279.761 100.172,279.761 106.413,231.484 		"/>
	</g>
	
		<line id="XMLID_244_" fill="none" stroke="#000000" stroke-width="5.2828" stroke-linecap="round" stroke-linejoin="round" stroke-miterlimit="10" x1="88.244" y1="279.761" x2="88.244" y2="244.215"/>
	
		<path id="XMLID_243_" fill="none" stroke="#000000" stroke-width="5.2828" stroke-linecap="round" stroke-linejoin="round" stroke-miterlimit="10" d="
		M76.316,279.761l-7.245,1.361c-4.096,0.77-6.616,4.928-5.405,8.914l0.808,2.658h19.898v-4.701"/>
	
		<path id="XMLID_242_" fill="none" stroke="#000000" stroke-width="5.2828" stroke-linecap="round" stroke-linejoin="round" stroke-miterlimit="10" d="
		M100.241,279.761l7.244,1.361c4.096,0.77,6.617,4.928,5.406,8.914l-0.808,2.658H92.185v-4.701"/>
	
		<polyline id="XMLID_1325_" fill="none" stroke="#000000" stroke-width="5.2828" stroke-linecap="round" stroke-linejoin="round" stroke-miterlimit="10" points="
		193.038,191.526 194.119,279.474 237.613,279.474 237.29,191.526 	"/>
	
		<line id="XMLID_1324_" fill="none" stroke="#000000" stroke-width="5.2828" stroke-linecap="round" stroke-linejoin="round" stroke-miterlimit="10" x1="215.846" y1="279.474" x2="215.846" y2="223.334"/>
	<g id="XMLID_1318_">
		
			<polyline id="XMLID_241_" fill="none" stroke="#000000" stroke-width="5.2828" stroke-linecap="round" stroke-linejoin="round" stroke-miterlimit="10" points="
			228.958,127.319 244.337,127.319 273.485,104.149 		"/>
		
			<polyline id="XMLID_240_" fill="none" stroke="#000000" stroke-width="5.2828" stroke-linecap="round" stroke-linejoin="round" stroke-miterlimit="10" points="
			152.841,99.764 186.585,127.319 202.096,127.319 		"/>
		
			<polyline id="XMLID_239_" fill="none" stroke="#000000" stroke-width="5.2828" stroke-linecap="round" stroke-linejoin="round" stroke-miterlimit="10" points="
			152.841,115.734 186.078,145.938 193.126,191.526 237.29,191.526 244.337,145.938 282.415,110.315 		"/>
		
			<path id="XMLID_238_" fill="none" stroke="#000000" stroke-width="5.2828" stroke-linecap="round" stroke-linejoin="round" stroke-miterlimit="10" d="
			M225.648,117.866l3.31,9.453c-1.54,5.981-6.761,10.257-12.753,10.551c-6.457,0.314-12.428-4.082-14.109-10.551l3.375-9.42"/>
		
			<path id="XMLID_237_" fill="none" stroke="#000000" stroke-width="5.2828" stroke-linecap="round" stroke-linejoin="round" stroke-miterlimit="10" d="
			M241.398,90.922c0,16.164-11.582,29.268-25.871,29.268s-25.872-13.104-25.872-29.268s11.202-26.631,25.491-26.631
			C229.435,64.291,241.398,74.758,241.398,90.922z"/>
	</g>
	<g id="XMLID_1315_">
		
			<path id="XMLID_236_" fill="none" stroke="#000000" stroke-width="5.2828" stroke-linecap="round" stroke-linejoin="round" stroke-miterlimit="10" d="
			M199.695,95.404c13.203,0.905,20.259-11.578,20.259-11.578s5.442,11.599,21.444,10.503"/>
		
			<path id="XMLID_235_" fill="none" stroke="#000000" stroke-width="5.2828" stroke-linecap="round" stroke-linejoin="round" stroke-miterlimit="10" d="
			M219.954,83.827c0,0,3.074-6.874,0-10.491"/>
	</g>
	
		<path id="XMLID_1314_" fill="none" stroke="#000000" stroke-width="5.2828" stroke-linecap="round" stroke-linejoin="round" stroke-miterlimit="10" d="
		M211.698,287.628v5.355h-22.699l-0.922-3.034c-1.382-4.546,1.496-9.285,6.18-10.148l0.844-0.327"/>
	
		<path id="XMLID_1313_" fill="none" stroke="#000000" stroke-width="5.2828" stroke-linecap="round" stroke-linejoin="round" stroke-miterlimit="10" d="
		M237.123,279.474l0.94,0.327c4.665,0.863,7.541,5.603,6.16,10.148l-0.922,3.034h-22.699v-5.355"/>
	
		<line id="XMLID_1312_" fill="none" stroke="#000000" stroke-width="5.2828" stroke-linecap="round" stroke-linejoin="round" stroke-miterlimit="10" x1="216.205" y1="137.87" x2="216.205" y2="176.641"/>
	
		<path id="XMLID_1311_" fill="none" stroke="#000000" stroke-width="5.2828" stroke-linecap="round" stroke-linejoin="round" stroke-miterlimit="10" d="
		M17.586,114.152l-10.57-10.047c-1.648-1.693-1.676-4.401-0.101-6.101c1.529-1.648,4.127-1.871,5.945-0.475
		c1.865,1.863,3.729,3.728,5.594,5.591l2.25-4.656"/>
	
		<path id="XMLID_1310_" fill="none" stroke="#000000" stroke-width="5.2828" stroke-linecap="round" stroke-linejoin="round" stroke-miterlimit="10" d="
		M282.415,110.315l10.568-10.047c1.647-1.694,1.677-4.402,0.1-6.1c-1.526-1.65-4.127-1.872-5.945-0.476
		c-1.864,1.864-3.729,3.728-5.594,5.592l-2.249-4.655"/>
</g>
</svg>
