<?xml version="1.0" standalone="no"?><!DOCTYPE svg PUBLIC "-//W3C//DTD SVG 1.1//EN" "http://www.w3.org/Graphics/SVG/1.1/DTD/svg11.dtd"><svg class="icon" height="512" viewBox="0 0 1024 1024" version="1.1" xmlns="http://www.w3.org/2000/svg"><path d="M601.6 428.8c64 0 117.333333-57.6 117.333333-128s-51.2-128-117.333333-128c-38.4 0-83.2 21.333333-104.533333 51.2-14.933333 21.333333-2.133333 44.8-12.8 76.8-17.066667 59.733333 53.333333 128 117.333333 128z m-266.666667-53.333333c72.533333 0 130.133333-59.733333 130.133334-134.4S407.466667 106.666667 334.933333 106.666667c-72.533333 0-130.133333 59.733333-130.133333 134.4s57.6 134.4 130.133333 134.4zM780.8 115.2c-19.2-49.066667-72.533333-36.266667-72.533333 19.2 0 29.866667 25.6 42.666667 42.666666 55.466667 17.066667 12.8 27.733333 27.733333 29.866667 36.266666 2.133333-6.4 14.933333-23.466667 29.866667-36.266666 17.066667-12.8 42.666667-23.466667 42.666666-55.466667 0-55.466667-55.466667-66.133333-72.533333-19.2z m-49.066667 505.6s-8.533333-85.333333 0-128 0-61.866667-23.466666-64-59.733333 19.2-85.333334 25.6c-25.6 4.266667-72.533333 0-72.533333 0-10.666667 0-34.133333-2.133333-36.266667 38.4-2.133333 36.266667 49.066667 153.6 49.066667 153.6-27.733333 21.333333-72.533333 115.2-72.533333 115.2 6.4 25.6 85.333333 38.4 85.333333 38.4v115.2c0 25.6 23.466667 25.6 23.466667 25.6h85.333333c27.733333 0 23.466667-38.4 23.466667-38.4v-115.2c64 2.133333 128-66.133333 121.6-89.6-6.4-23.466667-98.133333-76.8-98.133334-76.8zM490.666667 657.066667v-204.8c0-29.866667-25.6-64-49.066667-64-27.733333 0-53.333333 23.466667-100.266667 25.6-49.066667 2.133333-46.933333-23.466667-87.466666-25.6-46.933333-2.133333-59.733333 49.066667-59.733334 49.066666S192 593.066667 192 657.066667c0 57.6 49.066667 64 49.066667 64v166.4c0 51.2 49.066667 51.2 49.066666 51.2h110.933334c40.533333 0 36.266667-51.2 36.266666-51.2v-166.4c51.2 0 53.333333-64 53.333334-64z" fill="" /></svg>