<?xml version="1.0" encoding="utf-8"?>
<svg viewBox="0 0 875.587 536.561" xmlns="http://www.w3.org/2000/svg">
  <g transform="matrix(0.136825, 0, 0, -0.132692, 77.572449, 560.872192)" fill="#000000" stroke="none" style="">
    <path d="M2419 4215 c-668 -109 -1180 -595 -1319 -1250 -27 -128 -37 -365 -21 -500 79 -672 577 -1217 1249 -1368 84 -18 128 -21 322 -21 249 -1 324 10 512 75 568 195 980 699 1059 1294 18 142 6 415 -24 545 -29 121 -81 268 -126 358 -223 442 -622 749 -1106 852 -131 28 -419 36 -546 15z m350 -35 c146 -13 241 -33 371 -77 390 -132 705 -408 887 -776 215 -435 214 -922 -3 -1362 -164 -334 -468 -612 -814 -746 -472 -182 -988 -127 -1405 149 -396 263 -641 676 -686 1158 -19 208 13 443 90 651 205 557 719 950 1308 1002 128 12 128 12 252 1z" style="fill: rgb(0, 90, 142);"/>
    <path d="M2463 4149 c-39 -5 -116 -20 -170 -33 -280 -71 -507 -199 -708 -401 -414 -414 -551 -1014 -358 -1568 78 -225 204 -419 379 -587 206 -196 423 -313 715 -386 108 -27 126 -28 329 -28 203 0 221 1 330 28 308 76 540 206 747 417 541 552 582 1406 95 2010 -323 401 -838 609 -1359 548z m-132 -337 c15 -44 37 -58 32 -21 -2 11 7 19 25 22 36 7 38 3 13 -22 -31 -31 -26 -50 19 -69 40 -17 52 -32 26 -32 -8 0 -21 -3 -30 -6 -10 -4 -16 -1 -16 9 0 8 -7 18 -16 21 -24 9 -28 1 -8 -18 9 -9 15 -18 13 -19 -20 -14 -141 -46 -153 -41 -24 9 -19 41 9 66 27 23 25 38 -5 38 -13 0 -17 -5 -14 -15 4 -9 0 -15 -10 -15 -24 0 -19 28 9 46 33 22 54 12 72 -36 16 -39 50 -58 39 -22 -2 9 -12 43 -20 74 -9 31 -22 58 -29 61 -9 3 -9 8 2 21 17 21 22 16 42 -42z m691 41 c23 -20 23 -32 -1 -57 -14 -16 -17 -27 -10 -45 7 -19 12 -21 24 -11 7 6 11 18 8 26 -4 11 0 12 27 2 29 -10 31 -12 14 -21 -41 -22 -54 -39 -43 -58 5 -11 16 -19 24 -19 8 0 15 -4 15 -10 0 -18 -39 -11 -50 9 -8 15 -17 18 -48 14 -28 -4 -43 -1 -55 12 -24 24 -21 62 7 80 17 12 22 22 18 42 -3 18 1 30 13 40 24 17 35 17 57 -4z m-392 -13 c0 -6 8 -5 20 2 15 9 22 10 31 1 16 -16 1 -37 -16 -23 -9 8 -14 6 -19 -6 -11 -28 -7 -84 7 -85 6 0 -3 -5 -22 -10 -31 -9 -61 -2 -33 8 7 3 12 22 12 48 0 25 -5 45 -12 48 -10 4 -9 8 2 16 19 14 30 14 30 1z m155 -3 c11 -9 15 -19 10 -27 -6 -10 -11 -9 -21 4 -7 11 -18 15 -25 10 -9 -5 -3 -15 20 -35 34 -28 38 -54 10 -72 -26 -16 -71 0 -67 24 3 21 23 27 23 7 0 -7 8 -14 18 -16 24 -5 22 25 -3 33 -33 10 -45 43 -24 66 20 22 34 24 59 6z m-245 -17 c29 -29 26 -50 -7 -50 -37 0 -54 -12 -43 -29 5 -9 18 -12 39 -8 35 7 42 -7 12 -23 -29 -15 -49 -12 -71 10 -37 37 -13 120 35 120 8 0 24 -9 35 -20z m-435 -70 c-8 -13 73 -128 94 -132 11 -3 7 -9 -15 -21 -32 -16 -32 -16 -38 11 -3 15 -15 38 -26 52 -18 21 -21 22 -16 5 12 -47 18 -115 10 -115 -5 0 -20 9 -34 21 -14 11 -38 29 -54 41 l-29 22 24 -43 c13 -24 30 -46 37 -48 19 -8 14 -19 -13 -31 -22 -10 -25 -9 -25 8 0 29 -58 140 -72 140 -8 0 -6 6 4 17 16 15 21 13 78 -31 33 -26 60 -43 60 -38 0 5 -5 34 -11 65 -13 62 -8 87 16 87 9 0 13 -5 10 -10z m1172 -100 c-1 -60 -3 -110 -4 -110 -1 0 -18 10 -39 22 -34 20 -35 22 -15 29 28 11 27 33 -3 49 -33 17 -59 7 -51 -21 7 -20 6 -20 -25 -4 l-32 17 28 18 c16 10 54 39 84 64 30 25 56 46 57 46 1 0 1 -49 0 -110z m138 -56 c19 -19 15 -38 -9 -42 -14 -3 -17 1 -11 17 10 31 -30 28 -51 -4 -19 -29 -12 -55 16 -62 11 -3 17 -9 14 -14 -3 -5 1 -9 8 -9 19 0 108 92 108 112 0 20 8 22 29 9 12 -8 9 -15 -13 -41 l-27 -33 23 -11 c34 -17 34 -49 0 -88 -16 -18 -27 -39 -25 -45 8 -21 -12 -15 -37 12 -21 23 -22 25 -5 25 24 0 65 38 65 61 0 9 -9 19 -19 22 -22 6 -61 -30 -61 -56 0 -9 -3 -17 -6 -17 -6 0 -49 33 -96 75 -24 20 -23 46 3 79 24 30 69 35 94 10z m-588 -70 c312 -64 564 -283 667 -580 35 -100 49 -185 49 -304 -1 -403 -277 -754 -672 -857 -129 -33 -297 -35 -424 -4 -651 157 -905 923 -480 1446 120 147 303 256 504 300 88 19 263 18 356 -1z m-915 -29 c16 -14 39 -25 51 -25 20 0 20 0 -3 -25 -13 -14 -28 -25 -33 -25 -6 0 -7 3 -4 7 9 9 -43 63 -60 63 -8 0 -16 -7 -20 -16 -7 -19 44 -75 63 -67 22 8 16 -11 -11 -37 -23 -21 -25 -22 -25 -5 0 24 -38 65 -61 65 -9 0 -20 -7 -23 -17 -8 -20 30 -63 56 -63 24 0 23 -13 -3 -36 -12 -10 -25 -28 -30 -39 -25 -55 -47 -80 -70 -80 -22 0 -24 4 -24 45 0 33 -4 45 -15 45 -9 0 -15 -9 -15 -22 0 -28 -13 -40 -21 -19 -10 25 4 64 26 71 12 4 33 -3 57 -19 38 -26 63 -22 63 12 0 22 -40 62 -62 62 -20 0 -21 1 -12 24 3 9 12 16 19 16 7 0 15 9 18 21 3 11 15 23 26 26 12 3 21 11 21 18 0 18 28 45 47 45 8 0 28 -11 45 -25z m1728 -60 c0 -8 -7 -15 -15 -15 -8 0 -15 7 -15 15 0 8 7 15 15 15 8 0 15 -7 15 -15z m-56 -11 c24 -9 20 -21 -19 -55 -19 -17 -35 -37 -35 -45 0 -22 -16 -17 -34 11 -15 23 -15 25 1 25 20 0 63 38 63 57 0 15 2 15 24 7z m74 -90 c27 -19 29 -55 3 -78 -18 -17 -20 -16 -37 13 -10 17 -23 30 -29 28 -18 -6 -17 -38 1 -58 15 -17 15 -19 1 -19 -23 0 -50 45 -44 72 6 22 50 57 72 58 6 0 21 -7 33 -16z m70 -109 c14 -31 15 -38 4 -31 -5 3 -21 -7 -36 -23 l-26 -28 32 5 c18 3 36 10 40 16 5 7 12 4 22 -9 9 -11 15 -22 16 -25 0 -3 -34 -6 -75 -8 -51 -1 -75 2 -75 9 0 6 16 29 35 50 19 22 35 46 35 54 0 23 16 18 28 -10z m-2060 -34 c12 -7 11 -14 -2 -39 -20 -40 -20 -42 4 -42 14 0 25 11 34 31 10 24 15 27 19 15 4 -9 2 -27 -3 -40 -15 -41 -62 -48 -104 -15 -32 25 -34 62 -4 83 25 18 37 19 56 7z m-78 -116 c0 -8 -5 -15 -11 -15 -20 0 3 -22 39 -37 28 -12 36 -12 43 -2 14 24 19 3 7 -29 -12 -31 -28 -43 -28 -21 0 14 -66 40 -84 33 -11 -4 -16 0 -16 15 0 12 5 21 10 21 6 0 10 6 9 13 -3 26 2 37 16 37 8 0 15 -7 15 -15z m2205 -2 c10 -10 15 -26 12 -41 -3 -16 2 -33 15 -46 11 -13 15 -22 8 -24 -7 -3 -5 -11 6 -23 13 -14 14 -23 7 -30 -15 -15 -34 -2 -26 16 3 11 -2 15 -18 15 -40 0 -69 -12 -69 -26 0 -8 -4 -14 -10 -14 -9 0 -12 11 -14 58 -1 9 -7 23 -13 30 -21 22 -16 69 9 86 29 21 72 20 93 -1z m-2183 -143 c19 -23 22 -56 12 -109 -6 -28 -8 -30 -23 -17 -20 17 -124 39 -150 31 -18 -5 -18 -3 -9 37 5 24 19 54 31 66 19 21 29 23 71 19 36 -3 55 -11 68 -27z m2166 -78 c2 -7 -3 -12 -12 -12 -18 0 -22 -25 -6 -35 5 -3 17 10 27 29 12 26 23 36 40 36 26 0 43 -31 35 -62 -5 -22 -32 -24 -32 -3 0 8 4 15 10 15 5 0 7 7 4 15 -5 12 -10 13 -20 4 -8 -6 -14 -16 -14 -22 0 -13 -30 -47 -41 -47 -16 0 -39 32 -39 54 0 38 37 60 48 28z m-713 -1167 c14 -13 25 -30 25 -38 0 -23 -40 -67 -60 -67 -30 0 -62 34 -62 65 0 30 32 65 59 65 7 0 25 -11 38 -25z m-737 -29 c12 -23 11 -31 -3 -52 -20 -30 -37 -38 -68 -30 -51 12 -54 96 -5 115 32 12 61 -1 76 -33z m386 -42 c37 -36 7 -104 -45 -104 -30 0 -59 31 -59 64 0 48 70 75 104 40z" style="fill: rgb(0, 90, 142);"/>
    <path d="M2262 3688 c-16 -16 -15 -28 2 -28 19 0 27 13 17 28 -5 9 -10 9 -19 0z" style="fill: rgb(0, 90, 142);"/>
    <path d="M2987 3844 c-11 -11 -8 -44 3 -44 15 0 24 30 13 41 -5 5 -12 6 -16 3z" style="fill: rgb(0, 90, 142);"/>
    <path d="M2950 3755 c-19 -23 -8 -50 23 -53 30 -4 33 4 15 43 -13 29 -21 31 -38 10z" style="fill: rgb(0, 90, 142);"/>
    <path d="M2487 3813 c-16 -16 -6 -30 18 -25 20 3 23 7 14 18 -13 15 -22 17 -32 7z" style="fill: rgb(0, 90, 142);"/>
    <path d="M3225 3691 c-16 -19 -17 -24 -5 -31 19 -12 33 2 28 30 l-3 22 -20 -21z" style="fill: rgb(0, 90, 142);"/>
    <path d="M2585 3275 c-33 -7 -75 -18 -93 -23 -192 -61 -321 -235 -322 -434 0 -45 -7 -69 -31 -115 -18 -32 -35 -62 -39 -68 -4 -5 -11 -24 -15 -42 -7 -35 16 -97 40 -107 8 -3 16 -30 20 -70 4 -37 11 -69 16 -72 5 -3 9 -33 9 -68 0 -52 4 -66 23 -83 41 -37 82 -46 173 -40 72 5 84 4 84 -9 0 -9 7 -40 16 -70 12 -42 20 -54 35 -54 11 0 22 6 25 13 5 13 -32 166 -43 177 -2 3 -56 5 -119 5 -130 0 -138 5 -128 68 4 27 1 45 -11 63 -9 14 -15 35 -12 45 3 10 1 22 -5 25 -6 4 -8 23 -4 43 6 42 0 56 -32 65 -46 15 -45 38 5 133 42 79 48 97 54 174 14 184 115 311 296 370 80 27 239 26 313 -1 225 -82 365 -336 306 -556 -33 -124 -131 -244 -241 -298 -33 -16 -63 -34 -67 -40 -9 -12 -5 -36 19 -136 23 -96 32 -110 62 -91 12 8 11 21 -2 88 -9 44 -19 86 -22 94 -3 9 13 23 52 44 66 34 160 123 196 187 47 80 69 165 70 263 0 50 -6 110 -13 135 -55 200 -215 346 -423 385 -91 17 -110 17 -192 0z" style="fill: rgb(0, 90, 142);"/>
    <path d="M2664 3126 c-9 -22 0 -69 13 -73 15 -5 27 38 18 66 -7 24 -23 27 -31 7z" style="fill: rgb(0, 90, 142);"/>
    <path d="M2480 3085 c0 -2 8 -20 17 -40 16 -33 43 -48 43 -25 0 22 -31 70 -45 70 -8 0 -15 -2 -15 -5z" style="fill: rgb(0, 90, 142);"/>
    <path d="M2836 3065 c-19 -29 -21 -55 -3 -55 11 0 47 58 47 75 0 15 -30 1 -44 -20z" style="fill: rgb(0, 90, 142);"/>
    <path d="M2625 2994 c-66 -17 -126 -67 -161 -134 -25 -48 -25 -153 0 -200 77 -148 263 -183 379 -72 54 52 72 95 72 172 0 40 -6 78 -17 100 -18 37 -79 100 -115 119 -25 13 -128 22 -158 15z m160 -82 c56 -39 78 -82 78 -153 -1 -70 -27 -118 -85 -156 -52 -35 -138 -37 -191 -4 -73 45 -109 129 -87 205 36 129 178 183 285 108z" style="fill: rgb(0, 90, 142);"/>
    <path d="M2350 2945 c0 -14 48 -45 70 -45 23 0 8 27 -25 43 -43 21 -45 21 -45 2z" style="fill: rgb(0, 90, 142);"/>
    <path d="M2963 2943 c-31 -16 -45 -43 -23 -43 22 0 70 31 70 45 0 18 -6 18 -47 -2z" style="fill: rgb(0, 90, 142);"/>
    <path d="M2307 2774 c-16 -17 -4 -24 39 -24 32 0 44 4 42 13 -5 13 -69 22 -81 11z" style="fill: rgb(0, 90, 142);"/>
    <path d="M2977 2774 c-16 -17 -4 -24 39 -24 32 0 44 4 42 13 -5 13 -69 22 -81 11z" style="fill: rgb(0, 90, 142);"/>
    <path d="M2373 2603 c-20 -13 -32 -43 -18 -43 17 0 75 36 75 47 0 17 -30 16 -57 -4z" style="fill: rgb(0, 90, 142);"/>
    <path d="M2930 2607 c0 -11 58 -47 75 -47 15 0 1 30 -20 44 -29 19 -55 21 -55 3z" style="fill: rgb(0, 90, 142);"/>
    <path d="M2497 2475 c-21 -43 -21 -45 -2 -45 14 0 45 48 45 70 0 23 -27 8 -43 -25z" style="fill: rgb(0, 90, 142);"/>
    <path d="M2820 2495 c0 -23 30 -65 46 -65 18 0 18 2 -3 45 -17 36 -43 48 -43 20z" style="fill: rgb(0, 90, 142);"/>
    <path d="M2664 2456 c-9 -22 0 -69 13 -73 15 -5 27 38 18 66 -7 24 -23 27 -31 7z" style="fill: rgb(0, 90, 142);"/>
    <path d="M1735 3250 c-7 -12 2 -30 16 -30 5 0 9 9 9 20 0 21 -15 27 -25 10z" style="fill: rgb(0, 90, 142);"/>
    <path d="M3620 3311 c0 -5 6 -14 14 -20 16 -13 32 2 21 19 -8 12 -35 13 -35 1z" style="fill: rgb(0, 90, 142);"/>
    <path d="M1615 3160 c-7 -11 2 -30 14 -30 5 0 11 9 14 20 5 21 -16 29 -28 10z" style="fill: rgb(0, 90, 142);"/>
    <path d="M3757 3050 c7 -28 22 -35 30 -15 3 10 0 21 -8 26 -22 14 -28 11 -22 -11z" style="fill: rgb(0, 90, 142);"/>
    <path d="M3710 3045 c-11 -13 -10 -21 0 -43 8 -15 13 -31 11 -36 -1 -5 12 -6 30 -2 17 3 35 6 40 6 5 0 9 7 9 16 0 11 -6 14 -20 9 -17 -5 -23 0 -35 29 -17 41 -18 41 -35 21z" style="fill: rgb(0, 90, 142);"/>
    <path d="M1488 2918 c-22 -19 -29 -45 -13 -52 7 -2 41 -8 74 -12 61 -7 61 -6 61 19 0 47 -82 77 -122 45z" style="fill: rgb(0, 90, 142);"/>
    <path d="M3001 1666 c-15 -17 1 -56 23 -56 23 0 41 30 29 48 -14 23 -37 26 -52 8z" style="fill: rgb(0, 90, 142);"/>
    <path d="M2255 1654 c-18 -19 -16 -33 7 -48 12 -7 21 -6 32 3 22 18 20 38 -3 51 -15 7 -24 6 -36 -6z" style="fill: rgb(0, 90, 142);"/>
    <path d="M2644 1585 c-10 -25 4 -47 28 -43 17 2 24 11 26 31 3 23 0 27 -23 27 -14 0 -28 -7 -31 -15z" style="fill: rgb(0, 90, 142);"/>
  </g>
  <rect y="427.259" width="865.587" height="100.762" style="stroke-width: 6px; stroke: rgb(0, 88, 141); fill: rgba(255, 255, 255, 0.47); visibility: hidden;" x="5"/>
  <path d="M 121.715 400.41 C 121.715 398.417 122.582 396.85 124.315 395.71 C 126.055 394.57 128.055 394 130.315 394 C 133.208 394 135.745 394.83 137.925 396.49 C 139.012 397.33 139.852 398.447 140.445 399.84 C 141.045 401.227 141.345 402.76 141.345 404.44 C 141.345 407.747 140.402 410.437 138.515 412.51 C 136.555 414.617 134.102 415.67 131.155 415.67 C 130.502 415.67 129.808 415.587 129.075 415.42 C 128.348 415.253 127.772 415.03 127.345 414.75 C 126.652 415.27 125.768 415.53 124.695 415.53 C 123.622 415.53 122.788 415.233 122.195 414.64 C 121.595 414.04 121.295 413.273 121.295 412.34 C 121.295 410.14 122.965 408.263 126.305 406.71 C 126.398 405.93 126.535 404.87 126.715 403.53 C 126.888 402.197 127.028 401.12 127.135 400.3 C 127.235 399.48 127.305 398.94 127.345 398.68 C 128.112 398.193 128.998 397.95 130.005 397.95 C 130.472 397.95 130.918 397.997 131.345 398.09 L 129.585 410.04 C 129.418 411.107 129.185 411.993 128.885 412.7 C 129.465 412.853 129.932 412.93 130.285 412.93 C 132.432 412.93 134.092 412.117 135.265 410.49 C 136.478 408.79 137.085 406.737 137.085 404.33 C 137.085 401.25 135.975 399.04 133.755 397.7 C 132.522 396.953 131.168 396.58 129.695 396.58 C 127.808 396.58 126.315 397.093 125.215 398.12 C 124.582 398.693 124.265 399.393 124.265 400.22 C 124.265 400.647 124.395 401.05 124.655 401.43 C 124.915 401.817 125.372 402.037 126.025 402.09 L 125.745 403.91 C 124.385 403.837 123.372 403.46 122.705 402.78 C 122.045 402.1 121.715 401.31 121.715 400.41 Z M 123.365 411.98 C 123.365 412.647 123.682 412.98 124.315 412.98 C 124.582 412.98 124.858 412.81 125.145 412.47 C 125.432 412.123 125.632 411.577 125.745 410.83 L 125.995 409.09 C 124.242 410.083 123.365 411.047 123.365 411.98 ZM 150.762 405.62 C 150.762 404.8 150.386 404.39 149.632 404.39 C 148.879 404.39 148.276 404.873 147.822 405.84 C 149.842 407.427 150.852 409.21 150.852 411.19 C 150.852 412.63 150.449 413.723 149.642 414.47 C 148.842 415.217 147.836 415.59 146.622 415.59 C 145.409 415.59 144.522 415.21 143.962 414.45 C 143.402 413.697 143.122 412.74 143.122 411.58 C 143.122 411.227 143.132 410.967 143.152 410.8 L 144.132 402.26 C 144.806 402.053 145.486 401.95 146.172 401.95 C 147.312 401.95 147.882 402.37 147.882 403.21 L 147.882 403.27 C 148.629 402.39 149.582 401.95 150.742 401.95 C 151.582 401.95 152.236 402.143 152.702 402.53 C 153.169 402.91 153.402 403.417 153.402 404.05 C 153.402 404.683 153.162 405.203 152.682 405.61 C 152.209 406.01 151.589 406.21 150.822 406.21 C 150.782 406.21 150.746 406.21 150.712 406.21 C 150.746 406.003 150.762 405.807 150.762 405.62 Z M 149.032 411.05 C 149.032 409.97 148.472 408.887 147.352 407.8 C 147.012 410.493 146.842 411.847 146.842 411.86 C 146.842 412.647 147.162 413.04 147.802 413.04 C 148.622 413.04 149.032 412.377 149.032 411.05 ZM 159.546 409.15 C 160.706 408.903 161.569 408.437 162.136 407.75 C 162.709 407.057 162.996 406.39 162.996 405.75 C 162.996 405.103 162.822 404.663 162.476 404.43 C 162.129 404.197 161.749 404.08 161.336 404.08 C 160.462 404.08 159.692 404.57 159.026 405.55 C 158.366 406.53 158.036 407.697 158.036 409.05 C 158.036 410.403 158.359 411.41 159.006 412.07 C 159.646 412.737 160.442 413.07 161.396 413.07 C 162.796 413.07 164.139 412.583 165.426 411.61 C 166.712 410.643 167.759 409.373 168.566 407.8 C 168.972 408.193 169.346 408.68 169.686 409.26 C 169.066 410.66 167.972 412.033 166.406 413.38 C 165.626 414.033 164.699 414.563 163.626 414.97 C 162.552 415.383 161.446 415.59 160.306 415.59 C 158.439 415.59 156.962 415.02 155.876 413.88 C 154.722 412.647 154.146 411.07 154.146 409.15 C 154.146 407.223 154.869 405.543 156.316 404.11 C 157.762 402.67 159.492 401.95 161.506 401.95 C 162.946 401.95 164.112 402.263 165.006 402.89 C 165.906 403.517 166.362 404.36 166.376 405.42 C 166.376 406.86 165.802 408.027 164.656 408.92 C 163.509 409.82 161.936 410.447 159.936 410.8 L 159.546 409.15 ZM 180.141 415.56 C 178.428 415.56 177.291 414.963 176.731 413.77 C 175.758 414.983 174.511 415.59 172.991 415.59 C 171.471 415.59 170.191 415.077 169.151 414.05 C 168.118 413.023 167.601 411.67 167.601 409.99 C 167.601 407.543 168.321 405.593 169.761 404.14 C 171.194 402.68 173.014 401.95 175.221 401.95 C 175.274 401.95 175.328 401.95 175.381 401.95 C 176.314 401.95 177.174 402.11 177.961 402.43 C 178.468 402.11 179.078 401.95 179.791 401.95 C 180.511 401.95 181.031 402.043 181.351 402.23 C 181.184 403.61 181.008 404.97 180.821 406.31 C 180.634 407.643 180.501 408.59 180.421 409.15 C 180.254 410.417 180.171 411.33 180.171 411.89 C 180.171 412.637 180.471 413.01 181.071 413.01 C 181.538 413.01 182.031 412.697 182.551 412.07 C 183.078 411.45 183.534 410.467 183.921 409.12 C 184.468 409.607 184.841 410.147 185.041 410.74 C 184.501 412.513 183.774 413.76 182.861 414.48 C 181.948 415.2 181.041 415.56 180.141 415.56 Z M 175.641 404.14 C 174.441 404.14 173.491 404.59 172.791 405.49 C 172.091 406.397 171.678 407.747 171.551 409.54 C 171.531 409.707 171.521 409.867 171.521 410.02 C 171.521 410.933 171.741 411.66 172.181 412.2 C 172.621 412.74 173.184 413.01 173.871 413.01 C 175.051 413.01 175.938 412.18 176.531 410.52 L 177.201 404.47 C 176.661 404.25 176.141 404.14 175.641 404.14 ZM 194.832 415.42 L 191.222 415.42 L 192.282 406.12 C 192.282 405.6 192.158 405.167 191.912 404.82 C 191.658 404.473 191.215 404.3 190.582 404.3 C 189.942 404.3 189.418 404.603 189.012 405.21 C 188.598 405.817 188.335 406.457 188.222 407.13 C 187.568 411.777 187.205 414.54 187.132 415.42 L 183.382 415.42 L 184.922 402.26 C 185.708 402.053 186.305 401.95 186.712 401.95 C 187.892 401.95 188.535 402.343 188.642 403.13 C 189.562 402.343 190.562 401.95 191.642 401.95 C 193.808 401.95 195.188 402.593 195.782 403.88 C 196.702 402.573 198.008 401.92 199.702 401.92 C 200.955 401.92 201.945 402.243 202.672 402.89 C 203.398 403.537 203.762 404.343 203.762 405.31 C 203.762 405.59 203.708 406.087 203.602 406.8 C 203.168 409.6 202.952 411.24 202.952 411.72 C 202.952 412.6 203.242 413.04 203.822 413.04 C 204.308 413.04 204.825 412.717 205.372 412.07 C 205.925 411.43 206.368 410.437 206.702 409.09 C 207.342 409.763 207.725 410.297 207.852 410.69 C 206.885 413.937 205.168 415.56 202.702 415.56 C 201.542 415.56 200.682 415.207 200.122 414.5 C 199.562 413.787 199.282 413.04 199.282 412.26 L 199.962 406.07 C 199.962 405.563 199.828 405.143 199.562 404.81 C 199.302 404.47 198.888 404.3 198.322 404.3 C 197.748 404.3 197.248 404.517 196.822 404.95 C 196.395 405.377 196.095 405.927 195.922 406.6 C 195.362 411.34 194.998 414.28 194.832 415.42 ZM 230.147 394.45 L 230.147 394.31 C 230.541 394.157 231.091 394.08 231.797 394.08 C 232.511 394.08 233.147 394.127 233.707 394.22 C 233.127 398.513 232.674 402.403 232.347 405.89 C 232.021 409.37 231.844 411.203 231.817 411.39 C 231.784 411.577 231.767 411.743 231.767 411.89 C 231.787 412.377 232.021 412.62 232.467 412.62 C 233.587 412.62 235.147 411.333 237.147 408.76 C 237.501 409.747 237.707 410.407 237.767 410.74 C 236.867 412.16 235.787 413.323 234.527 414.23 C 233.267 415.137 232.077 415.59 230.957 415.59 C 229.837 415.59 229.064 415.3 228.637 414.72 C 228.204 414.14 227.987 413.497 227.987 412.79 C 227.987 412.623 228.011 412.297 228.057 411.81 C 228.104 411.323 228.474 408.3 229.167 402.74 L 224.577 413.35 L 222.197 413.35 L 220.827 402.9 L 218.867 411.58 C 218.547 412.967 218.027 413.987 217.307 414.64 C 216.587 415.293 215.801 415.62 214.947 415.62 C 214.087 415.62 213.387 415.367 212.847 414.86 C 212.267 414.32 211.977 413.553 211.977 412.56 C 211.977 410.587 213.507 408.9 216.567 407.5 C 218.227 399.527 219.124 395.11 219.257 394.25 C 219.704 394.137 220.304 394.08 221.057 394.08 C 221.817 394.08 222.337 394.1 222.617 394.14 L 222.807 394.14 L 224.547 407.16 L 230.147 394.45 Z M 213.967 412.09 C 213.967 412.683 214.201 412.98 214.667 412.98 C 214.981 412.98 215.241 412.73 215.447 412.23 C 215.707 411.61 215.921 410.797 216.087 409.79 C 214.674 410.597 213.967 411.363 213.967 412.09 ZM 248.022 415.56 C 246.309 415.56 245.172 414.963 244.612 413.77 C 243.639 414.983 242.392 415.59 240.872 415.59 C 239.352 415.59 238.072 415.077 237.032 414.05 C 235.999 413.023 235.482 411.67 235.482 409.99 C 235.482 407.543 236.202 405.593 237.642 404.14 C 239.076 402.68 240.896 401.95 243.102 401.95 C 243.156 401.95 243.209 401.95 243.262 401.95 C 244.196 401.95 245.056 402.11 245.842 402.43 C 246.349 402.11 246.959 401.95 247.672 401.95 C 248.392 401.95 248.912 402.043 249.232 402.23 C 249.066 403.61 248.889 404.97 248.702 406.31 C 248.516 407.643 248.382 408.59 248.302 409.15 C 248.136 410.417 248.052 411.33 248.052 411.89 C 248.052 412.637 248.352 413.01 248.952 413.01 C 249.419 413.01 249.912 412.697 250.432 412.07 C 250.959 411.45 251.416 410.467 251.802 409.12 C 252.349 409.607 252.722 410.147 252.922 410.74 C 252.382 412.513 251.656 413.76 250.742 414.48 C 249.829 415.2 248.922 415.56 248.022 415.56 Z M 243.522 404.14 C 242.322 404.14 241.372 404.59 240.672 405.49 C 239.972 406.397 239.559 407.747 239.432 409.54 C 239.412 409.707 239.402 409.867 239.402 410.02 C 239.402 410.933 239.622 411.66 240.062 412.2 C 240.502 412.74 241.066 413.01 241.752 413.01 C 242.932 413.01 243.819 412.18 244.412 410.52 L 245.082 404.47 C 244.542 404.25 244.022 404.14 243.522 404.14 ZM 263.893 405.34 C 263.893 407.28 262.736 408.763 260.423 409.79 C 260.476 410.13 260.559 410.533 260.673 411 C 261.006 412.38 261.566 413.087 262.353 413.12 C 262.406 413.12 262.463 413.12 262.523 413.12 C 264.016 413.12 265.126 411.807 265.853 409.18 C 266.246 409.533 266.619 410.063 266.973 410.77 C 266.713 411.777 266.343 412.627 265.863 413.32 C 265.389 414.013 264.873 414.507 264.313 414.8 C 263.319 415.327 262.386 415.59 261.513 415.59 C 259.459 415.59 258.023 414.44 257.203 412.14 C 256.883 411.227 256.666 410.293 256.553 409.34 C 257.619 409.08 258.459 408.647 259.073 408.04 C 259.693 407.433 260.003 406.787 260.003 406.1 C 260.003 404.9 259.403 404.3 258.203 404.3 C 257.549 404.3 256.989 404.55 256.523 405.05 C 256.056 405.543 255.749 406.133 255.603 406.82 C 255.489 407.773 255.306 409.273 255.053 411.32 C 254.806 413.36 254.643 414.727 254.563 415.42 L 250.843 415.42 C 252.189 403.98 253.003 396.953 253.283 394.34 C 253.669 394.187 254.199 394.11 254.873 394.11 C 256.333 394.11 257.063 394.54 257.063 395.4 L 257.063 395.57 C 256.689 398.95 256.343 401.533 256.023 403.32 C 257.049 402.373 258.336 401.9 259.883 401.9 C 261.043 401.9 261.999 402.197 262.753 402.79 C 263.513 403.39 263.893 404.24 263.893 405.34 ZM 270.598 409.15 C 271.758 408.903 272.621 408.437 273.188 407.75 C 273.761 407.057 274.048 406.39 274.048 405.75 C 274.048 405.103 273.874 404.663 273.528 404.43 C 273.181 404.197 272.801 404.08 272.388 404.08 C 271.514 404.08 270.744 404.57 270.078 405.55 C 269.418 406.53 269.088 407.697 269.088 409.05 C 269.088 410.403 269.411 411.41 270.058 412.07 C 270.698 412.737 271.494 413.07 272.448 413.07 C 273.848 413.07 275.191 412.583 276.478 411.61 C 277.764 410.643 278.811 409.373 279.618 407.8 C 280.024 408.193 280.398 408.68 280.738 409.26 C 280.118 410.66 279.024 412.033 277.458 413.38 C 276.678 414.033 275.751 414.563 274.678 414.97 C 273.604 415.383 272.498 415.59 271.358 415.59 C 269.491 415.59 268.014 415.02 266.928 413.88 C 265.774 412.647 265.198 411.07 265.198 409.15 C 265.198 407.223 265.921 405.543 267.368 404.11 C 268.814 402.67 270.544 401.95 272.558 401.95 C 273.998 401.95 275.164 402.263 276.058 402.89 C 276.958 403.517 277.414 404.36 277.428 405.42 C 277.428 406.86 276.854 408.027 275.708 408.92 C 274.561 409.82 272.988 410.447 270.988 410.8 L 270.598 409.15 ZM 286.993 405.62 C 286.993 404.8 286.616 404.39 285.863 404.39 C 285.11 404.39 284.506 404.873 284.053 405.84 C 286.073 407.427 287.083 409.21 287.083 411.19 C 287.083 412.63 286.68 413.723 285.873 414.47 C 285.073 415.217 284.066 415.59 282.853 415.59 C 281.64 415.59 280.753 415.21 280.193 414.45 C 279.633 413.697 279.353 412.74 279.353 411.58 C 279.353 411.227 279.363 410.967 279.383 410.8 L 280.363 402.26 C 281.036 402.053 281.716 401.95 282.403 401.95 C 283.543 401.95 284.113 402.37 284.113 403.21 L 284.113 403.27 C 284.86 402.39 285.813 401.95 286.973 401.95 C 287.813 401.95 288.466 402.143 288.933 402.53 C 289.4 402.91 289.633 403.417 289.633 404.05 C 289.633 404.683 289.393 405.203 288.913 405.61 C 288.44 406.01 287.82 406.21 287.053 406.21 C 287.013 406.21 286.976 406.21 286.943 406.21 C 286.976 406.003 286.993 405.807 286.993 405.62 Z M 285.263 411.05 C 285.263 409.97 284.703 408.887 283.583 407.8 C 283.243 410.493 283.073 411.847 283.073 411.86 C 283.073 412.647 283.393 413.04 284.033 413.04 C 284.853 413.04 285.263 412.377 285.263 411.05 ZM 302.246 406.85 C 303.72 407.937 304.456 409.217 304.456 410.69 C 304.456 412.163 303.88 413.347 302.726 414.24 C 301.566 415.14 300.11 415.59 298.356 415.59 C 297.216 415.59 296.27 415.303 295.516 414.73 C 294.756 414.163 294.376 413.46 294.376 412.62 C 294.376 411.78 294.656 411.113 295.216 410.62 C 295.776 410.127 296.476 409.823 297.316 409.71 C 296.923 410.27 296.726 410.807 296.726 411.32 C 296.726 411.833 296.906 412.247 297.266 412.56 C 297.62 412.88 298.066 413.04 298.606 413.04 C 299.146 413.04 299.593 412.84 299.946 412.44 C 300.306 412.04 300.486 411.577 300.486 411.05 C 300.486 410.19 300.083 409.427 299.276 408.76 C 298.79 408.367 298.266 407.997 297.706 407.65 C 297.146 407.303 296.85 407.12 296.816 407.1 C 296.743 407.047 296.666 407 296.586 406.96 C 296.253 407.353 295.77 407.89 295.136 408.57 C 294.503 409.257 294 409.803 293.626 410.21 C 292.58 411.35 291.99 412.303 291.856 413.07 C 291.823 413.217 291.806 413.5 291.806 413.92 C 291.806 414.34 291.93 414.773 292.176 415.22 C 292.43 415.673 292.733 416.01 293.086 416.23 C 293.446 416.457 293.796 416.64 294.136 416.78 C 294.483 416.92 294.783 417.017 295.036 417.07 C 295.29 417.13 295.416 417.167 295.416 417.18 C 295.416 417.313 295.21 417.463 294.796 417.63 C 294.03 417.91 293.233 418.05 292.406 418.05 C 291.573 418.05 290.766 417.753 289.986 417.16 C 288.92 416.333 288.386 415.24 288.386 413.88 C 288.386 413.04 288.6 412.21 289.026 411.39 C 289.793 409.93 291.586 407.933 294.406 405.4 C 293.713 404.707 293.366 403.967 293.366 403.18 C 293.366 402.4 293.663 401.74 294.256 401.2 C 294.843 400.653 295.536 400.38 296.336 400.38 C 297.063 400.38 297.7 400.67 298.246 401.25 C 298.6 401.643 298.776 402.14 298.776 402.74 C 298.776 403.333 298.58 404.003 298.186 404.75 C 300.186 405.65 301.54 406.35 302.246 406.85 Z M 296.166 403.69 C 296.62 403.223 296.846 402.887 296.846 402.68 C 296.846 402.213 296.64 401.96 296.226 401.92 C 295.76 401.92 295.526 402.183 295.526 402.71 C 295.526 403.023 295.74 403.35 296.166 403.69 ZM 323.422 415.78 C 323.422 415.333 323.308 414.72 323.082 413.94 C 321.422 415.093 319.672 415.67 317.832 415.67 C 315.998 415.67 314.558 415.153 313.512 414.12 C 312.465 413.08 311.942 411.853 311.942 410.44 C 311.942 408.907 312.435 407.56 313.422 406.4 C 314.168 405.547 315.392 404.613 317.092 403.6 C 316.218 401.907 315.782 400.387 315.782 399.04 C 315.782 397.693 316.285 396.523 317.292 395.53 C 318.298 394.53 319.698 394.03 321.492 394.03 C 322.738 394.03 323.758 394.357 324.552 395.01 C 325.345 395.663 325.742 396.483 325.742 397.47 C 325.742 399.357 324.398 401.393 321.712 403.58 C 321.898 403.873 322.402 404.61 323.222 405.79 C 324.048 406.963 324.665 407.887 325.072 408.56 C 325.445 407.793 325.632 407.093 325.632 406.46 C 325.632 405.173 325.202 404.51 324.342 404.47 C 324.342 404.343 324.388 404.13 324.482 403.83 C 324.575 403.53 324.688 403.287 324.822 403.1 C 324.955 402.913 325.162 402.747 325.442 402.6 C 325.722 402.447 326.038 402.37 326.392 402.37 C 327.065 402.37 327.618 402.627 328.052 403.14 C 328.492 403.653 328.712 404.303 328.712 405.09 C 328.712 405.37 328.685 405.66 328.632 405.96 C 328.312 407.507 327.535 409.12 326.302 410.8 C 327.015 412.367 327.372 413.717 327.372 414.85 C 327.372 415.977 327.195 416.893 326.842 417.6 C 326.222 418.8 325.138 419.603 323.592 420.01 C 323.065 420.143 322.542 420.21 322.022 420.21 L 321.682 420.21 L 321.682 418.5 C 322.842 417.92 323.422 417.013 323.422 415.78 Z M 321.502 396.49 C 320.935 396.49 320.468 396.663 320.102 397.01 C 319.742 397.357 319.542 397.857 319.502 398.51 C 319.502 399.33 319.848 400.383 320.542 401.67 C 321.302 401.077 321.925 400.517 322.412 399.99 C 322.972 399.357 323.252 398.773 323.252 398.24 C 323.252 397.707 323.112 397.293 322.832 397 C 322.518 396.66 322.075 396.49 321.502 396.49 Z M 315.892 409.82 L 315.862 410.16 C 315.862 410.94 316.122 411.633 316.642 412.24 C 317.168 412.847 317.968 413.15 319.042 413.15 C 320.115 413.15 321.175 412.75 322.222 411.95 C 321.675 410.923 321.038 409.86 320.312 408.76 C 319.585 407.653 319.102 406.913 318.862 406.54 L 318.552 406.04 C 317.558 406.807 316.885 407.47 316.532 408.03 C 316.178 408.59 315.965 409.187 315.892 409.82 ZM 352.992 415.48 C 351.952 415.48 351.166 415.137 350.632 414.45 C 350.099 413.77 349.739 412.497 349.552 410.63 C 349.439 409.663 349.326 408.403 349.212 406.85 C 347.906 407.243 346.592 407.653 345.272 408.08 L 344.312 410.72 C 344.126 411.22 343.996 411.577 343.922 411.79 C 343.849 412.01 343.716 412.333 343.522 412.76 C 343.322 413.187 343.152 413.5 343.012 413.7 C 342.872 413.893 342.676 414.14 342.422 414.44 C 342.176 414.74 341.919 414.953 341.652 415.08 C 340.986 415.42 340.269 415.59 339.502 415.59 C 338.736 415.59 338.116 415.313 337.642 414.76 C 337.162 414.213 336.922 413.537 336.922 412.73 C 336.922 412.51 336.942 412.277 336.982 412.03 C 337.222 410.237 339.059 408.603 342.492 407.13 C 343.466 404.65 345.082 400.47 347.342 394.59 C 347.936 394.25 348.692 394.08 349.612 394.08 C 349.812 394.08 350.006 394.08 350.192 394.08 C 350.379 394.08 350.609 394.08 350.882 394.08 C 351.156 394.08 351.496 394.137 351.902 394.25 C 351.922 395.13 352.352 400.573 353.192 410.58 C 353.266 411.42 353.369 411.963 353.502 412.21 C 353.629 412.463 353.852 412.59 354.172 412.59 C 354.692 412.59 355.389 412.237 356.262 411.53 C 357.129 410.817 357.906 409.93 358.592 408.87 L 359.382 410.77 L 358.712 411.67 C 356.752 414.21 354.846 415.48 352.992 415.48 Z M 349.022 404.78 L 348.542 398.96 L 346.112 405.76 C 347.419 405.313 348.389 404.987 349.022 404.78 Z M 341.512 409.57 C 339.779 410.443 338.912 411.3 338.912 412.14 C 338.912 412.74 339.136 413.04 339.582 413.04 C 339.922 413.04 340.192 412.797 340.392 412.31 C 340.639 411.79 341.012 410.877 341.512 409.57 ZM 365.95 405.93 C 365.95 404.717 365.407 404.11 364.32 404.11 C 363.52 404.11 362.803 404.567 362.17 405.48 C 361.497 406.467 361.16 407.623 361.16 408.95 C 361.16 410.277 361.453 411.3 362.04 412.02 C 362.627 412.74 363.433 413.1 364.46 413.1 C 365.693 413.1 366.997 412.593 368.37 411.58 C 369.743 410.573 370.85 409.323 371.69 407.83 C 372.063 408.11 372.427 408.623 372.78 409.37 C 372.24 410.457 371.233 411.67 369.76 413.01 C 368.993 413.723 368.04 414.32 366.9 414.8 C 365.667 415.327 364.433 415.59 363.2 415.59 C 361.54 415.59 360.137 415.02 358.99 413.88 C 357.843 412.74 357.27 411.257 357.27 409.43 C 357.27 407.21 358.017 405.407 359.51 404.02 C 361.003 402.64 362.673 401.95 364.52 401.95 C 365.96 401.95 367.1 402.25 367.94 402.85 C 368.78 403.443 369.2 404.227 369.2 405.2 C 369.2 405.833 368.973 406.383 368.52 406.85 C 367.7 407.67 366.703 408.08 365.53 408.08 C 365.81 407.147 365.95 406.43 365.95 405.93 ZM 378.259 412.23 L 378.929 406.04 C 378.929 405.533 378.799 405.113 378.539 404.78 C 378.279 404.447 377.859 404.28 377.279 404.28 C 376.699 404.28 376.209 404.507 375.809 404.96 C 375.409 405.42 375.116 406.023 374.929 406.77 C 374.796 407.83 374.599 409.383 374.339 411.43 C 374.079 413.477 373.909 414.807 373.829 415.42 L 370.109 415.42 C 371.456 403.98 372.269 396.953 372.549 394.34 C 372.936 394.187 373.466 394.11 374.139 394.11 C 375.599 394.11 376.329 394.54 376.329 395.4 L 376.329 395.57 C 376.009 398.497 375.672 401.073 375.319 403.3 C 376.306 402.4 377.426 401.95 378.679 401.95 C 379.926 401.95 380.916 402.267 381.649 402.9 C 382.376 403.54 382.739 404.343 382.739 405.31 C 382.739 405.57 382.682 406.057 382.569 406.77 C 382.142 409.57 381.929 411.213 381.929 411.7 C 381.929 412.573 382.216 413.01 382.789 413.01 C 383.276 413.01 383.796 412.69 384.349 412.05 C 384.896 411.403 385.339 410.407 385.679 409.06 C 386.312 409.733 386.696 410.267 386.829 410.66 C 385.856 413.907 384.136 415.53 381.669 415.53 C 380.516 415.53 379.659 415.177 379.099 414.47 C 378.539 413.757 378.259 413.01 378.259 412.23 ZM 386.952 394.8 C 387.385 394.36 387.909 394.14 388.522 394.14 C 389.135 394.14 389.662 394.36 390.102 394.8 C 390.542 395.24 390.762 395.767 390.762 396.38 C 390.762 396.993 390.542 397.517 390.102 397.95 C 389.662 398.377 389.135 398.59 388.522 398.59 C 387.909 398.59 387.385 398.377 386.952 397.95 C 386.525 397.517 386.312 396.993 386.312 396.38 C 386.312 395.767 386.525 395.24 386.952 394.8 Z M 385.802 403.02 C 385.989 402.68 386.345 402.423 386.872 402.25 C 387.392 402.07 387.909 401.98 388.422 401.98 C 388.935 401.98 389.389 402.047 389.782 402.18 C 389.055 407.793 388.692 410.63 388.692 410.69 C 388.599 411.063 388.552 411.377 388.552 411.63 C 388.552 411.877 388.569 412.093 388.602 412.28 C 388.682 412.767 389.025 413.01 389.632 413.01 C 390.239 413.01 390.799 412.613 391.312 411.82 C 391.825 411.027 392.212 410.127 392.472 409.12 C 392.599 409.193 392.802 409.417 393.082 409.79 C 393.362 410.163 393.532 410.443 393.592 410.63 C 393.219 412.123 392.582 413.327 391.682 414.24 C 390.789 415.16 389.715 415.62 388.462 415.62 C 387.215 415.62 386.289 415.31 385.682 414.69 C 385.075 414.077 384.772 413.283 384.772 412.31 C 384.772 412.103 384.782 411.89 384.802 411.67 L 385.802 403.02 ZM 396.798 409.15 C 397.958 408.903 398.822 408.437 399.388 407.75 C 399.962 407.057 400.248 406.39 400.248 405.75 C 400.248 405.103 400.075 404.663 399.728 404.43 C 399.382 404.197 399.002 404.08 398.588 404.08 C 397.715 404.08 396.945 404.57 396.278 405.55 C 395.618 406.53 395.288 407.697 395.288 409.05 C 395.288 410.403 395.612 411.41 396.258 412.07 C 396.898 412.737 397.695 413.07 398.648 413.07 C 400.048 413.07 401.392 412.583 402.678 411.61 C 403.965 410.643 405.012 409.373 405.818 407.8 C 406.225 408.193 406.598 408.68 406.938 409.26 C 406.318 410.66 405.225 412.033 403.658 413.38 C 402.878 414.033 401.952 414.563 400.878 414.97 C 399.805 415.383 398.698 415.59 397.558 415.59 C 395.692 415.59 394.215 415.02 393.128 413.88 C 391.975 412.647 391.398 411.07 391.398 409.15 C 391.398 407.223 392.122 405.543 393.568 404.11 C 395.015 402.67 396.745 401.95 398.758 401.95 C 400.198 401.95 401.365 402.263 402.258 402.89 C 403.158 403.517 403.615 404.36 403.628 405.42 C 403.628 406.86 403.055 408.027 401.908 408.92 C 400.762 409.82 399.188 410.447 397.188 410.8 L 396.798 409.15 ZM 415.484 410.41 C 414.89 411.923 414.05 413.16 412.964 414.12 C 411.87 415.08 410.624 415.56 409.224 415.56 C 407.824 415.56 406.774 415.097 406.074 414.17 C 405.374 413.25 405.024 412.193 405.024 411 C 405.024 410.753 405.034 410.51 405.054 410.27 L 406.004 402.29 C 406.597 402.063 407.23 401.95 407.904 401.95 C 409.137 401.95 409.754 402.407 409.754 403.32 C 409.754 403.36 409.6 404.607 409.294 407.06 C 408.987 409.513 408.834 410.937 408.834 411.33 C 408.834 412.397 409.347 412.93 410.374 412.93 C 411.247 412.93 411.984 412.433 412.584 411.44 C 413.63 409.653 414.18 407.63 414.234 405.37 L 413.984 405.37 C 413.197 405.37 412.6 405.193 412.194 404.84 C 411.727 404.427 411.494 403.93 411.494 403.35 C 411.494 402.77 411.67 402.303 412.024 401.95 C 412.45 401.577 412.964 401.39 413.564 401.39 C 414.984 401.39 415.87 402.127 416.224 403.6 C 416.784 403.527 417.184 403.453 417.424 403.38 L 417.424 404.98 L 416.394 405.14 L 416.394 405.62 C 416.374 407.3 416.07 408.897 415.484 410.41 Z M 413.084 403.35 C 413.084 403.67 413.354 403.83 413.894 403.83 C 413.954 403.83 414.01 403.83 414.064 403.83 C 413.937 403.323 413.74 403.07 413.474 403.07 C 413.214 403.07 413.084 403.163 413.084 403.35 ZM 423.153 409.15 C 424.313 408.903 425.176 408.437 425.743 407.75 C 426.316 407.057 426.603 406.39 426.603 405.75 C 426.603 405.103 426.429 404.663 426.083 404.43 C 425.736 404.197 425.356 404.08 424.943 404.08 C 424.069 404.08 423.299 404.57 422.633 405.55 C 421.973 406.53 421.643 407.697 421.643 409.05 C 421.643 410.403 421.966 411.41 422.613 412.07 C 423.253 412.737 424.049 413.07 425.003 413.07 C 426.403 413.07 427.746 412.583 429.033 411.61 C 430.319 410.643 431.366 409.373 432.173 407.8 C 432.579 408.193 432.953 408.68 433.293 409.26 C 432.673 410.66 431.579 412.033 430.013 413.38 C 429.233 414.033 428.306 414.563 427.233 414.97 C 426.159 415.383 425.053 415.59 423.913 415.59 C 422.046 415.59 420.569 415.02 419.483 413.88 C 418.329 412.647 417.753 411.07 417.753 409.15 C 417.753 407.223 418.476 405.543 419.923 404.11 C 421.369 402.67 423.099 401.95 425.113 401.95 C 426.553 401.95 427.719 402.263 428.613 402.89 C 429.513 403.517 429.969 404.36 429.983 405.42 C 429.983 406.86 429.409 408.027 428.263 408.92 C 427.116 409.82 425.543 410.447 423.543 410.8 L 423.153 409.15 ZM 439.548 405.62 C 439.548 404.8 439.171 404.39 438.418 404.39 C 437.664 404.39 437.061 404.873 436.608 405.84 C 438.628 407.427 439.638 409.21 439.638 411.19 C 439.638 412.63 439.234 413.723 438.428 414.47 C 437.628 415.217 436.621 415.59 435.408 415.59 C 434.194 415.59 433.308 415.21 432.748 414.45 C 432.188 413.697 431.908 412.74 431.908 411.58 C 431.908 411.227 431.918 410.967 431.938 410.8 L 432.918 402.26 C 433.591 402.053 434.271 401.95 434.958 401.95 C 436.098 401.95 436.668 402.37 436.668 403.21 L 436.668 403.27 C 437.414 402.39 438.368 401.95 439.528 401.95 C 440.368 401.95 441.021 402.143 441.488 402.53 C 441.954 402.91 442.188 403.417 442.188 404.05 C 442.188 404.683 441.948 405.203 441.468 405.61 C 440.994 406.01 440.374 406.21 439.608 406.21 C 439.568 406.21 439.531 406.21 439.498 406.21 C 439.531 406.003 439.548 405.807 439.548 405.62 Z M 437.818 411.05 C 437.818 409.97 437.258 408.887 436.138 407.8 C 435.798 410.493 435.628 411.847 435.628 411.86 C 435.628 412.647 435.948 413.04 436.588 413.04 C 437.408 413.04 437.818 412.377 437.818 411.05 ZM 454.801 406.85 C 456.275 407.937 457.011 409.217 457.011 410.69 C 457.011 412.163 456.435 413.347 455.281 414.24 C 454.121 415.14 452.665 415.59 450.911 415.59 C 449.771 415.59 448.825 415.303 448.071 414.73 C 447.311 414.163 446.931 413.46 446.931 412.62 C 446.931 411.78 447.211 411.113 447.771 410.62 C 448.331 410.127 449.031 409.823 449.871 409.71 C 449.478 410.27 449.281 410.807 449.281 411.32 C 449.281 411.833 449.461 412.247 449.821 412.56 C 450.175 412.88 450.621 413.04 451.161 413.04 C 451.701 413.04 452.148 412.84 452.501 412.44 C 452.861 412.04 453.041 411.577 453.041 411.05 C 453.041 410.19 452.638 409.427 451.831 408.76 C 451.345 408.367 450.821 407.997 450.261 407.65 C 449.701 407.303 449.405 407.12 449.371 407.1 C 449.298 407.047 449.221 407 449.141 406.96 C 448.808 407.353 448.325 407.89 447.691 408.57 C 447.058 409.257 446.555 409.803 446.181 410.21 C 445.135 411.35 444.545 412.303 444.411 413.07 C 444.378 413.217 444.361 413.5 444.361 413.92 C 444.361 414.34 444.485 414.773 444.731 415.22 C 444.985 415.673 445.288 416.01 445.641 416.23 C 446.001 416.457 446.351 416.64 446.691 416.78 C 447.038 416.92 447.338 417.017 447.591 417.07 C 447.845 417.13 447.971 417.167 447.971 417.18 C 447.971 417.313 447.765 417.463 447.351 417.63 C 446.585 417.91 445.788 418.05 444.961 418.05 C 444.128 418.05 443.321 417.753 442.541 417.16 C 441.475 416.333 440.941 415.24 440.941 413.88 C 440.941 413.04 441.155 412.21 441.581 411.39 C 442.348 409.93 444.141 407.933 446.961 405.4 C 446.268 404.707 445.921 403.967 445.921 403.18 C 445.921 402.4 446.218 401.74 446.811 401.2 C 447.398 400.653 448.091 400.38 448.891 400.38 C 449.618 400.38 450.255 400.67 450.801 401.25 C 451.155 401.643 451.331 402.14 451.331 402.74 C 451.331 403.333 451.135 404.003 450.741 404.75 C 452.741 405.65 454.095 406.35 454.801 406.85 Z M 448.721 403.69 C 449.175 403.223 449.401 402.887 449.401 402.68 C 449.401 402.213 449.195 401.96 448.781 401.92 C 448.315 401.92 448.081 402.183 448.081 402.71 C 448.081 403.023 448.295 403.35 448.721 403.69 Z" transform="matrix(2.5255730152130127, 0, 0, 3.0165889263153076, -287.5528259277344, -746.7146606445312)" style="fill: rgb(0, 88, 141); stroke: rgb(223, 223, 223); white-space: pre;"/>
</svg>