<?xml version="1.0" standalone="no"?>
<!DOCTYPE svg PUBLIC "-//W3C//DTD SVG 20010904//EN"
 "http://www.w3.org/TR/2001/REC-SVG-20010904/DTD/svg10.dtd">
<svg version="1.0" xmlns="http://www.w3.org/2000/svg"
 width="218.000000pt" height="244.000000pt" viewBox="0 0 218.000000 244.000000"
 preserveAspectRatio="xMidYMid meet">
<metadata>
Created by potrace 1.14, written by Peter Selinger 2001-2017
</metadata>
<g transform="translate(0.000000,244.000000) scale(0.100000,-0.100000)"
fill="#000000" stroke="none">
<path d="M980 2389 c-52 -9 -115 -25 -139 -33 -24 -9 -50 -16 -57 -16 -8 0
-42 -13 -76 -30 -34 -16 -67 -30 -75 -30 -7 0 -13 -4 -13 -10 0 -5 -6 -10 -13
-10 -14 0 -153 -103 -180 -134 -10 -12 -30 -34 -45 -51 -66 -74 -135 -212
-165 -330 -13 -50 -22 -125 -24 -198 l-4 -118 -51 -97 c-28 -53 -64 -121 -79
-151 -16 -30 -32 -70 -35 -90 -13 -68 29 -166 81 -189 20 -10 24 -18 23 -60 0
-28 5 -59 11 -70 6 -11 11 -42 11 -68 0 -28 7 -59 19 -78 16 -26 19 -48 18
-134 l-2 -102 45 -40 c74 -65 133 -82 264 -76 61 2 132 8 158 11 36 5 49 4 52
-6 2 -8 16 -59 31 -114 32 -116 39 -131 65 -145 30 -16 64 22 57 63 -13 84
-73 281 -90 295 -25 20 -75 22 -161 7 -148 -25 -244 -17 -287 26 -19 19 -20
29 -14 102 7 84 4 95 -38 158 -14 21 -16 32 -7 55 13 33 13 35 -8 50 -16 12
-18 52 -7 117 8 44 -4 63 -45 72 -53 12 -80 42 -80 88 0 23 8 56 18 72 19 31
100 180 136 250 16 31 21 60 22 130 0 50 4 115 8 145 7 52 45 179 56 190 3 3
14 23 24 46 28 64 135 184 211 238 77 53 181 105 277 138 53 17 94 22 255 25
184 5 195 4 272 -20 258 -82 449 -247 564 -489 43 -91 52 -115 71 -205 17 -78
21 -253 6 -318 -31 -142 -57 -210 -115 -301 -50 -78 -51 -79 -137 -165 -64
-64 -212 -169 -238 -169 -4 0 -29 -12 -54 -26 -52 -29 -70 -61 -57 -96 5 -13
11 -41 15 -63 3 -22 11 -58 17 -80 11 -40 21 -88 34 -157 8 -42 40 -81 62 -76
9 2 25 15 35 29 17 23 18 31 9 65 -12 39 -61 273 -61 286 0 4 30 22 68 40 134
66 286 199 371 327 162 244 210 562 125 831 -25 80 -104 242 -144 293 -116
150 -235 245 -412 328 -90 43 -314 90 -417 88 -36 -1 -109 -10 -161 -20z"/>
<path d="M1122 2053 c3 -71 5 -78 24 -81 20 -3 22 2 26 50 6 85 0 108 -29 108
-23 0 -24 -1 -21 -77z"/>
<path d="M784 2025 c-13 -32 61 -145 84 -131 19 11 14 35 -19 92 -30 54 -54
68 -65 39z"/>
<path d="M1441 1986 c-18 -30 -31 -63 -29 -73 5 -28 39 -21 59 12 53 89 58
115 21 115 -11 0 -31 -22 -51 -54z"/>
<path d="M1045 1858 c-108 -27 -225 -114 -283 -211 -96 -160 -80 -374 38 -511
54 -64 81 -85 153 -120 267 -132 590 38 637 337 35 226 -116 449 -343 502 -69
16 -142 17 -202 3z m253 -117 c62 -32 127 -95 163 -158 30 -52 32 -61 32 -162
0 -91 -3 -112 -23 -151 -39 -75 -82 -120 -155 -161 -67 -37 -74 -39 -164 -39
-83 0 -100 3 -156 30 -135 65 -216 204 -201 348 15 148 99 251 256 316 8 3 58
4 110 2 74 -2 105 -8 138 -25z"/>
<path d="M526 1773 c-8 -21 6 -34 71 -68 54 -27 73 -27 73 3 0 18 -20 34 -82
64 -46 22 -54 22 -62 1z"/>
<path d="M1680 1757 c-95 -57 -73 -101 24 -47 63 36 69 42 60 64 -9 23 -22 20
-84 -17z"/>
<path d="M449 1438 c-22 -8 -24 -19 -7 -36 18 -18 133 -16 148 3 8 10 9 19 4
25 -12 11 -120 17 -145 8z"/>
<path d="M1702 1418 c3 -22 8 -23 78 -23 70 0 75 1 78 23 3 21 1 22 -78 22
-79 0 -81 -1 -78 -22z"/>
<path d="M1633 1153 c-25 -9 -12 -38 29 -67 51 -35 103 -41 103 -12 0 27 -104
89 -132 79z"/>
<path d="M567 1114 c-80 -59 -40 -86 51 -34 35 21 52 37 52 50 0 32 -48 25
-103 -16z"/>
<path d="M837 932 c-23 -26 -57 -95 -57 -115 0 -13 6 -17 22 -15 24 3 76 80
77 114 1 28 -23 37 -42 16z"/>
<path d="M1421 937 c-17 -17 -14 -31 20 -86 24 -38 38 -51 55 -51 29 0 30 23
3 65 -10 17 -23 40 -28 51 -12 26 -35 36 -50 21z"/>
<path d="M1133 863 c-19 -7 -18 -149 0 -156 26 -10 38 10 42 69 4 77 -8 101
-42 87z"/>
</g>
</svg>
