<?xml version="1.0" standalone="no"?>
<!DOCTYPE svg PUBLIC "-//W3C//DTD SVG 20010904//EN"
 "http://www.w3.org/TR/2001/REC-SVG-20010904/DTD/svg10.dtd">
<svg version="1.0" xmlns="http://www.w3.org/2000/svg"
 width="104.000000pt" height="181.000000pt" viewBox="0 0 104.000000 181.000000"
 preserveAspectRatio="xMidYMid meet">
<metadata>
Created by potrace 1.15, written by Peter Selinger 2001-2017
</metadata>
<g transform="translate(0.000000,181.000000) scale(0.100000,-0.100000)"
fill="#000000" stroke="none">
<path d="M862 1773 c-68 -88 -88 -174 -53 -230 29 -46 55 -43 70 7 6 22 16 40
21 40 5 0 15 -18 21 -40 15 -50 41 -53 70 -7 24 38 21 105 -7 159 -21 41 -73
108 -84 108 -5 0 -22 -17 -38 -37z"/>
<path d="M365 1616 c-107 -48 -157 -192 -102 -296 33 -63 82 -98 158 -114 35
-8 57 -15 49 -15 -36 -2 -129 -57 -220 -128 l-98 -76 -31 -98 c-17 -53 -31
-106 -31 -117 0 -26 23 -44 52 -40 19 2 28 17 53 94 27 84 33 93 79 127 27 20
51 36 52 34 2 -1 -10 -51 -26 -111 -20 -72 -33 -156 -41 -254 l-12 -147 -59
-112 c-67 -126 -71 -159 -25 -181 53 -26 74 -8 149 127 l67 122 12 132 c6 73
12 133 13 134 1 2 56 -3 122 -10 l119 -12 35 -100 c41 -118 44 -123 77 -136
41 -16 83 14 83 61 0 41 -79 266 -101 285 -13 13 -49 22 -118 29 -55 6 -102
14 -105 17 -3 3 7 64 22 135 l28 129 119 61 c66 34 121 67 123 73 8 23 -9 81
-23 81 -8 0 -54 -17 -102 -39 -48 -21 -99 -41 -113 -45 -21 -6 -20 -4 7 13 77
49 113 165 79 255 -18 47 -79 110 -122 126 -36 14 -134 12 -169 -4z"/>
<path d="M760 1446 c0 -41 2 -45 27 -48 26 -3 27 -6 50 -128 33 -180 29 -170
63 -170 34 0 32 -4 60 150 28 151 27 150 56 150 22 0 24 4 24 45 l0 45 -140 0
-140 0 0 -44z"/>
<path d="M502 378 c-8 -8 -12 -53 -12 -135 l0 -123 -228 0 c-209 0 -230 -2
-245 -18 -21 -23 -22 -66 -1 -86 13 -14 54 -16 294 -16 266 0 280 1 290 19 5
11 10 72 10 135 l0 116 194 0 c214 0 226 3 226 60 0 58 -8 60 -274 60 -175 0
-245 -3 -254 -12z"/>
</g>
</svg>
