<?xml version="1.0" encoding="utf-8"?>
<svg viewBox="0 0 998.227 541.575" xmlns="http://www.w3.org/2000/svg">
  <g transform="matrix(0.136825, 0, 0, -0.132692, 112.095474, 560.872192)" fill="#000000" stroke="none" style="">
    <path d="M2419 4215 c-668 -109 -1180 -595 -1319 -1250 -27 -128 -37 -365 -21 -500 79 -672 577 -1217 1249 -1368 84 -18 128 -21 322 -21 249 -1 324 10 512 75 568 195 980 699 1059 1294 18 142 6 415 -24 545 -29 121 -81 268 -126 358 -223 442 -622 749 -1106 852 -131 28 -419 36 -546 15z m350 -35 c146 -13 241 -33 371 -77 390 -132 705 -408 887 -776 215 -435 214 -922 -3 -1362 -164 -334 -468 -612 -814 -746 -472 -182 -988 -127 -1405 149 -396 263 -641 676 -686 1158 -19 208 13 443 90 651 205 557 719 950 1308 1002 128 12 128 12 252 1z" style="fill: rgb(0, 90, 142);"/>
    <path d="M2463 4149 c-39 -5 -116 -20 -170 -33 -280 -71 -507 -199 -708 -401 -414 -414 -551 -1014 -358 -1568 78 -225 204 -419 379 -587 206 -196 423 -313 715 -386 108 -27 126 -28 329 -28 203 0 221 1 330 28 308 76 540 206 747 417 541 552 582 1406 95 2010 -323 401 -838 609 -1359 548z m-132 -337 c15 -44 37 -58 32 -21 -2 11 7 19 25 22 36 7 38 3 13 -22 -31 -31 -26 -50 19 -69 40 -17 52 -32 26 -32 -8 0 -21 -3 -30 -6 -10 -4 -16 -1 -16 9 0 8 -7 18 -16 21 -24 9 -28 1 -8 -18 9 -9 15 -18 13 -19 -20 -14 -141 -46 -153 -41 -24 9 -19 41 9 66 27 23 25 38 -5 38 -13 0 -17 -5 -14 -15 4 -9 0 -15 -10 -15 -24 0 -19 28 9 46 33 22 54 12 72 -36 16 -39 50 -58 39 -22 -2 9 -12 43 -20 74 -9 31 -22 58 -29 61 -9 3 -9 8 2 21 17 21 22 16 42 -42z m691 41 c23 -20 23 -32 -1 -57 -14 -16 -17 -27 -10 -45 7 -19 12 -21 24 -11 7 6 11 18 8 26 -4 11 0 12 27 2 29 -10 31 -12 14 -21 -41 -22 -54 -39 -43 -58 5 -11 16 -19 24 -19 8 0 15 -4 15 -10 0 -18 -39 -11 -50 9 -8 15 -17 18 -48 14 -28 -4 -43 -1 -55 12 -24 24 -21 62 7 80 17 12 22 22 18 42 -3 18 1 30 13 40 24 17 35 17 57 -4z m-392 -13 c0 -6 8 -5 20 2 15 9 22 10 31 1 16 -16 1 -37 -16 -23 -9 8 -14 6 -19 -6 -11 -28 -7 -84 7 -85 6 0 -3 -5 -22 -10 -31 -9 -61 -2 -33 8 7 3 12 22 12 48 0 25 -5 45 -12 48 -10 4 -9 8 2 16 19 14 30 14 30 1z m155 -3 c11 -9 15 -19 10 -27 -6 -10 -11 -9 -21 4 -7 11 -18 15 -25 10 -9 -5 -3 -15 20 -35 34 -28 38 -54 10 -72 -26 -16 -71 0 -67 24 3 21 23 27 23 7 0 -7 8 -14 18 -16 24 -5 22 25 -3 33 -33 10 -45 43 -24 66 20 22 34 24 59 6z m-245 -17 c29 -29 26 -50 -7 -50 -37 0 -54 -12 -43 -29 5 -9 18 -12 39 -8 35 7 42 -7 12 -23 -29 -15 -49 -12 -71 10 -37 37 -13 120 35 120 8 0 24 -9 35 -20z m-435 -70 c-8 -13 73 -128 94 -132 11 -3 7 -9 -15 -21 -32 -16 -32 -16 -38 11 -3 15 -15 38 -26 52 -18 21 -21 22 -16 5 12 -47 18 -115 10 -115 -5 0 -20 9 -34 21 -14 11 -38 29 -54 41 l-29 22 24 -43 c13 -24 30 -46 37 -48 19 -8 14 -19 -13 -31 -22 -10 -25 -9 -25 8 0 29 -58 140 -72 140 -8 0 -6 6 4 17 16 15 21 13 78 -31 33 -26 60 -43 60 -38 0 5 -5 34 -11 65 -13 62 -8 87 16 87 9 0 13 -5 10 -10z m1172 -100 c-1 -60 -3 -110 -4 -110 -1 0 -18 10 -39 22 -34 20 -35 22 -15 29 28 11 27 33 -3 49 -33 17 -59 7 -51 -21 7 -20 6 -20 -25 -4 l-32 17 28 18 c16 10 54 39 84 64 30 25 56 46 57 46 1 0 1 -49 0 -110z m138 -56 c19 -19 15 -38 -9 -42 -14 -3 -17 1 -11 17 10 31 -30 28 -51 -4 -19 -29 -12 -55 16 -62 11 -3 17 -9 14 -14 -3 -5 1 -9 8 -9 19 0 108 92 108 112 0 20 8 22 29 9 12 -8 9 -15 -13 -41 l-27 -33 23 -11 c34 -17 34 -49 0 -88 -16 -18 -27 -39 -25 -45 8 -21 -12 -15 -37 12 -21 23 -22 25 -5 25 24 0 65 38 65 61 0 9 -9 19 -19 22 -22 6 -61 -30 -61 -56 0 -9 -3 -17 -6 -17 -6 0 -49 33 -96 75 -24 20 -23 46 3 79 24 30 69 35 94 10z m-588 -70 c312 -64 564 -283 667 -580 35 -100 49 -185 49 -304 -1 -403 -277 -754 -672 -857 -129 -33 -297 -35 -424 -4 -651 157 -905 923 -480 1446 120 147 303 256 504 300 88 19 263 18 356 -1z m-915 -29 c16 -14 39 -25 51 -25 20 0 20 0 -3 -25 -13 -14 -28 -25 -33 -25 -6 0 -7 3 -4 7 9 9 -43 63 -60 63 -8 0 -16 -7 -20 -16 -7 -19 44 -75 63 -67 22 8 16 -11 -11 -37 -23 -21 -25 -22 -25 -5 0 24 -38 65 -61 65 -9 0 -20 -7 -23 -17 -8 -20 30 -63 56 -63 24 0 23 -13 -3 -36 -12 -10 -25 -28 -30 -39 -25 -55 -47 -80 -70 -80 -22 0 -24 4 -24 45 0 33 -4 45 -15 45 -9 0 -15 -9 -15 -22 0 -28 -13 -40 -21 -19 -10 25 4 64 26 71 12 4 33 -3 57 -19 38 -26 63 -22 63 12 0 22 -40 62 -62 62 -20 0 -21 1 -12 24 3 9 12 16 19 16 7 0 15 9 18 21 3 11 15 23 26 26 12 3 21 11 21 18 0 18 28 45 47 45 8 0 28 -11 45 -25z m1728 -60 c0 -8 -7 -15 -15 -15 -8 0 -15 7 -15 15 0 8 7 15 15 15 8 0 15 -7 15 -15z m-56 -11 c24 -9 20 -21 -19 -55 -19 -17 -35 -37 -35 -45 0 -22 -16 -17 -34 11 -15 23 -15 25 1 25 20 0 63 38 63 57 0 15 2 15 24 7z m74 -90 c27 -19 29 -55 3 -78 -18 -17 -20 -16 -37 13 -10 17 -23 30 -29 28 -18 -6 -17 -38 1 -58 15 -17 15 -19 1 -19 -23 0 -50 45 -44 72 6 22 50 57 72 58 6 0 21 -7 33 -16z m70 -109 c14 -31 15 -38 4 -31 -5 3 -21 -7 -36 -23 l-26 -28 32 5 c18 3 36 10 40 16 5 7 12 4 22 -9 9 -11 15 -22 16 -25 0 -3 -34 -6 -75 -8 -51 -1 -75 2 -75 9 0 6 16 29 35 50 19 22 35 46 35 54 0 23 16 18 28 -10z m-2060 -34 c12 -7 11 -14 -2 -39 -20 -40 -20 -42 4 -42 14 0 25 11 34 31 10 24 15 27 19 15 4 -9 2 -27 -3 -40 -15 -41 -62 -48 -104 -15 -32 25 -34 62 -4 83 25 18 37 19 56 7z m-78 -116 c0 -8 -5 -15 -11 -15 -20 0 3 -22 39 -37 28 -12 36 -12 43 -2 14 24 19 3 7 -29 -12 -31 -28 -43 -28 -21 0 14 -66 40 -84 33 -11 -4 -16 0 -16 15 0 12 5 21 10 21 6 0 10 6 9 13 -3 26 2 37 16 37 8 0 15 -7 15 -15z m2205 -2 c10 -10 15 -26 12 -41 -3 -16 2 -33 15 -46 11 -13 15 -22 8 -24 -7 -3 -5 -11 6 -23 13 -14 14 -23 7 -30 -15 -15 -34 -2 -26 16 3 11 -2 15 -18 15 -40 0 -69 -12 -69 -26 0 -8 -4 -14 -10 -14 -9 0 -12 11 -14 58 -1 9 -7 23 -13 30 -21 22 -16 69 9 86 29 21 72 20 93 -1z m-2183 -143 c19 -23 22 -56 12 -109 -6 -28 -8 -30 -23 -17 -20 17 -124 39 -150 31 -18 -5 -18 -3 -9 37 5 24 19 54 31 66 19 21 29 23 71 19 36 -3 55 -11 68 -27z m2166 -78 c2 -7 -3 -12 -12 -12 -18 0 -22 -25 -6 -35 5 -3 17 10 27 29 12 26 23 36 40 36 26 0 43 -31 35 -62 -5 -22 -32 -24 -32 -3 0 8 4 15 10 15 5 0 7 7 4 15 -5 12 -10 13 -20 4 -8 -6 -14 -16 -14 -22 0 -13 -30 -47 -41 -47 -16 0 -39 32 -39 54 0 38 37 60 48 28z m-713 -1167 c14 -13 25 -30 25 -38 0 -23 -40 -67 -60 -67 -30 0 -62 34 -62 65 0 30 32 65 59 65 7 0 25 -11 38 -25z m-737 -29 c12 -23 11 -31 -3 -52 -20 -30 -37 -38 -68 -30 -51 12 -54 96 -5 115 32 12 61 -1 76 -33z m386 -42 c37 -36 7 -104 -45 -104 -30 0 -59 31 -59 64 0 48 70 75 104 40z" style="fill: rgb(0, 90, 142);"/>
    <path d="M2262 3688 c-16 -16 -15 -28 2 -28 19 0 27 13 17 28 -5 9 -10 9 -19 0z" style="fill: rgb(0, 90, 142);"/>
    <path d="M2987 3844 c-11 -11 -8 -44 3 -44 15 0 24 30 13 41 -5 5 -12 6 -16 3z" style="fill: rgb(0, 90, 142);"/>
    <path d="M2950 3755 c-19 -23 -8 -50 23 -53 30 -4 33 4 15 43 -13 29 -21 31 -38 10z" style="fill: rgb(0, 90, 142);"/>
    <path d="M2487 3813 c-16 -16 -6 -30 18 -25 20 3 23 7 14 18 -13 15 -22 17 -32 7z" style="fill: rgb(0, 90, 142);"/>
    <path d="M3225 3691 c-16 -19 -17 -24 -5 -31 19 -12 33 2 28 30 l-3 22 -20 -21z" style="fill: rgb(0, 90, 142);"/>
    <path d="M2585 3275 c-33 -7 -75 -18 -93 -23 -192 -61 -321 -235 -322 -434 0 -45 -7 -69 -31 -115 -18 -32 -35 -62 -39 -68 -4 -5 -11 -24 -15 -42 -7 -35 16 -97 40 -107 8 -3 16 -30 20 -70 4 -37 11 -69 16 -72 5 -3 9 -33 9 -68 0 -52 4 -66 23 -83 41 -37 82 -46 173 -40 72 5 84 4 84 -9 0 -9 7 -40 16 -70 12 -42 20 -54 35 -54 11 0 22 6 25 13 5 13 -32 166 -43 177 -2 3 -56 5 -119 5 -130 0 -138 5 -128 68 4 27 1 45 -11 63 -9 14 -15 35 -12 45 3 10 1 22 -5 25 -6 4 -8 23 -4 43 6 42 0 56 -32 65 -46 15 -45 38 5 133 42 79 48 97 54 174 14 184 115 311 296 370 80 27 239 26 313 -1 225 -82 365 -336 306 -556 -33 -124 -131 -244 -241 -298 -33 -16 -63 -34 -67 -40 -9 -12 -5 -36 19 -136 23 -96 32 -110 62 -91 12 8 11 21 -2 88 -9 44 -19 86 -22 94 -3 9 13 23 52 44 66 34 160 123 196 187 47 80 69 165 70 263 0 50 -6 110 -13 135 -55 200 -215 346 -423 385 -91 17 -110 17 -192 0z" style="fill: rgb(0, 90, 142);"/>
    <path d="M2664 3126 c-9 -22 0 -69 13 -73 15 -5 27 38 18 66 -7 24 -23 27 -31 7z" style="fill: rgb(0, 90, 142);"/>
    <path d="M2480 3085 c0 -2 8 -20 17 -40 16 -33 43 -48 43 -25 0 22 -31 70 -45 70 -8 0 -15 -2 -15 -5z" style="fill: rgb(0, 90, 142);"/>
    <path d="M2836 3065 c-19 -29 -21 -55 -3 -55 11 0 47 58 47 75 0 15 -30 1 -44 -20z" style="fill: rgb(0, 90, 142);"/>
    <path d="M2625 2994 c-66 -17 -126 -67 -161 -134 -25 -48 -25 -153 0 -200 77 -148 263 -183 379 -72 54 52 72 95 72 172 0 40 -6 78 -17 100 -18 37 -79 100 -115 119 -25 13 -128 22 -158 15z m160 -82 c56 -39 78 -82 78 -153 -1 -70 -27 -118 -85 -156 -52 -35 -138 -37 -191 -4 -73 45 -109 129 -87 205 36 129 178 183 285 108z" style="fill: rgb(0, 90, 142);"/>
    <path d="M2350 2945 c0 -14 48 -45 70 -45 23 0 8 27 -25 43 -43 21 -45 21 -45 2z" style="fill: rgb(0, 90, 142);"/>
    <path d="M2963 2943 c-31 -16 -45 -43 -23 -43 22 0 70 31 70 45 0 18 -6 18 -47 -2z" style="fill: rgb(0, 90, 142);"/>
    <path d="M2307 2774 c-16 -17 -4 -24 39 -24 32 0 44 4 42 13 -5 13 -69 22 -81 11z" style="fill: rgb(0, 90, 142);"/>
    <path d="M2977 2774 c-16 -17 -4 -24 39 -24 32 0 44 4 42 13 -5 13 -69 22 -81 11z" style="fill: rgb(0, 90, 142);"/>
    <path d="M2373 2603 c-20 -13 -32 -43 -18 -43 17 0 75 36 75 47 0 17 -30 16 -57 -4z" style="fill: rgb(0, 90, 142);"/>
    <path d="M2930 2607 c0 -11 58 -47 75 -47 15 0 1 30 -20 44 -29 19 -55 21 -55 3z" style="fill: rgb(0, 90, 142);"/>
    <path d="M2497 2475 c-21 -43 -21 -45 -2 -45 14 0 45 48 45 70 0 23 -27 8 -43 -25z" style="fill: rgb(0, 90, 142);"/>
    <path d="M2820 2495 c0 -23 30 -65 46 -65 18 0 18 2 -3 45 -17 36 -43 48 -43 20z" style="fill: rgb(0, 90, 142);"/>
    <path d="M2664 2456 c-9 -22 0 -69 13 -73 15 -5 27 38 18 66 -7 24 -23 27 -31 7z" style="fill: rgb(0, 90, 142);"/>
    <path d="M1735 3250 c-7 -12 2 -30 16 -30 5 0 9 9 9 20 0 21 -15 27 -25 10z" style="fill: rgb(0, 90, 142);"/>
    <path d="M3620 3311 c0 -5 6 -14 14 -20 16 -13 32 2 21 19 -8 12 -35 13 -35 1z" style="fill: rgb(0, 90, 142);"/>
    <path d="M1615 3160 c-7 -11 2 -30 14 -30 5 0 11 9 14 20 5 21 -16 29 -28 10z" style="fill: rgb(0, 90, 142);"/>
    <path d="M3757 3050 c7 -28 22 -35 30 -15 3 10 0 21 -8 26 -22 14 -28 11 -22 -11z" style="fill: rgb(0, 90, 142);"/>
    <path d="M3710 3045 c-11 -13 -10 -21 0 -43 8 -15 13 -31 11 -36 -1 -5 12 -6 30 -2 17 3 35 6 40 6 5 0 9 7 9 16 0 11 -6 14 -20 9 -17 -5 -23 0 -35 29 -17 41 -18 41 -35 21z" style="fill: rgb(0, 90, 142);"/>
    <path d="M1488 2918 c-22 -19 -29 -45 -13 -52 7 -2 41 -8 74 -12 61 -7 61 -6 61 19 0 47 -82 77 -122 45z" style="fill: rgb(0, 90, 142);"/>
    <path d="M3001 1666 c-15 -17 1 -56 23 -56 23 0 41 30 29 48 -14 23 -37 26 -52 8z" style="fill: rgb(0, 90, 142);"/>
    <path d="M2255 1654 c-18 -19 -16 -33 7 -48 12 -7 21 -6 32 3 22 18 20 38 -3 51 -15 7 -24 6 -36 -6z" style="fill: rgb(0, 90, 142);"/>
    <path d="M2644 1585 c-10 -25 4 -47 28 -43 17 2 24 11 26 31 3 23 0 27 -23 27 -14 0 -28 -7 -31 -15z" style="fill: rgb(0, 90, 142);"/>
  </g>
  <rect y="427.259" width="865.587" height="100.762" style="stroke-width: 6px; stroke: rgb(0, 88, 141); fill: rgba(255, 255, 255, 0.47); visibility: hidden;" x="39.523"/>
  <path d="M 121.715 400.41 C 121.715 398.417 122.582 396.85 124.315 395.71 C 126.055 394.57 128.055 394 130.315 394 C 133.208 394 135.745 394.83 137.925 396.49 C 139.012 397.33 139.852 398.447 140.445 399.84 C 141.045 401.227 141.345 402.76 141.345 404.44 C 141.345 407.747 140.402 410.437 138.515 412.51 C 136.555 414.617 134.102 415.67 131.155 415.67 C 130.502 415.67 129.808 415.587 129.075 415.42 C 128.348 415.253 127.772 415.03 127.345 414.75 C 126.652 415.27 125.768 415.53 124.695 415.53 C 123.622 415.53 122.788 415.233 122.195 414.64 C 121.595 414.04 121.295 413.273 121.295 412.34 C 121.295 410.14 122.965 408.263 126.305 406.71 C 126.398 405.93 126.535 404.87 126.715 403.53 C 126.888 402.197 127.028 401.12 127.135 400.3 C 127.235 399.48 127.305 398.94 127.345 398.68 C 128.112 398.193 128.998 397.95 130.005 397.95 C 130.472 397.95 130.918 397.997 131.345 398.09 L 129.585 410.04 C 129.418 411.107 129.185 411.993 128.885 412.7 C 129.465 412.853 129.932 412.93 130.285 412.93 C 132.432 412.93 134.092 412.117 135.265 410.49 C 136.478 408.79 137.085 406.737 137.085 404.33 C 137.085 401.25 135.975 399.04 133.755 397.7 C 132.522 396.953 131.168 396.58 129.695 396.58 C 127.808 396.58 126.315 397.093 125.215 398.12 C 124.582 398.693 124.265 399.393 124.265 400.22 C 124.265 400.647 124.395 401.05 124.655 401.43 C 124.915 401.817 125.372 402.037 126.025 402.09 L 125.745 403.91 C 124.385 403.837 123.372 403.46 122.705 402.78 C 122.045 402.1 121.715 401.31 121.715 400.41 Z M 123.365 411.98 C 123.365 412.647 123.682 412.98 124.315 412.98 C 124.582 412.98 124.858 412.81 125.145 412.47 C 125.432 412.123 125.632 411.577 125.745 410.83 L 125.995 409.09 C 124.242 410.083 123.365 411.047 123.365 411.98 ZM 150.765 405.62 C 150.765 404.8 150.389 404.39 149.635 404.39 C 148.882 404.39 148.279 404.873 147.825 405.84 C 149.845 407.427 150.855 409.21 150.855 411.19 C 150.855 412.63 150.452 413.723 149.645 414.47 C 148.845 415.217 147.839 415.59 146.625 415.59 C 145.412 415.59 144.525 415.21 143.965 414.45 C 143.405 413.697 143.125 412.74 143.125 411.58 C 143.125 411.227 143.135 410.967 143.155 410.8 L 144.135 402.26 C 144.809 402.053 145.489 401.95 146.175 401.95 C 147.315 401.95 147.885 402.37 147.885 403.21 L 147.885 403.27 C 148.632 402.39 149.585 401.95 150.745 401.95 C 151.585 401.95 152.239 402.143 152.705 402.53 C 153.172 402.91 153.405 403.417 153.405 404.05 C 153.405 404.683 153.165 405.203 152.685 405.61 C 152.212 406.01 151.592 406.21 150.825 406.21 C 150.785 406.21 150.749 406.21 150.715 406.21 C 150.749 406.003 150.765 405.807 150.765 405.62 Z M 149.035 411.05 C 149.035 409.97 148.475 408.887 147.355 407.8 C 147.015 410.493 146.845 411.847 146.845 411.86 C 146.845 412.647 147.165 413.04 147.805 413.04 C 148.625 413.04 149.035 412.377 149.035 411.05 ZM 159.55 409.15 C 160.71 408.903 161.574 408.437 162.14 407.75 C 162.714 407.057 163 406.39 163 405.75 C 163 405.103 162.827 404.663 162.48 404.43 C 162.134 404.197 161.754 404.08 161.34 404.08 C 160.467 404.08 159.697 404.57 159.03 405.55 C 158.37 406.53 158.04 407.697 158.04 409.05 C 158.04 410.403 158.364 411.41 159.01 412.07 C 159.65 412.737 160.447 413.07 161.4 413.07 C 162.8 413.07 164.144 412.583 165.43 411.61 C 166.717 410.643 167.764 409.373 168.57 407.8 C 168.977 408.193 169.35 408.68 169.69 409.26 C 169.07 410.66 167.977 412.033 166.41 413.38 C 165.63 414.033 164.704 414.563 163.63 414.97 C 162.557 415.383 161.45 415.59 160.31 415.59 C 158.444 415.59 156.967 415.02 155.88 413.88 C 154.727 412.647 154.15 411.07 154.15 409.15 C 154.15 407.223 154.874 405.543 156.32 404.11 C 157.767 402.67 159.497 401.95 161.51 401.95 C 162.95 401.95 164.117 402.263 165.01 402.89 C 165.91 403.517 166.367 404.36 166.38 405.42 C 166.38 406.86 165.807 408.027 164.66 408.92 C 163.514 409.82 161.94 410.447 159.94 410.8 L 159.55 409.15 ZM 180.147 415.56 C 178.434 415.56 177.297 414.963 176.737 413.77 C 175.764 414.983 174.517 415.59 172.997 415.59 C 171.477 415.59 170.197 415.077 169.157 414.05 C 168.124 413.023 167.607 411.67 167.607 409.99 C 167.607 407.543 168.327 405.593 169.767 404.14 C 171.201 402.68 173.021 401.95 175.227 401.95 C 175.281 401.95 175.334 401.95 175.387 401.95 C 176.321 401.95 177.181 402.11 177.967 402.43 C 178.474 402.11 179.084 401.95 179.797 401.95 C 180.517 401.95 181.037 402.043 181.357 402.23 C 181.191 403.61 181.014 404.97 180.827 406.31 C 180.641 407.643 180.507 408.59 180.427 409.15 C 180.261 410.417 180.177 411.33 180.177 411.89 C 180.177 412.637 180.477 413.01 181.077 413.01 C 181.544 413.01 182.037 412.697 182.557 412.07 C 183.084 411.45 183.541 410.467 183.927 409.12 C 184.474 409.607 184.847 410.147 185.047 410.74 C 184.507 412.513 183.781 413.76 182.867 414.48 C 181.954 415.2 181.047 415.56 180.147 415.56 Z M 175.647 404.14 C 174.447 404.14 173.497 404.59 172.797 405.49 C 172.097 406.397 171.684 407.747 171.557 409.54 C 171.537 409.707 171.527 409.867 171.527 410.02 C 171.527 410.933 171.747 411.66 172.187 412.2 C 172.627 412.74 173.191 413.01 173.877 413.01 C 175.057 413.01 175.944 412.18 176.537 410.52 L 177.207 404.47 C 176.667 404.25 176.147 404.14 175.647 404.14 ZM 194.84 415.42 L 191.23 415.42 L 192.29 406.12 C 192.29 405.6 192.167 405.167 191.92 404.82 C 191.667 404.473 191.223 404.3 190.59 404.3 C 189.95 404.3 189.427 404.603 189.02 405.21 C 188.607 405.817 188.343 406.457 188.23 407.13 C 187.577 411.777 187.213 414.54 187.14 415.42 L 183.39 415.42 L 184.93 402.26 C 185.717 402.053 186.313 401.95 186.72 401.95 C 187.9 401.95 188.543 402.343 188.65 403.13 C 189.57 402.343 190.57 401.95 191.65 401.95 C 193.817 401.95 195.197 402.593 195.79 403.88 C 196.71 402.573 198.017 401.92 199.71 401.92 C 200.963 401.92 201.953 402.243 202.68 402.89 C 203.407 403.537 203.77 404.343 203.77 405.31 C 203.77 405.59 203.717 406.087 203.61 406.8 C 203.177 409.6 202.96 411.24 202.96 411.72 C 202.96 412.6 203.25 413.04 203.83 413.04 C 204.317 413.04 204.833 412.717 205.38 412.07 C 205.933 411.43 206.377 410.437 206.71 409.09 C 207.35 409.763 207.733 410.297 207.86 410.69 C 206.893 413.937 205.177 415.56 202.71 415.56 C 201.55 415.56 200.69 415.207 200.13 414.5 C 199.57 413.787 199.29 413.04 199.29 412.26 L 199.97 406.07 C 199.97 405.563 199.837 405.143 199.57 404.81 C 199.31 404.47 198.897 404.3 198.33 404.3 C 197.757 404.3 197.257 404.517 196.83 404.95 C 196.403 405.377 196.103 405.927 195.93 406.6 C 195.37 411.34 195.007 414.28 194.84 415.42 ZM 230.16 394.45 L 230.16 394.31 C 230.553 394.157 231.103 394.08 231.81 394.08 C 232.523 394.08 233.16 394.127 233.72 394.22 C 233.14 398.513 232.686 402.403 232.36 405.89 C 232.033 409.37 231.856 411.203 231.83 411.39 C 231.796 411.577 231.78 411.743 231.78 411.89 C 231.8 412.377 232.033 412.62 232.48 412.62 C 233.6 412.62 235.16 411.333 237.16 408.76 C 237.513 409.747 237.72 410.407 237.78 410.74 C 236.88 412.16 235.8 413.323 234.54 414.23 C 233.28 415.137 232.09 415.59 230.97 415.59 C 229.85 415.59 229.076 415.3 228.65 414.72 C 228.216 414.14 228 413.497 228 412.79 C 228 412.623 228.023 412.297 228.07 411.81 C 228.116 411.323 228.486 408.3 229.18 402.74 L 224.59 413.35 L 222.21 413.35 L 220.84 402.9 L 218.88 411.58 C 218.56 412.967 218.04 413.987 217.32 414.64 C 216.6 415.293 215.813 415.62 214.96 415.62 C 214.1 415.62 213.4 415.367 212.86 414.86 C 212.28 414.32 211.99 413.553 211.99 412.56 C 211.99 410.587 213.52 408.9 216.58 407.5 C 218.24 399.527 219.136 395.11 219.27 394.25 C 219.716 394.137 220.316 394.08 221.07 394.08 C 221.83 394.08 222.35 394.1 222.63 394.14 L 222.82 394.14 L 224.56 407.16 L 230.16 394.45 Z M 213.98 412.09 C 213.98 412.683 214.213 412.98 214.68 412.98 C 214.993 412.98 215.253 412.73 215.46 412.23 C 215.72 411.61 215.933 410.797 216.1 409.79 C 214.686 410.597 213.98 411.363 213.98 412.09 ZM 248.038 415.56 C 246.324 415.56 245.188 414.963 244.628 413.77 C 243.654 414.983 242.408 415.59 240.888 415.59 C 239.368 415.59 238.088 415.077 237.048 414.05 C 236.014 413.023 235.498 411.67 235.498 409.99 C 235.498 407.543 236.218 405.593 237.658 404.14 C 239.091 402.68 240.911 401.95 243.118 401.95 C 243.171 401.95 243.224 401.95 243.278 401.95 C 244.211 401.95 245.071 402.11 245.858 402.43 C 246.364 402.11 246.974 401.95 247.688 401.95 C 248.408 401.95 248.928 402.043 249.248 402.23 C 249.081 403.61 248.904 404.97 248.718 406.31 C 248.531 407.643 248.398 408.59 248.318 409.15 C 248.151 410.417 248.068 411.33 248.068 411.89 C 248.068 412.637 248.368 413.01 248.968 413.01 C 249.434 413.01 249.928 412.697 250.448 412.07 C 250.974 411.45 251.431 410.467 251.818 409.12 C 252.364 409.607 252.738 410.147 252.938 410.74 C 252.398 412.513 251.671 413.76 250.758 414.48 C 249.844 415.2 248.938 415.56 248.038 415.56 Z M 243.538 404.14 C 242.338 404.14 241.388 404.59 240.688 405.49 C 239.988 406.397 239.574 407.747 239.448 409.54 C 239.428 409.707 239.418 409.867 239.418 410.02 C 239.418 410.933 239.638 411.66 240.078 412.2 C 240.518 412.74 241.081 413.01 241.768 413.01 C 242.948 413.01 243.834 412.18 244.428 410.52 L 245.098 404.47 C 244.558 404.25 244.038 404.14 243.538 404.14 ZM 263.91 405.34 C 263.91 407.28 262.754 408.763 260.44 409.79 C 260.494 410.13 260.577 410.533 260.69 411 C 261.024 412.38 261.584 413.087 262.37 413.12 C 262.424 413.12 262.48 413.12 262.54 413.12 C 264.034 413.12 265.144 411.807 265.87 409.18 C 266.264 409.533 266.637 410.063 266.99 410.77 C 266.73 411.777 266.36 412.627 265.88 413.32 C 265.407 414.013 264.89 414.507 264.33 414.8 C 263.337 415.327 262.404 415.59 261.53 415.59 C 259.477 415.59 258.04 414.44 257.22 412.14 C 256.9 411.227 256.684 410.293 256.57 409.34 C 257.637 409.08 258.477 408.647 259.09 408.04 C 259.71 407.433 260.02 406.787 260.02 406.1 C 260.02 404.9 259.42 404.3 258.22 404.3 C 257.567 404.3 257.007 404.55 256.54 405.05 C 256.074 405.543 255.767 406.133 255.62 406.82 C 255.507 407.773 255.324 409.273 255.07 411.32 C 254.824 413.36 254.66 414.727 254.58 415.42 L 250.86 415.42 C 252.207 403.98 253.02 396.953 253.3 394.34 C 253.687 394.187 254.217 394.11 254.89 394.11 C 256.35 394.11 257.08 394.54 257.08 395.4 L 257.08 395.57 C 256.707 398.95 256.36 401.533 256.04 403.32 C 257.067 402.373 258.354 401.9 259.9 401.9 C 261.06 401.9 262.017 402.197 262.77 402.79 C 263.53 403.39 263.91 404.24 263.91 405.34 ZM 270.617 409.15 C 271.777 408.903 272.64 408.437 273.207 407.75 C 273.78 407.057 274.067 406.39 274.067 405.75 C 274.067 405.103 273.894 404.663 273.547 404.43 C 273.2 404.197 272.82 404.08 272.407 404.08 C 271.534 404.08 270.764 404.57 270.097 405.55 C 269.437 406.53 269.107 407.697 269.107 409.05 C 269.107 410.403 269.43 411.41 270.077 412.07 C 270.717 412.737 271.514 413.07 272.467 413.07 C 273.867 413.07 275.21 412.583 276.497 411.61 C 277.784 410.643 278.83 409.373 279.637 407.8 C 280.044 408.193 280.417 408.68 280.757 409.26 C 280.137 410.66 279.044 412.033 277.477 413.38 C 276.697 414.033 275.77 414.563 274.697 414.97 C 273.624 415.383 272.517 415.59 271.377 415.59 C 269.51 415.59 268.034 415.02 266.947 413.88 C 265.794 412.647 265.217 411.07 265.217 409.15 C 265.217 407.223 265.94 405.543 267.387 404.11 C 268.834 402.67 270.564 401.95 272.577 401.95 C 274.017 401.95 275.184 402.263 276.077 402.89 C 276.977 403.517 277.434 404.36 277.447 405.42 C 277.447 406.86 276.874 408.027 275.727 408.92 C 274.58 409.82 273.007 410.447 271.007 410.8 L 270.617 409.15 ZM 287.014 405.62 C 287.014 404.8 286.637 404.39 285.884 404.39 C 285.131 404.39 284.527 404.873 284.074 405.84 C 286.094 407.427 287.104 409.21 287.104 411.19 C 287.104 412.63 286.701 413.723 285.894 414.47 C 285.094 415.217 284.087 415.59 282.874 415.59 C 281.661 415.59 280.774 415.21 280.214 414.45 C 279.654 413.697 279.374 412.74 279.374 411.58 C 279.374 411.227 279.384 410.967 279.404 410.8 L 280.384 402.26 C 281.057 402.053 281.737 401.95 282.424 401.95 C 283.564 401.95 284.134 402.37 284.134 403.21 L 284.134 403.27 C 284.881 402.39 285.834 401.95 286.994 401.95 C 287.834 401.95 288.487 402.143 288.954 402.53 C 289.421 402.91 289.654 403.417 289.654 404.05 C 289.654 404.683 289.414 405.203 288.934 405.61 C 288.461 406.01 287.841 406.21 287.074 406.21 C 287.034 406.21 286.997 406.21 286.964 406.21 C 286.997 406.003 287.014 405.807 287.014 405.62 Z M 285.284 411.05 C 285.284 409.97 284.724 408.887 283.604 407.8 C 283.264 410.493 283.094 411.847 283.094 411.86 C 283.094 412.647 283.414 413.04 284.054 413.04 C 284.874 413.04 285.284 412.377 285.284 411.05 ZM 302.269 406.85 C 303.742 407.937 304.479 409.217 304.479 410.69 C 304.479 412.163 303.902 413.347 302.749 414.24 C 301.589 415.14 300.132 415.59 298.379 415.59 C 297.239 415.59 296.292 415.303 295.539 414.73 C 294.779 414.163 294.399 413.46 294.399 412.62 C 294.399 411.78 294.679 411.113 295.239 410.62 C 295.799 410.127 296.499 409.823 297.339 409.71 C 296.946 410.27 296.749 410.807 296.749 411.32 C 296.749 411.833 296.929 412.247 297.289 412.56 C 297.642 412.88 298.089 413.04 298.629 413.04 C 299.169 413.04 299.616 412.84 299.969 412.44 C 300.329 412.04 300.509 411.577 300.509 411.05 C 300.509 410.19 300.106 409.427 299.299 408.76 C 298.812 408.367 298.289 407.997 297.729 407.65 C 297.169 407.303 296.872 407.12 296.839 407.1 C 296.766 407.047 296.689 407 296.609 406.96 C 296.276 407.353 295.792 407.89 295.159 408.57 C 294.526 409.257 294.022 409.803 293.649 410.21 C 292.602 411.35 292.012 412.303 291.879 413.07 C 291.846 413.217 291.829 413.5 291.829 413.92 C 291.829 414.34 291.952 414.773 292.199 415.22 C 292.452 415.673 292.756 416.01 293.109 416.23 C 293.469 416.457 293.819 416.64 294.159 416.78 C 294.506 416.92 294.806 417.017 295.059 417.07 C 295.312 417.13 295.439 417.167 295.439 417.18 C 295.439 417.313 295.232 417.463 294.819 417.63 C 294.052 417.91 293.256 418.05 292.429 418.05 C 291.596 418.05 290.789 417.753 290.009 417.16 C 288.942 416.333 288.409 415.24 288.409 413.88 C 288.409 413.04 288.622 412.21 289.049 411.39 C 289.816 409.93 291.609 407.933 294.429 405.4 C 293.736 404.707 293.389 403.967 293.389 403.18 C 293.389 402.4 293.686 401.74 294.279 401.2 C 294.866 400.653 295.559 400.38 296.359 400.38 C 297.086 400.38 297.722 400.67 298.269 401.25 C 298.622 401.643 298.799 402.14 298.799 402.74 C 298.799 403.333 298.602 404.003 298.209 404.75 C 300.209 405.65 301.562 406.35 302.269 406.85 Z M 296.189 403.69 C 296.642 403.223 296.869 402.887 296.869 402.68 C 296.869 402.213 296.662 401.96 296.249 401.92 C 295.782 401.92 295.549 402.183 295.549 402.71 C 295.549 403.023 295.762 403.35 296.189 403.69 ZM 323.447 415.78 C 323.447 415.333 323.334 414.72 323.107 413.94 C 321.447 415.093 319.697 415.67 317.857 415.67 C 316.024 415.67 314.584 415.153 313.537 414.12 C 312.491 413.08 311.967 411.853 311.967 410.44 C 311.967 408.907 312.461 407.56 313.447 406.4 C 314.194 405.547 315.417 404.613 317.117 403.6 C 316.244 401.907 315.807 400.387 315.807 399.04 C 315.807 397.693 316.311 396.523 317.317 395.53 C 318.324 394.53 319.724 394.03 321.517 394.03 C 322.764 394.03 323.784 394.357 324.577 395.01 C 325.371 395.663 325.767 396.483 325.767 397.47 C 325.767 399.357 324.424 401.393 321.737 403.58 C 321.924 403.873 322.427 404.61 323.247 405.79 C 324.074 406.963 324.691 407.887 325.097 408.56 C 325.471 407.793 325.657 407.093 325.657 406.46 C 325.657 405.173 325.227 404.51 324.367 404.47 C 324.367 404.343 324.414 404.13 324.507 403.83 C 324.601 403.53 324.714 403.287 324.847 403.1 C 324.981 402.913 325.187 402.747 325.467 402.6 C 325.747 402.447 326.064 402.37 326.417 402.37 C 327.091 402.37 327.644 402.627 328.077 403.14 C 328.517 403.653 328.737 404.303 328.737 405.09 C 328.737 405.37 328.711 405.66 328.657 405.96 C 328.337 407.507 327.561 409.12 326.327 410.8 C 327.041 412.367 327.397 413.717 327.397 414.85 C 327.397 415.977 327.221 416.893 326.867 417.6 C 326.247 418.8 325.164 419.603 323.617 420.01 C 323.091 420.143 322.567 420.21 322.047 420.21 L 321.707 420.21 L 321.707 418.5 C 322.867 417.92 323.447 417.013 323.447 415.78 Z M 321.527 396.49 C 320.961 396.49 320.494 396.663 320.127 397.01 C 319.767 397.357 319.567 397.857 319.527 398.51 C 319.527 399.33 319.874 400.383 320.567 401.67 C 321.327 401.077 321.951 400.517 322.437 399.99 C 322.997 399.357 323.277 398.773 323.277 398.24 C 323.277 397.707 323.137 397.293 322.857 397 C 322.544 396.66 322.101 396.49 321.527 396.49 Z M 315.917 409.82 L 315.887 410.16 C 315.887 410.94 316.147 411.633 316.667 412.24 C 317.194 412.847 317.994 413.15 319.067 413.15 C 320.141 413.15 321.201 412.75 322.247 411.95 C 321.701 410.923 321.064 409.86 320.337 408.76 C 319.611 407.653 319.127 406.913 318.887 406.54 L 318.577 406.04 C 317.584 406.807 316.911 407.47 316.557 408.03 C 316.204 408.59 315.991 409.187 315.917 409.82 ZM 353.021 415.48 C 351.981 415.48 351.195 415.137 350.661 414.45 C 350.128 413.77 349.768 412.497 349.581 410.63 C 349.468 409.663 349.355 408.403 349.241 406.85 C 347.935 407.243 346.621 407.653 345.301 408.08 L 344.341 410.72 C 344.155 411.22 344.025 411.577 343.951 411.79 C 343.878 412.01 343.745 412.333 343.551 412.76 C 343.351 413.187 343.181 413.5 343.041 413.7 C 342.901 413.893 342.705 414.14 342.451 414.44 C 342.205 414.74 341.948 414.953 341.681 415.08 C 341.015 415.42 340.298 415.59 339.531 415.59 C 338.765 415.59 338.145 415.313 337.671 414.76 C 337.191 414.213 336.951 413.537 336.951 412.73 C 336.951 412.51 336.971 412.277 337.011 412.03 C 337.251 410.237 339.088 408.603 342.521 407.13 C 343.495 404.65 345.111 400.47 347.371 394.59 C 347.965 394.25 348.721 394.08 349.641 394.08 C 349.841 394.08 350.035 394.08 350.221 394.08 C 350.408 394.08 350.638 394.08 350.911 394.08 C 351.185 394.08 351.525 394.137 351.931 394.25 C 351.951 395.13 352.381 400.573 353.221 410.58 C 353.295 411.42 353.398 411.963 353.531 412.21 C 353.658 412.463 353.881 412.59 354.201 412.59 C 354.721 412.59 355.418 412.237 356.291 411.53 C 357.158 410.817 357.935 409.93 358.621 408.87 L 359.411 410.77 L 358.741 411.67 C 356.781 414.21 354.875 415.48 353.021 415.48 Z M 349.051 404.78 L 348.571 398.96 L 346.141 405.76 C 347.448 405.313 348.418 404.987 349.051 404.78 Z M 341.541 409.57 C 339.808 410.443 338.941 411.3 338.941 412.14 C 338.941 412.74 339.165 413.04 339.611 413.04 C 339.951 413.04 340.221 412.797 340.421 412.31 C 340.668 411.79 341.041 410.877 341.541 409.57 ZM 365.982 405.93 C 365.982 404.717 365.438 404.11 364.352 404.11 C 363.552 404.11 362.835 404.567 362.202 405.48 C 361.528 406.467 361.192 407.623 361.192 408.95 C 361.192 410.277 361.485 411.3 362.072 412.02 C 362.658 412.74 363.465 413.1 364.492 413.1 C 365.725 413.1 367.028 412.593 368.402 411.58 C 369.775 410.573 370.882 409.323 371.722 407.83 C 372.095 408.11 372.458 408.623 372.812 409.37 C 372.272 410.457 371.265 411.67 369.792 413.01 C 369.025 413.723 368.072 414.32 366.932 414.8 C 365.698 415.327 364.465 415.59 363.232 415.59 C 361.572 415.59 360.168 415.02 359.022 413.88 C 357.875 412.74 357.302 411.257 357.302 409.43 C 357.302 407.21 358.048 405.407 359.542 404.02 C 361.035 402.64 362.705 401.95 364.552 401.95 C 365.992 401.95 367.132 402.25 367.972 402.85 C 368.812 403.443 369.232 404.227 369.232 405.2 C 369.232 405.833 369.005 406.383 368.552 406.85 C 367.732 407.67 366.735 408.08 365.562 408.08 C 365.842 407.147 365.982 406.43 365.982 405.93 ZM 378.293 412.23 L 378.963 406.04 C 378.963 405.533 378.833 405.113 378.573 404.78 C 378.313 404.447 377.893 404.28 377.313 404.28 C 376.733 404.28 376.243 404.507 375.843 404.96 C 375.443 405.42 375.149 406.023 374.963 406.77 C 374.829 407.83 374.633 409.383 374.373 411.43 C 374.113 413.477 373.943 414.807 373.863 415.42 L 370.143 415.42 C 371.489 403.98 372.303 396.953 372.583 394.34 C 372.969 394.187 373.499 394.11 374.173 394.11 C 375.633 394.11 376.363 394.54 376.363 395.4 L 376.363 395.57 C 376.043 398.497 375.706 401.073 375.353 403.3 C 376.339 402.4 377.459 401.95 378.713 401.95 C 379.959 401.95 380.949 402.267 381.683 402.9 C 382.409 403.54 382.773 404.343 382.773 405.31 C 382.773 405.57 382.716 406.057 382.603 406.77 C 382.176 409.57 381.963 411.213 381.963 411.7 C 381.963 412.573 382.249 413.01 382.823 413.01 C 383.309 413.01 383.829 412.69 384.383 412.05 C 384.929 411.403 385.373 410.407 385.713 409.06 C 386.346 409.733 386.729 410.267 386.863 410.66 C 385.889 413.907 384.169 415.53 381.703 415.53 C 380.549 415.53 379.693 415.177 379.133 414.47 C 378.573 413.757 378.293 413.01 378.293 412.23 ZM 386.987 394.8 C 387.421 394.36 387.944 394.14 388.557 394.14 C 389.171 394.14 389.697 394.36 390.137 394.8 C 390.577 395.24 390.797 395.767 390.797 396.38 C 390.797 396.993 390.577 397.517 390.137 397.95 C 389.697 398.377 389.171 398.59 388.557 398.59 C 387.944 398.59 387.421 398.377 386.987 397.95 C 386.561 397.517 386.347 396.993 386.347 396.38 C 386.347 395.767 386.561 395.24 386.987 394.8 Z M 385.837 403.02 C 386.024 402.68 386.381 402.423 386.907 402.25 C 387.427 402.07 387.944 401.98 388.457 401.98 C 388.971 401.98 389.424 402.047 389.817 402.18 C 389.091 407.793 388.727 410.63 388.727 410.69 C 388.634 411.063 388.587 411.377 388.587 411.63 C 388.587 411.877 388.604 412.093 388.637 412.28 C 388.717 412.767 389.061 413.01 389.667 413.01 C 390.274 413.01 390.834 412.613 391.347 411.82 C 391.861 411.027 392.247 410.127 392.507 409.12 C 392.634 409.193 392.837 409.417 393.117 409.79 C 393.397 410.163 393.567 410.443 393.627 410.63 C 393.254 412.123 392.617 413.327 391.717 414.24 C 390.824 415.16 389.751 415.62 388.497 415.62 C 387.251 415.62 386.324 415.31 385.717 414.69 C 385.111 414.077 384.807 413.283 384.807 412.31 C 384.807 412.103 384.817 411.89 384.837 411.67 L 385.837 403.02 ZM 396.835 409.15 C 397.995 408.903 398.858 408.437 399.425 407.75 C 399.998 407.057 400.285 406.39 400.285 405.75 C 400.285 405.103 400.111 404.663 399.765 404.43 C 399.418 404.197 399.038 404.08 398.625 404.08 C 397.751 404.08 396.981 404.57 396.315 405.55 C 395.655 406.53 395.325 407.697 395.325 409.05 C 395.325 410.403 395.648 411.41 396.295 412.07 C 396.935 412.737 397.731 413.07 398.685 413.07 C 400.085 413.07 401.428 412.583 402.715 411.61 C 404.001 410.643 405.048 409.373 405.855 407.8 C 406.261 408.193 406.635 408.68 406.975 409.26 C 406.355 410.66 405.261 412.033 403.695 413.38 C 402.915 414.033 401.988 414.563 400.915 414.97 C 399.841 415.383 398.735 415.59 397.595 415.59 C 395.728 415.59 394.251 415.02 393.165 413.88 C 392.011 412.647 391.435 411.07 391.435 409.15 C 391.435 407.223 392.158 405.543 393.605 404.11 C 395.051 402.67 396.781 401.95 398.795 401.95 C 400.235 401.95 401.401 402.263 402.295 402.89 C 403.195 403.517 403.651 404.36 403.665 405.42 C 403.665 406.86 403.091 408.027 401.945 408.92 C 400.798 409.82 399.225 410.447 397.225 410.8 L 396.835 409.15 ZM 415.522 410.41 C 414.928 411.923 414.088 413.16 413.002 414.12 C 411.908 415.08 410.662 415.56 409.262 415.56 C 407.862 415.56 406.812 415.097 406.112 414.17 C 405.412 413.25 405.062 412.193 405.062 411 C 405.062 410.753 405.072 410.51 405.092 410.27 L 406.042 402.29 C 406.635 402.063 407.268 401.95 407.942 401.95 C 409.175 401.95 409.792 402.407 409.792 403.32 C 409.792 403.36 409.638 404.607 409.332 407.06 C 409.025 409.513 408.872 410.937 408.872 411.33 C 408.872 412.397 409.385 412.93 410.412 412.93 C 411.285 412.93 412.022 412.433 412.622 411.44 C 413.668 409.653 414.218 407.63 414.272 405.37 L 414.022 405.37 C 413.235 405.37 412.638 405.193 412.232 404.84 C 411.765 404.427 411.532 403.93 411.532 403.35 C 411.532 402.77 411.708 402.303 412.062 401.95 C 412.488 401.577 413.002 401.39 413.602 401.39 C 415.022 401.39 415.908 402.127 416.262 403.6 C 416.822 403.527 417.222 403.453 417.462 403.38 L 417.462 404.98 L 416.432 405.14 L 416.432 405.62 C 416.412 407.3 416.108 408.897 415.522 410.41 Z M 413.122 403.35 C 413.122 403.67 413.392 403.83 413.932 403.83 C 413.992 403.83 414.048 403.83 414.102 403.83 C 413.975 403.323 413.778 403.07 413.512 403.07 C 413.252 403.07 413.122 403.163 413.122 403.35 ZM 423.193 409.15 C 424.353 408.903 425.216 408.437 425.783 407.75 C 426.356 407.057 426.643 406.39 426.643 405.75 C 426.643 405.103 426.469 404.663 426.123 404.43 C 425.776 404.197 425.396 404.08 424.983 404.08 C 424.109 404.08 423.339 404.57 422.673 405.55 C 422.013 406.53 421.683 407.697 421.683 409.05 C 421.683 410.403 422.006 411.41 422.653 412.07 C 423.293 412.737 424.089 413.07 425.043 413.07 C 426.443 413.07 427.786 412.583 429.073 411.61 C 430.359 410.643 431.406 409.373 432.213 407.8 C 432.619 408.193 432.993 408.68 433.333 409.26 C 432.713 410.66 431.619 412.033 430.053 413.38 C 429.273 414.033 428.346 414.563 427.273 414.97 C 426.199 415.383 425.093 415.59 423.953 415.59 C 422.086 415.59 420.609 415.02 419.523 413.88 C 418.369 412.647 417.793 411.07 417.793 409.15 C 417.793 407.223 418.516 405.543 419.963 404.11 C 421.409 402.67 423.139 401.95 425.153 401.95 C 426.593 401.95 427.759 402.263 428.653 402.89 C 429.553 403.517 430.009 404.36 430.023 405.42 C 430.023 406.86 429.449 408.027 428.303 408.92 C 427.156 409.82 425.583 410.447 423.583 410.8 L 423.193 409.15 ZM 439.589 405.62 C 439.589 404.8 439.213 404.39 438.459 404.39 C 437.706 404.39 437.103 404.873 436.649 405.84 C 438.669 407.427 439.679 409.21 439.679 411.19 C 439.679 412.63 439.276 413.723 438.469 414.47 C 437.669 415.217 436.663 415.59 435.449 415.59 C 434.236 415.59 433.349 415.21 432.789 414.45 C 432.229 413.697 431.949 412.74 431.949 411.58 C 431.949 411.227 431.959 410.967 431.979 410.8 L 432.959 402.26 C 433.633 402.053 434.313 401.95 434.999 401.95 C 436.139 401.95 436.709 402.37 436.709 403.21 L 436.709 403.27 C 437.456 402.39 438.409 401.95 439.569 401.95 C 440.409 401.95 441.063 402.143 441.529 402.53 C 441.996 402.91 442.229 403.417 442.229 404.05 C 442.229 404.683 441.989 405.203 441.509 405.61 C 441.036 406.01 440.416 406.21 439.649 406.21 C 439.609 406.21 439.573 406.21 439.539 406.21 C 439.573 406.003 439.589 405.807 439.589 405.62 Z M 437.859 411.05 C 437.859 409.97 437.299 408.887 436.179 407.8 C 435.839 410.493 435.669 411.847 435.669 411.86 C 435.669 412.647 435.989 413.04 436.629 413.04 C 437.449 413.04 437.859 412.377 437.859 411.05 ZM 454.845 406.85 C 456.318 407.937 457.055 409.217 457.055 410.69 C 457.055 412.163 456.478 413.347 455.325 414.24 C 454.165 415.14 452.708 415.59 450.955 415.59 C 449.815 415.59 448.868 415.303 448.115 414.73 C 447.355 414.163 446.975 413.46 446.975 412.62 C 446.975 411.78 447.255 411.113 447.815 410.62 C 448.375 410.127 449.075 409.823 449.915 409.71 C 449.521 410.27 449.325 410.807 449.325 411.32 C 449.325 411.833 449.505 412.247 449.865 412.56 C 450.218 412.88 450.665 413.04 451.205 413.04 C 451.745 413.04 452.191 412.84 452.545 412.44 C 452.905 412.04 453.085 411.577 453.085 411.05 C 453.085 410.19 452.681 409.427 451.875 408.76 C 451.388 408.367 450.865 407.997 450.305 407.65 C 449.745 407.303 449.448 407.12 449.415 407.1 C 449.341 407.047 449.265 407 449.185 406.96 C 448.851 407.353 448.368 407.89 447.735 408.57 C 447.101 409.257 446.598 409.803 446.225 410.21 C 445.178 411.35 444.588 412.303 444.455 413.07 C 444.421 413.217 444.405 413.5 444.405 413.92 C 444.405 414.34 444.528 414.773 444.775 415.22 C 445.028 415.673 445.331 416.01 445.685 416.23 C 446.045 416.457 446.395 416.64 446.735 416.78 C 447.081 416.92 447.381 417.017 447.635 417.07 C 447.888 417.13 448.015 417.167 448.015 417.18 C 448.015 417.313 447.808 417.463 447.395 417.63 C 446.628 417.91 445.831 418.05 445.005 418.05 C 444.171 418.05 443.365 417.753 442.585 417.16 C 441.518 416.333 440.985 415.24 440.985 413.88 C 440.985 413.04 441.198 412.21 441.625 411.39 C 442.391 409.93 444.185 407.933 447.005 405.4 C 446.311 404.707 445.965 403.967 445.965 403.18 C 445.965 402.4 446.261 401.74 446.855 401.2 C 447.441 400.653 448.135 400.38 448.935 400.38 C 449.661 400.38 450.298 400.67 450.845 401.25 C 451.198 401.643 451.375 402.14 451.375 402.74 C 451.375 403.333 451.178 404.003 450.785 404.75 C 452.785 405.65 454.138 406.35 454.845 406.85 Z M 448.765 403.69 C 449.218 403.223 449.445 402.887 449.445 402.68 C 449.445 402.213 449.238 401.96 448.825 401.92 C 448.358 401.92 448.125 402.183 448.125 402.71 C 448.125 403.023 448.338 403.35 448.765 403.69 Z" transform="matrix(2.93582820892334, 0, 0, 3.736846923828125, -348.6296691894531, -1048.102783203125)" style="fill: rgb(0, 88, 141); stroke: rgb(223, 223, 223); white-space: pre;"/>
</svg>