<?xml version="1.0" encoding="utf-8"?>
<svg viewBox="0 0 182.769 42.545" xmlns="http://www.w3.org/2000/svg">
  <defs>
    <linearGradient id="gradient-1" gradientUnits="userSpaceOnUse" x1="249.171" y1="52.682" x2="249.171" y2="74.582" gradientTransform="matrix(0.473892, 0, 0, 0.454337, -26.745491, 3.736456)">
      <stop offset="0" style="stop-color: rgba(255, 255, 255, 1)"/>
      <stop offset="1" style="stop-color: rgba(204, 204, 204, 1)"/>
    </linearGradient>
  </defs>
  <rect x="0.2" width="182.144" height="41.874" style="fill-rule: evenodd; fill: rgb(0, 88, 141);"/>
  <g transform="matrix(0.010473, 0, 0, -0.00783, 82.594505, 24.472408)" fill="#000000" stroke="none" style="">
    <path d="M 980 2389 C 928 2380 865 2364 841 2356 C 817 2347 791 2332.351 784 2332.351 C 776 2332.351 742 2315.527 708 2298.527 C 674 2282.527 973.727 2383.261 965.727 2383.261 C 958.727 2383.261 654.42 2283.649 654.42 2277.649 C 654.42 2272.649 548.985 2221.755 541.985 2214.106 C 532.533 2203.778 454 2157 427 2126 C 417 2114 397 2092 382 2075 C 316 2001 247 1863 217 1745 C 204 1695 195 1620 193 1547 L 189 1429 L 138 1332 C 110 1279 74 1211 59 1181 C 43 1151 27 1111 24 1091 C 11 1023 53 925 105 902 C 125 892 129 884 128 842 C 128 814 133 783 139 772 C 145 761 150 730 150 704 C 150 676 157 645 169 626 C 185 600 188 578 187 492 L 185 390 L 230 350 C 304 285 363 268 494 274 C 555 276 626 282 652 285 C 688 290 701 289 704 279 C 706 271 720 220 735 165 C 767 49 774 34 800 20 C 830 4 864 42 857 83 C 844 167 784 364 767 378 C 742 398 692 400 606 385 C 458 360 362 368 319 411 C 300 430 299 440 305 513 C 312 597 309 608 267 671 C 253 692 251 703 260 726 C 273 759 273 761 252 776 C 236 788 234 828 245 893 C 253 937 241 956 200 965 C 147 977 120 1007 120 1053 C 120 1076 128 1109 138 1125 C 157 1156 238 1305 274 1375 C 290 1406 295 1435 296 1505 C 296 1555 300 1620 304 1650 C 311 1702 349 1829 360 1840 C 363 1843 374 1863 384 1886 C 412 1950 519 2070 595 2124 C 672 2177 776 2229 872 2262 C 925 2279 981.287 2312.314 1142.298 2309.947 C 1322.474 2307.298 1322 2291 1399 2267 C 1657 2185 1848 2020 1963 1778 C 2006 1687 2015 1663 2034 1573 C 2051 1495 2055 1320 2040 1255 C 2009 1113 1983 1045 1925 954 C 1875 876 1874 875 1788 789 C 1724 725 1576 620 1550 620 C 1546 620 1521 608 1496 594 C 1444 565 1426 533 1439 498 C 1444 485 1450 457 1454 435 C 1457 413 1465 377 1471 355 C 1482 315 1492 267 1505 198 C 1513 156 1545 117 1567 122 C 1576 124 1592 137 1602 151 C 1619 174 1620 182 1611 216 C 1599 255 1550 489 1550 502 C 1550 506 1580 524 1618 542 C 1752 608 1904 741 1989 869 C 2151 1113 2199 1431 2114 1700 C 2089 1780 2010 1942 1970 1993 C 1854 2143 1735 2238 1558 2321 C 1468 2364 1244 2411 1141 2409 C 1105 2408 1032 2399 980 2389 Z" style="fill: rgb(255, 255, 255);"/>
    <path d="M 1122 2053 C 1125 1982 1127 1975 1146 1972 C 1166 1969 1168 1974 1172 2022 C 1178 2107 1172 2130 1143 2130 C 1120 2130 1119 2129 1122 2053 Z" style="fill: rgb(255, 255, 255);"/>
    <path d="M 784 2025 C 771 1993 845 1880 868 1894 C 887 1905 882 1929 849 1986 C 819 2040 795 2054 784 2025 Z" style="fill: rgb(255, 255, 255);"/>
    <path d="M 1441 1986 C 1423 1956 1410 1923 1412 1913 C 1417 1885 1451 1892 1471 1925 C 1524 2014 1529 2040 1492 2040 C 1481 2040 1461 2018 1441 1986 Z" style="fill: rgb(255, 255, 255);"/>
    <path d="M 1045 1858 C 937 1831 820 1744 762 1647 C 666 1487 682 1273 800 1136 C 854 1072 881 1051 953 1016 C 1220 884 1543 1054 1590 1353 C 1625 1579 1474 1802 1247 1855 C 1178 1871 1105 1872 1045 1858 Z M 1298 1741 C 1360 1709 1425 1646 1461 1583 C 1491 1531 1493 1522 1493 1421 C 1493 1330 1490 1309 1470 1270 C 1431 1195 1388 1150 1315 1109 C 1248 1072 1241 1070 1151 1070 C 1068 1070 1051 1073 995 1100 C 860 1165 779 1304 794 1448 C 809 1596 893 1699 1050 1764 C 1058 1767 1108 1768 1160 1766 C 1234 1764 1265 1758 1298 1741 Z" style="fill: rgb(255, 255, 255);"/>
    <path d="M 526 1773 C 518 1752 532 1739 597 1705 C 651 1678 670 1678 670 1708 C 670 1726 650 1742 588 1772 C 542 1794 534 1794 526 1773 Z" style="fill: rgb(255, 255, 255);"/>
    <path d="M 1680 1757 C 1585 1700 1607 1656 1704 1710 C 1767 1746 1773 1752 1764 1774 C 1755 1797 1742 1794 1680 1757 Z" style="fill: rgb(255, 255, 255);"/>
    <path d="M 449 1438 C 427 1430 425 1419 442 1402 C 460 1384 575 1386 590 1405 C 598 1415 599 1424 594 1430 C 582 1441 474 1447 449 1438 Z" style="fill: rgb(255, 255, 255);"/>
    <path d="M 1702 1418 C 1705 1396 1710 1395 1780 1395 C 1850 1395 1855 1396 1858 1418 C 1861 1439 1859 1440 1780 1440 C 1701 1440 1699 1439 1702 1418 Z" style="fill: rgb(255, 255, 255);"/>
    <path d="M 1633 1153 C 1608 1144 1621 1115 1662 1086 C 1713 1051 1765 1045 1765 1074 C 1765 1101 1661 1163 1633 1153 Z" style="fill: rgb(255, 255, 255);"/>
    <path d="M 567 1114 C 487 1055 527 1028 618 1080 C 653 1101 670 1117 670 1130 C 670 1162 622 1155 567 1114 Z" style="fill: rgb(255, 255, 255);"/>
    <path d="M 837 932 C 814 906 780 837 780 817 C 780 804 786 800 802 802 C 826 805 878 882 879 916 C 880 944 856 953 837 932 Z" style="fill: rgb(255, 255, 255);"/>
    <path d="M 1421 937 C 1404 920 1407 906 1441 851 C 1465 813 1479 800 1496 800 C 1525 800 1526 823 1499 865 C 1489 882 1476 905 1471 916 C 1459 942 1436 952 1421 937 Z" style="fill: rgb(255, 255, 255);"/>
    <path d="M 1133 863 C 1114 856 1115 714 1133 707 C 1159 697 1171 717 1175 776 C 1179 853 1167 877 1133 863 Z" style="fill: rgb(255, 255, 255);"/>
  </g>
  <path d="M 5.713 28.458 L 5.713 28.203 L 9.731 28.203 C 10.41 28.203 11.031 28.302 11.594 28.499 C 12.153 28.695 12.64 28.984 13.053 29.362 C 13.464 29.738 13.787 30.219 14.02 30.807 C 14.251 31.392 14.366 32.056 14.366 32.801 C 14.366 33.695 14.168 34.488 13.774 35.182 C 13.382 35.876 12.834 36.413 12.129 36.795 C 11.425 37.177 10.621 37.367 9.717 37.367 L 5.713 37.367 L 5.713 37.113 L 6.907 36.668 L 6.907 28.908 L 5.713 28.458 Z M 9.641 28.871 L 8.172 28.871 L 8.172 36.709 L 9.679 36.709 C 10.115 36.709 10.531 36.628 10.926 36.468 C 11.32 36.304 11.673 36.069 11.982 35.764 C 12.292 35.458 12.538 35.061 12.722 34.573 C 12.905 34.083 12.997 33.533 12.997 32.924 C 12.997 31.621 12.706 30.62 12.125 29.921 C 11.54 29.221 10.712 28.871 9.641 28.871 Z M 17.871 36.668 L 19.397 37.113 L 19.397 37.367 L 15.483 37.367 L 15.483 37.113 L 16.677 36.668 L 16.677 32.002 L 15.483 31.552 L 15.483 31.297 L 17.738 30.852 L 17.871 30.984 L 17.871 31.747 C 18.525 31.151 19.387 30.852 20.458 30.852 L 20.458 32.229 L 20.193 32.315 L 19.25 31.82 C 19.054 31.82 18.832 31.861 18.582 31.943 C 18.332 32.021 18.095 32.138 17.871 32.292 L 17.871 36.668 Z M 26.968 34.046 L 26.778 34.223 L 22.589 34.223 C 22.592 34.687 22.662 35.091 22.798 35.436 C 22.93 35.779 23.11 36.048 23.338 36.245 C 23.568 36.439 23.821 36.581 24.096 36.672 C 24.368 36.763 24.666 36.809 24.992 36.809 C 25.44 36.809 25.922 36.663 26.437 36.372 L 26.636 36.745 C 26.273 37.051 25.911 37.257 25.551 37.363 C 25.187 37.469 24.774 37.522 24.309 37.522 C 23.908 37.522 23.523 37.44 23.153 37.277 C 22.78 37.113 22.453 36.887 22.172 36.6 C 21.891 36.312 21.666 35.959 21.499 35.541 C 21.331 35.123 21.248 34.672 21.248 34.187 C 21.248 33.727 21.31 33.307 21.433 32.929 C 21.556 32.55 21.719 32.235 21.921 31.984 C 22.123 31.729 22.36 31.516 22.632 31.343 C 22.9 31.167 23.177 31.042 23.461 30.966 C 23.742 30.89 24.03 30.852 24.323 30.852 C 24.69 30.852 25.031 30.917 25.347 31.048 C 25.66 31.178 25.938 31.37 26.181 31.625 C 26.424 31.879 26.617 32.214 26.759 32.629 C 26.898 33.043 26.968 33.516 26.968 34.046 Z M 24.352 31.452 C 23.852 31.452 23.456 31.641 23.162 32.02 C 22.865 32.396 22.682 32.91 22.613 33.565 L 25.703 33.565 C 25.703 32.904 25.587 32.387 25.357 32.011 C 25.122 31.638 24.788 31.452 24.352 31.452 Z M 33.128 36.504 L 34.327 36.822 L 34.327 37.049 L 32.925 37.467 C 32.647 37.525 32.413 37.495 32.223 37.376 C 32.034 37.258 31.939 37.057 31.939 36.772 C 31.377 37.272 30.718 37.522 29.963 37.522 C 29.337 37.522 28.868 37.367 28.555 37.058 C 28.246 36.746 28.091 36.357 28.091 35.891 C 28.091 35.536 28.173 35.224 28.337 34.955 C 28.502 34.682 28.71 34.466 28.963 34.305 C 29.219 34.145 29.524 34.01 29.878 33.901 C 30.232 33.795 30.573 33.72 30.901 33.678 C 31.23 33.636 31.576 33.61 31.939 33.601 L 31.939 33.006 C 31.939 32.427 31.844 32.024 31.655 31.797 C 31.465 31.567 31.149 31.452 30.707 31.452 C 30.375 31.452 29.985 31.502 29.536 31.602 L 28.849 33.042 L 28.532 33.042 L 28.532 31.275 C 28.92 31.142 29.331 31.037 29.764 30.961 C 30.194 30.889 30.573 30.852 30.901 30.852 C 31.615 30.852 32.165 30.99 32.55 31.266 C 32.936 31.541 33.128 31.993 33.128 32.62 L 33.128 36.504 Z M 30.508 36.795 C 30.754 36.795 31.007 36.739 31.266 36.627 C 31.525 36.512 31.749 36.354 31.939 36.154 L 31.939 34.114 C 31.074 34.151 30.415 34.319 29.963 34.619 C 29.508 34.919 29.28 35.3 29.28 35.764 C 29.28 36.121 29.401 36.383 29.641 36.55 C 29.878 36.713 30.167 36.795 30.508 36.795 Z M 37.371 36.668 L 38.494 37.113 L 38.494 37.367 L 34.983 37.367 L 34.983 37.113 L 36.177 36.668 L 36.177 32.002 L 34.983 31.552 L 34.983 31.297 L 37.238 30.852 L 37.371 30.984 L 37.371 31.72 C 37.668 31.447 38.013 31.234 38.404 31.079 C 38.793 30.928 39.186 30.852 39.584 30.852 C 39.973 30.852 40.325 30.94 40.641 31.116 C 40.957 31.292 41.194 31.555 41.352 31.906 C 41.652 31.579 42.017 31.322 42.447 31.134 C 42.876 30.946 43.311 30.852 43.75 30.852 C 44.009 30.852 44.254 30.892 44.484 30.97 C 44.712 31.049 44.917 31.167 45.1 31.325 C 45.284 31.485 45.431 31.699 45.541 31.965 C 45.649 32.229 45.702 32.533 45.702 32.879 L 45.702 36.668 L 46.901 37.113 L 46.901 37.367 L 43.38 37.367 L 43.38 37.113 L 44.508 36.668 L 44.508 33.256 C 44.508 32.662 44.402 32.248 44.19 32.015 C 43.976 31.782 43.614 31.665 43.105 31.665 C 42.461 31.665 41.916 31.867 41.47 32.27 C 41.515 32.476 41.537 32.679 41.537 32.879 L 41.537 36.668 L 42.665 37.113 L 42.665 37.367 L 39.215 37.367 L 39.215 37.113 L 40.342 36.668 L 40.342 33.256 C 40.342 32.662 40.235 32.248 40.02 32.015 C 39.809 31.782 39.447 31.665 38.935 31.665 C 38.322 31.665 37.801 31.85 37.371 32.22 L 37.371 36.668 Z M 57.739 35.409 L 60.578 28.203 L 63.17 28.203 L 63.17 28.458 L 62.042 28.908 L 62.042 36.668 L 63.231 37.113 L 63.231 37.367 L 59.981 37.367 L 59.981 37.113 L 61.018 36.668 L 61.018 29.539 L 60.938 29.539 L 57.891 37.367 L 57.232 37.367 L 54.318 29.516 L 54.256 29.516 L 54.256 36.604 L 55.308 37.113 L 55.308 37.367 L 52.256 37.367 L 52.256 37.113 L 53.384 36.604 L 53.384 28.908 L 52.195 28.458 L 52.195 28.203 L 55.284 28.203 L 55.308 28.794 L 57.687 35.409 L 57.739 35.409 Z M 69.456 36.504 L 70.655 36.822 L 70.655 37.049 L 69.252 37.467 C 68.974 37.525 68.74 37.495 68.55 37.376 C 68.361 37.258 68.266 37.057 68.266 36.772 C 67.704 37.272 67.045 37.522 66.29 37.522 C 65.664 37.522 65.195 37.367 64.882 37.058 C 64.573 36.746 64.418 36.357 64.418 35.891 C 64.418 35.536 64.5 35.224 64.665 34.955 C 64.829 34.682 65.037 34.466 65.29 34.305 C 65.546 34.145 65.851 34.01 66.205 33.901 C 66.559 33.795 66.9 33.72 67.228 33.678 C 67.557 33.636 67.903 33.61 68.266 33.601 L 68.266 33.006 C 68.266 32.427 68.171 32.024 67.982 31.797 C 67.792 31.567 67.476 31.452 67.034 31.452 C 66.702 31.452 66.312 31.502 65.863 31.602 L 65.176 33.042 L 64.859 33.042 L 64.859 31.275 C 65.247 31.142 65.658 31.037 66.091 30.961 C 66.521 30.889 66.9 30.852 67.228 30.852 C 67.942 30.852 68.492 30.99 68.877 31.266 C 69.263 31.541 69.456 31.993 69.456 32.62 L 69.456 36.504 Z M 66.835 36.795 C 67.081 36.795 67.334 36.739 67.593 36.627 C 67.852 36.512 68.077 36.354 68.266 36.154 L 68.266 34.114 C 67.4 34.151 66.742 34.319 66.29 34.619 C 65.835 34.919 65.608 35.3 65.608 35.764 C 65.608 36.121 65.727 36.383 65.968 36.55 C 66.205 36.713 66.494 36.795 66.835 36.795 Z M 73.632 36.668 L 74.693 37.113 L 74.693 37.367 L 71.239 37.367 L 71.239 37.113 L 72.438 36.668 L 72.438 28.821 L 71.239 28.372 L 71.239 28.117 L 73.504 27.672 L 73.632 27.804 L 73.632 33.896 L 74.215 33.765 L 76.153 31.579 L 75.305 31.261 L 75.305 31.007 L 78.129 31.007 L 78.129 31.261 L 77.016 31.684 L 75.115 33.819 L 77.376 36.677 L 77.376 36.668 L 78.504 37.113 L 78.504 37.367 L 76.527 37.367 L 74.096 34.369 L 73.632 34.369 L 73.632 36.668 Z M 84.88 34.046 L 84.69 34.223 L 80.501 34.223 C 80.504 34.687 80.574 35.091 80.71 35.436 C 80.842 35.779 81.022 36.048 81.25 36.245 C 81.481 36.439 81.733 36.581 82.008 36.672 C 82.28 36.763 82.578 36.809 82.904 36.809 C 83.352 36.809 83.834 36.663 84.349 36.372 L 84.548 36.745 C 84.185 37.051 83.823 37.257 83.463 37.363 C 83.099 37.469 82.686 37.522 82.221 37.522 C 81.82 37.522 81.435 37.44 81.065 37.277 C 80.692 37.113 80.365 36.887 80.084 36.6 C 79.803 36.312 79.578 35.959 79.411 35.541 C 79.244 35.123 79.16 34.672 79.16 34.187 C 79.16 33.727 79.222 33.307 79.345 32.929 C 79.468 32.55 79.63 32.235 79.833 31.984 C 80.035 31.729 80.272 31.516 80.544 31.343 C 80.812 31.167 81.089 31.042 81.373 30.966 C 81.654 30.89 81.942 30.852 82.235 30.852 C 82.602 30.852 82.943 30.917 83.259 31.048 C 83.572 31.178 83.85 31.37 84.093 31.625 C 84.336 31.879 84.529 32.214 84.671 32.629 C 84.81 33.043 84.88 33.516 84.88 34.046 Z M 82.264 31.452 C 81.765 31.452 81.368 31.641 81.074 32.02 C 80.777 32.396 80.594 32.91 80.525 33.565 L 83.615 33.565 C 83.615 32.904 83.499 32.387 83.269 32.011 C 83.035 31.638 82.7 31.452 82.264 31.452 Z M 88.259 36.668 L 89.785 37.113 L 89.785 37.367 L 85.871 37.367 L 85.871 37.113 L 87.065 36.668 L 87.065 32.002 L 85.871 31.552 L 85.871 31.297 L 88.126 30.852 L 88.259 30.984 L 88.259 31.747 C 88.913 31.151 89.776 30.852 90.847 30.852 L 90.847 32.229 L 90.581 32.315 L 89.638 31.82 C 89.442 31.82 89.219 31.861 88.97 31.943 C 88.72 32.021 88.483 32.138 88.259 32.292 L 88.259 36.668 Z M 91.835 35.268 L 92.167 35.268 L 92.859 36.677 C 92.916 36.71 92.985 36.74 93.067 36.768 C 93.149 36.795 93.238 36.819 93.333 36.84 C 93.427 36.862 93.525 36.878 93.626 36.89 C 93.724 36.903 93.821 36.909 93.915 36.909 C 94.136 36.909 94.335 36.886 94.513 36.84 C 94.693 36.798 94.847 36.736 94.977 36.654 C 95.106 36.575 95.206 36.477 95.276 36.359 C 95.345 36.241 95.38 36.108 95.38 35.959 C 95.38 35.762 95.296 35.576 95.129 35.4 C 94.964 35.224 94.731 35.053 94.427 34.887 L 93.735 34.514 C 93.489 34.39 93.258 34.263 93.044 34.133 C 92.828 33.999 92.642 33.854 92.484 33.696 C 92.323 33.539 92.197 33.365 92.105 33.174 C 92.013 32.983 91.968 32.77 91.968 32.533 C 91.968 32.248 92.025 32 92.138 31.788 C 92.255 31.579 92.423 31.405 92.641 31.266 C 92.855 31.126 93.115 31.022 93.418 30.952 C 93.724 30.885 94.062 30.852 94.432 30.852 C 95.004 30.852 95.574 30.942 96.143 31.12 L 96.119 32.915 L 95.854 32.915 L 95.167 31.452 C 95.002 31.434 94.86 31.417 94.74 31.402 C 94.623 31.39 94.525 31.384 94.446 31.384 C 94.212 31.384 94.01 31.41 93.84 31.461 C 93.669 31.516 93.528 31.585 93.418 31.67 C 93.31 31.755 93.228 31.85 93.171 31.956 C 93.117 32.065 93.091 32.178 93.091 32.292 C 93.091 32.429 93.117 32.551 93.171 32.66 C 93.228 32.773 93.309 32.877 93.413 32.974 C 93.52 33.074 93.653 33.173 93.811 33.269 C 93.972 33.366 94.159 33.469 94.37 33.578 C 94.67 33.736 94.92 33.864 95.119 33.964 C 95.315 34.064 95.456 34.143 95.541 34.201 C 96.22 34.634 96.56 35.135 96.56 35.705 C 96.56 36.01 96.482 36.278 96.328 36.509 C 96.176 36.739 95.975 36.931 95.726 37.086 C 95.479 37.24 95.2 37.355 94.887 37.431 C 94.577 37.51 94.264 37.549 93.949 37.549 C 93.784 37.549 93.607 37.539 93.418 37.517 C 93.228 37.496 93.037 37.467 92.845 37.431 C 92.655 37.391 92.473 37.346 92.3 37.295 C 92.126 37.243 91.971 37.187 91.835 37.127 L 91.835 35.268 Z M 109.574 33.337 L 108.531 32.888 L 108.531 32.633 L 111.195 32.633 L 111.195 32.888 L 110.294 33.297 C 109.946 34.184 109.541 34.943 109.076 35.573 L 110.133 36.677 L 111.498 37.113 L 111.498 37.367 L 109.015 37.367 L 108.195 36.518 C 107.329 37.254 106.326 37.622 105.186 37.622 C 104.813 37.622 104.462 37.576 104.134 37.486 C 103.805 37.395 103.511 37.262 103.252 37.086 C 102.993 36.913 102.788 36.683 102.636 36.395 C 102.484 36.108 102.409 35.783 102.409 35.423 C 102.409 35.205 102.426 35.008 102.461 34.832 C 102.495 34.66 102.556 34.496 102.641 34.342 C 102.726 34.19 102.819 34.054 102.92 33.933 C 103.018 33.811 103.16 33.683 103.347 33.546 C 103.533 33.41 103.713 33.287 103.887 33.178 C 104.064 33.069 104.296 32.932 104.584 32.765 L 103.963 32.102 C 103.514 31.62 103.29 31.052 103.29 30.398 C 103.29 30.101 103.35 29.812 103.47 29.53 C 103.59 29.252 103.756 29.003 103.968 28.785 C 104.179 28.567 104.446 28.393 104.769 28.262 C 105.091 28.132 105.438 28.067 105.811 28.067 C 106.557 28.067 107.146 28.267 107.579 28.667 C 108.011 29.067 108.228 29.547 108.228 30.107 C 108.228 30.616 108.078 31.052 107.778 31.416 C 107.477 31.776 106.963 32.165 106.233 32.583 L 108.636 35.1 C 108.967 34.625 109.28 34.037 109.574 33.337 Z M 105.622 36.881 C 106.452 36.881 107.169 36.615 107.773 36.082 L 105.077 33.274 C 104.255 33.849 103.844 34.51 103.844 35.255 C 103.844 35.836 104.001 36.253 104.314 36.504 C 104.623 36.755 105.059 36.881 105.622 36.881 Z M 104.456 30.062 C 104.456 30.501 104.587 30.857 104.849 31.129 L 105.745 32.074 C 106.285 31.732 106.651 31.411 106.844 31.111 C 107.04 30.808 107.138 30.481 107.138 30.13 C 107.138 29.675 107.02 29.32 106.783 29.062 C 106.549 28.805 106.245 28.676 105.873 28.676 C 105.456 28.676 105.115 28.817 104.849 29.098 C 104.587 29.38 104.456 29.701 104.456 30.062 Z M 123.538 36.781 L 122.539 34.355 L 119.122 34.355 L 118.174 36.781 L 119.264 37.113 L 119.264 37.367 L 116.174 37.367 L 116.174 37.113 L 117.297 36.668 L 120.681 28.203 L 121.278 28.203 L 124.742 36.668 L 125.808 37.113 L 125.808 37.367 L 122.491 37.367 L 122.491 37.113 L 123.538 36.781 Z M 120.833 30.107 L 120.78 30.107 L 119.387 33.692 L 122.273 33.692 L 120.833 30.107 Z M 129.257 37.522 C 128.852 37.522 128.466 37.443 128.096 37.286 C 127.726 37.125 127.401 36.903 127.12 36.618 C 126.838 36.336 126.614 35.983 126.447 35.559 C 126.279 35.138 126.196 34.681 126.196 34.187 C 126.196 33.654 126.279 33.171 126.447 32.738 C 126.614 32.307 126.846 31.956 127.143 31.684 C 127.44 31.411 127.78 31.202 128.162 31.057 C 128.548 30.911 128.963 30.839 129.409 30.839 C 130.044 30.839 130.667 30.975 131.28 31.247 L 131.28 33.169 L 131.015 33.169 L 130.295 31.502 C 130.036 31.444 129.78 31.416 129.527 31.416 C 128.848 31.416 128.345 31.656 128.02 32.138 C 127.698 32.616 127.537 33.3 127.537 34.187 C 127.537 35.032 127.75 35.68 128.176 36.132 C 128.603 36.583 129.191 36.809 129.939 36.809 C 130.195 36.809 130.426 36.777 130.631 36.713 C 130.836 36.65 131.088 36.536 131.385 36.372 L 131.584 36.772 C 131.201 37.06 130.83 37.257 130.47 37.363 C 130.113 37.469 129.709 37.522 129.257 37.522 Z M 134.898 36.668 L 136.026 37.113 L 136.026 37.367 L 132.505 37.367 L 132.505 37.113 L 133.703 36.668 L 133.703 28.821 L 132.505 28.372 L 132.505 28.117 L 134.77 27.672 L 134.898 27.804 L 134.898 31.734 C 135.201 31.461 135.556 31.246 135.964 31.088 C 136.375 30.931 136.779 30.852 137.177 30.852 C 137.762 30.852 138.245 31.022 138.627 31.361 C 139.01 31.7 139.201 32.206 139.201 32.879 L 139.201 36.668 L 140.39 37.113 L 140.39 37.367 L 136.874 37.367 L 136.874 37.113 L 138.002 36.668 L 138.002 33.256 C 138.002 32.659 137.891 32.244 137.67 32.011 C 137.449 31.78 137.068 31.665 136.528 31.665 C 135.887 31.665 135.343 31.85 134.898 32.22 L 134.898 36.668 Z M 143.51 36.668 L 144.7 37.113 L 144.7 37.367 L 141.117 37.367 L 141.117 37.113 L 142.311 36.668 L 142.311 32.002 L 141.117 31.552 L 141.117 31.297 L 143.373 30.852 L 143.51 30.984 L 143.51 36.668 Z M 141.875 28.98 C 141.875 28.765 141.954 28.582 142.112 28.431 C 142.27 28.279 142.466 28.203 142.7 28.203 C 142.924 28.203 143.115 28.279 143.273 28.431 C 143.431 28.582 143.51 28.765 143.51 28.98 C 143.51 29.204 143.431 29.392 143.273 29.544 C 143.115 29.695 142.924 29.771 142.7 29.771 C 142.466 29.771 142.27 29.695 142.112 29.544 C 141.954 29.392 141.875 29.204 141.875 28.98 Z M 151.409 34.046 L 151.219 34.223 L 147.03 34.223 C 147.034 34.687 147.103 35.091 147.239 35.436 C 147.371 35.779 147.552 36.048 147.779 36.245 C 148.01 36.439 148.262 36.581 148.537 36.672 C 148.809 36.763 149.108 36.809 149.433 36.809 C 149.882 36.809 150.364 36.663 150.878 36.372 L 151.077 36.745 C 150.714 37.051 150.352 37.257 149.992 37.363 C 149.629 37.469 149.215 37.522 148.751 37.522 C 148.35 37.522 147.964 37.44 147.594 37.277 C 147.222 37.113 146.895 36.887 146.613 36.6 C 146.332 36.312 146.108 35.959 145.94 35.541 C 145.773 35.123 145.689 34.672 145.689 34.187 C 145.689 33.727 145.751 33.307 145.874 32.929 C 145.997 32.55 146.16 32.235 146.362 31.984 C 146.564 31.729 146.801 31.516 147.073 31.343 C 147.342 31.167 147.618 31.042 147.902 30.966 C 148.184 30.89 148.471 30.852 148.765 30.852 C 149.132 30.852 149.473 30.917 149.788 31.048 C 150.101 31.178 150.379 31.37 150.622 31.625 C 150.866 31.879 151.058 32.214 151.201 32.629 C 151.34 33.043 151.409 33.516 151.409 34.046 Z M 148.793 31.452 C 148.294 31.452 147.897 31.641 147.604 32.02 C 147.307 32.396 147.124 32.91 147.054 33.565 L 150.144 33.565 C 150.144 32.904 150.029 32.387 149.798 32.011 C 149.564 31.638 149.229 31.452 148.793 31.452 Z M 156.419 31.007 L 159.167 31.007 L 159.167 31.261 L 158.238 31.706 L 158.238 31.665 L 155.926 37.381 L 155.215 37.522 L 152.656 31.706 L 151.736 31.261 L 151.736 31.007 L 154.912 31.007 L 154.912 31.261 L 153.897 31.638 L 155.769 35.932 L 157.376 31.629 L 156.419 31.261 L 156.419 31.007 Z M 165.277 34.046 L 165.087 34.223 L 160.898 34.223 C 160.902 34.687 160.971 35.091 161.107 35.436 C 161.239 35.779 161.42 36.048 161.647 36.245 C 161.878 36.439 162.13 36.581 162.405 36.672 C 162.677 36.763 162.976 36.809 163.301 36.809 C 163.75 36.809 164.232 36.663 164.746 36.372 L 164.945 36.745 C 164.582 37.051 164.22 37.257 163.86 37.363 C 163.497 37.469 163.083 37.522 162.618 37.522 C 162.218 37.522 161.832 37.44 161.462 37.277 C 161.09 37.113 160.763 36.887 160.481 36.6 C 160.2 36.312 159.976 35.959 159.808 35.541 C 159.641 35.123 159.557 34.672 159.557 34.187 C 159.557 33.727 159.619 33.307 159.742 32.929 C 159.865 32.55 160.028 32.235 160.23 31.984 C 160.432 31.729 160.669 31.516 160.941 31.343 C 161.21 31.167 161.486 31.042 161.77 30.966 C 162.052 30.89 162.339 30.852 162.633 30.852 C 162.999 30.852 163.341 30.917 163.656 31.048 C 163.969 31.178 164.247 31.37 164.49 31.625 C 164.734 31.879 164.926 32.214 165.069 32.629 C 165.208 33.043 165.277 33.516 165.277 34.046 Z M 162.661 31.452 C 162.162 31.452 161.765 31.641 161.472 32.02 C 161.175 32.396 160.992 32.91 160.922 33.565 L 164.012 33.565 C 164.012 32.904 163.897 32.387 163.666 32.011 C 163.432 31.638 163.097 31.452 162.661 31.452 Z M 168.656 36.668 L 170.182 37.113 L 170.182 37.367 L 166.268 37.367 L 166.268 37.113 L 167.462 36.668 L 167.462 32.002 L 166.268 31.552 L 166.268 31.297 L 168.524 30.852 L 168.656 30.984 L 168.656 31.747 C 169.31 31.151 170.173 30.852 171.244 30.852 L 171.244 32.229 L 170.978 32.315 L 170.035 31.82 C 169.84 31.82 169.617 31.861 169.367 31.943 C 169.117 32.021 168.88 32.138 168.656 32.292 L 168.656 36.668 Z M 172.232 35.268 L 172.564 35.268 L 173.256 36.677 C 173.313 36.71 173.382 36.74 173.464 36.768 C 173.546 36.795 173.635 36.819 173.73 36.84 C 173.825 36.862 173.922 36.878 174.024 36.89 C 174.121 36.903 174.218 36.909 174.313 36.909 C 174.534 36.909 174.733 36.886 174.91 36.84 C 175.09 36.798 175.244 36.736 175.374 36.654 C 175.504 36.575 175.603 36.477 175.673 36.359 C 175.742 36.241 175.777 36.108 175.777 35.959 C 175.777 35.762 175.693 35.576 175.526 35.4 C 175.361 35.224 175.128 35.053 174.825 34.887 L 174.133 34.514 C 173.886 34.39 173.655 34.263 173.441 34.133 C 173.226 33.999 173.039 33.854 172.882 33.696 C 172.72 33.539 172.594 33.365 172.502 33.174 C 172.411 32.983 172.365 32.77 172.365 32.533 C 172.365 32.248 172.422 32 172.536 31.788 C 172.652 31.579 172.82 31.405 173.038 31.266 C 173.253 31.126 173.512 31.022 173.815 30.952 C 174.121 30.885 174.46 30.852 174.829 30.852 C 175.401 30.852 175.971 30.942 176.54 31.12 L 176.516 32.915 L 176.251 32.915 L 175.564 31.452 C 175.399 31.434 175.257 31.417 175.137 31.402 C 175.02 31.39 174.922 31.384 174.843 31.384 C 174.609 31.384 174.407 31.41 174.237 31.461 C 174.066 31.516 173.926 31.585 173.815 31.67 C 173.708 31.755 173.626 31.85 173.569 31.956 C 173.515 32.065 173.488 32.178 173.488 32.292 C 173.488 32.429 173.515 32.551 173.569 32.66 C 173.626 32.773 173.706 32.877 173.81 32.974 C 173.917 33.074 174.05 33.173 174.208 33.269 C 174.37 33.366 174.556 33.469 174.768 33.578 C 175.068 33.736 175.317 33.864 175.516 33.964 C 175.712 34.064 175.853 34.143 175.938 34.201 C 176.617 34.634 176.957 35.135 176.957 35.705 C 176.957 36.01 176.879 36.278 176.725 36.509 C 176.573 36.739 176.372 36.931 176.123 37.086 C 175.877 37.24 175.597 37.355 175.284 37.431 C 174.974 37.51 174.662 37.549 174.346 37.549 C 174.181 37.549 174.005 37.539 173.815 37.517 C 173.626 37.496 173.434 37.467 173.242 37.431 C 173.052 37.391 172.87 37.346 172.697 37.295 C 172.523 37.243 172.368 37.187 172.232 37.127 L 172.232 35.268 Z" style="fill-rule: evenodd; white-space: pre; fill: url(#gradient-1);"/>
  <line style="stroke: rgb(0, 0, 0); mix-blend-mode: multiply;" x1="182.493" y1="42.325" x2="0" y2="42.325"/>
  <line style="stroke: rgb(0, 0, 0); mix-blend-mode: multiply;" x1="182.769" y1="0.602" x2="0.201" y2="0.602"/>
  <line style="stroke: rgb(0, 0, 0); mix-blend-mode: multiply;" x1="182.483" y1="0.192" x2="182.483" y2="42.517"/>
  <line style="stroke: rgb(0, 0, 0); mix-blend-mode: multiply;" x1="0.542" y1="0.248" x2="0.542" y2="42.545"/>
</svg>