<?xml version="1.0" encoding="utf-8"?>
<svg viewBox="0 0 182.769 42.545" xmlns="http://www.w3.org/2000/svg">
  <defs>
    <radialGradient id="gradient-11" gradientUnits="userSpaceOnUse" cx="250.094" cy="63.914" r="183.156">
      <stop offset="0" style="stop-color: rgba(0, 90, 142, 1)"/>
      <stop offset="1" style="stop-color: rgba(0, 25, 40, 1)"/>
    </radialGradient>
  </defs>
  <rect x="0.2" width="182.144" height="41.874" style="fill-rule: evenodd; fill: rgb(255, 255, 255);"/>
  <g transform="matrix(0.010473, 0, 0, -0.00783, 82.594505, 24.472408)" fill="#000000" stroke="none" style="">
    <path d="M 980 2389 C 928 2380 865 2364 841 2356 C 817 2347 791 2332.351 784 2332.351 C 776 2332.351 742 2315.527 708 2298.527 C 674 2282.527 973.727 2383.261 965.727 2383.261 C 958.727 2383.261 654.42 2283.649 654.42 2277.649 C 654.42 2272.649 548.985 2221.755 541.985 2214.106 C 532.533 2203.778 454 2157 427 2126 C 417 2114 397 2092 382 2075 C 316 2001 247 1863 217 1745 C 204 1695 195 1620 193 1547 L 189 1429 L 138 1332 C 110 1279 74 1211 59 1181 C 43 1151 27 1111 24 1091 C 11 1023 53 925 105 902 C 125 892 129 884 128 842 C 128 814 133 783 139 772 C 145 761 150 730 150 704 C 150 676 157 645 169 626 C 185 600 188 578 187 492 L 185 390 L 230 350 C 304 285 363 268 494 274 C 555 276 626 282 652 285 C 688 290 701 289 704 279 C 706 271 720 220 735 165 C 767 49 774 34 800 20 C 830 4 864 42 857 83 C 844 167 784 364 767 378 C 742 398 692 400 606 385 C 458 360 362 368 319 411 C 300 430 299 440 305 513 C 312 597 309 608 267 671 C 253 692 251 703 260 726 C 273 759 273 761 252 776 C 236 788 234 828 245 893 C 253 937 241 956 200 965 C 147 977 120 1007 120 1053 C 120 1076 128 1109 138 1125 C 157 1156 238 1305 274 1375 C 290 1406 295 1435 296 1505 C 296 1555 300 1620 304 1650 C 311 1702 349 1829 360 1840 C 363 1843 374 1863 384 1886 C 412 1950 519 2070 595 2124 C 672 2177 776 2229 872 2262 C 925 2279 981.287 2312.314 1142.298 2309.947 C 1322.474 2307.298 1322 2291 1399 2267 C 1657 2185 1848 2020 1963 1778 C 2006 1687 2015 1663 2034 1573 C 2051 1495 2055 1320 2040 1255 C 2009 1113 1983 1045 1925 954 C 1875 876 1874 875 1788 789 C 1724 725 1576 620 1550 620 C 1546 620 1521 608 1496 594 C 1444 565 1426 533 1439 498 C 1444 485 1450 457 1454 435 C 1457 413 1465 377 1471 355 C 1482 315 1492 267 1505 198 C 1513 156 1545 117 1567 122 C 1576 124 1592 137 1602 151 C 1619 174 1620 182 1611 216 C 1599 255 1550 489 1550 502 C 1550 506 1580 524 1618 542 C 1752 608 1904 741 1989 869 C 2151 1113 2199 1431 2114 1700 C 2089 1780 2010 1942 1970 1993 C 1854 2143 1735 2238 1558 2321 C 1468 2364 1244 2411 1141 2409 C 1105 2408 1032 2399 980 2389 Z" style="fill: rgb(0, 90, 142);"/>
    <path d="M 1122 2053 C 1125 1982 1127 1975 1146 1972 C 1166 1969 1168 1974 1172 2022 C 1178 2107 1172 2130 1143 2130 C 1120 2130 1119 2129 1122 2053 Z" style="fill: rgb(0, 90, 142);"/>
    <path d="M 784 2025 C 771 1993 845 1880 868 1894 C 887 1905 882 1929 849 1986 C 819 2040 795 2054 784 2025 Z" style="fill: rgb(0, 90, 142);"/>
    <path d="M 1441 1986 C 1423 1956 1410 1923 1412 1913 C 1417 1885 1451 1892 1471 1925 C 1524 2014 1529 2040 1492 2040 C 1481 2040 1461 2018 1441 1986 Z" style="fill: rgb(0, 90, 142);"/>
    <path d="M 1045 1858 C 937 1831 820 1744 762 1647 C 666 1487 682 1273 800 1136 C 854 1072 881 1051 953 1016 C 1220 884 1543 1054 1590 1353 C 1625 1579 1474 1802 1247 1855 C 1178 1871 1105 1872 1045 1858 Z M 1298 1741 C 1360 1709 1425 1646 1461 1583 C 1491 1531 1493 1522 1493 1421 C 1493 1330 1490 1309 1470 1270 C 1431 1195 1388 1150 1315 1109 C 1248 1072 1241 1070 1151 1070 C 1068 1070 1051 1073 995 1100 C 860 1165 779 1304 794 1448 C 809 1596 893 1699 1050 1764 C 1058 1767 1108 1768 1160 1766 C 1234 1764 1265 1758 1298 1741 Z" style="fill: rgb(0, 90, 142);"/>
    <path d="M 526 1773 C 518 1752 532 1739 597 1705 C 651 1678 670 1678 670 1708 C 670 1726 650 1742 588 1772 C 542 1794 534 1794 526 1773 Z" style="fill: rgb(0, 90, 142);"/>
    <path d="M 1680 1757 C 1585 1700 1607 1656 1704 1710 C 1767 1746 1773 1752 1764 1774 C 1755 1797 1742 1794 1680 1757 Z" style="fill: rgb(0, 90, 142);"/>
    <path d="M 449 1438 C 427 1430 425 1419 442 1402 C 460 1384 575 1386 590 1405 C 598 1415 599 1424 594 1430 C 582 1441 474 1447 449 1438 Z" style="fill: rgb(0, 90, 142);"/>
    <path d="M 1702 1418 C 1705 1396 1710 1395 1780 1395 C 1850 1395 1855 1396 1858 1418 C 1861 1439 1859 1440 1780 1440 C 1701 1440 1699 1439 1702 1418 Z" style="fill: rgb(0, 90, 142);"/>
    <path d="M 1633 1153 C 1608 1144 1621 1115 1662 1086 C 1713 1051 1765 1045 1765 1074 C 1765 1101 1661 1163 1633 1153 Z" style="fill: rgb(0, 90, 142);"/>
    <path d="M 567 1114 C 487 1055 527 1028 618 1080 C 653 1101 670 1117 670 1130 C 670 1162 622 1155 567 1114 Z" style="fill: rgb(0, 90, 142);"/>
    <path d="M 837 932 C 814 906 780 837 780 817 C 780 804 786 800 802 802 C 826 805 878 882 879 916 C 880 944 856 953 837 932 Z" style="fill: rgb(0, 90, 142);"/>
    <path d="M 1421 937 C 1404 920 1407 906 1441 851 C 1465 813 1479 800 1496 800 C 1525 800 1526 823 1499 865 C 1489 882 1476 905 1471 916 C 1459 942 1436 952 1421 937 Z" style="fill: rgb(0, 90, 142);"/>
    <path d="M 1133 863 C 1114 856 1115 714 1133 707 C 1159 697 1171 717 1175 776 C 1179 853 1167 877 1133 863 Z" style="fill: rgb(0, 90, 142);"/>
  </g>
  <path d="M 68.493 54.412 L 68.493 53.852 L 76.973 53.852 C 78.406 53.852 79.716 54.069 80.903 54.502 C 82.083 54.935 83.11 55.569 83.983 56.402 C 84.85 57.229 85.53 58.289 86.023 59.582 C 86.51 60.869 86.753 62.332 86.753 63.972 C 86.753 65.939 86.336 67.685 85.503 69.212 C 84.676 70.739 83.52 71.922 82.033 72.762 C 80.546 73.602 78.85 74.022 76.943 74.022 L 68.493 74.022 L 68.493 73.462 L 71.013 72.482 L 71.013 55.402 L 68.493 54.412 Z M 76.783 55.322 L 73.683 55.322 L 73.683 72.572 L 76.863 72.572 C 77.783 72.572 78.66 72.395 79.493 72.042 C 80.326 71.682 81.07 71.165 81.723 70.492 C 82.376 69.819 82.896 68.945 83.283 67.872 C 83.67 66.792 83.863 65.582 83.863 64.242 C 83.863 61.375 83.25 59.172 82.023 57.632 C 80.79 56.092 79.043 55.322 76.783 55.322 ZM 94.149 72.482 L 97.369 73.462 L 97.369 74.022 L 89.109 74.022 L 89.109 73.462 L 91.629 72.482 L 91.629 62.212 L 89.109 61.222 L 89.109 60.662 L 93.869 59.682 L 94.149 59.972 L 94.149 61.652 C 95.529 60.339 97.349 59.682 99.609 59.682 L 99.609 62.712 L 99.049 62.902 L 97.059 61.812 C 96.646 61.812 96.176 61.902 95.649 62.082 C 95.122 62.255 94.622 62.512 94.149 62.852 L 94.149 72.482 ZM 113.345 66.712 L 112.945 67.102 L 104.105 67.102 C 104.111 68.122 104.258 69.012 104.545 69.772 C 104.825 70.525 105.205 71.119 105.685 71.552 C 106.171 71.979 106.705 72.292 107.285 72.492 C 107.858 72.692 108.488 72.792 109.175 72.792 C 110.121 72.792 111.138 72.472 112.225 71.832 L 112.645 72.652 C 111.878 73.325 111.115 73.779 110.355 74.012 C 109.588 74.245 108.715 74.362 107.735 74.362 C 106.888 74.362 106.075 74.182 105.295 73.822 C 104.508 73.462 103.818 72.965 103.225 72.332 C 102.631 71.699 102.158 70.922 101.805 70.002 C 101.451 69.082 101.275 68.089 101.275 67.022 C 101.275 66.009 101.405 65.085 101.665 64.252 C 101.925 63.419 102.268 62.725 102.695 62.172 C 103.121 61.612 103.621 61.142 104.195 60.762 C 104.761 60.375 105.345 60.099 105.945 59.932 C 106.538 59.765 107.145 59.682 107.765 59.682 C 108.538 59.682 109.258 59.825 109.925 60.112 C 110.585 60.399 111.171 60.822 111.685 61.382 C 112.198 61.942 112.605 62.679 112.905 63.592 C 113.198 64.505 113.345 65.545 113.345 66.712 Z M 107.825 61.002 C 106.771 61.002 105.935 61.419 105.315 62.252 C 104.688 63.079 104.301 64.212 104.155 65.652 L 110.675 65.652 C 110.675 64.199 110.431 63.059 109.945 62.232 C 109.451 61.412 108.745 61.002 107.825 61.002 ZM 126.345 72.122 L 128.875 72.822 L 128.875 73.322 L 125.915 74.242 C 125.329 74.369 124.835 74.302 124.435 74.042 C 124.035 73.782 123.835 73.339 123.835 72.712 C 122.649 73.812 121.259 74.362 119.665 74.362 C 118.345 74.362 117.355 74.022 116.695 73.342 C 116.042 72.655 115.715 71.799 115.715 70.772 C 115.715 69.992 115.889 69.305 116.235 68.712 C 116.582 68.112 117.022 67.635 117.555 67.282 C 118.095 66.929 118.739 66.632 119.485 66.392 C 120.232 66.159 120.952 65.995 121.645 65.902 C 122.339 65.809 123.069 65.752 123.835 65.732 L 123.835 64.422 C 123.835 63.149 123.635 62.262 123.235 61.762 C 122.835 61.255 122.169 61.002 121.235 61.002 C 120.535 61.002 119.712 61.112 118.765 61.332 L 117.315 64.502 L 116.645 64.502 L 116.645 60.612 C 117.465 60.319 118.332 60.089 119.245 59.922 C 120.152 59.762 120.952 59.682 121.645 59.682 C 123.152 59.682 124.312 59.985 125.125 60.592 C 125.939 61.199 126.345 62.192 126.345 63.572 L 126.345 72.122 Z M 120.815 72.762 C 121.335 72.762 121.869 72.639 122.415 72.392 C 122.962 72.139 123.435 71.792 123.835 71.352 L 123.835 66.862 C 122.009 66.942 120.619 67.312 119.665 67.972 C 118.705 68.632 118.225 69.472 118.225 70.492 C 118.225 71.279 118.479 71.855 118.985 72.222 C 119.485 72.582 120.095 72.762 120.815 72.762 ZM 135.298 72.482 L 137.668 73.462 L 137.668 74.022 L 130.258 74.022 L 130.258 73.462 L 132.778 72.482 L 132.778 62.212 L 130.258 61.222 L 130.258 60.662 L 135.018 59.682 L 135.298 59.972 L 135.298 61.592 C 135.925 60.992 136.652 60.522 137.478 60.182 C 138.298 59.849 139.128 59.682 139.968 59.682 C 140.788 59.682 141.532 59.875 142.198 60.262 C 142.865 60.649 143.365 61.229 143.698 62.002 C 144.332 61.282 145.102 60.715 146.008 60.302 C 146.915 59.889 147.832 59.682 148.758 59.682 C 149.305 59.682 149.822 59.769 150.308 59.942 C 150.788 60.115 151.222 60.375 151.608 60.722 C 151.995 61.075 152.305 61.545 152.538 62.132 C 152.765 62.712 152.878 63.382 152.878 64.142 L 152.878 72.482 L 155.408 73.462 L 155.408 74.022 L 147.978 74.022 L 147.978 73.462 L 150.358 72.482 L 150.358 64.972 C 150.358 63.665 150.135 62.755 149.688 62.242 C 149.235 61.729 148.472 61.472 147.398 61.472 C 146.038 61.472 144.888 61.915 143.948 62.802 C 144.042 63.255 144.088 63.702 144.088 64.142 L 144.088 72.482 L 146.468 73.462 L 146.468 74.022 L 139.188 74.022 L 139.188 73.462 L 141.568 72.482 L 141.568 64.972 C 141.568 63.665 141.342 62.755 140.888 62.242 C 140.442 61.729 139.678 61.472 138.598 61.472 C 137.305 61.472 136.205 61.879 135.298 62.692 L 135.298 72.482 ZM 178.278 69.712 L 184.268 53.852 L 189.738 53.852 L 189.738 54.412 L 187.358 55.402 L 187.358 72.482 L 189.868 73.462 L 189.868 74.022 L 183.008 74.022 L 183.008 73.462 L 185.198 72.482 L 185.198 56.792 L 185.028 56.792 L 178.598 74.022 L 177.208 74.022 L 171.058 56.742 L 170.928 56.742 L 170.928 72.342 L 173.148 73.462 L 173.148 74.022 L 166.708 74.022 L 166.708 73.462 L 169.088 72.342 L 169.088 55.402 L 166.578 54.412 L 166.578 53.852 L 173.098 53.852 L 173.148 55.152 L 178.168 69.712 L 178.278 69.712 ZM 203.002 72.122 L 205.532 72.822 L 205.532 73.322 L 202.572 74.242 C 201.985 74.369 201.492 74.302 201.092 74.042 C 200.692 73.782 200.492 73.339 200.492 72.712 C 199.305 73.812 197.915 74.362 196.322 74.362 C 195.002 74.362 194.012 74.022 193.352 73.342 C 192.699 72.655 192.372 71.799 192.372 70.772 C 192.372 69.992 192.545 69.305 192.892 68.712 C 193.239 68.112 193.679 67.635 194.212 67.282 C 194.752 66.929 195.395 66.632 196.142 66.392 C 196.889 66.159 197.609 65.995 198.302 65.902 C 198.995 65.809 199.725 65.752 200.492 65.732 L 200.492 64.422 C 200.492 63.149 200.292 62.262 199.892 61.762 C 199.492 61.255 198.825 61.002 197.892 61.002 C 197.192 61.002 196.369 61.112 195.422 61.332 L 193.972 64.502 L 193.302 64.502 L 193.302 60.612 C 194.122 60.319 194.989 60.089 195.902 59.922 C 196.809 59.762 197.609 59.682 198.302 59.682 C 199.809 59.682 200.969 59.985 201.782 60.592 C 202.595 61.199 203.002 62.192 203.002 63.572 L 203.002 72.122 Z M 197.472 72.762 C 197.992 72.762 198.525 72.639 199.072 72.392 C 199.619 72.139 200.092 71.792 200.492 71.352 L 200.492 66.862 C 198.665 66.942 197.275 67.312 196.322 67.972 C 195.362 68.632 194.882 69.472 194.882 70.492 C 194.882 71.279 195.135 71.855 195.642 72.222 C 196.142 72.582 196.752 72.762 197.472 72.762 ZM 211.815 72.482 L 214.055 73.462 L 214.055 74.022 L 206.765 74.022 L 206.765 73.462 L 209.295 72.482 L 209.295 55.212 L 206.765 54.222 L 206.765 53.662 L 211.545 52.682 L 211.815 52.972 L 211.815 66.382 L 213.045 66.092 L 217.135 61.282 L 215.345 60.582 L 215.345 60.022 L 221.305 60.022 L 221.305 60.582 L 218.955 61.512 L 214.945 66.212 L 219.715 72.502 L 219.715 72.482 L 222.095 73.462 L 222.095 74.022 L 217.925 74.022 L 212.795 67.422 L 211.815 67.422 L 211.815 72.482 ZM 235.55 66.712 L 235.15 67.102 L 226.31 67.102 C 226.317 68.122 226.463 69.012 226.75 69.772 C 227.03 70.525 227.41 71.119 227.89 71.552 C 228.377 71.979 228.91 72.292 229.49 72.492 C 230.063 72.692 230.693 72.792 231.38 72.792 C 232.327 72.792 233.343 72.472 234.43 71.832 L 234.85 72.652 C 234.083 73.325 233.32 73.779 232.56 74.012 C 231.793 74.245 230.92 74.362 229.94 74.362 C 229.093 74.362 228.28 74.182 227.5 73.822 C 226.713 73.462 226.023 72.965 225.43 72.332 C 224.837 71.699 224.363 70.922 224.01 70.002 C 223.657 69.082 223.48 68.089 223.48 67.022 C 223.48 66.009 223.61 65.085 223.87 64.252 C 224.13 63.419 224.473 62.725 224.9 62.172 C 225.327 61.612 225.827 61.142 226.4 60.762 C 226.967 60.375 227.55 60.099 228.15 59.932 C 228.743 59.765 229.35 59.682 229.97 59.682 C 230.743 59.682 231.463 59.825 232.13 60.112 C 232.79 60.399 233.377 60.822 233.89 61.382 C 234.403 61.942 234.81 62.679 235.11 63.592 C 235.403 64.505 235.55 65.545 235.55 66.712 Z M 230.03 61.002 C 228.977 61.002 228.14 61.419 227.52 62.252 C 226.893 63.079 226.507 64.212 226.36 65.652 L 232.88 65.652 C 232.88 64.199 232.637 63.059 232.15 62.232 C 231.657 61.412 230.95 61.002 230.03 61.002 ZM 242.681 72.482 L 245.901 73.462 L 245.901 74.022 L 237.641 74.022 L 237.641 73.462 L 240.161 72.482 L 240.161 62.212 L 237.641 61.222 L 237.641 60.662 L 242.401 59.682 L 242.681 59.972 L 242.681 61.652 C 244.061 60.339 245.881 59.682 248.141 59.682 L 248.141 62.712 L 247.581 62.902 L 245.591 61.812 C 245.177 61.812 244.707 61.902 244.181 62.082 C 243.654 62.255 243.154 62.512 242.681 62.852 L 242.681 72.482 ZM 250.227 69.402 L 250.927 69.402 L 252.387 72.502 C 252.507 72.575 252.653 72.642 252.827 72.702 C 253 72.762 253.187 72.815 253.387 72.862 C 253.587 72.909 253.793 72.945 254.007 72.972 C 254.213 72.999 254.417 73.012 254.617 73.012 C 255.083 73.012 255.503 72.962 255.877 72.862 C 256.257 72.769 256.583 72.632 256.857 72.452 C 257.13 72.279 257.34 72.062 257.487 71.802 C 257.633 71.542 257.707 71.249 257.707 70.922 C 257.707 70.489 257.53 70.079 257.177 69.692 C 256.83 69.305 256.337 68.929 255.697 68.562 L 254.237 67.742 C 253.717 67.469 253.23 67.189 252.777 66.902 C 252.323 66.609 251.93 66.289 251.597 65.942 C 251.257 65.595 250.99 65.212 250.797 64.792 C 250.603 64.372 250.507 63.902 250.507 63.382 C 250.507 62.755 250.627 62.209 250.867 61.742 C 251.113 61.282 251.467 60.899 251.927 60.592 C 252.38 60.285 252.927 60.055 253.567 59.902 C 254.213 59.755 254.927 59.682 255.707 59.682 C 256.913 59.682 258.117 59.879 259.317 60.272 L 259.267 64.222 L 258.707 64.222 L 257.257 61.002 C 256.91 60.962 256.61 60.925 256.357 60.892 C 256.11 60.865 255.903 60.852 255.737 60.852 C 255.243 60.852 254.817 60.909 254.457 61.022 C 254.097 61.142 253.8 61.295 253.567 61.482 C 253.34 61.669 253.167 61.879 253.047 62.112 C 252.933 62.352 252.877 62.599 252.877 62.852 C 252.877 63.152 252.933 63.422 253.047 63.662 C 253.167 63.909 253.337 64.139 253.557 64.352 C 253.783 64.572 254.063 64.789 254.397 65.002 C 254.737 65.215 255.13 65.442 255.577 65.682 C 256.21 66.029 256.737 66.312 257.157 66.532 C 257.57 66.752 257.867 66.925 258.047 67.052 C 259.48 68.005 260.197 69.109 260.197 70.362 C 260.197 71.035 260.033 71.625 259.707 72.132 C 259.387 72.639 258.963 73.062 258.437 73.402 C 257.917 73.742 257.327 73.995 256.667 74.162 C 256.013 74.335 255.353 74.422 254.687 74.422 C 254.34 74.422 253.967 74.399 253.567 74.352 C 253.167 74.305 252.763 74.242 252.357 74.162 C 251.957 74.075 251.573 73.975 251.207 73.862 C 250.84 73.749 250.513 73.625 250.227 73.492 L 250.227 69.402 ZM 287.659 65.152 L 285.459 64.162 L 285.459 63.602 L 291.079 63.602 L 291.079 64.162 L 289.179 65.062 C 288.445 67.015 287.589 68.685 286.609 70.072 L 288.839 72.502 L 291.719 73.462 L 291.719 74.022 L 286.479 74.022 L 284.749 72.152 C 282.922 73.772 280.805 74.582 278.399 74.582 C 277.612 74.582 276.872 74.482 276.179 74.282 C 275.485 74.082 274.865 73.789 274.319 73.402 C 273.772 73.022 273.339 72.515 273.019 71.882 C 272.699 71.249 272.539 70.535 272.539 69.742 C 272.539 69.262 272.575 68.829 272.649 68.442 C 272.722 68.062 272.849 67.702 273.029 67.362 C 273.209 67.029 273.405 66.729 273.619 66.462 C 273.825 66.195 274.125 65.912 274.519 65.612 C 274.912 65.312 275.292 65.042 275.659 64.802 C 276.032 64.562 276.522 64.259 277.129 63.892 L 275.819 62.432 C 274.872 61.372 274.399 60.122 274.399 58.682 C 274.399 58.029 274.525 57.392 274.779 56.772 C 275.032 56.159 275.382 55.612 275.829 55.132 C 276.275 54.652 276.839 54.269 277.519 53.982 C 278.199 53.695 278.932 53.552 279.719 53.552 C 281.292 53.552 282.535 53.992 283.449 54.872 C 284.362 55.752 284.819 56.809 284.819 58.042 C 284.819 59.162 284.502 60.122 283.869 60.922 C 283.235 61.715 282.149 62.572 280.609 63.492 L 285.679 69.032 C 286.379 67.985 287.039 66.692 287.659 65.152 Z M 279.319 72.952 C 281.072 72.952 282.585 72.365 283.859 71.192 L 278.169 65.012 C 276.435 66.279 275.569 67.732 275.569 69.372 C 275.569 70.652 275.899 71.569 276.559 72.122 C 277.212 72.675 278.132 72.952 279.319 72.952 Z M 276.859 57.942 C 276.859 58.909 277.135 59.692 277.689 60.292 L 279.579 62.372 C 280.719 61.619 281.492 60.912 281.899 60.252 C 282.312 59.585 282.519 58.865 282.519 58.092 C 282.519 57.092 282.269 56.309 281.769 55.742 C 281.275 55.175 280.635 54.892 279.849 54.892 C 278.969 54.892 278.249 55.202 277.689 55.822 C 277.135 56.442 276.859 57.149 276.859 57.942 ZM 317.127 72.732 L 315.017 67.392 L 307.807 67.392 L 305.807 72.732 L 308.107 73.462 L 308.107 74.022 L 301.587 74.022 L 301.587 73.462 L 303.957 72.482 L 311.097 53.852 L 312.357 53.852 L 319.667 72.482 L 321.917 73.462 L 321.917 74.022 L 314.917 74.022 L 314.917 73.462 L 317.127 72.732 Z M 311.417 58.042 L 311.307 58.042 L 308.367 65.932 L 314.457 65.932 L 311.417 58.042 ZM 329.194 74.362 C 328.34 74.362 327.524 74.189 326.744 73.842 C 325.964 73.489 325.277 72.999 324.684 72.372 C 324.09 71.752 323.617 70.975 323.264 70.042 C 322.91 69.115 322.734 68.109 322.734 67.022 C 322.734 65.849 322.91 64.785 323.264 63.832 C 323.617 62.885 324.107 62.112 324.734 61.512 C 325.36 60.912 326.077 60.452 326.884 60.132 C 327.697 59.812 328.574 59.652 329.514 59.652 C 330.854 59.652 332.17 59.952 333.464 60.552 L 333.464 64.782 L 332.904 64.782 L 331.384 61.112 C 330.837 60.985 330.297 60.922 329.764 60.922 C 328.33 60.922 327.27 61.452 326.584 62.512 C 325.904 63.565 325.564 65.069 325.564 67.022 C 325.564 68.882 326.014 70.309 326.914 71.302 C 327.814 72.295 329.054 72.792 330.634 72.792 C 331.174 72.792 331.66 72.722 332.094 72.582 C 332.527 72.442 333.057 72.192 333.684 71.832 L 334.104 72.712 C 333.297 73.345 332.514 73.779 331.754 74.012 C 331 74.245 330.147 74.362 329.194 74.362 ZM 341.097 72.482 L 343.477 73.462 L 343.477 74.022 L 336.047 74.022 L 336.047 73.462 L 338.577 72.482 L 338.577 55.212 L 336.047 54.222 L 336.047 53.662 L 340.827 52.682 L 341.097 52.972 L 341.097 61.622 C 341.737 61.022 342.487 60.549 343.347 60.202 C 344.214 59.855 345.067 59.682 345.907 59.682 C 347.141 59.682 348.161 60.055 348.967 60.802 C 349.774 61.549 350.177 62.662 350.177 64.142 L 350.177 72.482 L 352.687 73.462 L 352.687 74.022 L 345.267 74.022 L 345.267 73.462 L 347.647 72.482 L 347.647 64.972 C 347.647 63.659 347.414 62.745 346.947 62.232 C 346.481 61.725 345.677 61.472 344.537 61.472 C 343.184 61.472 342.037 61.879 341.097 62.692 L 341.097 72.482 ZM 359.271 72.482 L 361.781 73.462 L 361.781 74.022 L 354.221 74.022 L 354.221 73.462 L 356.741 72.482 L 356.741 62.212 L 354.221 61.222 L 354.221 60.662 L 358.981 59.682 L 359.271 59.972 L 359.271 72.482 Z M 355.821 55.562 C 355.821 55.089 355.987 54.685 356.321 54.352 C 356.654 54.019 357.067 53.852 357.561 53.852 C 358.034 53.852 358.437 54.019 358.771 54.352 C 359.104 54.685 359.271 55.089 359.271 55.562 C 359.271 56.055 359.104 56.469 358.771 56.802 C 358.437 57.135 358.034 57.302 357.561 57.302 C 357.067 57.302 356.654 57.135 356.321 56.802 C 355.987 56.469 355.821 56.055 355.821 55.562 ZM 375.939 66.712 L 375.539 67.102 L 366.699 67.102 C 366.706 68.122 366.853 69.012 367.139 69.772 C 367.419 70.525 367.799 71.119 368.279 71.552 C 368.766 71.979 369.299 72.292 369.879 72.492 C 370.453 72.692 371.083 72.792 371.769 72.792 C 372.716 72.792 373.733 72.472 374.819 71.832 L 375.239 72.652 C 374.473 73.325 373.709 73.779 372.949 74.012 C 372.183 74.245 371.309 74.362 370.329 74.362 C 369.483 74.362 368.669 74.182 367.889 73.822 C 367.103 73.462 366.413 72.965 365.819 72.332 C 365.226 71.699 364.753 70.922 364.399 70.002 C 364.046 69.082 363.869 68.089 363.869 67.022 C 363.869 66.009 363.999 65.085 364.259 64.252 C 364.519 63.419 364.863 62.725 365.289 62.172 C 365.716 61.612 366.216 61.142 366.789 60.762 C 367.356 60.375 367.939 60.099 368.539 59.932 C 369.133 59.765 369.739 59.682 370.359 59.682 C 371.133 59.682 371.853 59.825 372.519 60.112 C 373.179 60.399 373.766 60.822 374.279 61.382 C 374.793 61.942 375.199 62.679 375.499 63.592 C 375.793 64.505 375.939 65.545 375.939 66.712 Z M 370.419 61.002 C 369.366 61.002 368.529 61.419 367.909 62.252 C 367.283 63.079 366.896 64.212 366.749 65.652 L 373.269 65.652 C 373.269 64.199 373.026 63.059 372.539 62.232 C 372.046 61.412 371.339 61.002 370.419 61.002 ZM 386.51 60.022 L 392.31 60.022 L 392.31 60.582 L 390.35 61.562 L 390.35 61.472 L 385.47 74.052 L 383.97 74.362 L 378.57 61.562 L 376.63 60.582 L 376.63 60.022 L 383.33 60.022 L 383.33 60.582 L 381.19 61.412 L 385.14 70.862 L 388.53 61.392 L 386.51 60.582 L 386.51 60.022 ZM 405.203 66.712 L 404.803 67.102 L 395.963 67.102 C 395.97 68.122 396.117 69.012 396.403 69.772 C 396.683 70.525 397.063 71.119 397.543 71.552 C 398.03 71.979 398.563 72.292 399.143 72.492 C 399.717 72.692 400.347 72.792 401.033 72.792 C 401.98 72.792 402.997 72.472 404.083 71.832 L 404.503 72.652 C 403.737 73.325 402.973 73.779 402.213 74.012 C 401.447 74.245 400.573 74.362 399.593 74.362 C 398.747 74.362 397.933 74.182 397.153 73.822 C 396.367 73.462 395.677 72.965 395.083 72.332 C 394.49 71.699 394.017 70.922 393.663 70.002 C 393.31 69.082 393.133 68.089 393.133 67.022 C 393.133 66.009 393.263 65.085 393.523 64.252 C 393.783 63.419 394.127 62.725 394.553 62.172 C 394.98 61.612 395.48 61.142 396.053 60.762 C 396.62 60.375 397.203 60.099 397.803 59.932 C 398.397 59.765 399.003 59.682 399.623 59.682 C 400.397 59.682 401.117 59.825 401.783 60.112 C 402.443 60.399 403.03 60.822 403.543 61.382 C 404.057 61.942 404.463 62.679 404.763 63.592 C 405.057 64.505 405.203 65.545 405.203 66.712 Z M 399.683 61.002 C 398.63 61.002 397.793 61.419 397.173 62.252 C 396.547 63.079 396.16 64.212 396.013 65.652 L 402.533 65.652 C 402.533 64.199 402.29 63.059 401.803 62.232 C 401.31 61.412 400.603 61.002 399.683 61.002 ZM 412.334 72.482 L 415.554 73.462 L 415.554 74.022 L 407.294 74.022 L 407.294 73.462 L 409.814 72.482 L 409.814 62.212 L 407.294 61.222 L 407.294 60.662 L 412.054 59.682 L 412.334 59.972 L 412.334 61.652 C 413.714 60.339 415.534 59.682 417.794 59.682 L 417.794 62.712 L 417.234 62.902 L 415.244 61.812 C 414.831 61.812 414.361 61.902 413.834 62.082 C 413.307 62.255 412.807 62.512 412.334 62.852 L 412.334 72.482 ZM 419.88 69.402 L 420.58 69.402 L 422.04 72.502 C 422.16 72.575 422.306 72.642 422.48 72.702 C 422.653 72.762 422.84 72.815 423.04 72.862 C 423.24 72.909 423.446 72.945 423.66 72.972 C 423.866 72.999 424.07 73.012 424.27 73.012 C 424.736 73.012 425.156 72.962 425.53 72.862 C 425.91 72.769 426.236 72.632 426.51 72.452 C 426.783 72.279 426.993 72.062 427.14 71.802 C 427.286 71.542 427.36 71.249 427.36 70.922 C 427.36 70.489 427.183 70.079 426.83 69.692 C 426.483 69.305 425.99 68.929 425.35 68.562 L 423.89 67.742 C 423.37 67.469 422.883 67.189 422.43 66.902 C 421.976 66.609 421.583 66.289 421.25 65.942 C 420.91 65.595 420.643 65.212 420.45 64.792 C 420.256 64.372 420.16 63.902 420.16 63.382 C 420.16 62.755 420.28 62.209 420.52 61.742 C 420.766 61.282 421.12 60.899 421.58 60.592 C 422.033 60.285 422.58 60.055 423.22 59.902 C 423.866 59.755 424.58 59.682 425.36 59.682 C 426.566 59.682 427.77 59.879 428.97 60.272 L 428.92 64.222 L 428.36 64.222 L 426.91 61.002 C 426.563 60.962 426.263 60.925 426.01 60.892 C 425.763 60.865 425.556 60.852 425.39 60.852 C 424.896 60.852 424.47 60.909 424.11 61.022 C 423.75 61.142 423.453 61.295 423.22 61.482 C 422.993 61.669 422.82 61.879 422.7 62.112 C 422.586 62.352 422.53 62.599 422.53 62.852 C 422.53 63.152 422.586 63.422 422.7 63.662 C 422.82 63.909 422.99 64.139 423.21 64.352 C 423.436 64.572 423.716 64.789 424.05 65.002 C 424.39 65.215 424.783 65.442 425.23 65.682 C 425.863 66.029 426.39 66.312 426.81 66.532 C 427.223 66.752 427.52 66.925 427.7 67.052 C 429.133 68.005 429.85 69.109 429.85 70.362 C 429.85 71.035 429.686 71.625 429.36 72.132 C 429.04 72.639 428.616 73.062 428.09 73.402 C 427.57 73.742 426.98 73.995 426.32 74.162 C 425.666 74.335 425.006 74.422 424.34 74.422 C 423.993 74.422 423.62 74.399 423.22 74.352 C 422.82 74.305 422.416 74.242 422.01 74.162 C 421.61 74.075 421.226 73.975 420.86 73.862 C 420.493 73.749 420.166 73.625 419.88 73.492 L 419.88 69.402 Z" transform="matrix(0.4738920331001282, 0, 0, 0.4543370306491852, -26.74549102783203, 3.7364559173583984)" style="fill: url(#gradient-11); fill-rule: evenodd; white-space: pre;"/>
  <line style="stroke: rgb(0, 0, 0); mix-blend-mode: multiply;" x1="182.493" y1="42.325" x2="0" y2="42.325"/>
  <line style="stroke: rgb(0, 0, 0); mix-blend-mode: multiply;" x1="182.769" y1="0.602" x2="0.201" y2="0.602"/>
  <line style="stroke: rgb(0, 0, 0); mix-blend-mode: multiply;" x1="182.483" y1="0.192" x2="182.483" y2="42.517"/>
  <line style="stroke: rgb(0, 0, 0); mix-blend-mode: multiply;" x1="0.542" y1="0.248" x2="0.542" y2="42.545"/>
</svg>