<?xml version="1.0" encoding="utf-8"?>
<svg viewBox="0 0 243.144 68.138" xmlns="http://www.w3.org/2000/svg">
  <defs>
    <linearGradient id="gradient-5" gradientUnits="userSpaceOnUse" x1="121.572" y1="0" x2="121.572" y2="68.138" gradientTransform="matrix(1, 0, 0, 1, 0, 0)">
      <stop offset="0" style="stop-color: rgba(0, 87, 141, 1)"/>
      <stop offset="1" style="stop-color: rgba(0, 24, 39, 1)"/>
    </linearGradient>
    <radialGradient id="gradient-48" gradientUnits="userSpaceOnUse" cx="1088.5" cy="1212.66" r="1066.885">
      <stop offset="0" style="stop-color: rgba(202, 255, 248, 1)"/>
      <stop offset="1" style="stop-color: rgba(100, 255, 234, 1)"/>
    </radialGradient>
    <radialGradient id="gradient-49" gradientUnits="userSpaceOnUse" cx="1147.441" cy="2050.653" r="26.661">
      <stop offset="0" style="stop-color: rgba(202, 255, 248, 1)"/>
      <stop offset="1" style="stop-color: rgba(100, 255, 234, 1)"/>
    </radialGradient>
    <radialGradient id="gradient-50" gradientUnits="userSpaceOnUse" cx="830.762" cy="1966.295" r="48.282">
      <stop offset="0" style="stop-color: rgba(202, 255, 248, 1)"/>
      <stop offset="1" style="stop-color: rgba(100, 255, 234, 1)"/>
    </radialGradient>
    <radialGradient id="gradient-51" gradientUnits="userSpaceOnUse" cx="1463.877" cy="1967.787" r="52.08">
      <stop offset="0" style="stop-color: rgba(202, 255, 248, 1)"/>
      <stop offset="1" style="stop-color: rgba(100, 255, 234, 1)"/>
    </radialGradient>
    <radialGradient id="gradient-52" gradientUnits="userSpaceOnUse" cx="1147.255" cy="1419.264" r="447.78">
      <stop offset="0" style="stop-color: rgba(202, 255, 248, 1)"/>
      <stop offset="1" style="stop-color: rgba(100, 255, 234, 1)"/>
    </radialGradient>
    <radialGradient id="gradient-53" gradientUnits="userSpaceOnUse" cx="596.984" cy="1736.869" r="73.016">
      <stop offset="0" style="stop-color: rgba(202, 255, 248, 1)"/>
      <stop offset="1" style="stop-color: rgba(100, 255, 234, 1)"/>
    </radialGradient>
    <radialGradient id="gradient-54" gradientUnits="userSpaceOnUse" cx="1693.147" cy="1737.055" r="74.172">
      <stop offset="0" style="stop-color: rgba(202, 255, 248, 1)"/>
      <stop offset="1" style="stop-color: rgba(100, 255, 234, 1)"/>
    </radialGradient>
    <radialGradient id="gradient-55" gradientUnits="userSpaceOnUse" cx="513.868" cy="1415.966" r="83.188">
      <stop offset="0" style="stop-color: rgba(202, 255, 248, 1)"/>
      <stop offset="1" style="stop-color: rgba(100, 255, 234, 1)"/>
    </radialGradient>
    <radialGradient id="gradient-56" gradientUnits="userSpaceOnUse" cx="1780" cy="1417.5" r="78.77">
      <stop offset="0" style="stop-color: rgba(202, 255, 248, 1)"/>
      <stop offset="1" style="stop-color: rgba(100, 255, 234, 1)"/>
    </radialGradient>
    <radialGradient id="gradient-57" gradientUnits="userSpaceOnUse" cx="1692.642" cy="1104.804" r="72.358">
      <stop offset="0" style="stop-color: rgba(202, 255, 248, 1)"/>
      <stop offset="1" style="stop-color: rgba(100, 255, 234, 1)"/>
    </radialGradient>
    <radialGradient id="gradient-58" gradientUnits="userSpaceOnUse" cx="596.993" cy="1101.198" r="73.007">
      <stop offset="0" style="stop-color: rgba(202, 255, 248, 1)"/>
      <stop offset="1" style="stop-color: rgba(100, 255, 234, 1)"/>
    </radialGradient>
    <radialGradient id="gradient-59" gradientUnits="userSpaceOnUse" cx="829.515" cy="872.531" r="49.515">
      <stop offset="0" style="stop-color: rgba(202, 255, 248, 1)"/>
      <stop offset="1" style="stop-color: rgba(100, 255, 234, 1)"/>
    </radialGradient>
    <radialGradient id="gradient-60" gradientUnits="userSpaceOnUse" cx="1464.706" cy="872.008" r="53.82">
      <stop offset="0" style="stop-color: rgba(202, 255, 248, 1)"/>
      <stop offset="1" style="stop-color: rgba(100, 255, 234, 1)"/>
    </radialGradient>
    <radialGradient id="gradient-61" gradientUnits="userSpaceOnUse" cx="1147.431" cy="785.66" r="28.308">
      <stop offset="0" style="stop-color: rgba(202, 255, 248, 1)"/>
      <stop offset="1" style="stop-color: rgba(100, 255, 234, 1)"/>
    </radialGradient>
  </defs>
  <rect width="243.144" height="68.138" style="fill-rule: evenodd; stroke: rgb(0, 0, 0); fill: url(#gradient-5);"/>
  <g transform="matrix(0.015085, 0, 0, -0.009435, 109.2948, 37.498631)" fill="#000000" stroke="none" style="">
    <path d="M 980 2389 C 928 2380 865 2364 841 2356 C 817 2347 791 2332.351 784 2332.351 C 776 2332.351 742 2315.527 708 2298.527 C 674 2282.527 973.727 2383.261 965.727 2383.261 C 958.727 2383.261 654.42 2283.649 654.42 2277.649 C 654.42 2272.649 548.985 2221.755 541.985 2214.106 C 532.533 2203.778 454 2157 427 2126 C 417 2114 397 2092 382 2075 C 316 2001 247 1863 217 1745 C 204 1695 195 1620 193 1547 L 189 1429 L 138 1332 C 110 1279 74 1211 59 1181 C 43 1151 27 1111 24 1091 C 11 1023 53 925 105 902 C 125 892 129 884 128 842 C 128 814 133 783 139 772 C 145 761 150 730 150 704 C 150 676 157 645 169 626 C 185 600 188 578 187 492 L 185 390 L 230 350 C 304 285 363 268 494 274 C 555 276 626 282 652 285 C 688 290 701 289 704 279 C 706 271 720 220 735 165 C 767 49 774 34 800 20 C 830 4 864 42 857 83 C 844 167 784 364 767 378 C 742 398 692 400 606 385 C 458 360 362 368 319 411 C 300 430 299 440 305 513 C 312 597 309 608 267 671 C 253 692 251 703 260 726 C 273 759 273 761 252 776 C 236 788 234 828 245 893 C 253 937 241 956 200 965 C 147 977 120 1007 120 1053 C 120 1076 128 1109 138 1125 C 157 1156 238 1305 274 1375 C 290 1406 295 1435 296 1505 C 296 1555 300 1620 304 1650 C 311 1702 349 1829 360 1840 C 363 1843 374 1863 384 1886 C 412 1950 519 2070 595 2124 C 672 2177 776 2229 872 2262 C 925 2279 981.287 2312.314 1142.298 2309.947 C 1322.474 2307.298 1322 2291 1399 2267 C 1657 2185 1848 2020 1963 1778 C 2006 1687 2015 1663 2034 1573 C 2051 1495 2055 1320 2040 1255 C 2009 1113 1983 1045 1925 954 C 1875 876 1874 875 1788 789 C 1724 725 1576 620 1550 620 C 1546 620 1521 608 1496 594 C 1444 565 1426 533 1439 498 C 1444 485 1450 457 1454 435 C 1457 413 1465 377 1471 355 C 1482 315 1492 267 1505 198 C 1513 156 1545 117 1567 122 C 1576 124 1592 137 1602 151 C 1619 174 1620 182 1611 216 C 1599 255 1550 489 1550 502 C 1550 506 1580 524 1618 542 C 1752 608 1904 741 1989 869 C 2151 1113 2199 1431 2114 1700 C 2089 1780 2010 1942 1970 1993 C 1854 2143 1735 2238 1558 2321 C 1468 2364 1244 2411 1141 2409 C 1105 2408 1032 2399 980 2389 Z" style="fill: rgb(202, 255, 248); stroke: url(#gradient-48);"/>
    <path d="M 1122 2053 C 1125 1982 1127 1975 1146 1972 C 1166 1969 1168 1974 1172 2022 C 1178 2107 1172 2130 1143 2130 C 1120 2130 1119 2129 1122 2053 Z" style="fill: rgb(202, 255, 248); stroke: url(#gradient-49);"/>
    <path d="M 784 2025 C 771 1993 845 1880 868 1894 C 887 1905 882 1929 849 1986 C 819 2040 795 2054 784 2025 Z" style="fill: rgb(202, 255, 248); stroke: url(#gradient-50);"/>
    <path d="M 1441 1986 C 1423 1956 1410 1923 1412 1913 C 1417 1885 1451 1892 1471 1925 C 1524 2014 1529 2040 1492 2040 C 1481 2040 1461 2018 1441 1986 Z" style="fill: rgb(202, 255, 248); stroke: url(#gradient-51);"/>
    <path d="M 1045 1858 C 937 1831 820 1744 762 1647 C 666 1487 682 1273 800 1136 C 854 1072 881 1051 953 1016 C 1220 884 1543 1054 1590 1353 C 1625 1579 1474 1802 1247 1855 C 1178 1871 1105 1872 1045 1858 Z M 1298 1741 C 1360 1709 1425 1646 1461 1583 C 1491 1531 1493 1522 1493 1421 C 1493 1330 1490 1309 1470 1270 C 1431 1195 1388 1150 1315 1109 C 1248 1072 1241 1070 1151 1070 C 1068 1070 1051 1073 995 1100 C 860 1165 779 1304 794 1448 C 809 1596 893 1699 1050 1764 C 1058 1767 1108 1768 1160 1766 C 1234 1764 1265 1758 1298 1741 Z" style="fill: rgb(202, 255, 248); stroke: url(#gradient-52);"/>
    <path d="M 526 1773 C 518 1752 532 1739 597 1705 C 651 1678 670 1678 670 1708 C 670 1726 650 1742 588 1772 C 542 1794 534 1794 526 1773 Z" style="fill: rgb(202, 255, 248); stroke: url(#gradient-53);"/>
    <path d="M 1680 1757 C 1585 1700 1607 1656 1704 1710 C 1767 1746 1773 1752 1764 1774 C 1755 1797 1742 1794 1680 1757 Z" style="fill: rgb(202, 255, 248); stroke: url(#gradient-54);"/>
    <path d="M 449 1438 C 427 1430 425 1419 442 1402 C 460 1384 575 1386 590 1405 C 598 1415 599 1424 594 1430 C 582 1441 474 1447 449 1438 Z" style="fill: rgb(202, 255, 248); stroke: url(#gradient-55);"/>
    <path d="M 1702 1418 C 1705 1396 1710 1395 1780 1395 C 1850 1395 1855 1396 1858 1418 C 1861 1439 1859 1440 1780 1440 C 1701 1440 1699 1439 1702 1418 Z" style="fill: rgb(202, 255, 248); stroke: url(#gradient-56);"/>
    <path d="M 1633 1153 C 1608 1144 1621 1115 1662 1086 C 1713 1051 1765 1045 1765 1074 C 1765 1101 1661 1163 1633 1153 Z" style="fill: rgb(202, 255, 248); stroke: url(#gradient-57);"/>
    <path d="M 567 1114 C 487 1055 527 1028 618 1080 C 653 1101 670 1117 670 1130 C 670 1162 622 1155 567 1114 Z" style="fill: rgb(202, 255, 248); stroke: url(#gradient-58);"/>
    <path d="M 837 932 C 814 906 780 837 780 817 C 780 804 786 800 802 802 C 826 805 878 882 879 916 C 880 944 856 953 837 932 Z" style="fill: rgb(202, 255, 248); stroke: url(#gradient-59);"/>
    <path d="M 1421 937 C 1404 920 1407 906 1441 851 C 1465 813 1479 800 1496 800 C 1525 800 1526 823 1499 865 C 1489 882 1476 905 1471 916 C 1459 942 1436 952 1421 937 Z" style="fill: rgb(202, 255, 248); stroke: url(#gradient-60);"/>
    <path d="M 1133 863 C 1114 856 1115 714 1133 707 C 1159 697 1171 717 1175 776 C 1179 853 1167 877 1133 863 Z" style="fill: rgb(202, 255, 248); stroke: url(#gradient-61);"/>
  </g>
  <path d="M 51.144 100.822 L 51.144 99.142 L 53.134 99.142 L 53.134 82.962 L 51.144 82.962 L 51.144 81.282 L 59.994 81.282 C 61.321 81.282 62.544 81.495 63.664 81.922 C 64.784 82.349 65.754 82.975 66.574 83.802 C 67.394 84.622 68.034 85.639 68.494 86.852 C 68.947 88.065 69.174 89.465 69.174 91.052 C 69.174 92.639 68.947 94.039 68.494 95.252 C 68.034 96.465 67.394 97.485 66.574 98.312 C 65.754 99.145 64.784 99.772 63.664 100.192 C 62.544 100.612 61.321 100.822 59.994 100.822 L 51.144 100.822 Z M 57.054 83.102 L 57.054 99.002 L 59.344 99.002 C 61.251 99.002 62.647 98.549 63.534 97.642 C 64.421 96.735 64.864 95.312 64.864 93.372 L 64.864 88.722 C 64.864 86.782 64.421 85.359 63.534 84.452 C 62.647 83.552 61.251 83.102 59.344 83.102 L 57.054 83.102 ZM 71.775 100.822 L 71.775 99.142 L 73.565 99.142 L 73.565 88.752 L 71.775 88.392 L 71.775 86.992 L 77.175 85.872 L 77.175 88.582 L 77.315 88.582 C 77.448 88.229 77.618 87.889 77.825 87.562 C 78.025 87.235 78.272 86.945 78.565 86.692 C 78.852 86.445 79.182 86.245 79.555 86.092 C 79.928 85.945 80.348 85.872 80.815 85.872 C 81.715 85.872 82.422 86.105 82.935 86.572 C 83.448 87.039 83.705 87.682 83.705 88.502 C 83.705 89.209 83.525 89.759 83.165 90.152 C 82.812 90.545 82.318 90.742 81.685 90.742 C 81.052 90.742 80.565 90.575 80.225 90.242 C 79.892 89.902 79.725 89.489 79.725 89.002 C 79.725 88.742 79.782 88.509 79.895 88.302 C 80.008 88.102 80.138 87.972 80.285 87.912 L 80.285 87.802 C 80.212 87.782 80.082 87.772 79.895 87.772 C 79.575 87.772 79.258 87.862 78.945 88.042 C 78.625 88.215 78.338 88.439 78.085 88.712 C 77.832 88.985 77.628 89.289 77.475 89.622 C 77.315 89.955 77.235 90.292 77.235 90.632 L 77.235 99.142 L 79.585 99.142 L 79.585 100.822 L 71.775 100.822 ZM 92.124 101.162 C 91.004 101.162 90.011 100.975 89.144 100.602 C 88.278 100.229 87.544 99.699 86.944 99.012 C 86.344 98.332 85.891 97.522 85.584 96.582 C 85.278 95.635 85.124 94.602 85.124 93.482 C 85.124 92.329 85.288 91.279 85.614 90.332 C 85.941 89.392 86.404 88.592 87.004 87.932 C 87.598 87.265 88.311 86.755 89.144 86.402 C 89.971 86.049 90.891 85.872 91.904 85.872 C 92.911 85.872 93.821 86.035 94.634 86.362 C 95.441 86.689 96.131 87.149 96.704 87.742 C 97.271 88.342 97.708 89.059 98.014 89.892 C 98.328 90.719 98.484 91.645 98.484 92.672 L 98.484 93.542 L 89.074 93.542 L 89.074 94.552 C 89.074 95.892 89.424 96.922 90.124 97.642 C 90.824 98.362 91.744 98.722 92.884 98.722 C 93.924 98.722 94.764 98.489 95.404 98.022 C 96.038 97.555 96.504 96.975 96.804 96.282 L 98.174 97.122 C 98.008 97.589 97.761 98.062 97.434 98.542 C 97.108 99.015 96.694 99.449 96.194 99.842 C 95.701 100.235 95.118 100.552 94.444 100.792 C 93.778 101.039 93.004 101.162 92.124 101.162 Z M 89.074 91.522 L 89.074 91.922 L 94.674 91.922 L 94.674 91.552 C 94.674 90.212 94.434 89.222 93.954 88.582 C 93.481 87.949 92.798 87.632 91.904 87.632 C 91.004 87.632 90.308 87.945 89.814 88.572 C 89.321 89.199 89.074 90.182 89.074 91.522 ZM 105.307 101.162 C 103.794 101.162 102.674 100.795 101.947 100.062 C 101.221 99.335 100.857 98.329 100.857 97.042 C 100.857 95.622 101.374 94.549 102.407 93.822 C 103.447 93.095 105.067 92.732 107.267 92.732 L 109.257 92.732 L 109.257 90.962 C 109.257 89.829 109.024 88.965 108.557 88.372 C 108.091 87.785 107.324 87.492 106.257 87.492 C 105.437 87.492 104.804 87.615 104.357 87.862 L 104.357 87.972 C 104.544 88.085 104.724 88.259 104.897 88.492 C 105.077 88.725 105.167 89.045 105.167 89.452 C 105.167 89.992 105.004 90.435 104.677 90.782 C 104.351 91.129 103.871 91.302 103.237 91.302 C 102.697 91.302 102.254 91.125 101.907 90.772 C 101.561 90.419 101.387 89.952 101.387 89.372 C 101.387 88.925 101.514 88.492 101.767 88.072 C 102.021 87.652 102.397 87.279 102.897 86.952 C 103.404 86.625 104.024 86.362 104.757 86.162 C 105.497 85.969 106.354 85.872 107.327 85.872 C 109.194 85.872 110.594 86.295 111.527 87.142 C 112.461 87.995 112.927 89.185 112.927 90.712 L 112.927 99.172 L 114.717 99.172 L 114.717 100.572 C 114.437 100.759 114.064 100.902 113.597 101.002 C 113.131 101.109 112.654 101.162 112.167 101.162 C 111.234 101.162 110.561 100.932 110.147 100.472 C 109.741 100.012 109.537 99.429 109.537 98.722 L 109.537 98.642 L 109.397 98.642 C 109.264 98.955 109.094 99.262 108.887 99.562 C 108.687 99.862 108.427 100.129 108.107 100.362 C 107.787 100.595 107.401 100.785 106.947 100.932 C 106.487 101.085 105.941 101.162 105.307 101.162 Z M 106.737 98.922 C 107.484 98.922 108.091 98.742 108.557 98.382 C 109.024 98.029 109.257 97.432 109.257 96.592 L 109.257 94.242 L 107.657 94.242 C 106.537 94.242 105.741 94.442 105.267 94.842 C 104.787 95.242 104.547 95.815 104.547 96.562 L 104.547 97.072 C 104.547 97.705 104.751 98.172 105.157 98.472 C 105.557 98.772 106.084 98.922 106.737 98.922 ZM 116.672 100.822 L 116.672 99.142 L 118.462 99.142 L 118.462 88.752 L 116.672 88.392 L 116.672 86.992 L 122.072 85.872 L 122.072 88.582 L 122.212 88.582 C 122.345 88.229 122.529 87.889 122.762 87.562 C 122.995 87.235 123.279 86.945 123.612 86.692 C 123.952 86.445 124.349 86.245 124.802 86.092 C 125.262 85.945 125.782 85.872 126.362 85.872 C 127.589 85.872 128.549 86.105 129.242 86.572 C 129.935 87.039 130.412 87.739 130.672 88.672 L 130.782 88.672 C 130.929 88.319 131.129 87.972 131.382 87.632 C 131.635 87.299 131.945 87.002 132.312 86.742 C 132.672 86.475 133.092 86.265 133.572 86.112 C 134.045 85.952 134.589 85.872 135.202 85.872 C 136.922 85.872 138.142 86.325 138.862 87.232 C 139.582 88.132 139.942 89.489 139.942 91.302 L 139.942 99.142 L 141.732 99.142 L 141.732 100.822 L 134.642 100.822 L 134.642 99.142 L 136.272 99.142 L 136.272 91.472 C 136.272 90.372 136.075 89.572 135.682 89.072 C 135.289 88.579 134.645 88.332 133.752 88.332 C 133.412 88.332 133.079 88.379 132.752 88.472 C 132.425 88.565 132.139 88.712 131.892 88.912 C 131.639 89.105 131.432 89.355 131.272 89.662 C 131.112 89.969 131.032 90.329 131.032 90.742 L 131.032 99.142 L 132.662 99.142 L 132.662 100.822 L 125.742 100.822 L 125.742 99.142 L 127.362 99.142 L 127.362 91.472 C 127.362 90.372 127.172 89.572 126.792 89.072 C 126.412 88.579 125.782 88.332 124.902 88.332 C 124.549 88.332 124.202 88.379 123.862 88.472 C 123.529 88.565 123.235 88.712 122.982 88.912 C 122.729 89.105 122.525 89.355 122.372 89.662 C 122.212 89.969 122.132 90.329 122.132 90.742 L 122.132 99.142 L 123.752 99.142 L 123.752 100.822 L 116.672 100.822 ZM 150.287 100.822 L 150.287 99.142 L 152.277 99.142 L 152.277 82.962 L 150.287 82.962 L 150.287 81.282 L 156.727 81.282 L 161.427 91.472 L 161.547 91.472 L 166.247 81.282 L 172.627 81.282 L 172.627 82.962 L 170.647 82.962 L 170.647 99.142 L 172.627 99.142 L 172.627 100.822 L 164.737 100.822 L 164.737 99.142 L 166.727 99.142 L 166.727 84.552 L 166.587 84.552 L 165.067 88.222 L 160.507 97.742 L 155.947 88.222 L 154.427 84.552 L 154.287 84.552 L 154.287 99.142 L 156.277 99.142 L 156.277 100.822 L 150.287 100.822 ZM 179.342 101.162 C 177.829 101.162 176.709 100.795 175.982 100.062 C 175.255 99.335 174.892 98.329 174.892 97.042 C 174.892 95.622 175.409 94.549 176.442 93.822 C 177.482 93.095 179.102 92.732 181.302 92.732 L 183.292 92.732 L 183.292 90.962 C 183.292 89.829 183.059 88.965 182.592 88.372 C 182.125 87.785 181.359 87.492 180.292 87.492 C 179.472 87.492 178.839 87.615 178.392 87.862 L 178.392 87.972 C 178.579 88.085 178.759 88.259 178.932 88.492 C 179.112 88.725 179.202 89.045 179.202 89.452 C 179.202 89.992 179.039 90.435 178.712 90.782 C 178.385 91.129 177.905 91.302 177.272 91.302 C 176.732 91.302 176.289 91.125 175.942 90.772 C 175.595 90.419 175.422 89.952 175.422 89.372 C 175.422 88.925 175.549 88.492 175.802 88.072 C 176.055 87.652 176.432 87.279 176.932 86.952 C 177.439 86.625 178.059 86.362 178.792 86.162 C 179.532 85.969 180.389 85.872 181.362 85.872 C 183.229 85.872 184.629 86.295 185.562 87.142 C 186.495 87.995 186.962 89.185 186.962 90.712 L 186.962 99.172 L 188.752 99.172 L 188.752 100.572 C 188.472 100.759 188.099 100.902 187.632 101.002 C 187.165 101.109 186.689 101.162 186.202 101.162 C 185.269 101.162 184.595 100.932 184.182 100.472 C 183.775 100.012 183.572 99.429 183.572 98.722 L 183.572 98.642 L 183.432 98.642 C 183.299 98.955 183.129 99.262 182.922 99.562 C 182.722 99.862 182.462 100.129 182.142 100.362 C 181.822 100.595 181.435 100.785 180.982 100.932 C 180.522 101.085 179.975 101.162 179.342 101.162 Z M 180.772 98.922 C 181.519 98.922 182.125 98.742 182.592 98.382 C 183.059 98.029 183.292 97.432 183.292 96.592 L 183.292 94.242 L 181.692 94.242 C 180.572 94.242 179.775 94.442 179.302 94.842 C 178.822 95.242 178.582 95.815 178.582 96.562 L 178.582 97.072 C 178.582 97.705 178.785 98.172 179.192 98.472 C 179.592 98.772 180.119 98.922 180.772 98.922 ZM 190.367 100.822 L 190.367 99.142 L 192.157 99.142 L 192.157 82.422 L 190.367 82.062 L 190.367 80.662 L 195.827 79.542 L 195.827 93.682 L 195.967 93.682 L 197.877 91.502 L 201.257 87.882 L 199.497 87.882 L 199.497 86.202 L 205.737 86.202 L 205.737 87.882 L 203.757 87.882 L 200.277 91.382 L 205.127 99.142 L 206.467 99.142 L 206.467 100.822 L 199.577 100.822 L 199.577 99.142 L 200.977 99.142 L 197.817 93.652 L 195.827 95.752 L 195.827 99.142 L 197.537 99.142 L 197.537 100.822 L 190.367 100.822 ZM 214.303 101.162 C 213.183 101.162 212.19 100.975 211.323 100.602 C 210.456 100.229 209.723 99.699 209.123 99.012 C 208.523 98.332 208.07 97.522 207.763 96.582 C 207.456 95.635 207.303 94.602 207.303 93.482 C 207.303 92.329 207.466 91.279 207.793 90.332 C 208.12 89.392 208.583 88.592 209.183 87.932 C 209.776 87.265 210.49 86.755 211.323 86.402 C 212.15 86.049 213.07 85.872 214.083 85.872 C 215.09 85.872 216 86.035 216.813 86.362 C 217.62 86.689 218.31 87.149 218.883 87.742 C 219.45 88.342 219.886 89.059 220.193 89.892 C 220.506 90.719 220.663 91.645 220.663 92.672 L 220.663 93.542 L 211.253 93.542 L 211.253 94.552 C 211.253 95.892 211.603 96.922 212.303 97.642 C 213.003 98.362 213.923 98.722 215.063 98.722 C 216.103 98.722 216.943 98.489 217.583 98.022 C 218.216 97.555 218.683 96.975 218.983 96.282 L 220.353 97.122 C 220.186 97.589 219.94 98.062 219.613 98.542 C 219.286 99.015 218.873 99.449 218.373 99.842 C 217.88 100.235 217.296 100.552 216.623 100.792 C 215.956 101.039 215.183 101.162 214.303 101.162 Z M 211.253 91.522 L 211.253 91.922 L 216.853 91.922 L 216.853 91.552 C 216.853 90.212 216.613 89.222 216.133 88.582 C 215.66 87.949 214.976 87.632 214.083 87.632 C 213.183 87.632 212.486 87.945 211.993 88.572 C 211.5 89.199 211.253 90.182 211.253 91.522 ZM 222.896 100.822 L 222.896 99.142 L 224.686 99.142 L 224.686 88.752 L 222.896 88.392 L 222.896 86.992 L 228.296 85.872 L 228.296 88.582 L 228.436 88.582 C 228.569 88.229 228.739 87.889 228.946 87.562 C 229.146 87.235 229.392 86.945 229.686 86.692 C 229.972 86.445 230.302 86.245 230.676 86.092 C 231.049 85.945 231.469 85.872 231.936 85.872 C 232.836 85.872 233.542 86.105 234.056 86.572 C 234.569 87.039 234.826 87.682 234.826 88.502 C 234.826 89.209 234.646 89.759 234.286 90.152 C 233.932 90.545 233.439 90.742 232.806 90.742 C 232.172 90.742 231.686 90.575 231.346 90.242 C 231.012 89.902 230.846 89.489 230.846 89.002 C 230.846 88.742 230.902 88.509 231.016 88.302 C 231.129 88.102 231.259 87.972 231.406 87.912 L 231.406 87.802 C 231.332 87.782 231.202 87.772 231.016 87.772 C 230.696 87.772 230.379 87.862 230.066 88.042 C 229.746 88.215 229.459 88.439 229.206 88.712 C 228.952 88.985 228.749 89.289 228.596 89.622 C 228.436 89.955 228.356 90.292 228.356 90.632 L 228.356 99.142 L 230.706 99.142 L 230.706 100.822 L 222.896 100.822 ZM 242.405 101.162 C 241.419 101.162 240.635 100.975 240.055 100.602 C 239.475 100.229 239.112 99.809 238.965 99.342 L 238.845 99.342 L 238.845 100.822 L 236.445 100.822 L 236.445 96.452 L 238.845 96.452 L 238.845 96.962 C 238.845 97.709 239.079 98.285 239.545 98.692 C 240.012 99.105 240.769 99.312 241.815 99.312 C 243.682 99.312 244.615 98.675 244.615 97.402 C 244.615 96.882 244.449 96.469 244.115 96.162 C 243.775 95.855 243.252 95.609 242.545 95.422 L 241.145 95.052 C 239.599 94.645 238.445 94.072 237.685 93.332 C 236.932 92.592 236.555 91.589 236.555 90.322 C 236.555 88.902 237.022 87.805 237.955 87.032 C 238.889 86.259 240.139 85.872 241.705 85.872 C 242.659 85.872 243.409 86.045 243.955 86.392 C 244.509 86.732 244.859 87.135 245.005 87.602 L 245.125 87.602 L 245.125 86.202 L 247.525 86.202 L 247.525 90.572 L 245.125 90.572 L 245.125 89.902 C 245.125 89.195 244.892 88.655 244.425 88.282 C 243.959 87.909 243.219 87.722 242.205 87.722 C 240.605 87.722 239.805 88.309 239.805 89.482 C 239.805 90.022 239.969 90.462 240.295 90.802 C 240.622 91.135 241.175 91.395 241.955 91.582 L 243.275 91.892 C 244.802 92.265 245.959 92.795 246.745 93.482 C 247.532 94.175 247.925 95.202 247.925 96.562 C 247.925 98.002 247.425 99.129 246.425 99.942 C 245.425 100.755 244.085 101.162 242.405 101.162 ZM 263.82 101.162 C 261.507 101.162 259.734 100.675 258.5 99.702 C 257.267 98.729 256.65 97.442 256.65 95.842 C 256.65 95.129 256.764 94.492 256.99 93.932 C 257.21 93.372 257.527 92.869 257.94 92.422 C 258.347 91.975 258.837 91.569 259.41 91.202 C 259.977 90.842 260.617 90.502 261.33 90.182 L 261.02 89.842 C 260.46 89.209 259.987 88.519 259.6 87.772 C 259.22 87.025 259.03 86.215 259.03 85.342 C 259.03 84.669 259.174 84.055 259.46 83.502 C 259.754 82.955 260.157 82.495 260.67 82.122 C 261.184 81.749 261.794 81.459 262.5 81.252 C 263.214 81.045 263.997 80.942 264.85 80.942 C 265.69 80.942 266.454 81.025 267.14 81.192 C 267.82 81.359 268.407 81.602 268.9 81.922 C 269.394 82.242 269.777 82.639 270.05 83.112 C 270.317 83.585 270.45 84.132 270.45 84.752 C 270.45 85.345 270.307 85.885 270.02 86.372 C 269.734 86.859 269.357 87.309 268.89 87.722 C 268.424 88.129 267.89 88.502 267.29 88.842 C 266.69 89.175 266.084 89.482 265.47 89.762 L 270.4 95.392 C 270.94 94.272 271.284 93.012 271.43 91.612 L 269.53 91.612 L 269.53 89.932 L 275.27 89.932 L 275.27 91.612 L 273.31 91.612 C 273.197 92.565 272.99 93.475 272.69 94.342 C 272.397 95.209 272.024 96.015 271.57 96.762 L 272.58 97.912 C 272.954 98.339 273.36 98.652 273.8 98.852 C 274.24 99.045 274.834 99.142 275.58 99.142 L 275.58 100.822 L 272.53 100.822 C 271.877 100.822 271.284 100.709 270.75 100.482 C 270.217 100.262 269.717 99.882 269.25 99.342 C 268.524 99.915 267.707 100.362 266.8 100.682 C 265.894 101.002 264.9 101.162 263.82 101.162 Z M 264.57 88.722 C 265.317 88.255 265.887 87.752 266.28 87.212 C 266.674 86.672 266.87 86.049 266.87 85.342 L 266.87 84.892 C 266.87 84.239 266.687 83.705 266.32 83.292 C 265.96 82.885 265.444 82.682 264.77 82.682 C 264.064 82.682 263.53 82.892 263.17 83.312 C 262.817 83.732 262.64 84.285 262.64 84.972 L 262.64 85.362 C 262.64 85.642 262.687 85.909 262.78 86.162 C 262.874 86.415 263.004 86.672 263.17 86.932 C 263.344 87.192 263.547 87.469 263.78 87.762 C 264.014 88.049 264.277 88.369 264.57 88.722 Z M 264.88 99.202 C 266.134 99.202 267.237 98.835 268.19 98.102 L 262.39 91.412 C 261.777 91.899 261.347 92.442 261.1 93.042 C 260.86 93.635 260.74 94.295 260.74 95.022 L 260.74 95.642 C 260.74 96.162 260.837 96.639 261.03 97.072 C 261.23 97.499 261.51 97.872 261.87 98.192 C 262.237 98.505 262.677 98.752 263.19 98.932 C 263.704 99.112 264.267 99.202 264.88 99.202 ZM 283.155 100.822 L 283.155 99.142 L 284.585 99.142 L 290.745 81.282 L 294.245 81.282 L 300.405 99.142 L 301.835 99.142 L 301.835 100.822 L 294.075 100.822 L 294.075 99.142 L 296.405 99.142 L 294.945 94.742 L 288.195 94.742 L 286.745 99.142 L 289.065 99.142 L 289.065 100.822 L 283.155 100.822 Z M 291.505 84.302 L 288.705 92.982 L 294.445 92.982 L 291.645 84.302 L 291.505 84.302 ZM 310.002 101.162 C 308.862 101.162 307.859 100.969 306.992 100.582 C 306.126 100.202 305.399 99.672 304.812 98.992 C 304.219 98.305 303.769 97.492 303.462 96.552 C 303.156 95.612 303.002 94.589 303.002 93.482 C 303.002 92.289 303.189 91.215 303.562 90.262 C 303.936 89.315 304.449 88.519 305.102 87.872 C 305.756 87.225 306.529 86.732 307.422 86.392 C 308.322 86.045 309.296 85.872 310.342 85.872 C 312.002 85.872 313.289 86.215 314.202 86.902 C 315.116 87.595 315.572 88.475 315.572 89.542 C 315.572 90.209 315.392 90.739 315.032 91.132 C 314.666 91.525 314.156 91.722 313.502 91.722 C 312.849 91.722 312.349 91.545 312.002 91.192 C 311.656 90.839 311.482 90.382 311.482 89.822 C 311.482 89.369 311.599 88.985 311.832 88.672 C 312.066 88.352 312.352 88.119 312.692 87.972 L 312.692 87.832 C 312.486 87.739 312.239 87.662 311.952 87.602 C 311.659 87.549 311.269 87.522 310.782 87.522 C 309.609 87.522 308.676 87.915 307.982 88.702 C 307.296 89.482 306.952 90.545 306.952 91.892 L 306.952 94.552 C 306.952 95.879 307.269 96.905 307.902 97.632 C 308.536 98.359 309.412 98.722 310.532 98.722 C 311.599 98.722 312.446 98.479 313.072 97.992 C 313.692 97.505 314.162 96.919 314.482 96.232 L 315.822 97.072 C 315.656 97.539 315.419 98.015 315.112 98.502 C 314.806 98.982 314.412 99.419 313.932 99.812 C 313.459 100.205 312.896 100.529 312.242 100.782 C 311.589 101.035 310.842 101.162 310.002 101.162 ZM 317.471 100.822 L 317.471 99.142 L 319.261 99.142 L 319.261 82.422 L 317.471 82.062 L 317.471 80.662 L 322.931 79.542 L 322.931 88.582 L 323.071 88.582 C 323.205 88.229 323.388 87.889 323.621 87.562 C 323.855 87.235 324.138 86.945 324.471 86.692 C 324.811 86.445 325.205 86.245 325.651 86.092 C 326.098 85.945 326.601 85.872 327.161 85.872 C 328.935 85.872 330.195 86.325 330.941 87.232 C 331.688 88.132 332.061 89.489 332.061 91.302 L 332.061 99.142 L 333.851 99.142 L 333.851 100.822 L 326.681 100.822 L 326.681 99.142 L 328.391 99.142 L 328.391 91.472 C 328.391 90.372 328.188 89.572 327.781 89.072 C 327.368 88.579 326.705 88.332 325.791 88.332 C 325.438 88.332 325.091 88.379 324.751 88.472 C 324.418 88.565 324.115 88.712 323.841 88.912 C 323.575 89.105 323.355 89.352 323.181 89.652 C 323.015 89.952 322.931 90.305 322.931 90.712 L 322.931 99.142 L 324.641 99.142 L 324.641 100.822 L 317.471 100.822 ZM 339.419 83.882 C 338.726 83.882 338.189 83.685 337.809 83.292 C 337.429 82.899 337.239 82.385 337.239 81.752 L 337.239 81.612 C 337.239 80.979 337.429 80.465 337.809 80.072 C 338.189 79.679 338.726 79.482 339.419 79.482 C 340.113 79.482 340.649 79.679 341.029 80.072 C 341.409 80.465 341.599 80.979 341.599 81.612 L 341.599 81.752 C 341.599 82.385 341.409 82.899 341.029 83.292 C 340.649 83.685 340.113 83.882 339.419 83.882 Z M 335.809 100.822 L 335.809 99.142 L 337.599 99.142 L 337.599 88.752 L 335.809 88.392 L 335.809 86.992 L 341.269 85.872 L 341.269 99.142 L 343.059 99.142 L 343.059 100.822 L 335.809 100.822 ZM 351.988 101.162 C 350.868 101.162 349.875 100.975 349.008 100.602 C 348.142 100.229 347.408 99.699 346.808 99.012 C 346.208 98.332 345.755 97.522 345.448 96.582 C 345.142 95.635 344.988 94.602 344.988 93.482 C 344.988 92.329 345.152 91.279 345.478 90.332 C 345.805 89.392 346.268 88.592 346.868 87.932 C 347.462 87.265 348.175 86.755 349.008 86.402 C 349.835 86.049 350.755 85.872 351.768 85.872 C 352.775 85.872 353.685 86.035 354.498 86.362 C 355.305 86.689 355.995 87.149 356.568 87.742 C 357.135 88.342 357.572 89.059 357.878 89.892 C 358.192 90.719 358.348 91.645 358.348 92.672 L 358.348 93.542 L 348.938 93.542 L 348.938 94.552 C 348.938 95.892 349.288 96.922 349.988 97.642 C 350.688 98.362 351.608 98.722 352.748 98.722 C 353.788 98.722 354.628 98.489 355.268 98.022 C 355.902 97.555 356.368 96.975 356.668 96.282 L 358.038 97.122 C 357.872 97.589 357.625 98.062 357.298 98.542 C 356.972 99.015 356.558 99.449 356.058 99.842 C 355.565 100.235 354.982 100.552 354.308 100.792 C 353.642 101.039 352.868 101.162 351.988 101.162 Z M 348.938 91.522 L 348.938 91.922 L 354.538 91.922 L 354.538 91.552 C 354.538 90.212 354.298 89.222 353.818 88.582 C 353.345 87.949 352.662 87.632 351.768 87.632 C 350.868 87.632 350.172 87.945 349.678 88.572 C 349.185 89.199 348.938 90.182 348.938 91.522 ZM 365.595 100.822 L 360.715 87.882 L 359.375 87.882 L 359.375 86.202 L 366.345 86.202 L 366.345 87.882 L 364.635 87.882 L 367.855 97.492 L 367.995 97.492 L 371.215 87.882 L 369.515 87.882 L 369.515 86.202 L 374.665 86.202 L 374.665 87.882 L 373.315 87.882 L 368.445 100.822 L 365.595 100.822 ZM 382.526 101.162 C 381.406 101.162 380.412 100.975 379.546 100.602 C 378.679 100.229 377.946 99.699 377.346 99.012 C 376.746 98.332 376.292 97.522 375.986 96.582 C 375.679 95.635 375.526 94.602 375.526 93.482 C 375.526 92.329 375.689 91.279 376.016 90.332 C 376.342 89.392 376.806 88.592 377.406 87.932 C 377.999 87.265 378.712 86.755 379.546 86.402 C 380.372 86.049 381.292 85.872 382.306 85.872 C 383.312 85.872 384.222 86.035 385.036 86.362 C 385.842 86.689 386.532 87.149 387.106 87.742 C 387.672 88.342 388.109 89.059 388.416 89.892 C 388.729 90.719 388.886 91.645 388.886 92.672 L 388.886 93.542 L 379.476 93.542 L 379.476 94.552 C 379.476 95.892 379.826 96.922 380.526 97.642 C 381.226 98.362 382.146 98.722 383.286 98.722 C 384.326 98.722 385.166 98.489 385.806 98.022 C 386.439 97.555 386.906 96.975 387.206 96.282 L 388.576 97.122 C 388.409 97.589 388.162 98.062 387.836 98.542 C 387.509 99.015 387.096 99.449 386.596 99.842 C 386.102 100.235 385.519 100.552 384.846 100.792 C 384.179 101.039 383.406 101.162 382.526 101.162 Z M 379.476 91.522 L 379.476 91.922 L 385.076 91.922 L 385.076 91.552 C 385.076 90.212 384.836 89.222 384.356 88.582 C 383.882 87.949 383.199 87.632 382.306 87.632 C 381.406 87.632 380.709 87.945 380.216 88.572 C 379.722 89.199 379.476 90.182 379.476 91.522 ZM 391.118 100.822 L 391.118 99.142 L 392.908 99.142 L 392.908 88.752 L 391.118 88.392 L 391.118 86.992 L 396.518 85.872 L 396.518 88.582 L 396.658 88.582 C 396.792 88.229 396.962 87.889 397.168 87.562 C 397.368 87.235 397.615 86.945 397.908 86.692 C 398.195 86.445 398.525 86.245 398.898 86.092 C 399.272 85.945 399.692 85.872 400.158 85.872 C 401.058 85.872 401.765 86.105 402.278 86.572 C 402.792 87.039 403.048 87.682 403.048 88.502 C 403.048 89.209 402.868 89.759 402.508 90.152 C 402.155 90.545 401.662 90.742 401.028 90.742 C 400.395 90.742 399.908 90.575 399.568 90.242 C 399.235 89.902 399.068 89.489 399.068 89.002 C 399.068 88.742 399.125 88.509 399.238 88.302 C 399.352 88.102 399.482 87.972 399.628 87.912 L 399.628 87.802 C 399.555 87.782 399.425 87.772 399.238 87.772 C 398.918 87.772 398.602 87.862 398.288 88.042 C 397.968 88.215 397.682 88.439 397.428 88.712 C 397.175 88.985 396.972 89.289 396.818 89.622 C 396.658 89.955 396.578 90.292 396.578 90.632 L 396.578 99.142 L 398.928 99.142 L 398.928 100.822 L 391.118 100.822 ZM 410.628 101.162 C 409.641 101.162 408.858 100.975 408.278 100.602 C 407.698 100.229 407.335 99.809 407.188 99.342 L 407.068 99.342 L 407.068 100.822 L 404.668 100.822 L 404.668 96.452 L 407.068 96.452 L 407.068 96.962 C 407.068 97.709 407.301 98.285 407.768 98.692 C 408.235 99.105 408.991 99.312 410.038 99.312 C 411.905 99.312 412.838 98.675 412.838 97.402 C 412.838 96.882 412.671 96.469 412.338 96.162 C 411.998 95.855 411.475 95.609 410.768 95.422 L 409.368 95.052 C 407.821 94.645 406.668 94.072 405.908 93.332 C 405.155 92.592 404.778 91.589 404.778 90.322 C 404.778 88.902 405.245 87.805 406.178 87.032 C 407.111 86.259 408.361 85.872 409.928 85.872 C 410.881 85.872 411.631 86.045 412.178 86.392 C 412.731 86.732 413.081 87.135 413.228 87.602 L 413.348 87.602 L 413.348 86.202 L 415.748 86.202 L 415.748 90.572 L 413.348 90.572 L 413.348 89.902 C 413.348 89.195 413.115 88.655 412.648 88.282 C 412.181 87.909 411.441 87.722 410.428 87.722 C 408.828 87.722 408.028 88.309 408.028 89.482 C 408.028 90.022 408.191 90.462 408.518 90.802 C 408.845 91.135 409.398 91.395 410.178 91.582 L 411.498 91.892 C 413.025 92.265 414.181 92.795 414.968 93.482 C 415.755 94.175 416.148 95.202 416.148 96.562 C 416.148 98.002 415.648 99.129 414.648 99.942 C 413.648 100.755 412.308 101.162 410.628 101.162 Z" transform="matrix(0.6328129768371582, 0, 0, 0.5609719753265381, -27.387414932250977, 1.8682620525360107)" style="fill: rgb(202, 255, 248); stroke: rgb(202, 255, 248); white-space: pre;"/>
</svg>