<?xml version="1.0" encoding="utf-8"?>
<svg viewBox="0 0 263.399 68.138" xmlns="http://www.w3.org/2000/svg">
  <defs>
    <radialGradient id="gradient-29" gradientUnits="userSpaceOnUse" cx="1088.5" cy="1212.66" r="1066.885">
      <stop offset="0" style="stop-color: rgba(0, 90, 142, 1)"/>
      <stop offset="1" style="stop-color: rgba(0, 25, 40, 1)"/>
    </radialGradient>
    <radialGradient id="gradient-30" gradientUnits="userSpaceOnUse" cx="1147.441" cy="2050.653" r="26.661">
      <stop offset="0" style="stop-color: rgba(0, 90, 142, 1)"/>
      <stop offset="1" style="stop-color: rgba(0, 25, 40, 1)"/>
    </radialGradient>
    <radialGradient id="gradient-31" gradientUnits="userSpaceOnUse" cx="830.762" cy="1966.295" r="48.282">
      <stop offset="0" style="stop-color: rgba(0, 90, 142, 1)"/>
      <stop offset="1" style="stop-color: rgba(0, 25, 40, 1)"/>
    </radialGradient>
    <radialGradient id="gradient-32" gradientUnits="userSpaceOnUse" cx="1463.877" cy="1967.787" r="52.08">
      <stop offset="0" style="stop-color: rgba(0, 90, 142, 1)"/>
      <stop offset="1" style="stop-color: rgba(0, 25, 40, 1)"/>
    </radialGradient>
    <radialGradient id="gradient-33" gradientUnits="userSpaceOnUse" cx="1147.255" cy="1419.264" r="447.78">
      <stop offset="0" style="stop-color: rgba(0, 90, 142, 1)"/>
      <stop offset="1" style="stop-color: rgba(0, 25, 40, 1)"/>
    </radialGradient>
    <radialGradient id="gradient-34" gradientUnits="userSpaceOnUse" cx="596.984" cy="1736.869" r="73.016">
      <stop offset="0" style="stop-color: rgba(0, 90, 142, 1)"/>
      <stop offset="1" style="stop-color: rgba(0, 25, 40, 1)"/>
    </radialGradient>
    <radialGradient id="gradient-35" gradientUnits="userSpaceOnUse" cx="1693.147" cy="1737.055" r="74.172">
      <stop offset="0" style="stop-color: rgba(0, 90, 142, 1)"/>
      <stop offset="1" style="stop-color: rgba(0, 25, 40, 1)"/>
    </radialGradient>
    <radialGradient id="gradient-36" gradientUnits="userSpaceOnUse" cx="513.868" cy="1415.966" r="83.188">
      <stop offset="0" style="stop-color: rgba(0, 90, 142, 1)"/>
      <stop offset="1" style="stop-color: rgba(0, 25, 40, 1)"/>
    </radialGradient>
    <radialGradient id="gradient-37" gradientUnits="userSpaceOnUse" cx="1780" cy="1417.5" r="78.77">
      <stop offset="0" style="stop-color: rgba(0, 90, 142, 1)"/>
      <stop offset="1" style="stop-color: rgba(0, 25, 40, 1)"/>
    </radialGradient>
    <radialGradient id="gradient-38" gradientUnits="userSpaceOnUse" cx="1692.642" cy="1104.804" r="72.358">
      <stop offset="0" style="stop-color: rgba(0, 90, 142, 1)"/>
      <stop offset="1" style="stop-color: rgba(0, 25, 40, 1)"/>
    </radialGradient>
    <radialGradient id="gradient-39" gradientUnits="userSpaceOnUse" cx="596.993" cy="1101.198" r="73.007">
      <stop offset="0" style="stop-color: rgba(0, 90, 142, 1)"/>
      <stop offset="1" style="stop-color: rgba(0, 25, 40, 1)"/>
    </radialGradient>
    <radialGradient id="gradient-40" gradientUnits="userSpaceOnUse" cx="829.515" cy="872.531" r="49.515">
      <stop offset="0" style="stop-color: rgba(0, 90, 142, 1)"/>
      <stop offset="1" style="stop-color: rgba(0, 25, 40, 1)"/>
    </radialGradient>
    <radialGradient id="gradient-41" gradientUnits="userSpaceOnUse" cx="1464.706" cy="872.008" r="53.82">
      <stop offset="0" style="stop-color: rgba(0, 90, 142, 1)"/>
      <stop offset="1" style="stop-color: rgba(0, 25, 40, 1)"/>
    </radialGradient>
    <radialGradient id="gradient-42" gradientUnits="userSpaceOnUse" cx="1147.431" cy="785.66" r="28.308">
      <stop offset="0" style="stop-color: rgba(0, 90, 142, 1)"/>
      <stop offset="1" style="stop-color: rgba(0, 25, 40, 1)"/>
    </radialGradient>
  </defs>
  <rect width="263.399" height="68.138" style="fill-rule: evenodd; stroke: rgb(0, 0, 0); fill: rgb(255, 255, 255);"/>
  <g transform="matrix(0.016984, 0, 0, -0.012096, 119.670769, 42.171513)" fill="#000000" stroke="none" style="">
    <path d="M 980 2389 C 928 2380 865 2364 841 2356 C 817 2347 791 2332.351 784 2332.351 C 776 2332.351 742 2315.527 708 2298.527 C 674 2282.527 973.727 2383.261 965.727 2383.261 C 958.727 2383.261 654.42 2283.649 654.42 2277.649 C 654.42 2272.649 548.985 2221.755 541.985 2214.106 C 532.533 2203.778 454 2157 427 2126 C 417 2114 397 2092 382 2075 C 316 2001 247 1863 217 1745 C 204 1695 195 1620 193 1547 L 189 1429 L 138 1332 C 110 1279 74 1211 59 1181 C 43 1151 27 1111 24 1091 C 11 1023 53 925 105 902 C 125 892 129 884 128 842 C 128 814 133 783 139 772 C 145 761 150 730 150 704 C 150 676 157 645 169 626 C 185 600 188 578 187 492 L 185 390 L 230 350 C 304 285 363 268 494 274 C 555 276 626 282 652 285 C 688 290 701 289 704 279 C 706 271 720 220 735 165 C 767 49 774 34 800 20 C 830 4 864 42 857 83 C 844 167 784 364 767 378 C 742 398 692 400 606 385 C 458 360 362 368 319 411 C 300 430 299 440 305 513 C 312 597 309 608 267 671 C 253 692 251 703 260 726 C 273 759 273 761 252 776 C 236 788 234 828 245 893 C 253 937 241 956 200 965 C 147 977 120 1007 120 1053 C 120 1076 128 1109 138 1125 C 157 1156 238 1305 274 1375 C 290 1406 295 1435 296 1505 C 296 1555 300 1620 304 1650 C 311 1702 349 1829 360 1840 C 363 1843 374 1863 384 1886 C 412 1950 519 2070 595 2124 C 672 2177 776 2229 872 2262 C 925 2279 981.287 2312.314 1142.298 2309.947 C 1322.474 2307.298 1322 2291 1399 2267 C 1657 2185 1848 2020 1963 1778 C 2006 1687 2015 1663 2034 1573 C 2051 1495 2055 1320 2040 1255 C 2009 1113 1983 1045 1925 954 C 1875 876 1874 875 1788 789 C 1724 725 1576 620 1550 620 C 1546 620 1521 608 1496 594 C 1444 565 1426 533 1439 498 C 1444 485 1450 457 1454 435 C 1457 413 1465 377 1471 355 C 1482 315 1492 267 1505 198 C 1513 156 1545 117 1567 122 C 1576 124 1592 137 1602 151 C 1619 174 1620 182 1611 216 C 1599 255 1550 489 1550 502 C 1550 506 1580 524 1618 542 C 1752 608 1904 741 1989 869 C 2151 1113 2199 1431 2114 1700 C 2089 1780 2010 1942 1970 1993 C 1854 2143 1735 2238 1558 2321 C 1468 2364 1244 2411 1141 2409 C 1105 2408 1032 2399 980 2389 Z" style="fill: rgb(0, 90, 142); stroke: url(#gradient-29);"/>
    <path d="M 1122 2053 C 1125 1982 1127 1975 1146 1972 C 1166 1969 1168 1974 1172 2022 C 1178 2107 1172 2130 1143 2130 C 1120 2130 1119 2129 1122 2053 Z" style="fill: rgb(0, 90, 142); stroke: url(#gradient-30);"/>
    <path d="M 784 2025 C 771 1993 845 1880 868 1894 C 887 1905 882 1929 849 1986 C 819 2040 795 2054 784 2025 Z" style="fill: rgb(0, 90, 142); stroke: url(#gradient-31);"/>
    <path d="M 1441 1986 C 1423 1956 1410 1923 1412 1913 C 1417 1885 1451 1892 1471 1925 C 1524 2014 1529 2040 1492 2040 C 1481 2040 1461 2018 1441 1986 Z" style="fill: rgb(0, 90, 142); stroke: url(#gradient-32);"/>
    <path d="M 1045 1858 C 937 1831 820 1744 762 1647 C 666 1487 682 1273 800 1136 C 854 1072 881 1051 953 1016 C 1220 884 1543 1054 1590 1353 C 1625 1579 1474 1802 1247 1855 C 1178 1871 1105 1872 1045 1858 Z M 1298 1741 C 1360 1709 1425 1646 1461 1583 C 1491 1531 1493 1522 1493 1421 C 1493 1330 1490 1309 1470 1270 C 1431 1195 1388 1150 1315 1109 C 1248 1072 1241 1070 1151 1070 C 1068 1070 1051 1073 995 1100 C 860 1165 779 1304 794 1448 C 809 1596 893 1699 1050 1764 C 1058 1767 1108 1768 1160 1766 C 1234 1764 1265 1758 1298 1741 Z" style="fill: rgb(0, 90, 142); stroke: url(#gradient-33);"/>
    <path d="M 526 1773 C 518 1752 532 1739 597 1705 C 651 1678 670 1678 670 1708 C 670 1726 650 1742 588 1772 C 542 1794 534 1794 526 1773 Z" style="fill: rgb(0, 90, 142); stroke: url(#gradient-34);"/>
    <path d="M 1680 1757 C 1585 1700 1607 1656 1704 1710 C 1767 1746 1773 1752 1764 1774 C 1755 1797 1742 1794 1680 1757 Z" style="fill: rgb(0, 90, 142); stroke: url(#gradient-35);"/>
    <path d="M 449 1438 C 427 1430 425 1419 442 1402 C 460 1384 575 1386 590 1405 C 598 1415 599 1424 594 1430 C 582 1441 474 1447 449 1438 Z" style="fill: rgb(0, 90, 142); stroke: url(#gradient-36);"/>
    <path d="M 1702 1418 C 1705 1396 1710 1395 1780 1395 C 1850 1395 1855 1396 1858 1418 C 1861 1439 1859 1440 1780 1440 C 1701 1440 1699 1439 1702 1418 Z" style="fill: rgb(0, 90, 142); stroke: url(#gradient-37);"/>
    <path d="M 1633 1153 C 1608 1144 1621 1115 1662 1086 C 1713 1051 1765 1045 1765 1074 C 1765 1101 1661 1163 1633 1153 Z" style="fill: rgb(0, 90, 142); stroke: url(#gradient-38);"/>
    <path d="M 567 1114 C 487 1055 527 1028 618 1080 C 653 1101 670 1117 670 1130 C 670 1162 622 1155 567 1114 Z" style="fill: rgb(0, 90, 142); stroke: url(#gradient-39);"/>
    <path d="M 837 932 C 814 906 780 837 780 817 C 780 804 786 800 802 802 C 826 805 878 882 879 916 C 880 944 856 953 837 932 Z" style="fill: rgb(0, 90, 142); stroke: url(#gradient-40);"/>
    <path d="M 1421 937 C 1404 920 1407 906 1441 851 C 1465 813 1479 800 1496 800 C 1525 800 1526 823 1499 865 C 1489 882 1476 905 1471 916 C 1459 942 1436 952 1421 937 Z" style="fill: rgb(0, 90, 142); stroke: url(#gradient-41);"/>
    <path d="M 1133 863 C 1114 856 1115 714 1133 707 C 1159 697 1171 717 1175 776 C 1179 853 1167 877 1133 863 Z" style="fill: rgb(0, 90, 142); stroke: url(#gradient-42);"/>
  </g>
  <path d="M 51.254 100.822 L 51.254 99.312 L 53.304 99.312 L 53.304 82.792 L 51.254 82.792 L 51.254 81.282 L 59.854 81.282 C 61.161 81.282 62.364 81.492 63.464 81.912 C 64.564 82.332 65.517 82.952 66.324 83.772 C 67.124 84.592 67.744 85.609 68.184 86.822 C 68.624 88.035 68.844 89.445 68.844 91.052 C 68.844 92.659 68.624 94.069 68.184 95.282 C 67.744 96.495 67.124 97.512 66.324 98.332 C 65.517 99.152 64.564 99.772 63.464 100.192 C 62.364 100.612 61.161 100.822 59.854 100.822 L 51.254 100.822 Z M 56.634 82.932 L 56.634 99.172 L 59.374 99.172 C 61.301 99.172 62.747 98.659 63.714 97.632 C 64.687 96.605 65.174 95.102 65.174 93.122 L 65.174 88.982 C 65.174 87.002 64.687 85.499 63.714 84.472 C 62.747 83.445 61.301 82.932 59.374 82.932 L 56.634 82.932 ZM 71.486 100.822 L 71.486 99.312 L 73.396 99.312 L 73.396 88.502 L 71.486 88.142 L 71.486 86.902 L 76.446 85.922 L 76.446 88.532 L 76.586 88.532 C 76.713 88.192 76.876 87.869 77.076 87.562 C 77.27 87.255 77.513 86.982 77.806 86.742 C 78.093 86.495 78.426 86.299 78.806 86.152 C 79.193 85.999 79.63 85.922 80.116 85.922 C 80.97 85.922 81.653 86.139 82.166 86.572 C 82.68 86.999 82.936 87.615 82.936 88.422 C 82.936 89.055 82.773 89.552 82.446 89.912 C 82.12 90.279 81.676 90.462 81.116 90.462 C 80.543 90.462 80.093 90.309 79.766 90.002 C 79.44 89.695 79.276 89.309 79.276 88.842 C 79.276 88.522 79.34 88.255 79.466 88.042 C 79.6 87.829 79.76 87.702 79.946 87.662 L 79.946 87.582 C 79.886 87.562 79.82 87.545 79.746 87.532 C 79.673 87.525 79.563 87.522 79.416 87.522 C 79.056 87.522 78.706 87.615 78.366 87.802 C 78.02 87.989 77.71 88.225 77.436 88.512 C 77.17 88.805 76.95 89.132 76.776 89.492 C 76.61 89.859 76.526 90.219 76.526 90.572 L 76.526 99.312 L 78.996 99.312 L 78.996 100.822 L 71.486 100.822 ZM 91.221 101.162 C 90.141 101.162 89.181 100.979 88.341 100.612 C 87.501 100.245 86.791 99.729 86.211 99.062 C 85.631 98.389 85.188 97.585 84.881 96.652 C 84.574 95.719 84.421 94.682 84.421 93.542 C 84.421 92.382 84.584 91.335 84.911 90.402 C 85.238 89.469 85.694 88.672 86.281 88.012 C 86.868 87.352 87.568 86.839 88.381 86.472 C 89.194 86.105 90.084 85.922 91.051 85.922 C 92.044 85.922 92.931 86.085 93.711 86.412 C 94.498 86.739 95.164 87.202 95.711 87.802 C 96.264 88.402 96.691 89.122 96.991 89.962 C 97.291 90.802 97.441 91.735 97.441 92.762 L 97.441 93.512 L 87.801 93.512 L 87.801 94.412 C 87.801 95.865 88.168 96.989 88.901 97.782 C 89.628 98.575 90.608 98.972 91.841 98.972 C 92.921 98.972 93.791 98.735 94.451 98.262 C 95.118 97.782 95.608 97.189 95.921 96.482 L 97.131 97.212 C 96.964 97.699 96.718 98.175 96.391 98.642 C 96.064 99.109 95.658 99.529 95.171 99.902 C 94.684 100.275 94.114 100.579 93.461 100.812 C 92.808 101.045 92.061 101.162 91.221 101.162 Z M 87.801 91.662 L 87.801 92.032 L 94.191 92.032 L 94.191 91.722 C 94.191 90.375 93.934 89.335 93.421 88.602 C 92.908 87.862 92.118 87.492 91.051 87.492 C 90.004 87.492 89.201 87.852 88.641 88.572 C 88.081 89.292 87.801 90.322 87.801 91.662 ZM 104.348 101.162 C 102.888 101.162 101.792 100.802 101.058 100.082 C 100.318 99.362 99.948 98.375 99.948 97.122 C 99.948 95.709 100.452 94.635 101.458 93.902 C 102.465 93.175 104.108 92.812 106.388 92.812 L 108.408 92.812 L 108.408 90.912 C 108.408 89.772 108.155 88.902 107.648 88.302 C 107.142 87.709 106.348 87.412 105.268 87.412 C 104.355 87.412 103.665 87.542 103.198 87.802 L 103.198 87.912 C 103.405 88.005 103.595 88.169 103.768 88.402 C 103.948 88.635 104.038 88.959 104.038 89.372 C 104.038 89.892 103.885 90.312 103.578 90.632 C 103.265 90.945 102.822 91.102 102.248 91.102 C 101.762 91.102 101.355 90.939 101.028 90.612 C 100.702 90.285 100.538 89.842 100.538 89.282 C 100.538 88.855 100.665 88.442 100.918 88.042 C 101.165 87.642 101.532 87.282 102.018 86.962 C 102.505 86.642 103.098 86.389 103.798 86.202 C 104.498 86.015 105.305 85.922 106.218 85.922 C 107.972 85.922 109.298 86.335 110.198 87.162 C 111.092 87.982 111.538 89.129 111.538 90.602 L 111.538 99.342 L 113.448 99.342 L 113.448 100.602 C 113.182 100.749 112.845 100.879 112.438 100.992 C 112.025 101.105 111.585 101.162 111.118 101.162 C 110.258 101.162 109.628 100.942 109.228 100.502 C 108.828 100.062 108.628 99.495 108.628 98.802 L 108.628 98.662 L 108.488 98.662 C 108.355 98.982 108.188 99.285 107.988 99.572 C 107.782 99.865 107.515 100.132 107.188 100.372 C 106.862 100.619 106.465 100.812 105.998 100.952 C 105.532 101.092 104.982 101.162 104.348 101.162 Z M 105.578 99.202 C 106.398 99.202 107.075 99.005 107.608 98.612 C 108.142 98.219 108.408 97.575 108.408 96.682 L 108.408 94.182 L 106.728 94.182 C 105.402 94.182 104.475 94.399 103.948 94.832 C 103.428 95.259 103.168 95.875 103.168 96.682 L 103.168 97.212 C 103.168 97.885 103.382 98.385 103.808 98.712 C 104.242 99.039 104.832 99.202 105.578 99.202 ZM 115.533 100.822 L 115.533 99.312 L 117.443 99.312 L 117.443 88.502 L 115.533 88.142 L 115.533 86.902 L 120.493 85.922 L 120.493 88.532 L 120.633 88.532 C 120.747 88.212 120.913 87.895 121.133 87.582 C 121.36 87.262 121.64 86.982 121.973 86.742 C 122.313 86.495 122.707 86.299 123.153 86.152 C 123.6 85.999 124.113 85.922 124.693 85.922 C 125.94 85.922 126.923 86.152 127.643 86.612 C 128.363 87.072 128.863 87.775 129.143 88.722 L 129.223 88.722 C 129.377 88.389 129.58 88.055 129.833 87.722 C 130.08 87.382 130.383 87.079 130.743 86.812 C 131.097 86.539 131.507 86.322 131.973 86.162 C 132.44 86.002 132.98 85.922 133.593 85.922 C 135.333 85.922 136.567 86.375 137.293 87.282 C 138.02 88.189 138.383 89.549 138.383 91.362 L 138.383 99.312 L 140.283 99.312 L 140.283 100.822 L 133.453 100.822 L 133.453 99.312 L 135.243 99.312 L 135.243 91.522 C 135.243 90.309 135.017 89.422 134.563 88.862 C 134.103 88.302 133.397 88.022 132.443 88.022 C 132.07 88.022 131.707 88.075 131.353 88.182 C 131 88.282 130.683 88.439 130.403 88.652 C 130.123 88.872 129.9 89.145 129.733 89.472 C 129.567 89.799 129.483 90.185 129.483 90.632 L 129.483 99.312 L 131.273 99.312 L 131.273 100.822 L 124.553 100.822 L 124.553 99.312 L 126.343 99.312 L 126.343 91.522 C 126.343 90.309 126.113 89.422 125.653 88.862 C 125.2 88.302 124.497 88.022 123.543 88.022 C 123.17 88.022 122.807 88.075 122.453 88.182 C 122.1 88.282 121.783 88.439 121.503 88.652 C 121.223 88.872 120.997 89.145 120.823 89.472 C 120.657 89.799 120.573 90.185 120.573 90.632 L 120.573 99.312 L 122.363 99.312 L 122.363 100.822 L 115.533 100.822 ZM 148.975 100.822 L 148.975 99.312 L 151.025 99.312 L 151.025 82.792 L 148.975 82.792 L 148.975 81.282 L 154.805 81.282 L 159.955 92.222 L 160.035 92.222 L 165.215 81.282 L 170.925 81.282 L 170.925 82.792 L 168.885 82.792 L 168.885 99.312 L 170.925 99.312 L 170.925 100.822 L 163.535 100.822 L 163.535 99.312 L 165.585 99.312 L 165.585 84.362 L 165.445 84.362 L 164.045 87.662 L 159.195 97.662 L 154.385 87.662 L 152.985 84.362 L 152.845 84.362 L 152.845 99.312 L 154.885 99.312 L 154.885 100.822 L 148.975 100.822 ZM 177.807 101.162 C 176.347 101.162 175.25 100.802 174.517 100.082 C 173.777 99.362 173.407 98.375 173.407 97.122 C 173.407 95.709 173.91 94.635 174.917 93.902 C 175.923 93.175 177.567 92.812 179.847 92.812 L 181.867 92.812 L 181.867 90.912 C 181.867 89.772 181.613 88.902 181.107 88.302 C 180.6 87.709 179.807 87.412 178.727 87.412 C 177.813 87.412 177.123 87.542 176.657 87.802 L 176.657 87.912 C 176.863 88.005 177.053 88.169 177.227 88.402 C 177.407 88.635 177.497 88.959 177.497 89.372 C 177.497 89.892 177.343 90.312 177.037 90.632 C 176.723 90.945 176.28 91.102 175.707 91.102 C 175.22 91.102 174.813 90.939 174.487 90.612 C 174.16 90.285 173.997 89.842 173.997 89.282 C 173.997 88.855 174.123 88.442 174.377 88.042 C 174.623 87.642 174.99 87.282 175.477 86.962 C 175.963 86.642 176.557 86.389 177.257 86.202 C 177.957 86.015 178.763 85.922 179.677 85.922 C 181.43 85.922 182.757 86.335 183.657 87.162 C 184.55 87.982 184.997 89.129 184.997 90.602 L 184.997 99.342 L 186.907 99.342 L 186.907 100.602 C 186.64 100.749 186.303 100.879 185.897 100.992 C 185.483 101.105 185.043 101.162 184.577 101.162 C 183.717 101.162 183.087 100.942 182.687 100.502 C 182.287 100.062 182.087 99.495 182.087 98.802 L 182.087 98.662 L 181.947 98.662 C 181.813 98.982 181.647 99.285 181.447 99.572 C 181.24 99.865 180.973 100.132 180.647 100.372 C 180.32 100.619 179.923 100.812 179.457 100.952 C 178.99 101.092 178.44 101.162 177.807 101.162 Z M 179.037 99.202 C 179.857 99.202 180.533 99.005 181.067 98.612 C 181.6 98.219 181.867 97.575 181.867 96.682 L 181.867 94.182 L 180.187 94.182 C 178.86 94.182 177.933 94.399 177.407 94.832 C 176.887 95.259 176.627 95.875 176.627 96.682 L 176.627 97.212 C 176.627 97.885 176.84 98.385 177.267 98.712 C 177.7 99.039 178.29 99.202 179.037 99.202 ZM 188.632 100.822 L 188.632 99.312 L 190.532 99.312 L 190.532 82.122 L 188.632 81.752 L 188.632 80.522 L 193.672 79.542 L 193.672 93.882 L 193.812 93.882 L 195.882 91.522 L 199.322 87.772 L 197.502 87.772 L 197.502 86.262 L 203.692 86.262 L 203.692 87.772 L 201.622 87.772 L 197.922 91.582 L 202.882 99.312 L 204.312 99.312 L 204.312 100.822 L 197.782 100.822 L 197.782 99.312 L 199.352 99.312 L 195.822 93.572 L 193.672 95.842 L 193.672 99.312 L 195.522 99.312 L 195.522 100.822 L 188.632 100.822 ZM 212 101.162 C 210.92 101.162 209.96 100.979 209.12 100.612 C 208.28 100.245 207.57 99.729 206.99 99.062 C 206.41 98.389 205.967 97.585 205.66 96.652 C 205.354 95.719 205.2 94.682 205.2 93.542 C 205.2 92.382 205.364 91.335 205.69 90.402 C 206.017 89.469 206.474 88.672 207.06 88.012 C 207.647 87.352 208.347 86.839 209.16 86.472 C 209.974 86.105 210.864 85.922 211.83 85.922 C 212.824 85.922 213.71 86.085 214.49 86.412 C 215.277 86.739 215.944 87.202 216.49 87.802 C 217.044 88.402 217.47 89.122 217.77 89.962 C 218.07 90.802 218.22 91.735 218.22 92.762 L 218.22 93.512 L 208.58 93.512 L 208.58 94.412 C 208.58 95.865 208.947 96.989 209.68 97.782 C 210.407 98.575 211.387 98.972 212.62 98.972 C 213.7 98.972 214.57 98.735 215.23 98.262 C 215.897 97.782 216.387 97.189 216.7 96.482 L 217.91 97.212 C 217.744 97.699 217.497 98.175 217.17 98.642 C 216.844 99.109 216.437 99.529 215.95 99.902 C 215.464 100.275 214.894 100.579 214.24 100.812 C 213.587 101.045 212.84 101.162 212 101.162 Z M 208.58 91.662 L 208.58 92.032 L 214.97 92.032 L 214.97 91.722 C 214.97 90.375 214.714 89.335 214.2 88.602 C 213.687 87.862 212.897 87.492 211.83 87.492 C 210.784 87.492 209.98 87.852 209.42 88.572 C 208.86 89.292 208.58 90.322 208.58 91.662 ZM 220.558 100.822 L 220.558 99.312 L 222.468 99.312 L 222.468 88.502 L 220.558 88.142 L 220.558 86.902 L 225.518 85.922 L 225.518 88.532 L 225.658 88.532 C 225.784 88.192 225.948 87.869 226.148 87.562 C 226.341 87.255 226.584 86.982 226.878 86.742 C 227.164 86.495 227.498 86.299 227.878 86.152 C 228.264 85.999 228.701 85.922 229.188 85.922 C 230.041 85.922 230.724 86.139 231.238 86.572 C 231.751 86.999 232.008 87.615 232.008 88.422 C 232.008 89.055 231.844 89.552 231.518 89.912 C 231.191 90.279 230.748 90.462 230.188 90.462 C 229.614 90.462 229.164 90.309 228.838 90.002 C 228.511 89.695 228.348 89.309 228.348 88.842 C 228.348 88.522 228.411 88.255 228.538 88.042 C 228.671 87.829 228.831 87.702 229.018 87.662 L 229.018 87.582 C 228.958 87.562 228.891 87.545 228.818 87.532 C 228.744 87.525 228.634 87.522 228.488 87.522 C 228.128 87.522 227.778 87.615 227.438 87.802 C 227.091 87.989 226.781 88.225 226.508 88.512 C 226.241 88.805 226.021 89.132 225.848 89.492 C 225.681 89.859 225.598 90.219 225.598 90.572 L 225.598 99.312 L 228.068 99.312 L 228.068 100.822 L 220.558 100.822 ZM 239.512 101.162 C 238.559 101.162 237.782 100.975 237.182 100.602 C 236.589 100.229 236.199 99.815 236.012 99.362 L 235.892 99.362 L 235.892 100.822 L 233.772 100.822 L 233.772 96.482 L 235.892 96.482 L 235.892 96.982 C 235.892 97.769 236.136 98.385 236.622 98.832 C 237.109 99.279 237.892 99.502 238.972 99.502 C 240.992 99.502 242.002 98.795 242.002 97.382 C 242.002 96.275 241.272 95.545 239.812 95.192 L 238.302 94.832 C 236.809 94.479 235.699 93.935 234.972 93.202 C 234.246 92.475 233.882 91.479 233.882 90.212 C 233.882 88.845 234.339 87.789 235.252 87.042 C 236.166 86.295 237.379 85.922 238.892 85.922 C 239.826 85.922 240.572 86.082 241.132 86.402 C 241.692 86.722 242.056 87.105 242.222 87.552 L 242.332 87.552 L 242.332 86.262 L 244.462 86.262 L 244.462 90.602 L 242.332 90.602 L 242.332 89.792 C 242.332 88.319 241.336 87.582 239.342 87.582 C 238.482 87.582 237.822 87.745 237.362 88.072 C 236.909 88.399 236.682 88.889 236.682 89.542 C 236.682 90.695 237.429 91.459 238.922 91.832 L 240.352 92.172 C 241.859 92.505 242.986 93.012 243.732 93.692 C 244.479 94.379 244.852 95.382 244.852 96.702 C 244.852 98.049 244.372 99.129 243.412 99.942 C 242.452 100.755 241.152 101.162 239.512 101.162 ZM 260.893 101.162 C 258.726 101.162 257.023 100.689 255.783 99.742 C 254.536 98.802 253.913 97.509 253.913 95.862 C 253.913 95.175 254.023 94.555 254.243 94.002 C 254.456 93.455 254.759 92.955 255.153 92.502 C 255.539 92.055 256.006 91.652 256.553 91.292 C 257.093 90.925 257.699 90.582 258.373 90.262 L 258.003 89.842 C 257.423 89.209 256.946 88.525 256.573 87.792 C 256.199 87.052 256.013 86.242 256.013 85.362 C 256.013 84.695 256.149 84.085 256.423 83.532 C 256.696 82.979 257.073 82.512 257.553 82.132 C 258.039 81.752 258.629 81.459 259.323 81.252 C 260.009 81.045 260.773 80.942 261.613 80.942 C 263.219 80.942 264.503 81.282 265.463 81.962 C 266.429 82.642 266.913 83.589 266.913 84.802 C 266.913 85.382 266.776 85.925 266.503 86.432 C 266.229 86.932 265.859 87.392 265.393 87.812 C 264.926 88.232 264.396 88.625 263.803 88.992 C 263.203 89.359 262.586 89.689 261.953 89.982 L 267.103 95.752 C 267.403 95.159 267.646 94.505 267.833 93.792 C 268.019 93.085 268.139 92.349 268.193 91.582 L 266.213 91.582 L 266.213 90.042 L 271.953 90.042 L 271.953 91.582 L 269.873 91.582 C 269.766 92.589 269.566 93.549 269.273 94.462 C 268.986 95.382 268.619 96.215 268.173 96.962 L 269.153 98.082 C 269.526 98.509 269.939 98.819 270.393 99.012 C 270.853 99.212 271.466 99.312 272.233 99.312 L 272.233 100.822 L 269.653 100.822 C 268.959 100.822 268.366 100.715 267.873 100.502 C 267.379 100.289 266.909 99.939 266.463 99.452 L 266.233 99.202 C 265.526 99.835 264.729 100.319 263.843 100.652 C 262.956 100.992 261.973 101.162 260.893 101.162 Z M 261.113 89.002 C 262.066 88.462 262.776 87.899 263.243 87.312 C 263.709 86.725 263.943 86.059 263.943 85.312 L 263.943 84.892 C 263.943 84.179 263.733 83.605 263.313 83.172 C 262.893 82.732 262.289 82.512 261.503 82.512 C 260.723 82.512 260.126 82.755 259.713 83.242 C 259.299 83.722 259.093 84.329 259.093 85.062 L 259.093 85.422 C 259.093 86.035 259.286 86.622 259.673 87.182 C 260.053 87.742 260.533 88.349 261.113 89.002 Z M 261.613 99.392 C 262.359 99.392 263.033 99.282 263.633 99.062 C 264.233 98.835 264.773 98.509 265.253 98.082 L 259.323 91.362 C 258.576 91.902 258.063 92.485 257.783 93.112 C 257.503 93.732 257.363 94.445 257.363 95.252 L 257.363 95.812 C 257.363 96.892 257.753 97.759 258.533 98.412 C 259.319 99.065 260.346 99.392 261.613 99.392 ZM 279.942 100.822 L 279.942 99.312 L 281.402 99.312 L 287.612 81.282 L 290.802 81.282 L 297.022 99.312 L 298.482 99.312 L 298.482 100.822 L 291.172 100.822 L 291.172 99.312 L 293.582 99.312 L 292.012 94.632 L 284.922 94.632 L 283.362 99.312 L 285.762 99.312 L 285.762 100.822 L 279.942 100.822 Z M 288.402 83.912 L 285.372 93.042 L 291.562 93.042 L 288.542 83.912 L 288.402 83.912 ZM 306.645 101.162 C 305.545 101.162 304.568 100.975 303.715 100.602 C 302.868 100.229 302.155 99.705 301.575 99.032 C 300.995 98.359 300.555 97.555 300.255 96.622 C 299.961 95.689 299.815 94.662 299.815 93.542 C 299.815 92.349 299.991 91.279 300.345 90.332 C 300.698 89.392 301.191 88.595 301.825 87.942 C 302.458 87.289 303.211 86.789 304.085 86.442 C 304.951 86.095 305.898 85.922 306.925 85.922 C 308.531 85.922 309.785 86.259 310.685 86.932 C 311.591 87.605 312.045 88.465 312.045 89.512 C 312.045 90.165 311.868 90.672 311.515 91.032 C 311.161 91.399 310.685 91.582 310.085 91.582 C 309.471 91.582 309.005 91.409 308.685 91.062 C 308.371 90.715 308.215 90.282 308.215 89.762 C 308.215 89.335 308.325 88.962 308.545 88.642 C 308.771 88.322 309.061 88.089 309.415 87.942 L 309.415 87.802 C 309.188 87.709 308.908 87.619 308.575 87.532 C 308.241 87.452 307.821 87.412 307.315 87.412 C 306.701 87.412 306.141 87.522 305.635 87.742 C 305.128 87.969 304.698 88.282 304.345 88.682 C 303.991 89.082 303.718 89.562 303.525 90.122 C 303.325 90.682 303.225 91.309 303.225 92.002 L 303.225 94.442 C 303.225 95.842 303.571 96.945 304.265 97.752 C 304.951 98.565 305.895 98.972 307.095 98.972 C 308.215 98.972 309.085 98.729 309.705 98.242 C 310.331 97.762 310.815 97.165 311.155 96.452 L 312.355 97.182 C 312.188 97.669 311.945 98.145 311.625 98.612 C 311.311 99.079 310.921 99.502 310.455 99.882 C 309.988 100.269 309.435 100.579 308.795 100.812 C 308.161 101.045 307.445 101.162 306.645 101.162 ZM 314.168 100.822 L 314.168 99.312 L 316.068 99.312 L 316.068 82.122 L 314.168 81.752 L 314.168 80.522 L 319.208 79.542 L 319.208 88.532 L 319.348 88.532 C 319.462 88.212 319.635 87.895 319.868 87.582 C 320.102 87.262 320.385 86.982 320.718 86.742 C 321.052 86.495 321.445 86.299 321.898 86.152 C 322.345 85.999 322.848 85.922 323.408 85.922 C 325.182 85.922 326.442 86.375 327.188 87.282 C 327.935 88.189 328.308 89.549 328.308 91.362 L 328.308 99.312 L 330.208 99.312 L 330.208 100.822 L 323.318 100.822 L 323.318 99.312 L 325.168 99.312 L 325.168 91.522 C 325.168 90.309 324.935 89.422 324.468 88.862 C 324.002 88.302 323.265 88.022 322.258 88.022 C 321.885 88.022 321.515 88.075 321.148 88.182 C 320.788 88.282 320.462 88.439 320.168 88.652 C 319.882 88.872 319.648 89.139 319.468 89.452 C 319.295 89.772 319.208 90.155 319.208 90.602 L 319.208 99.312 L 321.058 99.312 L 321.058 100.822 L 314.168 100.822 ZM 335.768 83.542 C 335.175 83.542 334.708 83.372 334.368 83.032 C 334.035 82.685 333.868 82.242 333.868 81.702 L 333.868 81.532 C 333.868 80.992 334.035 80.549 334.368 80.202 C 334.708 79.855 335.175 79.682 335.768 79.682 C 336.368 79.682 336.835 79.855 337.168 80.202 C 337.508 80.549 337.678 80.992 337.678 81.532 L 337.678 81.702 C 337.678 82.242 337.508 82.685 337.168 83.032 C 336.835 83.372 336.368 83.542 335.768 83.542 Z M 332.298 100.822 L 332.298 99.312 L 334.208 99.312 L 334.208 88.502 L 332.298 88.142 L 332.298 86.902 L 337.338 85.922 L 337.338 99.312 L 339.248 99.312 L 339.248 100.822 L 332.298 100.822 ZM 348.087 101.162 C 347.007 101.162 346.047 100.979 345.207 100.612 C 344.367 100.245 343.657 99.729 343.077 99.062 C 342.497 98.389 342.054 97.585 341.747 96.652 C 341.44 95.719 341.287 94.682 341.287 93.542 C 341.287 92.382 341.45 91.335 341.777 90.402 C 342.104 89.469 342.56 88.672 343.147 88.012 C 343.734 87.352 344.434 86.839 345.247 86.472 C 346.06 86.105 346.95 85.922 347.917 85.922 C 348.91 85.922 349.797 86.085 350.577 86.412 C 351.364 86.739 352.03 87.202 352.577 87.802 C 353.13 88.402 353.557 89.122 353.857 89.962 C 354.157 90.802 354.307 91.735 354.307 92.762 L 354.307 93.512 L 344.667 93.512 L 344.667 94.412 C 344.667 95.865 345.034 96.989 345.767 97.782 C 346.494 98.575 347.474 98.972 348.707 98.972 C 349.787 98.972 350.657 98.735 351.317 98.262 C 351.984 97.782 352.474 97.189 352.787 96.482 L 353.997 97.212 C 353.83 97.699 353.584 98.175 353.257 98.642 C 352.93 99.109 352.524 99.529 352.037 99.902 C 351.55 100.275 350.98 100.579 350.327 100.812 C 349.674 101.045 348.927 101.162 348.087 101.162 Z M 344.667 91.662 L 344.667 92.032 L 351.057 92.032 L 351.057 91.722 C 351.057 90.375 350.8 89.335 350.287 88.602 C 349.774 87.862 348.984 87.492 347.917 87.492 C 346.87 87.492 346.067 87.852 345.507 88.572 C 344.947 89.292 344.667 90.322 344.667 91.662 ZM 361.772 100.822 L 356.842 87.772 L 355.442 87.772 L 355.442 86.262 L 362.082 86.262 L 362.082 87.772 L 360.232 87.772 L 363.672 97.772 L 363.812 97.772 L 367.262 87.772 L 365.412 87.772 L 365.412 86.262 L 370.532 86.262 L 370.532 87.772 L 369.132 87.772 L 364.202 100.822 L 361.772 100.822 ZM 378.31 101.162 C 377.23 101.162 376.27 100.979 375.43 100.612 C 374.59 100.245 373.88 99.729 373.3 99.062 C 372.72 98.389 372.276 97.585 371.97 96.652 C 371.663 95.719 371.51 94.682 371.51 93.542 C 371.51 92.382 371.673 91.335 372 90.402 C 372.326 89.469 372.783 88.672 373.37 88.012 C 373.956 87.352 374.656 86.839 375.47 86.472 C 376.283 86.105 377.173 85.922 378.14 85.922 C 379.133 85.922 380.02 86.085 380.8 86.412 C 381.586 86.739 382.253 87.202 382.8 87.802 C 383.353 88.402 383.78 89.122 384.08 89.962 C 384.38 90.802 384.53 91.735 384.53 92.762 L 384.53 93.512 L 374.89 93.512 L 374.89 94.412 C 374.89 95.865 375.256 96.989 375.99 97.782 C 376.716 98.575 377.696 98.972 378.93 98.972 C 380.01 98.972 380.88 98.735 381.54 98.262 C 382.206 97.782 382.696 97.189 383.01 96.482 L 384.22 97.212 C 384.053 97.699 383.806 98.175 383.48 98.642 C 383.153 99.109 382.746 99.529 382.26 99.902 C 381.773 100.275 381.203 100.579 380.55 100.812 C 379.896 101.045 379.15 101.162 378.31 101.162 Z M 374.89 91.662 L 374.89 92.032 L 381.28 92.032 L 381.28 91.722 C 381.28 90.375 381.023 89.335 380.51 88.602 C 379.996 87.862 379.206 87.492 378.14 87.492 C 377.093 87.492 376.29 87.852 375.73 88.572 C 375.17 89.292 374.89 90.322 374.89 91.662 ZM 386.867 100.822 L 386.867 99.312 L 388.777 99.312 L 388.777 88.502 L 386.867 88.142 L 386.867 86.902 L 391.827 85.922 L 391.827 88.532 L 391.967 88.532 C 392.094 88.192 392.257 87.869 392.457 87.562 C 392.65 87.255 392.894 86.982 393.187 86.742 C 393.474 86.495 393.807 86.299 394.187 86.152 C 394.574 85.999 395.01 85.922 395.497 85.922 C 396.35 85.922 397.034 86.139 397.547 86.572 C 398.06 86.999 398.317 87.615 398.317 88.422 C 398.317 89.055 398.154 89.552 397.827 89.912 C 397.5 90.279 397.057 90.462 396.497 90.462 C 395.924 90.462 395.474 90.309 395.147 90.002 C 394.82 89.695 394.657 89.309 394.657 88.842 C 394.657 88.522 394.72 88.255 394.847 88.042 C 394.98 87.829 395.14 87.702 395.327 87.662 L 395.327 87.582 C 395.267 87.562 395.2 87.545 395.127 87.532 C 395.054 87.525 394.944 87.522 394.797 87.522 C 394.437 87.522 394.087 87.615 393.747 87.802 C 393.4 87.989 393.09 88.225 392.817 88.512 C 392.55 88.805 392.33 89.132 392.157 89.492 C 391.99 89.859 391.907 90.219 391.907 90.572 L 391.907 99.312 L 394.377 99.312 L 394.377 100.822 L 386.867 100.822 ZM 405.822 101.162 C 404.868 101.162 404.092 100.975 403.492 100.602 C 402.898 100.229 402.508 99.815 402.322 99.362 L 402.202 99.362 L 402.202 100.822 L 400.082 100.822 L 400.082 96.482 L 402.202 96.482 L 402.202 96.982 C 402.202 97.769 402.445 98.385 402.932 98.832 C 403.418 99.279 404.202 99.502 405.282 99.502 C 407.302 99.502 408.312 98.795 408.312 97.382 C 408.312 96.275 407.582 95.545 406.122 95.192 L 404.612 94.832 C 403.118 94.479 402.008 93.935 401.282 93.202 C 400.555 92.475 400.192 91.479 400.192 90.212 C 400.192 88.845 400.648 87.789 401.562 87.042 C 402.475 86.295 403.688 85.922 405.202 85.922 C 406.135 85.922 406.882 86.082 407.442 86.402 C 408.002 86.722 408.365 87.105 408.532 87.552 L 408.642 87.552 L 408.642 86.262 L 410.772 86.262 L 410.772 90.602 L 408.642 90.602 L 408.642 89.792 C 408.642 88.319 407.645 87.582 405.652 87.582 C 404.792 87.582 404.132 87.745 403.672 88.072 C 403.218 88.399 402.992 88.889 402.992 89.542 C 402.992 90.695 403.738 91.459 405.232 91.832 L 406.662 92.172 C 408.168 92.505 409.295 93.012 410.042 93.692 C 410.788 94.379 411.162 95.382 411.162 96.702 C 411.162 98.049 410.682 99.129 409.722 99.942 C 408.762 100.755 407.462 101.162 405.822 101.162 Z" transform="matrix(0.6519500017166138, 0, 0, 0.5609719753265381, -18.924837112426758, 1.8682620525360107)" style="fill: rgb(0, 90, 142); stroke: rgb(0, 90, 142); white-space: pre;"/>
</svg>