<?xml version="1.0" encoding="utf-8"?>
<svg viewBox="0 0 775.516 391.838" xmlns="http://www.w3.org/2000/svg">
  <g transform="matrix(0.1, 0, 0, -0.1, 115.924904, 422.687286)" fill="#000000" stroke="none">
    <path d="M2419 4215 c-668 -109 -1180 -595 -1319 -1250 -27 -128 -37 -365 -21 -500 79 -672 577 -1217 1249 -1368 84 -18 128 -21 322 -21 249 -1 324 10 512 75 568 195 980 699 1059 1294 18 142 6 415 -24 545 -29 121 -81 268 -126 358 -223 442 -622 749 -1106 852 -131 28 -419 36 -546 15z m350 -35 c146 -13 241 -33 371 -77 390 -132 705 -408 887 -776 215 -435 214 -922 -3 -1362 -164 -334 -468 -612 -814 -746 -472 -182 -988 -127 -1405 149 -396 263 -641 676 -686 1158 -19 208 13 443 90 651 205 557 719 950 1308 1002 128 12 128 12 252 1z" style="fill: rgb(0, 90, 142);"/>
    <path d="M2463 4149 c-39 -5 -116 -20 -170 -33 -280 -71 -507 -199 -708 -401 -414 -414 -551 -1014 -358 -1568 78 -225 204 -419 379 -587 206 -196 423 -313 715 -386 108 -27 126 -28 329 -28 203 0 221 1 330 28 308 76 540 206 747 417 541 552 582 1406 95 2010 -323 401 -838 609 -1359 548z m-132 -337 c15 -44 37 -58 32 -21 -2 11 7 19 25 22 36 7 38 3 13 -22 -31 -31 -26 -50 19 -69 40 -17 52 -32 26 -32 -8 0 -21 -3 -30 -6 -10 -4 -16 -1 -16 9 0 8 -7 18 -16 21 -24 9 -28 1 -8 -18 9 -9 15 -18 13 -19 -20 -14 -141 -46 -153 -41 -24 9 -19 41 9 66 27 23 25 38 -5 38 -13 0 -17 -5 -14 -15 4 -9 0 -15 -10 -15 -24 0 -19 28 9 46 33 22 54 12 72 -36 16 -39 50 -58 39 -22 -2 9 -12 43 -20 74 -9 31 -22 58 -29 61 -9 3 -9 8 2 21 17 21 22 16 42 -42z m691 41 c23 -20 23 -32 -1 -57 -14 -16 -17 -27 -10 -45 7 -19 12 -21 24 -11 7 6 11 18 8 26 -4 11 0 12 27 2 29 -10 31 -12 14 -21 -41 -22 -54 -39 -43 -58 5 -11 16 -19 24 -19 8 0 15 -4 15 -10 0 -18 -39 -11 -50 9 -8 15 -17 18 -48 14 -28 -4 -43 -1 -55 12 -24 24 -21 62 7 80 17 12 22 22 18 42 -3 18 1 30 13 40 24 17 35 17 57 -4z m-392 -13 c0 -6 8 -5 20 2 15 9 22 10 31 1 16 -16 1 -37 -16 -23 -9 8 -14 6 -19 -6 -11 -28 -7 -84 7 -85 6 0 -3 -5 -22 -10 -31 -9 -61 -2 -33 8 7 3 12 22 12 48 0 25 -5 45 -12 48 -10 4 -9 8 2 16 19 14 30 14 30 1z m155 -3 c11 -9 15 -19 10 -27 -6 -10 -11 -9 -21 4 -7 11 -18 15 -25 10 -9 -5 -3 -15 20 -35 34 -28 38 -54 10 -72 -26 -16 -71 0 -67 24 3 21 23 27 23 7 0 -7 8 -14 18 -16 24 -5 22 25 -3 33 -33 10 -45 43 -24 66 20 22 34 24 59 6z m-245 -17 c29 -29 26 -50 -7 -50 -37 0 -54 -12 -43 -29 5 -9 18 -12 39 -8 35 7 42 -7 12 -23 -29 -15 -49 -12 -71 10 -37 37 -13 120 35 120 8 0 24 -9 35 -20z m-435 -70 c-8 -13 73 -128 94 -132 11 -3 7 -9 -15 -21 -32 -16 -32 -16 -38 11 -3 15 -15 38 -26 52 -18 21 -21 22 -16 5 12 -47 18 -115 10 -115 -5 0 -20 9 -34 21 -14 11 -38 29 -54 41 l-29 22 24 -43 c13 -24 30 -46 37 -48 19 -8 14 -19 -13 -31 -22 -10 -25 -9 -25 8 0 29 -58 140 -72 140 -8 0 -6 6 4 17 16 15 21 13 78 -31 33 -26 60 -43 60 -38 0 5 -5 34 -11 65 -13 62 -8 87 16 87 9 0 13 -5 10 -10z m1172 -100 c-1 -60 -3 -110 -4 -110 -1 0 -18 10 -39 22 -34 20 -35 22 -15 29 28 11 27 33 -3 49 -33 17 -59 7 -51 -21 7 -20 6 -20 -25 -4 l-32 17 28 18 c16 10 54 39 84 64 30 25 56 46 57 46 1 0 1 -49 0 -110z m138 -56 c19 -19 15 -38 -9 -42 -14 -3 -17 1 -11 17 10 31 -30 28 -51 -4 -19 -29 -12 -55 16 -62 11 -3 17 -9 14 -14 -3 -5 1 -9 8 -9 19 0 108 92 108 112 0 20 8 22 29 9 12 -8 9 -15 -13 -41 l-27 -33 23 -11 c34 -17 34 -49 0 -88 -16 -18 -27 -39 -25 -45 8 -21 -12 -15 -37 12 -21 23 -22 25 -5 25 24 0 65 38 65 61 0 9 -9 19 -19 22 -22 6 -61 -30 -61 -56 0 -9 -3 -17 -6 -17 -6 0 -49 33 -96 75 -24 20 -23 46 3 79 24 30 69 35 94 10z m-588 -70 c312 -64 564 -283 667 -580 35 -100 49 -185 49 -304 -1 -403 -277 -754 -672 -857 -129 -33 -297 -35 -424 -4 -651 157 -905 923 -480 1446 120 147 303 256 504 300 88 19 263 18 356 -1z m-915 -29 c16 -14 39 -25 51 -25 20 0 20 0 -3 -25 -13 -14 -28 -25 -33 -25 -6 0 -7 3 -4 7 9 9 -43 63 -60 63 -8 0 -16 -7 -20 -16 -7 -19 44 -75 63 -67 22 8 16 -11 -11 -37 -23 -21 -25 -22 -25 -5 0 24 -38 65 -61 65 -9 0 -20 -7 -23 -17 -8 -20 30 -63 56 -63 24 0 23 -13 -3 -36 -12 -10 -25 -28 -30 -39 -25 -55 -47 -80 -70 -80 -22 0 -24 4 -24 45 0 33 -4 45 -15 45 -9 0 -15 -9 -15 -22 0 -28 -13 -40 -21 -19 -10 25 4 64 26 71 12 4 33 -3 57 -19 38 -26 63 -22 63 12 0 22 -40 62 -62 62 -20 0 -21 1 -12 24 3 9 12 16 19 16 7 0 15 9 18 21 3 11 15 23 26 26 12 3 21 11 21 18 0 18 28 45 47 45 8 0 28 -11 45 -25z m1728 -60 c0 -8 -7 -15 -15 -15 -8 0 -15 7 -15 15 0 8 7 15 15 15 8 0 15 -7 15 -15z m-56 -11 c24 -9 20 -21 -19 -55 -19 -17 -35 -37 -35 -45 0 -22 -16 -17 -34 11 -15 23 -15 25 1 25 20 0 63 38 63 57 0 15 2 15 24 7z m74 -90 c27 -19 29 -55 3 -78 -18 -17 -20 -16 -37 13 -10 17 -23 30 -29 28 -18 -6 -17 -38 1 -58 15 -17 15 -19 1 -19 -23 0 -50 45 -44 72 6 22 50 57 72 58 6 0 21 -7 33 -16z m70 -109 c14 -31 15 -38 4 -31 -5 3 -21 -7 -36 -23 l-26 -28 32 5 c18 3 36 10 40 16 5 7 12 4 22 -9 9 -11 15 -22 16 -25 0 -3 -34 -6 -75 -8 -51 -1 -75 2 -75 9 0 6 16 29 35 50 19 22 35 46 35 54 0 23 16 18 28 -10z m-2060 -34 c12 -7 11 -14 -2 -39 -20 -40 -20 -42 4 -42 14 0 25 11 34 31 10 24 15 27 19 15 4 -9 2 -27 -3 -40 -15 -41 -62 -48 -104 -15 -32 25 -34 62 -4 83 25 18 37 19 56 7z m-78 -116 c0 -8 -5 -15 -11 -15 -20 0 3 -22 39 -37 28 -12 36 -12 43 -2 14 24 19 3 7 -29 -12 -31 -28 -43 -28 -21 0 14 -66 40 -84 33 -11 -4 -16 0 -16 15 0 12 5 21 10 21 6 0 10 6 9 13 -3 26 2 37 16 37 8 0 15 -7 15 -15z m2205 -2 c10 -10 15 -26 12 -41 -3 -16 2 -33 15 -46 11 -13 15 -22 8 -24 -7 -3 -5 -11 6 -23 13 -14 14 -23 7 -30 -15 -15 -34 -2 -26 16 3 11 -2 15 -18 15 -40 0 -69 -12 -69 -26 0 -8 -4 -14 -10 -14 -9 0 -12 11 -14 58 -1 9 -7 23 -13 30 -21 22 -16 69 9 86 29 21 72 20 93 -1z m-2183 -143 c19 -23 22 -56 12 -109 -6 -28 -8 -30 -23 -17 -20 17 -124 39 -150 31 -18 -5 -18 -3 -9 37 5 24 19 54 31 66 19 21 29 23 71 19 36 -3 55 -11 68 -27z m2166 -78 c2 -7 -3 -12 -12 -12 -18 0 -22 -25 -6 -35 5 -3 17 10 27 29 12 26 23 36 40 36 26 0 43 -31 35 -62 -5 -22 -32 -24 -32 -3 0 8 4 15 10 15 5 0 7 7 4 15 -5 12 -10 13 -20 4 -8 -6 -14 -16 -14 -22 0 -13 -30 -47 -41 -47 -16 0 -39 32 -39 54 0 38 37 60 48 28z m-713 -1167 c14 -13 25 -30 25 -38 0 -23 -40 -67 -60 -67 -30 0 -62 34 -62 65 0 30 32 65 59 65 7 0 25 -11 38 -25z m-737 -29 c12 -23 11 -31 -3 -52 -20 -30 -37 -38 -68 -30 -51 12 -54 96 -5 115 32 12 61 -1 76 -33z m386 -42 c37 -36 7 -104 -45 -104 -30 0 -59 31 -59 64 0 48 70 75 104 40z" style="fill: rgb(0, 90, 142);"/>
    <path d="M2262 3688 c-16 -16 -15 -28 2 -28 19 0 27 13 17 28 -5 9 -10 9 -19 0z" style="fill: rgb(0, 90, 142);"/>
    <path d="M2987 3844 c-11 -11 -8 -44 3 -44 15 0 24 30 13 41 -5 5 -12 6 -16 3z" style="fill: rgb(0, 90, 142);"/>
    <path d="M2950 3755 c-19 -23 -8 -50 23 -53 30 -4 33 4 15 43 -13 29 -21 31 -38 10z" style="fill: rgb(0, 90, 142);"/>
    <path d="M2487 3813 c-16 -16 -6 -30 18 -25 20 3 23 7 14 18 -13 15 -22 17 -32 7z" style="fill: rgb(0, 90, 142);"/>
    <path d="M3225 3691 c-16 -19 -17 -24 -5 -31 19 -12 33 2 28 30 l-3 22 -20 -21z" style="fill: rgb(0, 90, 142);"/>
    <path d="M2585 3275 c-33 -7 -75 -18 -93 -23 -192 -61 -321 -235 -322 -434 0 -45 -7 -69 -31 -115 -18 -32 -35 -62 -39 -68 -4 -5 -11 -24 -15 -42 -7 -35 16 -97 40 -107 8 -3 16 -30 20 -70 4 -37 11 -69 16 -72 5 -3 9 -33 9 -68 0 -52 4 -66 23 -83 41 -37 82 -46 173 -40 72 5 84 4 84 -9 0 -9 7 -40 16 -70 12 -42 20 -54 35 -54 11 0 22 6 25 13 5 13 -32 166 -43 177 -2 3 -56 5 -119 5 -130 0 -138 5 -128 68 4 27 1 45 -11 63 -9 14 -15 35 -12 45 3 10 1 22 -5 25 -6 4 -8 23 -4 43 6 42 0 56 -32 65 -46 15 -45 38 5 133 42 79 48 97 54 174 14 184 115 311 296 370 80 27 239 26 313 -1 225 -82 365 -336 306 -556 -33 -124 -131 -244 -241 -298 -33 -16 -63 -34 -67 -40 -9 -12 -5 -36 19 -136 23 -96 32 -110 62 -91 12 8 11 21 -2 88 -9 44 -19 86 -22 94 -3 9 13 23 52 44 66 34 160 123 196 187 47 80 69 165 70 263 0 50 -6 110 -13 135 -55 200 -215 346 -423 385 -91 17 -110 17 -192 0z" style="fill: rgb(0, 90, 142);"/>
    <path d="M2664 3126 c-9 -22 0 -69 13 -73 15 -5 27 38 18 66 -7 24 -23 27 -31 7z" style="fill: rgb(0, 90, 142);"/>
    <path d="M2480 3085 c0 -2 8 -20 17 -40 16 -33 43 -48 43 -25 0 22 -31 70 -45 70 -8 0 -15 -2 -15 -5z" style="fill: rgb(0, 90, 142);"/>
    <path d="M2836 3065 c-19 -29 -21 -55 -3 -55 11 0 47 58 47 75 0 15 -30 1 -44 -20z" style="fill: rgb(0, 90, 142);"/>
    <path d="M2625 2994 c-66 -17 -126 -67 -161 -134 -25 -48 -25 -153 0 -200 77 -148 263 -183 379 -72 54 52 72 95 72 172 0 40 -6 78 -17 100 -18 37 -79 100 -115 119 -25 13 -128 22 -158 15z m160 -82 c56 -39 78 -82 78 -153 -1 -70 -27 -118 -85 -156 -52 -35 -138 -37 -191 -4 -73 45 -109 129 -87 205 36 129 178 183 285 108z" style="fill: rgb(0, 90, 142);"/>
    <path d="M2350 2945 c0 -14 48 -45 70 -45 23 0 8 27 -25 43 -43 21 -45 21 -45 2z" style="fill: rgb(0, 90, 142);"/>
    <path d="M2963 2943 c-31 -16 -45 -43 -23 -43 22 0 70 31 70 45 0 18 -6 18 -47 -2z" style="fill: rgb(0, 90, 142);"/>
    <path d="M2307 2774 c-16 -17 -4 -24 39 -24 32 0 44 4 42 13 -5 13 -69 22 -81 11z" style="fill: rgb(0, 90, 142);"/>
    <path d="M2977 2774 c-16 -17 -4 -24 39 -24 32 0 44 4 42 13 -5 13 -69 22 -81 11z" style="fill: rgb(0, 90, 142);"/>
    <path d="M2373 2603 c-20 -13 -32 -43 -18 -43 17 0 75 36 75 47 0 17 -30 16 -57 -4z" style="fill: rgb(0, 90, 142);"/>
    <path d="M2930 2607 c0 -11 58 -47 75 -47 15 0 1 30 -20 44 -29 19 -55 21 -55 3z" style="fill: rgb(0, 90, 142);"/>
    <path d="M2497 2475 c-21 -43 -21 -45 -2 -45 14 0 45 48 45 70 0 23 -27 8 -43 -25z" style="fill: rgb(0, 90, 142);"/>
    <path d="M2820 2495 c0 -23 30 -65 46 -65 18 0 18 2 -3 45 -17 36 -43 48 -43 20z" style="fill: rgb(0, 90, 142);"/>
    <path d="M2664 2456 c-9 -22 0 -69 13 -73 15 -5 27 38 18 66 -7 24 -23 27 -31 7z" style="fill: rgb(0, 90, 142);"/>
    <path d="M1735 3250 c-7 -12 2 -30 16 -30 5 0 9 9 9 20 0 21 -15 27 -25 10z" style="fill: rgb(0, 90, 142);"/>
    <path d="M3620 3311 c0 -5 6 -14 14 -20 16 -13 32 2 21 19 -8 12 -35 13 -35 1z" style="fill: rgb(0, 90, 142);"/>
    <path d="M1615 3160 c-7 -11 2 -30 14 -30 5 0 11 9 14 20 5 21 -16 29 -28 10z" style="fill: rgb(0, 90, 142);"/>
    <path d="M3757 3050 c7 -28 22 -35 30 -15 3 10 0 21 -8 26 -22 14 -28 11 -22 -11z" style="fill: rgb(0, 90, 142);"/>
    <path d="M3710 3045 c-11 -13 -10 -21 0 -43 8 -15 13 -31 11 -36 -1 -5 12 -6 30 -2 17 3 35 6 40 6 5 0 9 7 9 16 0 11 -6 14 -20 9 -17 -5 -23 0 -35 29 -17 41 -18 41 -35 21z" style="fill: rgb(0, 90, 142);"/>
    <path d="M1488 2918 c-22 -19 -29 -45 -13 -52 7 -2 41 -8 74 -12 61 -7 61 -6 61 19 0 47 -82 77 -122 45z" style="fill: rgb(0, 90, 142);"/>
    <path d="M3001 1666 c-15 -17 1 -56 23 -56 23 0 41 30 29 48 -14 23 -37 26 -52 8z" style="fill: rgb(0, 90, 142);"/>
    <path d="M2255 1654 c-18 -19 -16 -33 7 -48 12 -7 21 -6 32 3 22 18 20 38 -3 51 -15 7 -24 6 -36 -6z" style="fill: rgb(0, 90, 142);"/>
    <path d="M2644 1585 c-10 -25 4 -47 28 -43 17 2 24 11 26 31 3 23 0 27 -23 27 -14 0 -28 -7 -31 -15z" style="fill: rgb(0, 90, 142);"/>
  </g>
  <path d="M 121.715 400.41 C 121.715 398.417 122.582 396.85 124.315 395.71 C 126.055 394.57 128.055 394 130.315 394 C 133.208 394 135.745 394.83 137.925 396.49 C 139.012 397.33 139.852 398.447 140.445 399.84 C 141.045 401.227 141.345 402.76 141.345 404.44 C 141.345 407.747 140.402 410.437 138.515 412.51 C 136.555 414.617 134.102 415.67 131.155 415.67 C 130.502 415.67 129.808 415.587 129.075 415.42 C 128.348 415.253 127.772 415.03 127.345 414.75 C 126.652 415.27 125.768 415.53 124.695 415.53 C 123.622 415.53 122.788 415.233 122.195 414.64 C 121.595 414.04 121.295 413.273 121.295 412.34 C 121.295 410.14 122.965 408.263 126.305 406.71 C 126.398 405.93 126.535 404.87 126.715 403.53 C 126.888 402.197 127.028 401.12 127.135 400.3 C 127.235 399.48 127.305 398.94 127.345 398.68 C 128.112 398.193 128.998 397.95 130.005 397.95 C 130.472 397.95 130.918 397.997 131.345 398.09 L 129.585 410.04 C 129.418 411.107 129.185 411.993 128.885 412.7 C 129.465 412.853 129.932 412.93 130.285 412.93 C 132.432 412.93 134.092 412.117 135.265 410.49 C 136.478 408.79 137.085 406.737 137.085 404.33 C 137.085 401.25 135.975 399.04 133.755 397.7 C 132.522 396.953 131.168 396.58 129.695 396.58 C 127.808 396.58 126.315 397.093 125.215 398.12 C 124.582 398.693 124.265 399.393 124.265 400.22 C 124.265 400.647 124.395 401.05 124.655 401.43 C 124.915 401.817 125.372 402.037 126.025 402.09 L 125.745 403.91 C 124.385 403.837 123.372 403.46 122.705 402.78 C 122.045 402.1 121.715 401.31 121.715 400.41 Z M 123.365 411.98 C 123.365 412.647 123.682 412.98 124.315 412.98 C 124.582 412.98 124.858 412.81 125.145 412.47 C 125.432 412.123 125.632 411.577 125.745 410.83 L 125.995 409.09 C 124.242 410.083 123.365 411.047 123.365 411.98 ZM 150.463 405.62 C 150.463 404.8 150.086 404.39 149.333 404.39 C 148.579 404.39 147.976 404.873 147.523 405.84 C 149.543 407.427 150.553 409.21 150.553 411.19 C 150.553 412.63 150.149 413.723 149.343 414.47 C 148.543 415.217 147.536 415.59 146.323 415.59 C 145.109 415.59 144.223 415.21 143.663 414.45 C 143.103 413.697 142.823 412.74 142.823 411.58 C 142.823 411.227 142.833 410.967 142.853 410.8 L 143.833 402.26 C 144.506 402.053 145.186 401.95 145.873 401.95 C 147.013 401.95 147.583 402.37 147.583 403.21 L 147.583 403.27 C 148.329 402.39 149.283 401.95 150.443 401.95 C 151.283 401.95 151.936 402.143 152.403 402.53 C 152.869 402.91 153.103 403.417 153.103 404.05 C 153.103 404.683 152.863 405.203 152.383 405.61 C 151.909 406.01 151.289 406.21 150.523 406.21 C 150.483 406.21 150.446 406.21 150.413 406.21 C 150.446 406.003 150.463 405.807 150.463 405.62 Z M 148.733 411.05 C 148.733 409.97 148.173 408.887 147.053 407.8 C 146.713 410.493 146.543 411.847 146.543 411.86 C 146.543 412.647 146.863 413.04 147.503 413.04 C 148.323 413.04 148.733 412.377 148.733 411.05 ZM 158.946 409.15 C 160.106 408.903 160.969 408.437 161.536 407.75 C 162.109 407.057 162.396 406.39 162.396 405.75 C 162.396 405.103 162.223 404.663 161.876 404.43 C 161.529 404.197 161.149 404.08 160.736 404.08 C 159.863 404.08 159.093 404.57 158.426 405.55 C 157.766 406.53 157.436 407.697 157.436 409.05 C 157.436 410.403 157.759 411.41 158.406 412.07 C 159.046 412.737 159.843 413.07 160.796 413.07 C 162.196 413.07 163.539 412.583 164.826 411.61 C 166.113 410.643 167.159 409.373 167.966 407.8 C 168.373 408.193 168.746 408.68 169.086 409.26 C 168.466 410.66 167.373 412.033 165.806 413.38 C 165.026 414.033 164.099 414.563 163.026 414.97 C 161.953 415.383 160.846 415.59 159.706 415.59 C 157.839 415.59 156.363 415.02 155.276 413.88 C 154.123 412.647 153.546 411.07 153.546 409.15 C 153.546 407.223 154.269 405.543 155.716 404.11 C 157.163 402.67 158.893 401.95 160.906 401.95 C 162.346 401.95 163.513 402.263 164.406 402.89 C 165.306 403.517 165.763 404.36 165.776 405.42 C 165.776 406.86 165.203 408.027 164.056 408.92 C 162.909 409.82 161.336 410.447 159.336 410.8 L 158.946 409.15 ZM 179.241 415.56 C 177.528 415.56 176.391 414.963 175.831 413.77 C 174.858 414.983 173.611 415.59 172.091 415.59 C 170.571 415.59 169.291 415.077 168.251 414.05 C 167.218 413.023 166.701 411.67 166.701 409.99 C 166.701 407.543 167.421 405.593 168.861 404.14 C 170.295 402.68 172.115 401.95 174.321 401.95 C 174.375 401.95 174.428 401.95 174.481 401.95 C 175.415 401.95 176.275 402.11 177.061 402.43 C 177.568 402.11 178.178 401.95 178.891 401.95 C 179.611 401.95 180.131 402.043 180.451 402.23 C 180.285 403.61 180.108 404.97 179.921 406.31 C 179.735 407.643 179.601 408.59 179.521 409.15 C 179.355 410.417 179.271 411.33 179.271 411.89 C 179.271 412.637 179.571 413.01 180.171 413.01 C 180.638 413.01 181.131 412.697 181.651 412.07 C 182.178 411.45 182.635 410.467 183.021 409.12 C 183.568 409.607 183.941 410.147 184.141 410.74 C 183.601 412.513 182.875 413.76 181.961 414.48 C 181.048 415.2 180.141 415.56 179.241 415.56 Z M 174.741 404.14 C 173.541 404.14 172.591 404.59 171.891 405.49 C 171.191 406.397 170.778 407.747 170.651 409.54 C 170.631 409.707 170.621 409.867 170.621 410.02 C 170.621 410.933 170.841 411.66 171.281 412.2 C 171.721 412.74 172.285 413.01 172.971 413.01 C 174.151 413.01 175.038 412.18 175.631 410.52 L 176.301 404.47 C 175.761 404.25 175.241 404.14 174.741 404.14 ZM 193.632 415.42 L 190.022 415.42 L 191.082 406.12 C 191.082 405.6 190.959 405.167 190.712 404.82 C 190.459 404.473 190.015 404.3 189.382 404.3 C 188.742 404.3 188.219 404.603 187.812 405.21 C 187.399 405.817 187.135 406.457 187.022 407.13 C 186.369 411.777 186.005 414.54 185.932 415.42 L 182.182 415.42 L 183.722 402.26 C 184.509 402.053 185.105 401.95 185.512 401.95 C 186.692 401.95 187.335 402.343 187.442 403.13 C 188.362 402.343 189.362 401.95 190.442 401.95 C 192.609 401.95 193.989 402.593 194.582 403.88 C 195.502 402.573 196.809 401.92 198.502 401.92 C 199.755 401.92 200.745 402.243 201.472 402.89 C 202.199 403.537 202.562 404.343 202.562 405.31 C 202.562 405.59 202.509 406.087 202.402 406.8 C 201.969 409.6 201.752 411.24 201.752 411.72 C 201.752 412.6 202.042 413.04 202.622 413.04 C 203.109 413.04 203.625 412.717 204.172 412.07 C 204.725 411.43 205.169 410.437 205.502 409.09 C 206.142 409.763 206.525 410.297 206.652 410.69 C 205.685 413.937 203.969 415.56 201.502 415.56 C 200.342 415.56 199.482 415.207 198.922 414.5 C 198.362 413.787 198.082 413.04 198.082 412.26 L 198.762 406.07 C 198.762 405.563 198.629 405.143 198.362 404.81 C 198.102 404.47 197.689 404.3 197.122 404.3 C 196.549 404.3 196.049 404.517 195.622 404.95 C 195.195 405.377 194.895 405.927 194.722 406.6 C 194.162 411.34 193.799 414.28 193.632 415.42 ZM 228.348 394.45 L 228.348 394.31 C 228.741 394.157 229.291 394.08 229.998 394.08 C 230.711 394.08 231.348 394.127 231.908 394.22 C 231.328 398.513 230.875 402.403 230.548 405.89 C 230.221 409.37 230.045 411.203 230.018 411.39 C 229.985 411.577 229.968 411.743 229.968 411.89 C 229.988 412.377 230.221 412.62 230.668 412.62 C 231.788 412.62 233.348 411.333 235.348 408.76 C 235.701 409.747 235.908 410.407 235.968 410.74 C 235.068 412.16 233.988 413.323 232.728 414.23 C 231.468 415.137 230.278 415.59 229.158 415.59 C 228.038 415.59 227.265 415.3 226.838 414.72 C 226.405 414.14 226.188 413.497 226.188 412.79 C 226.188 412.623 226.211 412.297 226.258 411.81 C 226.305 411.323 226.675 408.3 227.368 402.74 L 222.778 413.35 L 220.398 413.35 L 219.028 402.9 L 217.068 411.58 C 216.748 412.967 216.228 413.987 215.508 414.64 C 214.788 415.293 214.001 415.62 213.148 415.62 C 212.288 415.62 211.588 415.367 211.048 414.86 C 210.468 414.32 210.178 413.553 210.178 412.56 C 210.178 410.587 211.708 408.9 214.768 407.5 C 216.428 399.527 217.325 395.11 217.458 394.25 C 217.905 394.137 218.505 394.08 219.258 394.08 C 220.018 394.08 220.538 394.1 220.818 394.14 L 221.008 394.14 L 222.748 407.16 L 228.348 394.45 Z M 212.168 412.09 C 212.168 412.683 212.401 412.98 212.868 412.98 C 213.181 412.98 213.441 412.73 213.648 412.23 C 213.908 411.61 214.121 410.797 214.288 409.79 C 212.875 410.597 212.168 411.363 212.168 412.09 ZM 245.923 415.56 C 244.21 415.56 243.073 414.963 242.513 413.77 C 241.54 414.983 240.293 415.59 238.773 415.59 C 237.253 415.59 235.973 415.077 234.933 414.05 C 233.9 413.023 233.383 411.67 233.383 409.99 C 233.383 407.543 234.103 405.593 235.543 404.14 C 236.977 402.68 238.797 401.95 241.003 401.95 C 241.057 401.95 241.11 401.95 241.163 401.95 C 242.097 401.95 242.957 402.11 243.743 402.43 C 244.25 402.11 244.86 401.95 245.573 401.95 C 246.293 401.95 246.813 402.043 247.133 402.23 C 246.967 403.61 246.79 404.97 246.603 406.31 C 246.417 407.643 246.283 408.59 246.203 409.15 C 246.037 410.417 245.953 411.33 245.953 411.89 C 245.953 412.637 246.253 413.01 246.853 413.01 C 247.32 413.01 247.813 412.697 248.333 412.07 C 248.86 411.45 249.317 410.467 249.703 409.12 C 250.25 409.607 250.623 410.147 250.823 410.74 C 250.283 412.513 249.557 413.76 248.643 414.48 C 247.73 415.2 246.823 415.56 245.923 415.56 Z M 241.423 404.14 C 240.223 404.14 239.273 404.59 238.573 405.49 C 237.873 406.397 237.46 407.747 237.333 409.54 C 237.313 409.707 237.303 409.867 237.303 410.02 C 237.303 410.933 237.523 411.66 237.963 412.2 C 238.403 412.74 238.967 413.01 239.653 413.01 C 240.833 413.01 241.72 412.18 242.313 410.52 L 242.983 404.47 C 242.443 404.25 241.923 404.14 241.423 404.14 ZM 261.494 405.34 C 261.494 407.28 260.337 408.763 258.024 409.79 C 258.077 410.13 258.161 410.533 258.274 411 C 258.607 412.38 259.167 413.087 259.954 413.12 C 260.007 413.12 260.064 413.12 260.124 413.12 C 261.617 413.12 262.727 411.807 263.454 409.18 C 263.847 409.533 264.221 410.063 264.574 410.77 C 264.314 411.777 263.944 412.627 263.464 413.32 C 262.991 414.013 262.474 414.507 261.914 414.8 C 260.921 415.327 259.987 415.59 259.114 415.59 C 257.061 415.59 255.624 414.44 254.804 412.14 C 254.484 411.227 254.267 410.293 254.154 409.34 C 255.221 409.08 256.061 408.647 256.674 408.04 C 257.294 407.433 257.604 406.787 257.604 406.1 C 257.604 404.9 257.004 404.3 255.804 404.3 C 255.151 404.3 254.591 404.55 254.124 405.05 C 253.657 405.543 253.351 406.133 253.204 406.82 C 253.091 407.773 252.907 409.273 252.654 411.32 C 252.407 413.36 252.244 414.727 252.164 415.42 L 248.444 415.42 C 249.791 403.98 250.604 396.953 250.884 394.34 C 251.271 394.187 251.801 394.11 252.474 394.11 C 253.934 394.11 254.664 394.54 254.664 395.4 L 254.664 395.57 C 254.291 398.95 253.944 401.533 253.624 403.32 C 254.651 402.373 255.937 401.9 257.484 401.9 C 258.644 401.9 259.601 402.197 260.354 402.79 C 261.114 403.39 261.494 404.24 261.494 405.34 ZM 267.899 409.15 C 269.059 408.903 269.922 408.437 270.489 407.75 C 271.062 407.057 271.349 406.39 271.349 405.75 C 271.349 405.103 271.176 404.663 270.829 404.43 C 270.482 404.197 270.102 404.08 269.689 404.08 C 268.816 404.08 268.046 404.57 267.379 405.55 C 266.719 406.53 266.389 407.697 266.389 409.05 C 266.389 410.403 266.712 411.41 267.359 412.07 C 267.999 412.737 268.796 413.07 269.749 413.07 C 271.149 413.07 272.492 412.583 273.779 411.61 C 275.066 410.643 276.112 409.373 276.919 407.8 C 277.326 408.193 277.699 408.68 278.039 409.26 C 277.419 410.66 276.326 412.033 274.759 413.38 C 273.979 414.033 273.052 414.563 271.979 414.97 C 270.906 415.383 269.799 415.59 268.659 415.59 C 266.792 415.59 265.316 415.02 264.229 413.88 C 263.076 412.647 262.499 411.07 262.499 409.15 C 262.499 407.223 263.222 405.543 264.669 404.11 C 266.116 402.67 267.846 401.95 269.859 401.95 C 271.299 401.95 272.466 402.263 273.359 402.89 C 274.259 403.517 274.716 404.36 274.729 405.42 C 274.729 406.86 274.156 408.027 273.009 408.92 C 271.862 409.82 270.289 410.447 268.289 410.8 L 267.899 409.15 ZM 283.994 405.62 C 283.994 404.8 283.618 404.39 282.864 404.39 C 282.111 404.39 281.508 404.873 281.054 405.84 C 283.074 407.427 284.084 409.21 284.084 411.19 C 284.084 412.63 283.681 413.723 282.874 414.47 C 282.074 415.217 281.068 415.59 279.854 415.59 C 278.641 415.59 277.754 415.21 277.194 414.45 C 276.634 413.697 276.354 412.74 276.354 411.58 C 276.354 411.227 276.364 410.967 276.384 410.8 L 277.364 402.26 C 278.038 402.053 278.718 401.95 279.404 401.95 C 280.544 401.95 281.114 402.37 281.114 403.21 L 281.114 403.27 C 281.861 402.39 282.814 401.95 283.974 401.95 C 284.814 401.95 285.468 402.143 285.934 402.53 C 286.401 402.91 286.634 403.417 286.634 404.05 C 286.634 404.683 286.394 405.203 285.914 405.61 C 285.441 406.01 284.821 406.21 284.054 406.21 C 284.014 406.21 283.978 406.21 283.944 406.21 C 283.978 406.003 283.994 405.807 283.994 405.62 Z M 282.264 411.05 C 282.264 409.97 281.704 408.887 280.584 407.8 C 280.244 410.493 280.074 411.847 280.074 411.86 C 280.074 412.647 280.394 413.04 281.034 413.04 C 281.854 413.04 282.264 412.377 282.264 411.05 ZM 298.948 406.85 C 300.421 407.937 301.158 409.217 301.158 410.69 C 301.158 412.163 300.581 413.347 299.428 414.24 C 298.268 415.14 296.811 415.59 295.058 415.59 C 293.918 415.59 292.971 415.303 292.218 414.73 C 291.458 414.163 291.078 413.46 291.078 412.62 C 291.078 411.78 291.358 411.113 291.918 410.62 C 292.478 410.127 293.178 409.823 294.018 409.71 C 293.624 410.27 293.428 410.807 293.428 411.32 C 293.428 411.833 293.608 412.247 293.968 412.56 C 294.321 412.88 294.768 413.04 295.308 413.04 C 295.848 413.04 296.294 412.84 296.648 412.44 C 297.008 412.04 297.188 411.577 297.188 411.05 C 297.188 410.19 296.784 409.427 295.978 408.76 C 295.491 408.367 294.968 407.997 294.408 407.65 C 293.848 407.303 293.551 407.12 293.518 407.1 C 293.444 407.047 293.368 407 293.288 406.96 C 292.954 407.353 292.471 407.89 291.838 408.57 C 291.204 409.257 290.701 409.803 290.328 410.21 C 289.281 411.35 288.691 412.303 288.558 413.07 C 288.524 413.217 288.508 413.5 288.508 413.92 C 288.508 414.34 288.631 414.773 288.878 415.22 C 289.131 415.673 289.434 416.01 289.788 416.23 C 290.148 416.457 290.498 416.64 290.838 416.78 C 291.184 416.92 291.484 417.017 291.738 417.07 C 291.991 417.13 292.118 417.167 292.118 417.18 C 292.118 417.313 291.911 417.463 291.498 417.63 C 290.731 417.91 289.934 418.05 289.108 418.05 C 288.274 418.05 287.468 417.753 286.688 417.16 C 285.621 416.333 285.088 415.24 285.088 413.88 C 285.088 413.04 285.301 412.21 285.728 411.39 C 286.494 409.93 288.288 407.933 291.108 405.4 C 290.414 404.707 290.068 403.967 290.068 403.18 C 290.068 402.4 290.364 401.74 290.958 401.2 C 291.544 400.653 292.238 400.38 293.038 400.38 C 293.764 400.38 294.401 400.67 294.948 401.25 C 295.301 401.643 295.478 402.14 295.478 402.74 C 295.478 403.333 295.281 404.003 294.888 404.75 C 296.888 405.65 298.241 406.35 298.948 406.85 Z M 292.868 403.69 C 293.321 403.223 293.548 402.887 293.548 402.68 C 293.548 402.213 293.341 401.96 292.928 401.92 C 292.461 401.92 292.228 402.183 292.228 402.71 C 292.228 403.023 292.441 403.35 292.868 403.69 ZM 319.523 415.78 C 319.523 415.333 319.41 414.72 319.183 413.94 C 317.523 415.093 315.773 415.67 313.933 415.67 C 312.1 415.67 310.66 415.153 309.613 414.12 C 308.567 413.08 308.043 411.853 308.043 410.44 C 308.043 408.907 308.537 407.56 309.523 406.4 C 310.27 405.547 311.493 404.613 313.193 403.6 C 312.32 401.907 311.883 400.387 311.883 399.04 C 311.883 397.693 312.387 396.523 313.393 395.53 C 314.4 394.53 315.8 394.03 317.593 394.03 C 318.84 394.03 319.86 394.357 320.653 395.01 C 321.447 395.663 321.843 396.483 321.843 397.47 C 321.843 399.357 320.5 401.393 317.813 403.58 C 318 403.873 318.503 404.61 319.323 405.79 C 320.15 406.963 320.767 407.887 321.173 408.56 C 321.547 407.793 321.733 407.093 321.733 406.46 C 321.733 405.173 321.303 404.51 320.443 404.47 C 320.443 404.343 320.49 404.13 320.583 403.83 C 320.677 403.53 320.79 403.287 320.923 403.1 C 321.057 402.913 321.263 402.747 321.543 402.6 C 321.823 402.447 322.14 402.37 322.493 402.37 C 323.167 402.37 323.72 402.627 324.153 403.14 C 324.593 403.653 324.813 404.303 324.813 405.09 C 324.813 405.37 324.787 405.66 324.733 405.96 C 324.413 407.507 323.637 409.12 322.403 410.8 C 323.117 412.367 323.473 413.717 323.473 414.85 C 323.473 415.977 323.297 416.893 322.943 417.6 C 322.323 418.8 321.24 419.603 319.693 420.01 C 319.167 420.143 318.643 420.21 318.123 420.21 L 317.783 420.21 L 317.783 418.5 C 318.943 417.92 319.523 417.013 319.523 415.78 Z M 317.603 396.49 C 317.037 396.49 316.57 396.663 316.203 397.01 C 315.843 397.357 315.643 397.857 315.603 398.51 C 315.603 399.33 315.95 400.383 316.643 401.67 C 317.403 401.077 318.027 400.517 318.513 399.99 C 319.073 399.357 319.353 398.773 319.353 398.24 C 319.353 397.707 319.213 397.293 318.933 397 C 318.62 396.66 318.177 396.49 317.603 396.49 Z M 311.993 409.82 L 311.963 410.16 C 311.963 410.94 312.223 411.633 312.743 412.24 C 313.27 412.847 314.07 413.15 315.143 413.15 C 316.217 413.15 317.277 412.75 318.323 411.95 C 317.777 410.923 317.14 409.86 316.413 408.76 C 315.687 407.653 315.203 406.913 314.963 406.54 L 314.653 406.04 C 313.66 406.807 312.987 407.47 312.633 408.03 C 312.28 408.59 312.067 409.187 311.993 409.82 ZM 348.494 415.48 C 347.454 415.48 346.668 415.137 346.134 414.45 C 345.601 413.77 345.241 412.497 345.054 410.63 C 344.941 409.663 344.828 408.403 344.714 406.85 C 343.408 407.243 342.094 407.653 340.774 408.08 L 339.814 410.72 C 339.628 411.22 339.498 411.577 339.424 411.79 C 339.351 412.01 339.218 412.333 339.024 412.76 C 338.824 413.187 338.654 413.5 338.514 413.7 C 338.374 413.893 338.178 414.14 337.924 414.44 C 337.678 414.74 337.421 414.953 337.154 415.08 C 336.488 415.42 335.771 415.59 335.004 415.59 C 334.238 415.59 333.618 415.313 333.144 414.76 C 332.664 414.213 332.424 413.537 332.424 412.73 C 332.424 412.51 332.444 412.277 332.484 412.03 C 332.724 410.237 334.561 408.603 337.994 407.13 C 338.968 404.65 340.584 400.47 342.844 394.59 C 343.438 394.25 344.194 394.08 345.114 394.08 C 345.314 394.08 345.508 394.08 345.694 394.08 C 345.881 394.08 346.111 394.08 346.384 394.08 C 346.658 394.08 346.998 394.137 347.404 394.25 C 347.424 395.13 347.854 400.573 348.694 410.58 C 348.768 411.42 348.871 411.963 349.004 412.21 C 349.131 412.463 349.354 412.59 349.674 412.59 C 350.194 412.59 350.891 412.237 351.764 411.53 C 352.631 410.817 353.408 409.93 354.094 408.87 L 354.884 410.77 L 354.214 411.67 C 352.254 414.21 350.348 415.48 348.494 415.48 Z M 344.524 404.78 L 344.044 398.96 L 341.614 405.76 C 342.921 405.313 343.891 404.987 344.524 404.78 Z M 337.014 409.57 C 335.281 410.443 334.414 411.3 334.414 412.14 C 334.414 412.74 334.638 413.04 335.084 413.04 C 335.424 413.04 335.694 412.797 335.894 412.31 C 336.141 411.79 336.514 410.877 337.014 409.57 ZM 361.152 405.93 C 361.152 404.717 360.609 404.11 359.522 404.11 C 358.722 404.11 358.005 404.567 357.372 405.48 C 356.699 406.467 356.362 407.623 356.362 408.95 C 356.362 410.277 356.655 411.3 357.242 412.02 C 357.829 412.74 358.635 413.1 359.662 413.1 C 360.895 413.1 362.199 412.593 363.572 411.58 C 364.945 410.573 366.052 409.323 366.892 407.83 C 367.265 408.11 367.629 408.623 367.982 409.37 C 367.442 410.457 366.435 411.67 364.962 413.01 C 364.195 413.723 363.242 414.32 362.102 414.8 C 360.869 415.327 359.635 415.59 358.402 415.59 C 356.742 415.59 355.339 415.02 354.192 413.88 C 353.045 412.74 352.472 411.257 352.472 409.43 C 352.472 407.21 353.219 405.407 354.712 404.02 C 356.205 402.64 357.875 401.95 359.722 401.95 C 361.162 401.95 362.302 402.25 363.142 402.85 C 363.982 403.443 364.402 404.227 364.402 405.2 C 364.402 405.833 364.175 406.383 363.722 406.85 C 362.902 407.67 361.905 408.08 360.732 408.08 C 361.012 407.147 361.152 406.43 361.152 405.93 ZM 373.161 412.23 L 373.831 406.04 C 373.831 405.533 373.701 405.113 373.441 404.78 C 373.181 404.447 372.761 404.28 372.181 404.28 C 371.601 404.28 371.111 404.507 370.711 404.96 C 370.311 405.42 370.018 406.023 369.831 406.77 C 369.698 407.83 369.501 409.383 369.241 411.43 C 368.981 413.477 368.811 414.807 368.731 415.42 L 365.011 415.42 C 366.358 403.98 367.171 396.953 367.451 394.34 C 367.838 394.187 368.368 394.11 369.041 394.11 C 370.501 394.11 371.231 394.54 371.231 395.4 L 371.231 395.57 C 370.911 398.497 370.574 401.073 370.221 403.3 C 371.208 402.4 372.328 401.95 373.581 401.95 C 374.828 401.95 375.818 402.267 376.551 402.9 C 377.278 403.54 377.641 404.343 377.641 405.31 C 377.641 405.57 377.584 406.057 377.471 406.77 C 377.044 409.57 376.831 411.213 376.831 411.7 C 376.831 412.573 377.118 413.01 377.691 413.01 C 378.178 413.01 378.698 412.69 379.251 412.05 C 379.798 411.403 380.241 410.407 380.581 409.06 C 381.214 409.733 381.598 410.267 381.731 410.66 C 380.758 413.907 379.038 415.53 376.571 415.53 C 375.418 415.53 374.561 415.177 374.001 414.47 C 373.441 413.757 373.161 413.01 373.161 412.23 ZM 381.554 394.8 C 381.988 394.36 382.511 394.14 383.124 394.14 C 383.738 394.14 384.264 394.36 384.704 394.8 C 385.144 395.24 385.364 395.767 385.364 396.38 C 385.364 396.993 385.144 397.517 384.704 397.95 C 384.264 398.377 383.738 398.59 383.124 398.59 C 382.511 398.59 381.988 398.377 381.554 397.95 C 381.128 397.517 380.914 396.993 380.914 396.38 C 380.914 395.767 381.128 395.24 381.554 394.8 Z M 380.404 403.02 C 380.591 402.68 380.948 402.423 381.474 402.25 C 381.994 402.07 382.511 401.98 383.024 401.98 C 383.538 401.98 383.991 402.047 384.384 402.18 C 383.658 407.793 383.294 410.63 383.294 410.69 C 383.201 411.063 383.154 411.377 383.154 411.63 C 383.154 411.877 383.171 412.093 383.204 412.28 C 383.284 412.767 383.628 413.01 384.234 413.01 C 384.841 413.01 385.401 412.613 385.914 411.82 C 386.428 411.027 386.814 410.127 387.074 409.12 C 387.201 409.193 387.404 409.417 387.684 409.79 C 387.964 410.163 388.134 410.443 388.194 410.63 C 387.821 412.123 387.184 413.327 386.284 414.24 C 385.391 415.16 384.318 415.62 383.064 415.62 C 381.818 415.62 380.891 415.31 380.284 414.69 C 379.678 414.077 379.374 413.283 379.374 412.31 C 379.374 412.103 379.384 411.89 379.404 411.67 L 380.404 403.02 ZM 391.101 409.15 C 392.261 408.903 393.124 408.437 393.691 407.75 C 394.264 407.057 394.551 406.39 394.551 405.75 C 394.551 405.103 394.377 404.663 394.031 404.43 C 393.684 404.197 393.304 404.08 392.891 404.08 C 392.017 404.08 391.247 404.57 390.581 405.55 C 389.921 406.53 389.591 407.697 389.591 409.05 C 389.591 410.403 389.914 411.41 390.561 412.07 C 391.201 412.737 391.997 413.07 392.951 413.07 C 394.351 413.07 395.694 412.583 396.981 411.61 C 398.267 410.643 399.314 409.373 400.121 407.8 C 400.527 408.193 400.901 408.68 401.241 409.26 C 400.621 410.66 399.527 412.033 397.961 413.38 C 397.181 414.033 396.254 414.563 395.181 414.97 C 394.107 415.383 393.001 415.59 391.861 415.59 C 389.994 415.59 388.517 415.02 387.431 413.88 C 386.277 412.647 385.701 411.07 385.701 409.15 C 385.701 407.223 386.424 405.543 387.871 404.11 C 389.317 402.67 391.047 401.95 393.061 401.95 C 394.501 401.95 395.667 402.263 396.561 402.89 C 397.461 403.517 397.917 404.36 397.931 405.42 C 397.931 406.86 397.357 408.027 396.211 408.92 C 395.064 409.82 393.491 410.447 391.491 410.8 L 391.101 409.15 ZM 409.486 410.41 C 408.893 411.923 408.053 413.16 406.966 414.12 C 405.873 415.08 404.626 415.56 403.226 415.56 C 401.826 415.56 400.776 415.097 400.076 414.17 C 399.376 413.25 399.026 412.193 399.026 411 C 399.026 410.753 399.036 410.51 399.056 410.27 L 400.006 402.29 C 400.599 402.063 401.233 401.95 401.906 401.95 C 403.139 401.95 403.756 402.407 403.756 403.32 C 403.756 403.36 403.603 404.607 403.296 407.06 C 402.989 409.513 402.836 410.937 402.836 411.33 C 402.836 412.397 403.349 412.93 404.376 412.93 C 405.249 412.93 405.986 412.433 406.586 411.44 C 407.633 409.653 408.183 407.63 408.236 405.37 L 407.986 405.37 C 407.199 405.37 406.603 405.193 406.196 404.84 C 405.729 404.427 405.496 403.93 405.496 403.35 C 405.496 402.77 405.673 402.303 406.026 401.95 C 406.453 401.577 406.966 401.39 407.566 401.39 C 408.986 401.39 409.873 402.127 410.226 403.6 C 410.786 403.527 411.186 403.453 411.426 403.38 L 411.426 404.98 L 410.396 405.14 L 410.396 405.62 C 410.376 407.3 410.073 408.897 409.486 410.41 Z M 407.086 403.35 C 407.086 403.67 407.356 403.83 407.896 403.83 C 407.956 403.83 408.013 403.83 408.066 403.83 C 407.939 403.323 407.743 403.07 407.476 403.07 C 407.216 403.07 407.086 403.163 407.086 403.35 ZM 416.855 409.15 C 418.015 408.903 418.879 408.437 419.445 407.75 C 420.019 407.057 420.305 406.39 420.305 405.75 C 420.305 405.103 420.132 404.663 419.785 404.43 C 419.439 404.197 419.059 404.08 418.645 404.08 C 417.772 404.08 417.002 404.57 416.335 405.55 C 415.675 406.53 415.345 407.697 415.345 409.05 C 415.345 410.403 415.669 411.41 416.315 412.07 C 416.955 412.737 417.752 413.07 418.705 413.07 C 420.105 413.07 421.449 412.583 422.735 411.61 C 424.022 410.643 425.069 409.373 425.875 407.8 C 426.282 408.193 426.655 408.68 426.995 409.26 C 426.375 410.66 425.282 412.033 423.715 413.38 C 422.935 414.033 422.009 414.563 420.935 414.97 C 419.862 415.383 418.755 415.59 417.615 415.59 C 415.749 415.59 414.272 415.02 413.185 413.88 C 412.032 412.647 411.455 411.07 411.455 409.15 C 411.455 407.223 412.179 405.543 413.625 404.11 C 415.072 402.67 416.802 401.95 418.815 401.95 C 420.255 401.95 421.422 402.263 422.315 402.89 C 423.215 403.517 423.672 404.36 423.685 405.42 C 423.685 406.86 423.112 408.027 421.965 408.92 C 420.819 409.82 419.245 410.447 417.245 410.8 L 416.855 409.15 ZM 432.951 405.62 C 432.951 404.8 432.574 404.39 431.821 404.39 C 431.067 404.39 430.464 404.873 430.011 405.84 C 432.031 407.427 433.041 409.21 433.041 411.19 C 433.041 412.63 432.637 413.723 431.831 414.47 C 431.031 415.217 430.024 415.59 428.811 415.59 C 427.597 415.59 426.711 415.21 426.151 414.45 C 425.591 413.697 425.311 412.74 425.311 411.58 C 425.311 411.227 425.321 410.967 425.341 410.8 L 426.321 402.26 C 426.994 402.053 427.674 401.95 428.361 401.95 C 429.501 401.95 430.071 402.37 430.071 403.21 L 430.071 403.27 C 430.817 402.39 431.771 401.95 432.931 401.95 C 433.771 401.95 434.424 402.143 434.891 402.53 C 435.357 402.91 435.591 403.417 435.591 404.05 C 435.591 404.683 435.351 405.203 434.871 405.61 C 434.397 406.01 433.777 406.21 433.011 406.21 C 432.971 406.21 432.934 406.21 432.901 406.21 C 432.934 406.003 432.951 405.807 432.951 405.62 Z M 431.221 411.05 C 431.221 409.97 430.661 408.887 429.541 407.8 C 429.201 410.493 429.031 411.847 429.031 411.86 C 429.031 412.647 429.351 413.04 429.991 413.04 C 430.811 413.04 431.221 412.377 431.221 411.05 ZM 447.904 406.85 C 449.377 407.937 450.114 409.217 450.114 410.69 C 450.114 412.163 449.537 413.347 448.384 414.24 C 447.224 415.14 445.767 415.59 444.014 415.59 C 442.874 415.59 441.927 415.303 441.174 414.73 C 440.414 414.163 440.034 413.46 440.034 412.62 C 440.034 411.78 440.314 411.113 440.874 410.62 C 441.434 410.127 442.134 409.823 442.974 409.71 C 442.581 410.27 442.384 410.807 442.384 411.32 C 442.384 411.833 442.564 412.247 442.924 412.56 C 443.277 412.88 443.724 413.04 444.264 413.04 C 444.804 413.04 445.251 412.84 445.604 412.44 C 445.964 412.04 446.144 411.577 446.144 411.05 C 446.144 410.19 445.741 409.427 444.934 408.76 C 444.447 408.367 443.924 407.997 443.364 407.65 C 442.804 407.303 442.507 407.12 442.474 407.1 C 442.401 407.047 442.324 407 442.244 406.96 C 441.911 407.353 441.427 407.89 440.794 408.57 C 440.161 409.257 439.657 409.803 439.284 410.21 C 438.237 411.35 437.647 412.303 437.514 413.07 C 437.481 413.217 437.464 413.5 437.464 413.92 C 437.464 414.34 437.587 414.773 437.834 415.22 C 438.087 415.673 438.391 416.01 438.744 416.23 C 439.104 416.457 439.454 416.64 439.794 416.78 C 440.141 416.92 440.441 417.017 440.694 417.07 C 440.947 417.13 441.074 417.167 441.074 417.18 C 441.074 417.313 440.867 417.463 440.454 417.63 C 439.687 417.91 438.891 418.05 438.064 418.05 C 437.231 418.05 436.424 417.753 435.644 417.16 C 434.577 416.333 434.044 415.24 434.044 413.88 C 434.044 413.04 434.257 412.21 434.684 411.39 C 435.451 409.93 437.244 407.933 440.064 405.4 C 439.371 404.707 439.024 403.967 439.024 403.18 C 439.024 402.4 439.321 401.74 439.914 401.2 C 440.501 400.653 441.194 400.38 441.994 400.38 C 442.721 400.38 443.357 400.67 443.904 401.25 C 444.257 401.643 444.434 402.14 444.434 402.74 C 444.434 403.333 444.237 404.003 443.844 404.75 C 445.844 405.65 447.197 406.35 447.904 406.85 Z M 441.824 403.69 C 442.277 403.223 442.504 402.887 442.504 402.68 C 442.504 402.213 442.297 401.96 441.884 401.92 C 441.417 401.92 441.184 402.183 441.184 402.71 C 441.184 403.023 441.397 403.35 441.824 403.69 Z" transform="matrix(2.3512721061706543, 0, 0, 2.642548084259033, -283.21807861328125, -732.1950073242188)" style="fill: rgb(0, 88, 141); white-space: pre;"/>
</svg>