<?xml version="1.0" encoding="utf-8"?>
<svg viewBox="0 0 827.605 516.692" xmlns="http://www.w3.org/2000/svg">
  <g transform="matrix(0.136825, 0, 0, -0.132692, 47.904453, 560.872192)" fill="#000000" stroke="none" style="">
    <path d="M2419 4215 c-668 -109 -1180 -595 -1319 -1250 -27 -128 -37 -365 -21 -500 79 -672 577 -1217 1249 -1368 84 -18 128 -21 322 -21 249 -1 324 10 512 75 568 195 980 699 1059 1294 18 142 6 415 -24 545 -29 121 -81 268 -126 358 -223 442 -622 749 -1106 852 -131 28 -419 36 -546 15z m350 -35 c146 -13 241 -33 371 -77 390 -132 705 -408 887 -776 215 -435 214 -922 -3 -1362 -164 -334 -468 -612 -814 -746 -472 -182 -988 -127 -1405 149 -396 263 -641 676 -686 1158 -19 208 13 443 90 651 205 557 719 950 1308 1002 128 12 128 12 252 1z" style="fill: rgb(0, 90, 142);"/>
    <path d="M2463 4149 c-39 -5 -116 -20 -170 -33 -280 -71 -507 -199 -708 -401 -414 -414 -551 -1014 -358 -1568 78 -225 204 -419 379 -587 206 -196 423 -313 715 -386 108 -27 126 -28 329 -28 203 0 221 1 330 28 308 76 540 206 747 417 541 552 582 1406 95 2010 -323 401 -838 609 -1359 548z m-132 -337 c15 -44 37 -58 32 -21 -2 11 7 19 25 22 36 7 38 3 13 -22 -31 -31 -26 -50 19 -69 40 -17 52 -32 26 -32 -8 0 -21 -3 -30 -6 -10 -4 -16 -1 -16 9 0 8 -7 18 -16 21 -24 9 -28 1 -8 -18 9 -9 15 -18 13 -19 -20 -14 -141 -46 -153 -41 -24 9 -19 41 9 66 27 23 25 38 -5 38 -13 0 -17 -5 -14 -15 4 -9 0 -15 -10 -15 -24 0 -19 28 9 46 33 22 54 12 72 -36 16 -39 50 -58 39 -22 -2 9 -12 43 -20 74 -9 31 -22 58 -29 61 -9 3 -9 8 2 21 17 21 22 16 42 -42z m691 41 c23 -20 23 -32 -1 -57 -14 -16 -17 -27 -10 -45 7 -19 12 -21 24 -11 7 6 11 18 8 26 -4 11 0 12 27 2 29 -10 31 -12 14 -21 -41 -22 -54 -39 -43 -58 5 -11 16 -19 24 -19 8 0 15 -4 15 -10 0 -18 -39 -11 -50 9 -8 15 -17 18 -48 14 -28 -4 -43 -1 -55 12 -24 24 -21 62 7 80 17 12 22 22 18 42 -3 18 1 30 13 40 24 17 35 17 57 -4z m-392 -13 c0 -6 8 -5 20 2 15 9 22 10 31 1 16 -16 1 -37 -16 -23 -9 8 -14 6 -19 -6 -11 -28 -7 -84 7 -85 6 0 -3 -5 -22 -10 -31 -9 -61 -2 -33 8 7 3 12 22 12 48 0 25 -5 45 -12 48 -10 4 -9 8 2 16 19 14 30 14 30 1z m155 -3 c11 -9 15 -19 10 -27 -6 -10 -11 -9 -21 4 -7 11 -18 15 -25 10 -9 -5 -3 -15 20 -35 34 -28 38 -54 10 -72 -26 -16 -71 0 -67 24 3 21 23 27 23 7 0 -7 8 -14 18 -16 24 -5 22 25 -3 33 -33 10 -45 43 -24 66 20 22 34 24 59 6z m-245 -17 c29 -29 26 -50 -7 -50 -37 0 -54 -12 -43 -29 5 -9 18 -12 39 -8 35 7 42 -7 12 -23 -29 -15 -49 -12 -71 10 -37 37 -13 120 35 120 8 0 24 -9 35 -20z m-435 -70 c-8 -13 73 -128 94 -132 11 -3 7 -9 -15 -21 -32 -16 -32 -16 -38 11 -3 15 -15 38 -26 52 -18 21 -21 22 -16 5 12 -47 18 -115 10 -115 -5 0 -20 9 -34 21 -14 11 -38 29 -54 41 l-29 22 24 -43 c13 -24 30 -46 37 -48 19 -8 14 -19 -13 -31 -22 -10 -25 -9 -25 8 0 29 -58 140 -72 140 -8 0 -6 6 4 17 16 15 21 13 78 -31 33 -26 60 -43 60 -38 0 5 -5 34 -11 65 -13 62 -8 87 16 87 9 0 13 -5 10 -10z m1172 -100 c-1 -60 -3 -110 -4 -110 -1 0 -18 10 -39 22 -34 20 -35 22 -15 29 28 11 27 33 -3 49 -33 17 -59 7 -51 -21 7 -20 6 -20 -25 -4 l-32 17 28 18 c16 10 54 39 84 64 30 25 56 46 57 46 1 0 1 -49 0 -110z m138 -56 c19 -19 15 -38 -9 -42 -14 -3 -17 1 -11 17 10 31 -30 28 -51 -4 -19 -29 -12 -55 16 -62 11 -3 17 -9 14 -14 -3 -5 1 -9 8 -9 19 0 108 92 108 112 0 20 8 22 29 9 12 -8 9 -15 -13 -41 l-27 -33 23 -11 c34 -17 34 -49 0 -88 -16 -18 -27 -39 -25 -45 8 -21 -12 -15 -37 12 -21 23 -22 25 -5 25 24 0 65 38 65 61 0 9 -9 19 -19 22 -22 6 -61 -30 -61 -56 0 -9 -3 -17 -6 -17 -6 0 -49 33 -96 75 -24 20 -23 46 3 79 24 30 69 35 94 10z m-588 -70 c312 -64 564 -283 667 -580 35 -100 49 -185 49 -304 -1 -403 -277 -754 -672 -857 -129 -33 -297 -35 -424 -4 -651 157 -905 923 -480 1446 120 147 303 256 504 300 88 19 263 18 356 -1z m-915 -29 c16 -14 39 -25 51 -25 20 0 20 0 -3 -25 -13 -14 -28 -25 -33 -25 -6 0 -7 3 -4 7 9 9 -43 63 -60 63 -8 0 -16 -7 -20 -16 -7 -19 44 -75 63 -67 22 8 16 -11 -11 -37 -23 -21 -25 -22 -25 -5 0 24 -38 65 -61 65 -9 0 -20 -7 -23 -17 -8 -20 30 -63 56 -63 24 0 23 -13 -3 -36 -12 -10 -25 -28 -30 -39 -25 -55 -47 -80 -70 -80 -22 0 -24 4 -24 45 0 33 -4 45 -15 45 -9 0 -15 -9 -15 -22 0 -28 -13 -40 -21 -19 -10 25 4 64 26 71 12 4 33 -3 57 -19 38 -26 63 -22 63 12 0 22 -40 62 -62 62 -20 0 -21 1 -12 24 3 9 12 16 19 16 7 0 15 9 18 21 3 11 15 23 26 26 12 3 21 11 21 18 0 18 28 45 47 45 8 0 28 -11 45 -25z m1728 -60 c0 -8 -7 -15 -15 -15 -8 0 -15 7 -15 15 0 8 7 15 15 15 8 0 15 -7 15 -15z m-56 -11 c24 -9 20 -21 -19 -55 -19 -17 -35 -37 -35 -45 0 -22 -16 -17 -34 11 -15 23 -15 25 1 25 20 0 63 38 63 57 0 15 2 15 24 7z m74 -90 c27 -19 29 -55 3 -78 -18 -17 -20 -16 -37 13 -10 17 -23 30 -29 28 -18 -6 -17 -38 1 -58 15 -17 15 -19 1 -19 -23 0 -50 45 -44 72 6 22 50 57 72 58 6 0 21 -7 33 -16z m70 -109 c14 -31 15 -38 4 -31 -5 3 -21 -7 -36 -23 l-26 -28 32 5 c18 3 36 10 40 16 5 7 12 4 22 -9 9 -11 15 -22 16 -25 0 -3 -34 -6 -75 -8 -51 -1 -75 2 -75 9 0 6 16 29 35 50 19 22 35 46 35 54 0 23 16 18 28 -10z m-2060 -34 c12 -7 11 -14 -2 -39 -20 -40 -20 -42 4 -42 14 0 25 11 34 31 10 24 15 27 19 15 4 -9 2 -27 -3 -40 -15 -41 -62 -48 -104 -15 -32 25 -34 62 -4 83 25 18 37 19 56 7z m-78 -116 c0 -8 -5 -15 -11 -15 -20 0 3 -22 39 -37 28 -12 36 -12 43 -2 14 24 19 3 7 -29 -12 -31 -28 -43 -28 -21 0 14 -66 40 -84 33 -11 -4 -16 0 -16 15 0 12 5 21 10 21 6 0 10 6 9 13 -3 26 2 37 16 37 8 0 15 -7 15 -15z m2205 -2 c10 -10 15 -26 12 -41 -3 -16 2 -33 15 -46 11 -13 15 -22 8 -24 -7 -3 -5 -11 6 -23 13 -14 14 -23 7 -30 -15 -15 -34 -2 -26 16 3 11 -2 15 -18 15 -40 0 -69 -12 -69 -26 0 -8 -4 -14 -10 -14 -9 0 -12 11 -14 58 -1 9 -7 23 -13 30 -21 22 -16 69 9 86 29 21 72 20 93 -1z m-2183 -143 c19 -23 22 -56 12 -109 -6 -28 -8 -30 -23 -17 -20 17 -124 39 -150 31 -18 -5 -18 -3 -9 37 5 24 19 54 31 66 19 21 29 23 71 19 36 -3 55 -11 68 -27z m2166 -78 c2 -7 -3 -12 -12 -12 -18 0 -22 -25 -6 -35 5 -3 17 10 27 29 12 26 23 36 40 36 26 0 43 -31 35 -62 -5 -22 -32 -24 -32 -3 0 8 4 15 10 15 5 0 7 7 4 15 -5 12 -10 13 -20 4 -8 -6 -14 -16 -14 -22 0 -13 -30 -47 -41 -47 -16 0 -39 32 -39 54 0 38 37 60 48 28z m-713 -1167 c14 -13 25 -30 25 -38 0 -23 -40 -67 -60 -67 -30 0 -62 34 -62 65 0 30 32 65 59 65 7 0 25 -11 38 -25z m-737 -29 c12 -23 11 -31 -3 -52 -20 -30 -37 -38 -68 -30 -51 12 -54 96 -5 115 32 12 61 -1 76 -33z m386 -42 c37 -36 7 -104 -45 -104 -30 0 -59 31 -59 64 0 48 70 75 104 40z" style="fill: rgb(0, 90, 142);"/>
    <path d="M2262 3688 c-16 -16 -15 -28 2 -28 19 0 27 13 17 28 -5 9 -10 9 -19 0z" style="fill: rgb(0, 90, 142);"/>
    <path d="M2987 3844 c-11 -11 -8 -44 3 -44 15 0 24 30 13 41 -5 5 -12 6 -16 3z" style="fill: rgb(0, 90, 142);"/>
    <path d="M2950 3755 c-19 -23 -8 -50 23 -53 30 -4 33 4 15 43 -13 29 -21 31 -38 10z" style="fill: rgb(0, 90, 142);"/>
    <path d="M2487 3813 c-16 -16 -6 -30 18 -25 20 3 23 7 14 18 -13 15 -22 17 -32 7z" style="fill: rgb(0, 90, 142);"/>
    <path d="M3225 3691 c-16 -19 -17 -24 -5 -31 19 -12 33 2 28 30 l-3 22 -20 -21z" style="fill: rgb(0, 90, 142);"/>
    <path d="M2585 3275 c-33 -7 -75 -18 -93 -23 -192 -61 -321 -235 -322 -434 0 -45 -7 -69 -31 -115 -18 -32 -35 -62 -39 -68 -4 -5 -11 -24 -15 -42 -7 -35 16 -97 40 -107 8 -3 16 -30 20 -70 4 -37 11 -69 16 -72 5 -3 9 -33 9 -68 0 -52 4 -66 23 -83 41 -37 82 -46 173 -40 72 5 84 4 84 -9 0 -9 7 -40 16 -70 12 -42 20 -54 35 -54 11 0 22 6 25 13 5 13 -32 166 -43 177 -2 3 -56 5 -119 5 -130 0 -138 5 -128 68 4 27 1 45 -11 63 -9 14 -15 35 -12 45 3 10 1 22 -5 25 -6 4 -8 23 -4 43 6 42 0 56 -32 65 -46 15 -45 38 5 133 42 79 48 97 54 174 14 184 115 311 296 370 80 27 239 26 313 -1 225 -82 365 -336 306 -556 -33 -124 -131 -244 -241 -298 -33 -16 -63 -34 -67 -40 -9 -12 -5 -36 19 -136 23 -96 32 -110 62 -91 12 8 11 21 -2 88 -9 44 -19 86 -22 94 -3 9 13 23 52 44 66 34 160 123 196 187 47 80 69 165 70 263 0 50 -6 110 -13 135 -55 200 -215 346 -423 385 -91 17 -110 17 -192 0z" style="fill: rgb(0, 90, 142);"/>
    <path d="M2664 3126 c-9 -22 0 -69 13 -73 15 -5 27 38 18 66 -7 24 -23 27 -31 7z" style="fill: rgb(0, 90, 142);"/>
    <path d="M2480 3085 c0 -2 8 -20 17 -40 16 -33 43 -48 43 -25 0 22 -31 70 -45 70 -8 0 -15 -2 -15 -5z" style="fill: rgb(0, 90, 142);"/>
    <path d="M2836 3065 c-19 -29 -21 -55 -3 -55 11 0 47 58 47 75 0 15 -30 1 -44 -20z" style="fill: rgb(0, 90, 142);"/>
    <path d="M2625 2994 c-66 -17 -126 -67 -161 -134 -25 -48 -25 -153 0 -200 77 -148 263 -183 379 -72 54 52 72 95 72 172 0 40 -6 78 -17 100 -18 37 -79 100 -115 119 -25 13 -128 22 -158 15z m160 -82 c56 -39 78 -82 78 -153 -1 -70 -27 -118 -85 -156 -52 -35 -138 -37 -191 -4 -73 45 -109 129 -87 205 36 129 178 183 285 108z" style="fill: rgb(0, 90, 142);"/>
    <path d="M2350 2945 c0 -14 48 -45 70 -45 23 0 8 27 -25 43 -43 21 -45 21 -45 2z" style="fill: rgb(0, 90, 142);"/>
    <path d="M2963 2943 c-31 -16 -45 -43 -23 -43 22 0 70 31 70 45 0 18 -6 18 -47 -2z" style="fill: rgb(0, 90, 142);"/>
    <path d="M2307 2774 c-16 -17 -4 -24 39 -24 32 0 44 4 42 13 -5 13 -69 22 -81 11z" style="fill: rgb(0, 90, 142);"/>
    <path d="M2977 2774 c-16 -17 -4 -24 39 -24 32 0 44 4 42 13 -5 13 -69 22 -81 11z" style="fill: rgb(0, 90, 142);"/>
    <path d="M2373 2603 c-20 -13 -32 -43 -18 -43 17 0 75 36 75 47 0 17 -30 16 -57 -4z" style="fill: rgb(0, 90, 142);"/>
    <path d="M2930 2607 c0 -11 58 -47 75 -47 15 0 1 30 -20 44 -29 19 -55 21 -55 3z" style="fill: rgb(0, 90, 142);"/>
    <path d="M2497 2475 c-21 -43 -21 -45 -2 -45 14 0 45 48 45 70 0 23 -27 8 -43 -25z" style="fill: rgb(0, 90, 142);"/>
    <path d="M2820 2495 c0 -23 30 -65 46 -65 18 0 18 2 -3 45 -17 36 -43 48 -43 20z" style="fill: rgb(0, 90, 142);"/>
    <path d="M2664 2456 c-9 -22 0 -69 13 -73 15 -5 27 38 18 66 -7 24 -23 27 -31 7z" style="fill: rgb(0, 90, 142);"/>
    <path d="M1735 3250 c-7 -12 2 -30 16 -30 5 0 9 9 9 20 0 21 -15 27 -25 10z" style="fill: rgb(0, 90, 142);"/>
    <path d="M3620 3311 c0 -5 6 -14 14 -20 16 -13 32 2 21 19 -8 12 -35 13 -35 1z" style="fill: rgb(0, 90, 142);"/>
    <path d="M1615 3160 c-7 -11 2 -30 14 -30 5 0 11 9 14 20 5 21 -16 29 -28 10z" style="fill: rgb(0, 90, 142);"/>
    <path d="M3757 3050 c7 -28 22 -35 30 -15 3 10 0 21 -8 26 -22 14 -28 11 -22 -11z" style="fill: rgb(0, 90, 142);"/>
    <path d="M3710 3045 c-11 -13 -10 -21 0 -43 8 -15 13 -31 11 -36 -1 -5 12 -6 30 -2 17 3 35 6 40 6 5 0 9 7 9 16 0 11 -6 14 -20 9 -17 -5 -23 0 -35 29 -17 41 -18 41 -35 21z" style="fill: rgb(0, 90, 142);"/>
    <path d="M1488 2918 c-22 -19 -29 -45 -13 -52 7 -2 41 -8 74 -12 61 -7 61 -6 61 19 0 47 -82 77 -122 45z" style="fill: rgb(0, 90, 142);"/>
    <path d="M3001 1666 c-15 -17 1 -56 23 -56 23 0 41 30 29 48 -14 23 -37 26 -52 8z" style="fill: rgb(0, 90, 142);"/>
    <path d="M2255 1654 c-18 -19 -16 -33 7 -48 12 -7 21 -6 32 3 22 18 20 38 -3 51 -15 7 -24 6 -36 -6z" style="fill: rgb(0, 90, 142);"/>
    <path d="M2644 1585 c-10 -25 4 -47 28 -43 17 2 24 11 26 31 3 23 0 27 -23 27 -14 0 -28 -7 -31 -15z" style="fill: rgb(0, 90, 142);"/>
  </g>
  <rect y="416.703" width="817.605" height="93.085" style="fill: rgba(217, 239, 254, 0.47); stroke-width: 6px; stroke: rgb(0, 88, 141);" x="5"/>
  <path d="M 121.715 400.41 C 121.715 398.417 122.582 396.85 124.315 395.71 C 126.055 394.57 128.055 394 130.315 394 C 133.208 394 135.745 394.83 137.925 396.49 C 139.012 397.33 139.852 398.447 140.445 399.84 C 141.045 401.227 141.345 402.76 141.345 404.44 C 141.345 407.747 140.402 410.437 138.515 412.51 C 136.555 414.617 134.102 415.67 131.155 415.67 C 130.502 415.67 129.808 415.587 129.075 415.42 C 128.348 415.253 127.772 415.03 127.345 414.75 C 126.652 415.27 125.768 415.53 124.695 415.53 C 123.622 415.53 122.788 415.233 122.195 414.64 C 121.595 414.04 121.295 413.273 121.295 412.34 C 121.295 410.14 122.965 408.263 126.305 406.71 C 126.398 405.93 126.535 404.87 126.715 403.53 C 126.888 402.197 127.028 401.12 127.135 400.3 C 127.235 399.48 127.305 398.94 127.345 398.68 C 128.112 398.193 128.998 397.95 130.005 397.95 C 130.472 397.95 130.918 397.997 131.345 398.09 L 129.585 410.04 C 129.418 411.107 129.185 411.993 128.885 412.7 C 129.465 412.853 129.932 412.93 130.285 412.93 C 132.432 412.93 134.092 412.117 135.265 410.49 C 136.478 408.79 137.085 406.737 137.085 404.33 C 137.085 401.25 135.975 399.04 133.755 397.7 C 132.522 396.953 131.168 396.58 129.695 396.58 C 127.808 396.58 126.315 397.093 125.215 398.12 C 124.582 398.693 124.265 399.393 124.265 400.22 C 124.265 400.647 124.395 401.05 124.655 401.43 C 124.915 401.817 125.372 402.037 126.025 402.09 L 125.745 403.91 C 124.385 403.837 123.372 403.46 122.705 402.78 C 122.045 402.1 121.715 401.31 121.715 400.41 Z M 123.365 411.98 C 123.365 412.647 123.682 412.98 124.315 412.98 C 124.582 412.98 124.858 412.81 125.145 412.47 C 125.432 412.123 125.632 411.577 125.745 410.83 L 125.995 409.09 C 124.242 410.083 123.365 411.047 123.365 411.98 ZM 150.561 405.62 C 150.561 404.8 150.184 404.39 149.431 404.39 C 148.677 404.39 148.074 404.873 147.621 405.84 C 149.641 407.427 150.651 409.21 150.651 411.19 C 150.651 412.63 150.247 413.723 149.441 414.47 C 148.641 415.217 147.634 415.59 146.421 415.59 C 145.207 415.59 144.321 415.21 143.761 414.45 C 143.201 413.697 142.921 412.74 142.921 411.58 C 142.921 411.227 142.931 410.967 142.951 410.8 L 143.931 402.26 C 144.604 402.053 145.284 401.95 145.971 401.95 C 147.111 401.95 147.681 402.37 147.681 403.21 L 147.681 403.27 C 148.427 402.39 149.381 401.95 150.541 401.95 C 151.381 401.95 152.034 402.143 152.501 402.53 C 152.967 402.91 153.201 403.417 153.201 404.05 C 153.201 404.683 152.961 405.203 152.481 405.61 C 152.007 406.01 151.387 406.21 150.621 406.21 C 150.581 406.21 150.544 406.21 150.511 406.21 C 150.544 406.003 150.561 405.807 150.561 405.62 Z M 148.831 411.05 C 148.831 409.97 148.271 408.887 147.151 407.8 C 146.811 410.493 146.641 411.847 146.641 411.86 C 146.641 412.647 146.961 413.04 147.601 413.04 C 148.421 413.04 148.831 412.377 148.831 411.05 ZM 159.143 409.15 C 160.303 408.903 161.167 408.437 161.733 407.75 C 162.307 407.057 162.593 406.39 162.593 405.75 C 162.593 405.103 162.42 404.663 162.073 404.43 C 161.727 404.197 161.347 404.08 160.933 404.08 C 160.06 404.08 159.29 404.57 158.623 405.55 C 157.963 406.53 157.633 407.697 157.633 409.05 C 157.633 410.403 157.957 411.41 158.603 412.07 C 159.243 412.737 160.04 413.07 160.993 413.07 C 162.393 413.07 163.737 412.583 165.023 411.61 C 166.31 410.643 167.357 409.373 168.163 407.8 C 168.57 408.193 168.943 408.68 169.283 409.26 C 168.663 410.66 167.57 412.033 166.003 413.38 C 165.223 414.033 164.297 414.563 163.223 414.97 C 162.15 415.383 161.043 415.59 159.903 415.59 C 158.037 415.59 156.56 415.02 155.473 413.88 C 154.32 412.647 153.743 411.07 153.743 409.15 C 153.743 407.223 154.467 405.543 155.913 404.11 C 157.36 402.67 159.09 401.95 161.103 401.95 C 162.543 401.95 163.71 402.263 164.603 402.89 C 165.503 403.517 165.96 404.36 165.973 405.42 C 165.973 406.86 165.4 408.027 164.253 408.92 C 163.107 409.82 161.533 410.447 159.533 410.8 L 159.143 409.15 ZM 179.537 415.56 C 177.824 415.56 176.687 414.963 176.127 413.77 C 175.154 414.983 173.907 415.59 172.387 415.59 C 170.867 415.59 169.587 415.077 168.547 414.05 C 167.514 413.023 166.997 411.67 166.997 409.99 C 166.997 407.543 167.717 405.593 169.157 404.14 C 170.591 402.68 172.411 401.95 174.617 401.95 C 174.671 401.95 174.724 401.95 174.777 401.95 C 175.711 401.95 176.571 402.11 177.357 402.43 C 177.864 402.11 178.474 401.95 179.187 401.95 C 179.907 401.95 180.427 402.043 180.747 402.23 C 180.581 403.61 180.404 404.97 180.217 406.31 C 180.031 407.643 179.897 408.59 179.817 409.15 C 179.651 410.417 179.567 411.33 179.567 411.89 C 179.567 412.637 179.867 413.01 180.467 413.01 C 180.934 413.01 181.427 412.697 181.947 412.07 C 182.474 411.45 182.931 410.467 183.317 409.12 C 183.864 409.607 184.237 410.147 184.437 410.74 C 183.897 412.513 183.171 413.76 182.257 414.48 C 181.344 415.2 180.437 415.56 179.537 415.56 Z M 175.037 404.14 C 173.837 404.14 172.887 404.59 172.187 405.49 C 171.487 406.397 171.074 407.747 170.947 409.54 C 170.927 409.707 170.917 409.867 170.917 410.02 C 170.917 410.933 171.137 411.66 171.577 412.2 C 172.017 412.74 172.581 413.01 173.267 413.01 C 174.447 413.01 175.334 412.18 175.927 410.52 L 176.597 404.47 C 176.057 404.25 175.537 404.14 175.037 404.14 ZM 194.027 415.42 L 190.417 415.42 L 191.477 406.12 C 191.477 405.6 191.353 405.167 191.107 404.82 C 190.853 404.473 190.41 404.3 189.777 404.3 C 189.137 404.3 188.613 404.603 188.207 405.21 C 187.793 405.817 187.53 406.457 187.417 407.13 C 186.763 411.777 186.4 414.54 186.327 415.42 L 182.577 415.42 L 184.117 402.26 C 184.903 402.053 185.5 401.95 185.907 401.95 C 187.087 401.95 187.73 402.343 187.837 403.13 C 188.757 402.343 189.757 401.95 190.837 401.95 C 193.003 401.95 194.383 402.593 194.977 403.88 C 195.897 402.573 197.203 401.92 198.897 401.92 C 200.15 401.92 201.14 402.243 201.867 402.89 C 202.593 403.537 202.957 404.343 202.957 405.31 C 202.957 405.59 202.903 406.087 202.797 406.8 C 202.363 409.6 202.147 411.24 202.147 411.72 C 202.147 412.6 202.437 413.04 203.017 413.04 C 203.503 413.04 204.02 412.717 204.567 412.07 C 205.12 411.43 205.563 410.437 205.897 409.09 C 206.537 409.763 206.92 410.297 207.047 410.69 C 206.08 413.937 204.363 415.56 201.897 415.56 C 200.737 415.56 199.877 415.207 199.317 414.5 C 198.757 413.787 198.477 413.04 198.477 412.26 L 199.157 406.07 C 199.157 405.563 199.023 405.143 198.757 404.81 C 198.497 404.47 198.083 404.3 197.517 404.3 C 196.943 404.3 196.443 404.517 196.017 404.95 C 195.59 405.377 195.29 405.927 195.117 406.6 C 194.557 411.34 194.193 414.28 194.027 415.42 ZM 228.94 394.45 L 228.94 394.31 C 229.333 394.157 229.883 394.08 230.59 394.08 C 231.303 394.08 231.94 394.127 232.5 394.22 C 231.92 398.513 231.467 402.403 231.14 405.89 C 230.813 409.37 230.637 411.203 230.61 411.39 C 230.577 411.577 230.56 411.743 230.56 411.89 C 230.58 412.377 230.813 412.62 231.26 412.62 C 232.38 412.62 233.94 411.333 235.94 408.76 C 236.293 409.747 236.5 410.407 236.56 410.74 C 235.66 412.16 234.58 413.323 233.32 414.23 C 232.06 415.137 230.87 415.59 229.75 415.59 C 228.63 415.59 227.857 415.3 227.43 414.72 C 226.997 414.14 226.78 413.497 226.78 412.79 C 226.78 412.623 226.803 412.297 226.85 411.81 C 226.897 411.323 227.267 408.3 227.96 402.74 L 223.37 413.35 L 220.99 413.35 L 219.62 402.9 L 217.66 411.58 C 217.34 412.967 216.82 413.987 216.1 414.64 C 215.38 415.293 214.593 415.62 213.74 415.62 C 212.88 415.62 212.18 415.367 211.64 414.86 C 211.06 414.32 210.77 413.553 210.77 412.56 C 210.77 410.587 212.3 408.9 215.36 407.5 C 217.02 399.527 217.917 395.11 218.05 394.25 C 218.497 394.137 219.097 394.08 219.85 394.08 C 220.61 394.08 221.13 394.1 221.41 394.14 L 221.6 394.14 L 223.34 407.16 L 228.94 394.45 Z M 212.76 412.09 C 212.76 412.683 212.993 412.98 213.46 412.98 C 213.773 412.98 214.033 412.73 214.24 412.23 C 214.5 411.61 214.713 410.797 214.88 409.79 C 213.467 410.597 212.76 411.363 212.76 412.09 ZM 246.613 415.56 C 244.9 415.56 243.763 414.963 243.203 413.77 C 242.23 414.983 240.983 415.59 239.463 415.59 C 237.943 415.59 236.663 415.077 235.623 414.05 C 234.59 413.023 234.073 411.67 234.073 409.99 C 234.073 407.543 234.793 405.593 236.233 404.14 C 237.667 402.68 239.487 401.95 241.693 401.95 C 241.747 401.95 241.8 401.95 241.853 401.95 C 242.787 401.95 243.647 402.11 244.433 402.43 C 244.94 402.11 245.55 401.95 246.263 401.95 C 246.983 401.95 247.503 402.043 247.823 402.23 C 247.657 403.61 247.48 404.97 247.293 406.31 C 247.107 407.643 246.973 408.59 246.893 409.15 C 246.727 410.417 246.643 411.33 246.643 411.89 C 246.643 412.637 246.943 413.01 247.543 413.01 C 248.01 413.01 248.503 412.697 249.023 412.07 C 249.55 411.45 250.007 410.467 250.393 409.12 C 250.94 409.607 251.313 410.147 251.513 410.74 C 250.973 412.513 250.247 413.76 249.333 414.48 C 248.42 415.2 247.513 415.56 246.613 415.56 Z M 242.113 404.14 C 240.913 404.14 239.963 404.59 239.263 405.49 C 238.563 406.397 238.15 407.747 238.023 409.54 C 238.003 409.707 237.993 409.867 237.993 410.02 C 237.993 410.933 238.213 411.66 238.653 412.2 C 239.093 412.74 239.657 413.01 240.343 413.01 C 241.523 413.01 242.41 412.18 243.003 410.52 L 243.673 404.47 C 243.133 404.25 242.613 404.14 242.113 404.14 ZM 262.283 405.34 C 262.283 407.28 261.126 408.763 258.813 409.79 C 258.866 410.13 258.949 410.533 259.063 411 C 259.396 412.38 259.956 413.087 260.743 413.12 C 260.796 413.12 260.853 413.12 260.913 413.12 C 262.406 413.12 263.516 411.807 264.243 409.18 C 264.636 409.533 265.009 410.063 265.363 410.77 C 265.103 411.777 264.733 412.627 264.253 413.32 C 263.779 414.013 263.263 414.507 262.703 414.8 C 261.709 415.327 260.776 415.59 259.903 415.59 C 257.849 415.59 256.413 414.44 255.593 412.14 C 255.273 411.227 255.056 410.293 254.943 409.34 C 256.009 409.08 256.849 408.647 257.463 408.04 C 258.083 407.433 258.393 406.787 258.393 406.1 C 258.393 404.9 257.793 404.3 256.593 404.3 C 255.939 404.3 255.379 404.55 254.913 405.05 C 254.446 405.543 254.139 406.133 253.993 406.82 C 253.879 407.773 253.696 409.273 253.443 411.32 C 253.196 413.36 253.033 414.727 252.953 415.42 L 249.233 415.42 C 250.579 403.98 251.393 396.953 251.673 394.34 C 252.059 394.187 252.589 394.11 253.263 394.11 C 254.723 394.11 255.453 394.54 255.453 395.4 L 255.453 395.57 C 255.079 398.95 254.733 401.533 254.413 403.32 C 255.439 402.373 256.726 401.9 258.273 401.9 C 259.433 401.9 260.389 402.197 261.143 402.79 C 261.903 403.39 262.283 404.24 262.283 405.34 ZM 268.786 409.15 C 269.946 408.903 270.81 408.437 271.376 407.75 C 271.95 407.057 272.236 406.39 272.236 405.75 C 272.236 405.103 272.063 404.663 271.716 404.43 C 271.37 404.197 270.99 404.08 270.576 404.08 C 269.703 404.08 268.933 404.57 268.266 405.55 C 267.606 406.53 267.276 407.697 267.276 409.05 C 267.276 410.403 267.6 411.41 268.246 412.07 C 268.886 412.737 269.683 413.07 270.636 413.07 C 272.036 413.07 273.38 412.583 274.666 411.61 C 275.953 410.643 277 409.373 277.806 407.8 C 278.213 408.193 278.586 408.68 278.926 409.26 C 278.306 410.66 277.213 412.033 275.646 413.38 C 274.866 414.033 273.94 414.563 272.866 414.97 C 271.793 415.383 270.686 415.59 269.546 415.59 C 267.68 415.59 266.203 415.02 265.116 413.88 C 263.963 412.647 263.386 411.07 263.386 409.15 C 263.386 407.223 264.11 405.543 265.556 404.11 C 267.003 402.67 268.733 401.95 270.746 401.95 C 272.186 401.95 273.353 402.263 274.246 402.89 C 275.146 403.517 275.603 404.36 275.616 405.42 C 275.616 406.86 275.043 408.027 273.896 408.92 C 272.75 409.82 271.176 410.447 269.176 410.8 L 268.786 409.15 ZM 284.981 405.62 C 284.981 404.8 284.604 404.39 283.851 404.39 C 283.097 404.39 282.494 404.873 282.041 405.84 C 284.061 407.427 285.071 409.21 285.071 411.19 C 285.071 412.63 284.667 413.723 283.861 414.47 C 283.061 415.217 282.054 415.59 280.841 415.59 C 279.627 415.59 278.741 415.21 278.181 414.45 C 277.621 413.697 277.341 412.74 277.341 411.58 C 277.341 411.227 277.351 410.967 277.371 410.8 L 278.351 402.26 C 279.024 402.053 279.704 401.95 280.391 401.95 C 281.531 401.95 282.101 402.37 282.101 403.21 L 282.101 403.27 C 282.847 402.39 283.801 401.95 284.961 401.95 C 285.801 401.95 286.454 402.143 286.921 402.53 C 287.387 402.91 287.621 403.417 287.621 404.05 C 287.621 404.683 287.381 405.203 286.901 405.61 C 286.427 406.01 285.807 406.21 285.041 406.21 C 285.001 406.21 284.964 406.21 284.931 406.21 C 284.964 406.003 284.981 405.807 284.981 405.62 Z M 283.251 411.05 C 283.251 409.97 282.691 408.887 281.571 407.8 C 281.231 410.493 281.061 411.847 281.061 411.86 C 281.061 412.647 281.381 413.04 282.021 413.04 C 282.841 413.04 283.251 412.377 283.251 411.05 ZM 300.033 406.85 C 301.506 407.937 302.243 409.217 302.243 410.69 C 302.243 412.163 301.666 413.347 300.513 414.24 C 299.353 415.14 297.896 415.59 296.143 415.59 C 295.003 415.59 294.056 415.303 293.303 414.73 C 292.543 414.163 292.163 413.46 292.163 412.62 C 292.163 411.78 292.443 411.113 293.003 410.62 C 293.563 410.127 294.263 409.823 295.103 409.71 C 294.71 410.27 294.513 410.807 294.513 411.32 C 294.513 411.833 294.693 412.247 295.053 412.56 C 295.406 412.88 295.853 413.04 296.393 413.04 C 296.933 413.04 297.38 412.84 297.733 412.44 C 298.093 412.04 298.273 411.577 298.273 411.05 C 298.273 410.19 297.87 409.427 297.063 408.76 C 296.576 408.367 296.053 407.997 295.493 407.65 C 294.933 407.303 294.636 407.12 294.603 407.1 C 294.53 407.047 294.453 407 294.373 406.96 C 294.04 407.353 293.556 407.89 292.923 408.57 C 292.29 409.257 291.786 409.803 291.413 410.21 C 290.366 411.35 289.776 412.303 289.643 413.07 C 289.61 413.217 289.593 413.5 289.593 413.92 C 289.593 414.34 289.716 414.773 289.963 415.22 C 290.216 415.673 290.52 416.01 290.873 416.23 C 291.233 416.457 291.583 416.64 291.923 416.78 C 292.27 416.92 292.57 417.017 292.823 417.07 C 293.076 417.13 293.203 417.167 293.203 417.18 C 293.203 417.313 292.996 417.463 292.583 417.63 C 291.816 417.91 291.02 418.05 290.193 418.05 C 289.36 418.05 288.553 417.753 287.773 417.16 C 286.706 416.333 286.173 415.24 286.173 413.88 C 286.173 413.04 286.386 412.21 286.813 411.39 C 287.58 409.93 289.373 407.933 292.193 405.4 C 291.5 404.707 291.153 403.967 291.153 403.18 C 291.153 402.4 291.45 401.74 292.043 401.2 C 292.63 400.653 293.323 400.38 294.123 400.38 C 294.85 400.38 295.486 400.67 296.033 401.25 C 296.386 401.643 296.563 402.14 296.563 402.74 C 296.563 403.333 296.366 404.003 295.973 404.75 C 297.973 405.65 299.326 406.35 300.033 406.85 Z M 293.953 403.69 C 294.406 403.223 294.633 402.887 294.633 402.68 C 294.633 402.213 294.426 401.96 294.013 401.92 C 293.546 401.92 293.313 402.183 293.313 402.71 C 293.313 403.023 293.526 403.35 293.953 403.69 ZM 320.807 415.78 C 320.807 415.333 320.694 414.72 320.467 413.94 C 318.807 415.093 317.057 415.67 315.217 415.67 C 313.384 415.67 311.944 415.153 310.897 414.12 C 309.85 413.08 309.327 411.853 309.327 410.44 C 309.327 408.907 309.82 407.56 310.807 406.4 C 311.554 405.547 312.777 404.613 314.477 403.6 C 313.604 401.907 313.167 400.387 313.167 399.04 C 313.167 397.693 313.67 396.523 314.677 395.53 C 315.684 394.53 317.084 394.03 318.877 394.03 C 320.124 394.03 321.144 394.357 321.937 395.01 C 322.73 395.663 323.127 396.483 323.127 397.47 C 323.127 399.357 321.784 401.393 319.097 403.58 C 319.284 403.873 319.787 404.61 320.607 405.79 C 321.434 406.963 322.05 407.887 322.457 408.56 C 322.83 407.793 323.017 407.093 323.017 406.46 C 323.017 405.173 322.587 404.51 321.727 404.47 C 321.727 404.343 321.774 404.13 321.867 403.83 C 321.96 403.53 322.074 403.287 322.207 403.1 C 322.34 402.913 322.547 402.747 322.827 402.6 C 323.107 402.447 323.424 402.37 323.777 402.37 C 324.45 402.37 325.004 402.627 325.437 403.14 C 325.877 403.653 326.097 404.303 326.097 405.09 C 326.097 405.37 326.07 405.66 326.017 405.96 C 325.697 407.507 324.92 409.12 323.687 410.8 C 324.4 412.367 324.757 413.717 324.757 414.85 C 324.757 415.977 324.58 416.893 324.227 417.6 C 323.607 418.8 322.524 419.603 320.977 420.01 C 320.45 420.143 319.927 420.21 319.407 420.21 L 319.067 420.21 L 319.067 418.5 C 320.227 417.92 320.807 417.013 320.807 415.78 Z M 318.887 396.49 C 318.32 396.49 317.854 396.663 317.487 397.01 C 317.127 397.357 316.927 397.857 316.887 398.51 C 316.887 399.33 317.234 400.383 317.927 401.67 C 318.687 401.077 319.31 400.517 319.797 399.99 C 320.357 399.357 320.637 398.773 320.637 398.24 C 320.637 397.707 320.497 397.293 320.217 397 C 319.904 396.66 319.46 396.49 318.887 396.49 Z M 313.277 409.82 L 313.247 410.16 C 313.247 410.94 313.507 411.633 314.027 412.24 C 314.554 412.847 315.354 413.15 316.427 413.15 C 317.5 413.15 318.56 412.75 319.607 411.95 C 319.06 410.923 318.424 409.86 317.697 408.76 C 316.97 407.653 316.487 406.913 316.247 406.54 L 315.937 406.04 C 314.944 406.807 314.27 407.47 313.917 408.03 C 313.564 408.59 313.35 409.187 313.277 409.82 ZM 349.976 415.48 C 348.936 415.48 348.149 415.137 347.616 414.45 C 347.082 413.77 346.722 412.497 346.536 410.63 C 346.422 409.663 346.309 408.403 346.196 406.85 C 344.889 407.243 343.576 407.653 342.256 408.08 L 341.296 410.72 C 341.109 411.22 340.979 411.577 340.906 411.79 C 340.832 412.01 340.699 412.333 340.506 412.76 C 340.306 413.187 340.136 413.5 339.996 413.7 C 339.856 413.893 339.659 414.14 339.406 414.44 C 339.159 414.74 338.902 414.953 338.636 415.08 C 337.969 415.42 337.252 415.59 336.486 415.59 C 335.719 415.59 335.099 415.313 334.626 414.76 C 334.146 414.213 333.906 413.537 333.906 412.73 C 333.906 412.51 333.926 412.277 333.966 412.03 C 334.206 410.237 336.042 408.603 339.476 407.13 C 340.449 404.65 342.066 400.47 344.326 394.59 C 344.919 394.25 345.676 394.08 346.596 394.08 C 346.796 394.08 346.989 394.08 347.176 394.08 C 347.362 394.08 347.592 394.08 347.866 394.08 C 348.139 394.08 348.479 394.137 348.886 394.25 C 348.906 395.13 349.336 400.573 350.176 410.58 C 350.249 411.42 350.352 411.963 350.486 412.21 C 350.612 412.463 350.836 412.59 351.156 412.59 C 351.676 412.59 352.372 412.237 353.246 411.53 C 354.112 410.817 354.889 409.93 355.576 408.87 L 356.366 410.77 L 355.696 411.67 C 353.736 414.21 351.829 415.48 349.976 415.48 Z M 346.006 404.78 L 345.526 398.96 L 343.096 405.76 C 344.402 405.313 345.372 404.987 346.006 404.78 Z M 338.496 409.57 C 336.762 410.443 335.896 411.3 335.896 412.14 C 335.896 412.74 336.119 413.04 336.566 413.04 C 336.906 413.04 337.176 412.797 337.376 412.31 C 337.622 411.79 337.996 410.877 338.496 409.57 ZM 362.732 405.93 C 362.732 404.717 362.188 404.11 361.102 404.11 C 360.302 404.11 359.585 404.567 358.952 405.48 C 358.278 406.467 357.942 407.623 357.942 408.95 C 357.942 410.277 358.235 411.3 358.822 412.02 C 359.408 412.74 360.215 413.1 361.242 413.1 C 362.475 413.1 363.778 412.593 365.152 411.58 C 366.525 410.573 367.632 409.323 368.472 407.83 C 368.845 408.11 369.208 408.623 369.562 409.37 C 369.022 410.457 368.015 411.67 366.542 413.01 C 365.775 413.723 364.822 414.32 363.682 414.8 C 362.448 415.327 361.215 415.59 359.982 415.59 C 358.322 415.59 356.918 415.02 355.772 413.88 C 354.625 412.74 354.052 411.257 354.052 409.43 C 354.052 407.21 354.798 405.407 356.292 404.02 C 357.785 402.64 359.455 401.95 361.302 401.95 C 362.742 401.95 363.882 402.25 364.722 402.85 C 365.562 403.443 365.982 404.227 365.982 405.2 C 365.982 405.833 365.755 406.383 365.302 406.85 C 364.482 407.67 363.485 408.08 362.312 408.08 C 362.592 407.147 362.732 406.43 362.732 405.93 ZM 374.84 412.23 L 375.51 406.04 C 375.51 405.533 375.38 405.113 375.12 404.78 C 374.86 404.447 374.44 404.28 373.86 404.28 C 373.28 404.28 372.79 404.507 372.39 404.96 C 371.99 405.42 371.696 406.023 371.51 406.77 C 371.376 407.83 371.18 409.383 370.92 411.43 C 370.66 413.477 370.49 414.807 370.41 415.42 L 366.69 415.42 C 368.036 403.98 368.85 396.953 369.13 394.34 C 369.516 394.187 370.046 394.11 370.72 394.11 C 372.18 394.11 372.91 394.54 372.91 395.4 L 372.91 395.57 C 372.59 398.497 372.253 401.073 371.9 403.3 C 372.886 402.4 374.006 401.95 375.26 401.95 C 376.506 401.95 377.496 402.267 378.23 402.9 C 378.956 403.54 379.32 404.343 379.32 405.31 C 379.32 405.57 379.263 406.057 379.15 406.77 C 378.723 409.57 378.51 411.213 378.51 411.7 C 378.51 412.573 378.796 413.01 379.37 413.01 C 379.856 413.01 380.376 412.69 380.93 412.05 C 381.476 411.403 381.92 410.407 382.26 409.06 C 382.893 409.733 383.276 410.267 383.41 410.66 C 382.436 413.907 380.716 415.53 378.25 415.53 C 377.096 415.53 376.24 415.177 375.68 414.47 C 375.12 413.757 374.84 413.01 374.84 412.23 ZM 383.331 394.8 C 383.765 394.36 384.288 394.14 384.901 394.14 C 385.515 394.14 386.041 394.36 386.481 394.8 C 386.921 395.24 387.141 395.767 387.141 396.38 C 387.141 396.993 386.921 397.517 386.481 397.95 C 386.041 398.377 385.515 398.59 384.901 398.59 C 384.288 398.59 383.765 398.377 383.331 397.95 C 382.905 397.517 382.691 396.993 382.691 396.38 C 382.691 395.767 382.905 395.24 383.331 394.8 Z M 382.181 403.02 C 382.368 402.68 382.725 402.423 383.251 402.25 C 383.771 402.07 384.288 401.98 384.801 401.98 C 385.315 401.98 385.768 402.047 386.161 402.18 C 385.435 407.793 385.071 410.63 385.071 410.69 C 384.978 411.063 384.931 411.377 384.931 411.63 C 384.931 411.877 384.948 412.093 384.981 412.28 C 385.061 412.767 385.405 413.01 386.011 413.01 C 386.618 413.01 387.178 412.613 387.691 411.82 C 388.205 411.027 388.591 410.127 388.851 409.12 C 388.978 409.193 389.181 409.417 389.461 409.79 C 389.741 410.163 389.911 410.443 389.971 410.63 C 389.598 412.123 388.961 413.327 388.061 414.24 C 387.168 415.16 386.095 415.62 384.841 415.62 C 383.595 415.62 382.668 415.31 382.061 414.69 C 381.455 414.077 381.151 413.283 381.151 412.31 C 381.151 412.103 381.161 411.89 381.181 411.67 L 382.181 403.02 ZM 392.977 409.15 C 394.137 408.903 395.001 408.437 395.567 407.75 C 396.141 407.057 396.427 406.39 396.427 405.75 C 396.427 405.103 396.254 404.663 395.907 404.43 C 395.561 404.197 395.181 404.08 394.767 404.08 C 393.894 404.08 393.124 404.57 392.457 405.55 C 391.797 406.53 391.467 407.697 391.467 409.05 C 391.467 410.403 391.791 411.41 392.437 412.07 C 393.077 412.737 393.874 413.07 394.827 413.07 C 396.227 413.07 397.571 412.583 398.857 411.61 C 400.144 410.643 401.191 409.373 401.997 407.8 C 402.404 408.193 402.777 408.68 403.117 409.26 C 402.497 410.66 401.404 412.033 399.837 413.38 C 399.057 414.033 398.131 414.563 397.057 414.97 C 395.984 415.383 394.877 415.59 393.737 415.59 C 391.871 415.59 390.394 415.02 389.307 413.88 C 388.154 412.647 387.577 411.07 387.577 409.15 C 387.577 407.223 388.301 405.543 389.747 404.11 C 391.194 402.67 392.924 401.95 394.937 401.95 C 396.377 401.95 397.544 402.263 398.437 402.89 C 399.337 403.517 399.794 404.36 399.807 405.42 C 399.807 406.86 399.234 408.027 398.087 408.92 C 396.941 409.82 395.367 410.447 393.367 410.8 L 392.977 409.15 ZM 411.462 410.41 C 410.868 411.923 410.028 413.16 408.942 414.12 C 407.848 415.08 406.602 415.56 405.202 415.56 C 403.802 415.56 402.752 415.097 402.052 414.17 C 401.352 413.25 401.002 412.193 401.002 411 C 401.002 410.753 401.012 410.51 401.032 410.27 L 401.982 402.29 C 402.575 402.063 403.208 401.95 403.882 401.95 C 405.115 401.95 405.732 402.407 405.732 403.32 C 405.732 403.36 405.578 404.607 405.272 407.06 C 404.965 409.513 404.812 410.937 404.812 411.33 C 404.812 412.397 405.325 412.93 406.352 412.93 C 407.225 412.93 407.962 412.433 408.562 411.44 C 409.608 409.653 410.158 407.63 410.212 405.37 L 409.962 405.37 C 409.175 405.37 408.578 405.193 408.172 404.84 C 407.705 404.427 407.472 403.93 407.472 403.35 C 407.472 402.77 407.648 402.303 408.002 401.95 C 408.428 401.577 408.942 401.39 409.542 401.39 C 410.962 401.39 411.848 402.127 412.202 403.6 C 412.762 403.527 413.162 403.453 413.402 403.38 L 413.402 404.98 L 412.372 405.14 L 412.372 405.62 C 412.352 407.3 412.048 408.897 411.462 410.41 Z M 409.062 403.35 C 409.062 403.67 409.332 403.83 409.872 403.83 C 409.932 403.83 409.988 403.83 410.042 403.83 C 409.915 403.323 409.718 403.07 409.452 403.07 C 409.192 403.07 409.062 403.163 409.062 403.35 ZM 418.93 409.15 C 420.09 408.903 420.953 408.437 421.52 407.75 C 422.093 407.057 422.38 406.39 422.38 405.75 C 422.38 405.103 422.206 404.663 421.86 404.43 C 421.513 404.197 421.133 404.08 420.72 404.08 C 419.846 404.08 419.076 404.57 418.41 405.55 C 417.75 406.53 417.42 407.697 417.42 409.05 C 417.42 410.403 417.743 411.41 418.39 412.07 C 419.03 412.737 419.826 413.07 420.78 413.07 C 422.18 413.07 423.523 412.583 424.81 411.61 C 426.096 410.643 427.143 409.373 427.95 407.8 C 428.356 408.193 428.73 408.68 429.07 409.26 C 428.45 410.66 427.356 412.033 425.79 413.38 C 425.01 414.033 424.083 414.563 423.01 414.97 C 421.936 415.383 420.83 415.59 419.69 415.59 C 417.823 415.59 416.346 415.02 415.26 413.88 C 414.106 412.647 413.53 411.07 413.53 409.15 C 413.53 407.223 414.253 405.543 415.7 404.11 C 417.146 402.67 418.876 401.95 420.89 401.95 C 422.33 401.95 423.496 402.263 424.39 402.89 C 425.29 403.517 425.746 404.36 425.76 405.42 C 425.76 406.86 425.186 408.027 424.04 408.92 C 422.893 409.82 421.32 410.447 419.32 410.8 L 418.93 409.15 ZM 435.124 405.62 C 435.124 404.8 434.747 404.39 433.994 404.39 C 433.24 404.39 432.637 404.873 432.184 405.84 C 434.204 407.427 435.214 409.21 435.214 411.19 C 435.214 412.63 434.81 413.723 434.004 414.47 C 433.204 415.217 432.197 415.59 430.984 415.59 C 429.77 415.59 428.884 415.21 428.324 414.45 C 427.764 413.697 427.484 412.74 427.484 411.58 C 427.484 411.227 427.494 410.967 427.514 410.8 L 428.494 402.26 C 429.167 402.053 429.847 401.95 430.534 401.95 C 431.674 401.95 432.244 402.37 432.244 403.21 L 432.244 403.27 C 432.99 402.39 433.944 401.95 435.104 401.95 C 435.944 401.95 436.597 402.143 437.064 402.53 C 437.53 402.91 437.764 403.417 437.764 404.05 C 437.764 404.683 437.524 405.203 437.044 405.61 C 436.57 406.01 435.95 406.21 435.184 406.21 C 435.144 406.21 435.107 406.21 435.074 406.21 C 435.107 406.003 435.124 405.807 435.124 405.62 Z M 433.394 411.05 C 433.394 409.97 432.834 408.887 431.714 407.8 C 431.374 410.493 431.204 411.847 431.204 411.86 C 431.204 412.647 431.524 413.04 432.164 413.04 C 432.984 413.04 433.394 412.377 433.394 411.05 ZM 450.176 406.85 C 451.65 407.937 452.386 409.217 452.386 410.69 C 452.386 412.163 451.81 413.347 450.656 414.24 C 449.496 415.14 448.04 415.59 446.286 415.59 C 445.146 415.59 444.2 415.303 443.446 414.73 C 442.686 414.163 442.306 413.46 442.306 412.62 C 442.306 411.78 442.586 411.113 443.146 410.62 C 443.706 410.127 444.406 409.823 445.246 409.71 C 444.853 410.27 444.656 410.807 444.656 411.32 C 444.656 411.833 444.836 412.247 445.196 412.56 C 445.55 412.88 445.996 413.04 446.536 413.04 C 447.076 413.04 447.523 412.84 447.876 412.44 C 448.236 412.04 448.416 411.577 448.416 411.05 C 448.416 410.19 448.013 409.427 447.206 408.76 C 446.72 408.367 446.196 407.997 445.636 407.65 C 445.076 407.303 444.78 407.12 444.746 407.1 C 444.673 407.047 444.596 407 444.516 406.96 C 444.183 407.353 443.7 407.89 443.066 408.57 C 442.433 409.257 441.93 409.803 441.556 410.21 C 440.51 411.35 439.92 412.303 439.786 413.07 C 439.753 413.217 439.736 413.5 439.736 413.92 C 439.736 414.34 439.86 414.773 440.106 415.22 C 440.36 415.673 440.663 416.01 441.016 416.23 C 441.376 416.457 441.726 416.64 442.066 416.78 C 442.413 416.92 442.713 417.017 442.966 417.07 C 443.22 417.13 443.346 417.167 443.346 417.18 C 443.346 417.313 443.14 417.463 442.726 417.63 C 441.96 417.91 441.163 418.05 440.336 418.05 C 439.503 418.05 438.696 417.753 437.916 417.16 C 436.85 416.333 436.316 415.24 436.316 413.88 C 436.316 413.04 436.53 412.21 436.956 411.39 C 437.723 409.93 439.516 407.933 442.336 405.4 C 441.643 404.707 441.296 403.967 441.296 403.18 C 441.296 402.4 441.593 401.74 442.186 401.2 C 442.773 400.653 443.466 400.38 444.266 400.38 C 444.993 400.38 445.63 400.67 446.176 401.25 C 446.53 401.643 446.706 402.14 446.706 402.74 C 446.706 403.333 446.51 404.003 446.116 404.75 C 448.116 405.65 449.47 406.35 450.176 406.85 Z M 444.096 403.69 C 444.55 403.223 444.776 402.887 444.776 402.68 C 444.776 402.213 444.57 401.96 444.156 401.92 C 443.69 401.92 443.456 402.183 443.456 402.71 C 443.456 403.023 443.67 403.35 444.096 403.69 Z" transform="matrix(2.410027027130127, 0, 0, 2.6676321029663086, -277.1910400390625, -618.6358032226562)" style="fill: rgb(0, 88, 141); stroke: rgb(223, 223, 223); white-space: pre;"/>
</svg>