<?xml version="1.0" encoding="utf-8"?>
<svg viewBox="0 0 243.144 71.874" xmlns="http://www.w3.org/2000/svg">
  <defs>
    <linearGradient id="gradient-2" gradientUnits="userSpaceOnUse" x1="91.272" y1="0" x2="91.272" y2="41.874" gradientTransform="matrix(1.3349, 0, 0, 1.716435, -0.266979, 0)">
      <stop offset="0" style="stop-color: rgba(0, 87, 141, 1)"/>
      <stop offset="1" style="stop-color: rgba(0, 24, 39, 1)"/>
    </linearGradient>
    <radialGradient id="gradient-4" gradientUnits="userSpaceOnUse" cx="249.383" cy="91.063" r="199.508">
      <stop offset="0" style="stop-color: rgba(196, 255, 248, 1)"/>
      <stop offset="1" style="stop-color: rgba(94, 255, 236, 1)"/>
    </radialGradient>
  </defs>
  <rect width="243.144" height="71.874" style="fill-rule: evenodd; fill: url(#gradient-2);"/>
  <g transform="matrix(0.016096, 0, 0, -0.012009, 112.272942, 40.540356)" fill="#000000" stroke="none" style="">
    <path d="M 980 2389 C 928 2380 865 2364 841 2356 C 817 2347 791 2332.351 784 2332.351 C 776 2332.351 742 2315.527 708 2298.527 C 674 2282.527 973.727 2383.261 965.727 2383.261 C 958.727 2383.261 654.42 2283.649 654.42 2277.649 C 654.42 2272.649 548.985 2221.755 541.985 2214.106 C 532.533 2203.778 454 2157 427 2126 C 417 2114 397 2092 382 2075 C 316 2001 247 1863 217 1745 C 204 1695 195 1620 193 1547 L 189 1429 L 138 1332 C 110 1279 74 1211 59 1181 C 43 1151 27 1111 24 1091 C 11 1023 53 925 105 902 C 125 892 129 884 128 842 C 128 814 133 783 139 772 C 145 761 150 730 150 704 C 150 676 157 645 169 626 C 185 600 188 578 187 492 L 185 390 L 230 350 C 304 285 363 268 494 274 C 555 276 626 282 652 285 C 688 290 701 289 704 279 C 706 271 720 220 735 165 C 767 49 774 34 800 20 C 830 4 864 42 857 83 C 844 167 784 364 767 378 C 742 398 692 400 606 385 C 458 360 362 368 319 411 C 300 430 299 440 305 513 C 312 597 309 608 267 671 C 253 692 251 703 260 726 C 273 759 273 761 252 776 C 236 788 234 828 245 893 C 253 937 241 956 200 965 C 147 977 120 1007 120 1053 C 120 1076 128 1109 138 1125 C 157 1156 238 1305 274 1375 C 290 1406 295 1435 296 1505 C 296 1555 300 1620 304 1650 C 311 1702 349 1829 360 1840 C 363 1843 374 1863 384 1886 C 412 1950 519 2070 595 2124 C 672 2177 776 2229 872 2262 C 925 2279 981.287 2312.314 1142.298 2309.947 C 1322.474 2307.298 1322 2291 1399 2267 C 1657 2185 1848 2020 1963 1778 C 2006 1687 2015 1663 2034 1573 C 2051 1495 2055 1320 2040 1255 C 2009 1113 1983 1045 1925 954 C 1875 876 1874 875 1788 789 C 1724 725 1576 620 1550 620 C 1546 620 1521 608 1496 594 C 1444 565 1426 533 1439 498 C 1444 485 1450 457 1454 435 C 1457 413 1465 377 1471 355 C 1482 315 1492 267 1505 198 C 1513 156 1545 117 1567 122 C 1576 124 1592 137 1602 151 C 1619 174 1620 182 1611 216 C 1599 255 1550 489 1550 502 C 1550 506 1580 524 1618 542 C 1752 608 1904 741 1989 869 C 2151 1113 2199 1431 2114 1700 C 2089 1780 2010 1942 1970 1993 C 1854 2143 1735 2238 1558 2321 C 1468 2364 1244 2411 1141 2409 C 1105 2408 1032 2399 980 2389 Z" style="fill: rgb(202, 255, 248);"/>
    <path d="M 1122 2053 C 1125 1982 1127 1975 1146 1972 C 1166 1969 1168 1974 1172 2022 C 1178 2107 1172 2130 1143 2130 C 1120 2130 1119 2129 1122 2053 Z" style="fill: rgb(202, 255, 248);"/>
    <path d="M 784 2025 C 771 1993 845 1880 868 1894 C 887 1905 882 1929 849 1986 C 819 2040 795 2054 784 2025 Z" style="fill: rgb(202, 255, 248);"/>
    <path d="M 1441 1986 C 1423 1956 1410 1923 1412 1913 C 1417 1885 1451 1892 1471 1925 C 1524 2014 1529 2040 1492 2040 C 1481 2040 1461 2018 1441 1986 Z" style="fill: rgb(202, 255, 248);"/>
    <path d="M 1045 1858 C 937 1831 820 1744 762 1647 C 666 1487 682 1273 800 1136 C 854 1072 881 1051 953 1016 C 1220 884 1543 1054 1590 1353 C 1625 1579 1474 1802 1247 1855 C 1178 1871 1105 1872 1045 1858 Z M 1298 1741 C 1360 1709 1425 1646 1461 1583 C 1491 1531 1493 1522 1493 1421 C 1493 1330 1490 1309 1470 1270 C 1431 1195 1388 1150 1315 1109 C 1248 1072 1241 1070 1151 1070 C 1068 1070 1051 1073 995 1100 C 860 1165 779 1304 794 1448 C 809 1596 893 1699 1050 1764 C 1058 1767 1108 1768 1160 1766 C 1234 1764 1265 1758 1298 1741 Z" style="fill: rgb(202, 255, 248);"/>
    <path d="M 526 1773 C 518 1752 532 1739 597 1705 C 651 1678 670 1678 670 1708 C 670 1726 650 1742 588 1772 C 542 1794 534 1794 526 1773 Z" style="fill: rgb(202, 255, 248);"/>
    <path d="M 1680 1757 C 1585 1700 1607 1656 1704 1710 C 1767 1746 1773 1752 1764 1774 C 1755 1797 1742 1794 1680 1757 Z" style="fill: rgb(202, 255, 248);"/>
    <path d="M 449 1438 C 427 1430 425 1419 442 1402 C 460 1384 575 1386 590 1405 C 598 1415 599 1424 594 1430 C 582 1441 474 1447 449 1438 Z" style="fill: rgb(202, 255, 248);"/>
    <path d="M 1702 1418 C 1705 1396 1710 1395 1780 1395 C 1850 1395 1855 1396 1858 1418 C 1861 1439 1859 1440 1780 1440 C 1701 1440 1699 1439 1702 1418 Z" style="fill: rgb(202, 255, 248);"/>
    <path d="M 1633 1153 C 1608 1144 1621 1115 1662 1086 C 1713 1051 1765 1045 1765 1074 C 1765 1101 1661 1163 1633 1153 Z" style="fill: rgb(202, 255, 248);"/>
    <path d="M 567 1114 C 487 1055 527 1028 618 1080 C 653 1101 670 1117 670 1130 C 670 1162 622 1155 567 1114 Z" style="fill: rgb(202, 255, 248);"/>
    <path d="M 837 932 C 814 906 780 837 780 817 C 780 804 786 800 802 802 C 826 805 878 882 879 916 C 880 944 856 953 837 932 Z" style="fill: rgb(202, 255, 248);"/>
    <path d="M 1421 937 C 1404 920 1407 906 1441 851 C 1465 813 1479 800 1496 800 C 1525 800 1526 823 1499 865 C 1489 882 1476 905 1471 916 C 1459 942 1436 952 1421 937 Z" style="fill: rgb(202, 255, 248);"/>
    <path d="M 1133 863 C 1114 856 1115 714 1133 707 C 1159 697 1171 717 1175 776 C 1179 853 1167 877 1133 863 Z" style="fill: rgb(202, 255, 248);"/>
  </g>
  <path d="M 51.844 82.342 L 51.844 81.222 L 59.404 81.222 C 62.764 81.222 65.481 82.132 67.554 83.952 C 69.627 85.772 70.664 88.125 70.664 91.012 C 70.664 93.892 69.627 96.249 67.554 98.082 C 65.481 99.909 62.764 100.822 59.404 100.822 L 51.844 100.822 L 51.844 99.702 L 54.084 99.702 L 54.084 82.342 L 51.844 82.342 Z M 59.404 82.342 L 58.284 82.342 L 58.284 99.702 L 59.404 99.702 C 61.571 99.702 63.264 98.922 64.484 97.362 C 65.711 95.802 66.324 93.689 66.324 91.022 C 66.324 88.355 65.711 86.242 64.484 84.682 C 63.264 83.122 61.571 82.342 59.404 82.342 ZM 82.767 86.402 C 83.327 86.402 83.607 86.935 83.607 88.002 L 83.607 97.712 C 83.607 98.219 83.731 98.615 83.977 98.902 C 84.217 99.195 84.591 99.342 85.097 99.342 C 85.597 99.342 86.174 99.069 86.827 98.522 L 87.337 99.202 C 85.844 100.562 84.351 101.242 82.857 101.242 C 80.557 101.242 79.407 99.869 79.407 97.122 L 79.407 89.262 C 78.534 89.615 77.471 89.855 76.217 89.982 C 76.071 91.702 75.577 93.422 74.737 95.142 L 73.587 94.802 C 74.107 93.475 74.387 91.899 74.427 90.072 C 73.721 90.072 73.147 89.865 72.707 89.452 C 72.267 89.045 72.047 88.539 72.047 87.932 C 72.047 87.325 72.257 86.812 72.677 86.392 C 73.097 85.972 73.611 85.762 74.217 85.762 C 74.824 85.762 75.334 85.975 75.747 86.402 C 76.154 86.829 76.357 87.379 76.357 88.052 L 76.887 88.052 C 78.367 88.052 79.937 87.642 81.597 86.822 C 82.137 86.542 82.527 86.402 82.767 86.402 ZM 94.436 94.352 C 95.65 94.239 96.59 93.779 97.256 92.972 C 97.916 92.159 98.246 91.335 98.246 90.502 C 98.246 89.675 98.063 89.035 97.696 88.582 C 97.336 88.135 96.786 87.912 96.046 87.912 C 95.313 87.912 94.61 88.435 93.936 89.482 C 93.263 90.529 92.926 91.929 92.926 93.682 C 92.926 95.435 93.243 96.845 93.876 97.912 C 94.51 98.972 95.416 99.502 96.596 99.502 C 98.39 99.502 99.91 98.802 101.156 97.402 L 101.946 97.912 C 101.306 98.919 100.466 99.725 99.426 100.332 C 98.38 100.939 97.203 101.242 95.896 101.242 C 93.676 101.242 91.903 100.509 90.576 99.042 C 89.25 97.575 88.586 95.809 88.586 93.742 C 88.586 91.669 89.29 89.925 90.696 88.512 C 92.11 87.105 94.066 86.402 96.566 86.402 C 98.206 86.402 99.493 86.785 100.426 87.552 C 101.36 88.319 101.826 89.289 101.826 90.462 C 101.826 91.635 101.31 92.722 100.276 93.722 C 99.243 94.722 97.876 95.222 96.176 95.222 C 95.596 95.222 95.036 95.155 94.496 95.022 L 94.436 94.352 ZM 115.993 86.822 L 120.193 86.822 L 120.193 97.712 C 120.193 98.219 120.313 98.615 120.553 98.902 C 120.793 99.195 121.166 99.342 121.673 99.342 C 122.179 99.342 122.759 99.069 123.413 98.522 L 123.913 99.202 C 122.419 100.562 120.926 101.242 119.433 101.242 C 117.659 101.242 116.566 100.412 116.153 98.752 C 115.186 100.412 113.759 101.242 111.873 101.242 C 109.726 101.242 108.093 100.545 106.973 99.152 C 105.853 97.765 105.293 95.992 105.293 93.832 C 105.293 91.679 105.896 89.902 107.103 88.502 C 108.303 87.102 109.986 86.402 112.153 86.402 C 113.813 86.402 115.093 87.065 115.993 88.392 L 115.993 86.822 Z M 110.413 89.562 C 109.893 90.609 109.633 92.029 109.633 93.822 C 109.633 95.615 109.893 97.035 110.413 98.082 C 110.939 99.122 111.739 99.642 112.813 99.642 C 113.886 99.642 114.706 99.115 115.273 98.062 C 115.846 97.009 116.133 95.595 116.133 93.822 C 116.133 92.049 115.846 90.635 115.273 89.582 C 114.706 88.529 113.886 88.002 112.813 88.002 C 111.739 88.002 110.939 88.522 110.413 89.562 ZM 124.571 88.362 L 124.181 87.322 C 124.981 86.989 125.844 86.822 126.771 86.822 C 127.698 86.822 128.464 86.935 129.071 87.162 C 129.678 87.382 130.308 87.735 130.961 88.222 C 131.628 87.549 132.311 87.079 133.011 86.812 C 133.711 86.539 134.538 86.402 135.491 86.402 C 137.398 86.402 138.668 87.129 139.301 88.582 C 140.028 87.782 140.761 87.219 141.501 86.892 C 142.234 86.565 143.194 86.402 144.381 86.402 C 145.568 86.402 146.531 86.772 147.271 87.512 C 148.004 88.245 148.371 89.249 148.371 90.522 L 148.371 97.712 C 148.371 98.219 148.494 98.615 148.741 98.902 C 148.981 99.195 149.354 99.342 149.861 99.342 C 150.361 99.342 150.938 99.069 151.591 98.522 L 152.101 99.202 C 150.608 100.562 149.114 101.242 147.621 101.242 C 145.321 101.242 144.171 99.869 144.171 97.122 L 144.171 89.932 C 144.171 89.352 144.004 88.902 143.671 88.582 C 143.331 88.269 142.868 88.112 142.281 88.112 C 141.694 88.112 141.118 88.362 140.551 88.862 C 139.978 89.369 139.691 90.022 139.691 90.822 L 139.691 100.822 L 135.491 100.822 L 135.491 89.932 C 135.491 89.352 135.324 88.902 134.991 88.582 C 134.651 88.269 134.188 88.112 133.601 88.112 C 133.014 88.112 132.438 88.362 131.871 88.862 C 131.298 89.369 131.011 90.022 131.011 90.822 L 131.011 100.822 L 126.811 100.822 L 126.811 87.942 C 125.971 87.942 125.224 88.082 124.571 88.362 ZM 163.136 82.342 L 161.256 82.342 L 161.256 81.222 L 167.446 81.222 L 172.546 97.992 L 177.356 81.222 L 183.716 81.222 L 183.716 82.342 L 181.816 82.342 L 182.816 99.702 L 184.496 99.702 L 184.496 100.822 L 176.996 100.822 L 176.996 99.702 L 178.596 99.702 L 177.726 85.842 L 173.416 100.822 L 169.186 100.822 L 164.616 85.872 L 163.836 99.702 L 165.456 99.702 L 165.456 100.822 L 160.476 100.822 L 160.476 99.702 L 162.156 99.702 L 163.136 82.342 ZM 197.845 86.822 L 202.045 86.822 L 202.045 97.712 C 202.045 98.219 202.165 98.615 202.405 98.902 C 202.645 99.195 203.018 99.342 203.525 99.342 C 204.031 99.342 204.611 99.069 205.265 98.522 L 205.765 99.202 C 204.271 100.562 202.778 101.242 201.285 101.242 C 199.511 101.242 198.418 100.412 198.005 98.752 C 197.038 100.412 195.611 101.242 193.725 101.242 C 191.578 101.242 189.945 100.545 188.825 99.152 C 187.705 97.765 187.145 95.992 187.145 93.832 C 187.145 91.679 187.748 89.902 188.955 88.502 C 190.155 87.102 191.838 86.402 194.005 86.402 C 195.665 86.402 196.945 87.065 197.845 88.392 L 197.845 86.822 Z M 192.265 89.562 C 191.745 90.609 191.485 92.029 191.485 93.822 C 191.485 95.615 191.745 97.035 192.265 98.082 C 192.791 99.122 193.591 99.642 194.665 99.642 C 195.738 99.642 196.558 99.115 197.125 98.062 C 197.698 97.009 197.985 95.595 197.985 93.822 C 197.985 92.049 197.698 90.635 197.125 89.582 C 196.558 88.529 195.738 88.002 194.665 88.002 C 193.591 88.002 192.791 88.522 192.265 89.562 ZM 212.503 81.112 L 212.503 88.362 C 213.51 87.055 215.06 86.402 217.153 86.402 C 218.346 86.402 219.316 86.702 220.063 87.302 C 220.81 87.895 221.183 88.645 221.183 89.552 C 221.183 90.459 220.913 91.265 220.373 91.972 C 219.826 92.685 219.086 93.265 218.153 93.712 L 219.833 98.082 C 220.02 98.562 220.206 98.892 220.393 99.072 C 220.58 99.252 220.843 99.342 221.183 99.342 C 221.796 99.342 222.43 99.069 223.083 98.522 L 223.593 99.202 C 222.1 100.562 220.553 101.242 218.953 101.242 C 217.36 101.242 216.3 100.569 215.773 99.222 L 213.673 93.852 C 214.7 93.605 215.556 93.102 216.243 92.342 C 216.923 91.575 217.263 90.835 217.263 90.122 C 217.263 89.415 217.086 88.902 216.733 88.582 C 216.373 88.269 215.923 88.112 215.383 88.112 C 214.49 88.112 213.786 88.472 213.273 89.192 C 212.76 89.905 212.503 90.889 212.503 92.142 L 212.503 100.822 L 208.303 100.822 L 208.303 80.742 C 207.276 81.009 206.493 81.469 205.953 82.122 L 205.193 81.252 C 205.733 80.692 206.42 80.242 207.253 79.902 C 208.08 79.569 208.9 79.402 209.713 79.402 C 210.526 79.402 211.193 79.565 211.713 79.892 C 212.24 80.219 212.503 80.625 212.503 81.112 ZM 230.968 94.352 C 232.182 94.239 233.122 93.779 233.788 92.972 C 234.448 92.159 234.778 91.335 234.778 90.502 C 234.778 89.675 234.595 89.035 234.228 88.582 C 233.868 88.135 233.318 87.912 232.578 87.912 C 231.845 87.912 231.142 88.435 230.468 89.482 C 229.795 90.529 229.458 91.929 229.458 93.682 C 229.458 95.435 229.775 96.845 230.408 97.912 C 231.042 98.972 231.948 99.502 233.128 99.502 C 234.922 99.502 236.442 98.802 237.688 97.402 L 238.478 97.912 C 237.838 98.919 236.998 99.725 235.958 100.332 C 234.912 100.939 233.735 101.242 232.428 101.242 C 230.208 101.242 228.435 100.509 227.108 99.042 C 225.782 97.575 225.118 95.809 225.118 93.742 C 225.118 91.669 225.822 89.925 227.228 88.512 C 228.642 87.105 230.598 86.402 233.098 86.402 C 234.738 86.402 236.025 86.785 236.958 87.552 C 237.892 88.319 238.358 89.289 238.358 90.462 C 238.358 91.635 237.842 92.722 236.808 93.722 C 235.775 94.722 234.408 95.222 232.708 95.222 C 232.128 95.222 231.568 95.155 231.028 95.022 L 230.968 94.352 ZM 251.005 86.402 C 251.565 86.402 251.845 86.935 251.845 88.002 L 251.845 97.712 C 251.845 98.219 251.968 98.615 252.215 98.902 C 252.455 99.195 252.828 99.342 253.335 99.342 C 253.835 99.342 254.411 99.069 255.065 98.522 L 255.575 99.202 C 254.081 100.562 252.588 101.242 251.095 101.242 C 248.795 101.242 247.645 99.869 247.645 97.122 L 247.645 89.262 C 246.771 89.615 245.708 89.855 244.455 89.982 C 244.308 91.702 243.815 93.422 242.975 95.142 L 241.825 94.802 C 242.345 93.475 242.625 91.899 242.665 90.072 C 241.958 90.072 241.385 89.865 240.945 89.452 C 240.505 89.045 240.285 88.539 240.285 87.932 C 240.285 87.325 240.495 86.812 240.915 86.392 C 241.335 85.972 241.848 85.762 242.455 85.762 C 243.061 85.762 243.571 85.975 243.985 86.402 C 244.391 86.829 244.595 87.379 244.595 88.052 L 245.125 88.052 C 246.605 88.052 248.175 87.642 249.835 86.822 C 250.375 86.542 250.765 86.402 251.005 86.402 ZM 259.904 89.122 C 259.457 88.429 259.234 87.812 259.234 87.272 C 259.234 86.732 259.444 86.252 259.864 85.832 C 260.284 85.412 260.79 85.202 261.384 85.202 C 261.984 85.202 262.494 85.412 262.914 85.832 C 263.334 86.252 263.544 86.749 263.544 87.322 C 263.544 87.902 263.254 88.519 262.674 89.172 C 264.207 90.292 265.384 91.389 266.204 92.462 C 267.024 93.535 267.434 94.779 267.434 96.192 C 267.434 97.599 266.904 98.792 265.844 99.772 C 264.777 100.752 263.264 101.242 261.304 101.242 C 260.41 101.242 259.51 101.045 258.604 100.652 C 257.697 100.259 257.01 99.775 256.544 99.202 L 257.184 98.522 C 258.01 99.175 258.897 99.502 259.844 99.502 C 260.797 99.502 261.577 99.245 262.184 98.732 C 262.79 98.219 263.094 97.422 263.094 96.342 C 263.094 94.622 262.46 92.829 261.194 90.962 L 256.964 96.262 L 256.264 95.642 C 257.684 93.349 258.897 91.175 259.904 89.122 ZM 281.423 101.242 C 280.283 101.242 279.346 100.822 278.613 99.982 C 277.873 99.142 277.503 98.022 277.503 96.622 C 277.503 95.222 277.933 94.035 278.793 93.062 C 279.653 92.095 280.876 91.612 282.463 91.612 L 282.793 91.612 C 281.466 88.959 280.803 86.942 280.803 85.562 C 280.803 82.389 282.896 80.802 287.083 80.802 C 288.39 80.802 289.62 81.102 290.773 81.702 C 291.933 82.295 292.513 83.002 292.513 83.822 C 292.513 84.142 292.41 84.509 292.203 84.922 L 290.863 87.492 L 289.883 87.182 L 289.883 84.832 C 289.883 83.992 289.596 83.329 289.023 82.842 C 288.456 82.362 287.763 82.122 286.943 82.122 C 286.116 82.122 285.486 82.332 285.053 82.752 C 284.613 83.172 284.393 83.662 284.393 84.222 C 284.393 84.982 284.783 86.149 285.563 87.722 C 285.77 88.129 285.943 88.482 286.083 88.782 C 286.223 89.082 286.443 89.525 286.743 90.112 C 287.043 90.699 287.296 91.199 287.503 91.612 L 292.203 91.612 L 292.203 92.872 L 288.113 92.872 L 290.663 98.082 C 291.076 98.922 291.616 99.342 292.283 99.342 C 292.956 99.342 293.62 99.069 294.273 98.522 L 294.783 99.202 C 293.29 100.562 291.703 101.242 290.023 101.242 C 289.123 101.242 288.366 101.019 287.753 100.572 C 287.133 100.125 286.48 99.155 285.793 97.662 C 285.513 98.722 285 99.585 284.253 100.252 C 283.506 100.912 282.563 101.242 281.423 101.242 Z M 281.853 93.712 C 281.526 94.272 281.363 95.029 281.363 95.982 C 281.363 96.929 281.503 97.712 281.783 98.332 C 282.063 98.945 282.503 99.252 283.103 99.252 C 283.703 99.252 284.166 98.955 284.493 98.362 C 284.82 97.762 284.99 96.985 285.003 96.032 L 283.443 92.872 L 283.323 92.872 C 282.67 92.872 282.18 93.152 281.853 93.712 ZM 309.524 82.342 L 307.614 82.342 L 307.614 81.222 L 314.284 81.222 L 319.854 99.702 L 321.254 99.702 L 321.254 100.822 L 314.024 100.822 L 314.024 99.702 L 315.654 99.702 L 314.614 96.262 L 307.004 96.262 L 305.994 99.702 L 307.614 99.702 L 307.614 100.822 L 302.884 100.822 L 302.884 99.702 L 304.284 99.702 L 309.524 82.342 Z M 314.224 95.002 L 310.784 83.542 L 307.394 95.002 L 314.224 95.002 ZM 329.951 101.242 C 327.731 101.242 325.934 100.529 324.561 99.102 C 323.188 97.675 322.501 95.915 322.501 93.822 C 322.501 91.729 323.188 89.969 324.561 88.542 C 325.934 87.115 327.721 86.402 329.921 86.402 C 331.154 86.402 332.358 86.755 333.531 87.462 C 334.711 88.175 335.301 89.139 335.301 90.352 C 335.301 90.965 335.081 91.492 334.641 91.932 C 334.201 92.372 333.674 92.592 333.061 92.592 C 332.441 92.592 331.911 92.372 331.471 91.932 C 331.038 91.492 330.821 90.992 330.821 90.432 C 330.821 89.872 330.968 89.395 331.261 89.002 C 331.561 88.615 331.954 88.345 332.441 88.192 C 331.921 87.972 331.324 87.862 330.651 87.862 C 329.398 87.862 328.451 88.415 327.811 89.522 C 327.164 90.635 326.841 92.045 326.841 93.752 C 326.841 95.459 327.164 96.845 327.811 97.912 C 328.451 98.972 329.398 99.502 330.651 99.502 C 332.331 99.502 333.758 98.802 334.931 97.402 L 335.721 97.912 C 335.101 98.919 334.291 99.725 333.291 100.332 C 332.298 100.939 331.184 101.242 329.951 101.242 ZM 343.718 81.112 L 343.718 88.302 C 344.371 87.595 345.075 87.102 345.828 86.822 C 346.588 86.542 347.551 86.402 348.718 86.402 C 349.885 86.402 350.835 86.772 351.568 87.512 C 352.308 88.245 352.678 89.249 352.678 90.522 L 352.678 97.712 C 352.678 98.219 352.798 98.615 353.038 98.902 C 353.285 99.195 353.658 99.342 354.158 99.342 C 354.665 99.342 355.245 99.069 355.898 98.522 L 356.398 99.202 C 354.905 100.562 353.411 101.242 351.918 101.242 C 349.625 101.242 348.478 99.869 348.478 97.122 L 348.478 89.932 C 348.478 89.352 348.301 88.902 347.948 88.582 C 347.588 88.269 347.091 88.112 346.458 88.112 C 345.825 88.112 345.208 88.372 344.608 88.892 C 344.015 89.419 343.718 90.102 343.718 90.942 L 343.718 100.822 L 339.518 100.822 L 339.518 80.742 C 338.491 81.009 337.708 81.469 337.168 82.122 L 336.408 81.252 C 336.948 80.692 337.635 80.242 338.468 79.902 C 339.295 79.569 340.115 79.402 340.928 79.402 C 341.741 79.402 342.408 79.565 342.928 79.892 C 343.455 80.219 343.718 80.625 343.718 81.112 ZM 360.159 83.642 C 359.719 83.202 359.499 82.675 359.499 82.062 C 359.499 81.449 359.719 80.922 360.159 80.482 C 360.592 80.042 361.119 79.822 361.739 79.822 C 362.352 79.822 362.879 80.042 363.319 80.482 C 363.759 80.922 363.979 81.449 363.979 82.062 C 363.979 82.675 363.759 83.202 363.319 83.642 C 362.879 84.082 362.352 84.302 361.739 84.302 C 361.119 84.302 360.592 84.082 360.159 83.642 Z M 361.209 86.402 C 362.962 86.402 363.839 87.159 363.839 88.672 L 363.839 97.712 C 363.839 98.219 363.959 98.615 364.199 98.902 C 364.445 99.195 364.819 99.342 365.319 99.342 C 365.825 99.342 366.405 99.069 367.059 98.522 L 367.559 99.202 C 366.065 100.562 364.572 101.242 363.079 101.242 C 360.785 101.242 359.639 99.869 359.639 97.122 L 359.639 87.742 C 358.612 88.009 357.829 88.469 357.289 89.122 L 356.529 88.252 C 357.069 87.692 357.755 87.242 358.589 86.902 C 359.415 86.569 360.289 86.402 361.209 86.402 ZM 374.664 94.352 C 375.877 94.239 376.817 93.779 377.484 92.972 C 378.144 92.159 378.474 91.335 378.474 90.502 C 378.474 89.675 378.291 89.035 377.924 88.582 C 377.564 88.135 377.014 87.912 376.274 87.912 C 375.541 87.912 374.837 88.435 374.164 89.482 C 373.491 90.529 373.154 91.929 373.154 93.682 C 373.154 95.435 373.471 96.845 374.104 97.912 C 374.737 98.972 375.644 99.502 376.824 99.502 C 378.617 99.502 380.137 98.802 381.384 97.402 L 382.174 97.912 C 381.534 98.919 380.694 99.725 379.654 100.332 C 378.607 100.939 377.431 101.242 376.124 101.242 C 373.904 101.242 372.131 100.509 370.804 99.042 C 369.477 97.575 368.814 95.809 368.814 93.742 C 368.814 91.669 369.517 89.925 370.924 88.512 C 372.337 87.105 374.294 86.402 376.794 86.402 C 378.434 86.402 379.721 86.785 380.654 87.552 C 381.587 88.319 382.054 89.289 382.054 90.462 C 382.054 91.635 381.537 92.722 380.504 93.722 C 379.471 94.722 378.104 95.222 376.404 95.222 C 375.824 95.222 375.264 95.155 374.724 95.022 L 374.664 94.352 ZM 394.63 89.802 C 394.21 89.382 394 88.875 394 88.282 C 394 87.682 394.21 87.172 394.63 86.752 C 395.05 86.332 395.58 86.122 396.22 86.122 C 396.854 86.122 397.397 86.359 397.85 86.832 C 398.31 87.312 398.634 87.942 398.82 88.722 C 399.174 90.089 399.35 91.425 399.35 92.732 C 399.35 94.039 399.194 95.175 398.88 96.142 C 398.56 97.115 398.147 97.905 397.64 98.512 C 397.14 99.119 396.58 99.635 395.96 100.062 C 394.807 100.849 393.66 101.242 392.52 101.242 C 390.934 101.242 389.677 100.845 388.75 100.052 C 387.83 99.259 387.37 98.095 387.37 96.562 L 387.37 87.742 C 386.344 88.009 385.56 88.469 385.02 89.122 L 384.26 88.252 C 384.8 87.692 385.487 87.242 386.32 86.902 C 387.147 86.569 387.967 86.402 388.78 86.402 C 389.594 86.402 390.26 86.565 390.78 86.892 C 391.307 87.219 391.57 87.625 391.57 88.112 L 391.57 97.432 C 391.57 98.032 391.757 98.485 392.13 98.792 C 392.504 99.099 392.97 99.252 393.53 99.252 C 394.704 99.252 395.72 98.642 396.58 97.422 C 397.44 96.195 397.87 94.695 397.87 92.922 C 397.87 92.029 397.694 91.089 397.34 90.102 C 397 90.322 396.57 90.432 396.05 90.432 C 395.524 90.432 395.05 90.222 394.63 89.802 ZM 408.692 94.352 C 409.905 94.239 410.845 93.779 411.512 92.972 C 412.172 92.159 412.502 91.335 412.502 90.502 C 412.502 89.675 412.319 89.035 411.952 88.582 C 411.592 88.135 411.042 87.912 410.302 87.912 C 409.569 87.912 408.865 88.435 408.192 89.482 C 407.519 90.529 407.182 91.929 407.182 93.682 C 407.182 95.435 407.499 96.845 408.132 97.912 C 408.765 98.972 409.672 99.502 410.852 99.502 C 412.645 99.502 414.165 98.802 415.412 97.402 L 416.202 97.912 C 415.562 98.919 414.722 99.725 413.682 100.332 C 412.635 100.939 411.459 101.242 410.152 101.242 C 407.932 101.242 406.159 100.509 404.832 99.042 C 403.505 97.575 402.842 95.809 402.842 93.742 C 402.842 91.669 403.545 89.925 404.952 88.512 C 406.365 87.105 408.322 86.402 410.822 86.402 C 412.462 86.402 413.749 86.785 414.682 87.552 C 415.615 88.319 416.082 89.289 416.082 90.462 C 416.082 91.635 415.565 92.722 414.532 93.722 C 413.499 94.722 412.132 95.222 410.432 95.222 C 409.852 95.222 409.292 95.155 408.752 95.022 L 408.692 94.352 ZM 428.728 86.402 C 429.288 86.402 429.568 86.935 429.568 88.002 L 429.568 97.712 C 429.568 98.219 429.692 98.615 429.938 98.902 C 430.178 99.195 430.552 99.342 431.058 99.342 C 431.558 99.342 432.135 99.069 432.788 98.522 L 433.298 99.202 C 431.805 100.562 430.312 101.242 428.818 101.242 C 426.518 101.242 425.368 99.869 425.368 97.122 L 425.368 89.262 C 424.495 89.615 423.432 89.855 422.178 89.982 C 422.032 91.702 421.538 93.422 420.698 95.142 L 419.548 94.802 C 420.068 93.475 420.348 91.899 420.388 90.072 C 419.682 90.072 419.108 89.865 418.668 89.452 C 418.228 89.045 418.008 88.539 418.008 87.932 C 418.008 87.325 418.218 86.812 418.638 86.392 C 419.058 85.972 419.572 85.762 420.178 85.762 C 420.785 85.762 421.295 85.975 421.708 86.402 C 422.115 86.829 422.318 87.379 422.318 88.052 L 422.848 88.052 C 424.328 88.052 425.898 87.642 427.558 86.822 C 428.098 86.542 428.488 86.402 428.728 86.402 ZM 437.627 89.122 C 437.181 88.429 436.957 87.812 436.957 87.272 C 436.957 86.732 437.167 86.252 437.587 85.832 C 438.007 85.412 438.514 85.202 439.107 85.202 C 439.707 85.202 440.217 85.412 440.637 85.832 C 441.057 86.252 441.267 86.749 441.267 87.322 C 441.267 87.902 440.977 88.519 440.397 89.172 C 441.931 90.292 443.107 91.389 443.927 92.462 C 444.747 93.535 445.157 94.779 445.157 96.192 C 445.157 97.599 444.627 98.792 443.567 99.772 C 442.501 100.752 440.987 101.242 439.027 101.242 C 438.134 101.242 437.234 101.045 436.327 100.652 C 435.421 100.259 434.734 99.775 434.267 99.202 L 434.907 98.522 C 435.734 99.175 436.621 99.502 437.567 99.502 C 438.521 99.502 439.301 99.245 439.907 98.732 C 440.514 98.219 440.817 97.422 440.817 96.342 C 440.817 94.622 440.184 92.829 438.917 90.962 L 434.687 96.262 L 433.987 95.642 C 435.407 93.349 436.621 91.175 437.627 89.122 Z" transform="matrix(0.5815939903259277, 0, 0, 0.6464570164680481, -23.805408477783203, -6.78886604309082)" style="fill: url(#gradient-4); white-space: pre;"/>
</svg>