<?xml version="1.0" encoding="utf-8"?>
<svg viewBox="0 0 243.144 71.874" xmlns="http://www.w3.org/2000/svg">
  <defs>
    <linearGradient id="gradient-2" gradientUnits="userSpaceOnUse" x1="91.272" y1="0" x2="91.272" y2="41.874" gradientTransform="matrix(1.3349, 0, 0, 1.716435, -0.266979, 0)">
      <stop offset="0" style="stop-color: rgba(0, 87, 141, 1)"/>
      <stop offset="1" style="stop-color: rgba(0, 24, 39, 1)"/>
    </linearGradient>
  </defs>
  <rect width="243.144" height="71.874" style="fill-rule: evenodd; fill: url(#gradient-2);"/>
  <g transform="matrix(0.016096, 0, 0, -0.012009, 110.272942, 41.540356)" fill="#000000" stroke="none" style="">
    <path d="M 980 2389 C 928 2380 865 2364 841 2356 C 817 2347 791 2332.351 784 2332.351 C 776 2332.351 742 2315.527 708 2298.527 C 674 2282.527 973.727 2383.261 965.727 2383.261 C 958.727 2383.261 654.42 2283.649 654.42 2277.649 C 654.42 2272.649 548.985 2221.755 541.985 2214.106 C 532.533 2203.778 454 2157 427 2126 C 417 2114 397 2092 382 2075 C 316 2001 247 1863 217 1745 C 204 1695 195 1620 193 1547 L 189 1429 L 138 1332 C 110 1279 74 1211 59 1181 C 43 1151 27 1111 24 1091 C 11 1023 53 925 105 902 C 125 892 129 884 128 842 C 128 814 133 783 139 772 C 145 761 150 730 150 704 C 150 676 157 645 169 626 C 185 600 188 578 187 492 L 185 390 L 230 350 C 304 285 363 268 494 274 C 555 276 626 282 652 285 C 688 290 701 289 704 279 C 706 271 720 220 735 165 C 767 49 774 34 800 20 C 830 4 864 42 857 83 C 844 167 784 364 767 378 C 742 398 692 400 606 385 C 458 360 362 368 319 411 C 300 430 299 440 305 513 C 312 597 309 608 267 671 C 253 692 251 703 260 726 C 273 759 273 761 252 776 C 236 788 234 828 245 893 C 253 937 241 956 200 965 C 147 977 120 1007 120 1053 C 120 1076 128 1109 138 1125 C 157 1156 238 1305 274 1375 C 290 1406 295 1435 296 1505 C 296 1555 300 1620 304 1650 C 311 1702 349 1829 360 1840 C 363 1843 374 1863 384 1886 C 412 1950 519 2070 595 2124 C 672 2177 776 2229 872 2262 C 925 2279 981.287 2312.314 1142.298 2309.947 C 1322.474 2307.298 1322 2291 1399 2267 C 1657 2185 1848 2020 1963 1778 C 2006 1687 2015 1663 2034 1573 C 2051 1495 2055 1320 2040 1255 C 2009 1113 1983 1045 1925 954 C 1875 876 1874 875 1788 789 C 1724 725 1576 620 1550 620 C 1546 620 1521 608 1496 594 C 1444 565 1426 533 1439 498 C 1444 485 1450 457 1454 435 C 1457 413 1465 377 1471 355 C 1482 315 1492 267 1505 198 C 1513 156 1545 117 1567 122 C 1576 124 1592 137 1602 151 C 1619 174 1620 182 1611 216 C 1599 255 1550 489 1550 502 C 1550 506 1580 524 1618 542 C 1752 608 1904 741 1989 869 C 2151 1113 2199 1431 2114 1700 C 2089 1780 2010 1942 1970 1993 C 1854 2143 1735 2238 1558 2321 C 1468 2364 1244 2411 1141 2409 C 1105 2408 1032 2399 980 2389 Z" style="fill: rgb(202, 255, 248);"/>
    <path d="M 1122 2053 C 1125 1982 1127 1975 1146 1972 C 1166 1969 1168 1974 1172 2022 C 1178 2107 1172 2130 1143 2130 C 1120 2130 1119 2129 1122 2053 Z" style="fill: rgb(202, 255, 248);"/>
    <path d="M 784 2025 C 771 1993 845 1880 868 1894 C 887 1905 882 1929 849 1986 C 819 2040 795 2054 784 2025 Z" style="fill: rgb(202, 255, 248);"/>
    <path d="M 1441 1986 C 1423 1956 1410 1923 1412 1913 C 1417 1885 1451 1892 1471 1925 C 1524 2014 1529 2040 1492 2040 C 1481 2040 1461 2018 1441 1986 Z" style="fill: rgb(202, 255, 248);"/>
    <path d="M 1045 1858 C 937 1831 820 1744 762 1647 C 666 1487 682 1273 800 1136 C 854 1072 881 1051 953 1016 C 1220 884 1543 1054 1590 1353 C 1625 1579 1474 1802 1247 1855 C 1178 1871 1105 1872 1045 1858 Z M 1298 1741 C 1360 1709 1425 1646 1461 1583 C 1491 1531 1493 1522 1493 1421 C 1493 1330 1490 1309 1470 1270 C 1431 1195 1388 1150 1315 1109 C 1248 1072 1241 1070 1151 1070 C 1068 1070 1051 1073 995 1100 C 860 1165 779 1304 794 1448 C 809 1596 893 1699 1050 1764 C 1058 1767 1108 1768 1160 1766 C 1234 1764 1265 1758 1298 1741 Z" style="fill: rgb(202, 255, 248);"/>
    <path d="M 526 1773 C 518 1752 532 1739 597 1705 C 651 1678 670 1678 670 1708 C 670 1726 650 1742 588 1772 C 542 1794 534 1794 526 1773 Z" style="fill: rgb(202, 255, 248);"/>
    <path d="M 1680 1757 C 1585 1700 1607 1656 1704 1710 C 1767 1746 1773 1752 1764 1774 C 1755 1797 1742 1794 1680 1757 Z" style="fill: rgb(202, 255, 248);"/>
    <path d="M 449 1438 C 427 1430 425 1419 442 1402 C 460 1384 575 1386 590 1405 C 598 1415 599 1424 594 1430 C 582 1441 474 1447 449 1438 Z" style="fill: rgb(202, 255, 248);"/>
    <path d="M 1702 1418 C 1705 1396 1710 1395 1780 1395 C 1850 1395 1855 1396 1858 1418 C 1861 1439 1859 1440 1780 1440 C 1701 1440 1699 1439 1702 1418 Z" style="fill: rgb(202, 255, 248);"/>
    <path d="M 1633 1153 C 1608 1144 1621 1115 1662 1086 C 1713 1051 1765 1045 1765 1074 C 1765 1101 1661 1163 1633 1153 Z" style="fill: rgb(202, 255, 248);"/>
    <path d="M 567 1114 C 487 1055 527 1028 618 1080 C 653 1101 670 1117 670 1130 C 670 1162 622 1155 567 1114 Z" style="fill: rgb(202, 255, 248);"/>
    <path d="M 837 932 C 814 906 780 837 780 817 C 780 804 786 800 802 802 C 826 805 878 882 879 916 C 880 944 856 953 837 932 Z" style="fill: rgb(202, 255, 248);"/>
    <path d="M 1421 937 C 1404 920 1407 906 1441 851 C 1465 813 1479 800 1496 800 C 1525 800 1526 823 1499 865 C 1489 882 1476 905 1471 916 C 1459 942 1436 952 1421 937 Z" style="fill: rgb(202, 255, 248);"/>
    <path d="M 1133 863 C 1114 856 1115 714 1133 707 C 1159 697 1171 717 1175 776 C 1179 853 1167 877 1133 863 Z" style="fill: rgb(202, 255, 248);"/>
  </g>
  <path d="M 54.694 82.802 C 54.694 82.802 56.281 82.802 59.454 82.802 C 62.427 82.802 64.751 83.682 66.424 85.442 C 68.104 87.202 68.944 89.265 68.944 91.632 C 68.944 94.259 68.097 96.462 66.404 98.242 C 64.704 100.015 62.377 100.902 59.424 100.902 C 59.077 100.902 58.367 100.879 57.294 100.832 C 56.221 100.792 55.364 100.772 54.724 100.772 L 50.734 100.932 C 50.661 100.859 50.624 100.702 50.624 100.462 C 50.624 100.102 50.661 99.922 50.734 99.922 C 50.954 99.922 51.294 99.859 51.754 99.732 C 52.221 99.599 52.481 99.462 52.534 99.322 C 52.647 98.902 52.704 98.099 52.704 96.912 L 52.704 86.572 C 52.704 85.572 52.647 84.862 52.534 84.442 C 52.481 84.295 52.214 84.132 51.734 83.952 C 51.247 83.772 50.904 83.682 50.704 83.682 C 50.631 83.682 50.594 83.515 50.594 83.182 C 50.594 82.895 50.621 82.722 50.674 82.662 C 52.134 82.755 53.474 82.802 54.694 82.802 Z M 56.524 86.492 L 56.524 97.102 C 56.524 98.289 56.607 98.929 56.774 99.022 C 57.174 99.255 58.204 99.372 59.864 99.372 C 61.397 99.372 62.584 98.715 63.424 97.402 C 64.257 96.089 64.674 94.129 64.674 91.522 C 64.674 89.522 64.234 87.822 63.354 86.422 C 62.467 85.029 61.241 84.332 59.674 84.332 L 59.534 84.332 C 57.987 84.332 57.104 84.479 56.884 84.772 C 56.644 85.099 56.524 85.672 56.524 86.492 ZM 79.309 88.602 C 80.109 88.602 80.893 88.939 81.659 89.612 C 81.659 90.559 81.543 91.259 81.309 91.712 C 81.083 92.172 80.669 92.402 80.069 92.402 C 79.703 92.402 79.283 92.192 78.809 91.772 C 78.336 91.352 77.919 91.142 77.559 91.142 C 77.006 91.142 76.616 91.449 76.389 92.062 C 76.163 92.669 76.049 93.319 76.049 94.012 L 76.049 96.772 C 76.049 97.925 76.113 98.745 76.239 99.232 C 76.279 99.365 76.523 99.512 76.969 99.672 C 77.416 99.839 77.713 99.922 77.859 99.922 C 77.913 99.922 77.943 100.072 77.949 100.372 C 77.963 100.672 77.949 100.859 77.909 100.932 C 77.689 100.912 77.133 100.872 76.239 100.812 C 75.346 100.745 74.689 100.712 74.269 100.712 C 73.836 100.712 73.153 100.745 72.219 100.812 C 71.293 100.872 70.729 100.912 70.529 100.932 C 70.456 100.859 70.419 100.672 70.419 100.372 C 70.419 100.072 70.456 99.922 70.529 99.922 C 70.729 99.922 71.066 99.839 71.539 99.672 C 72.013 99.512 72.269 99.365 72.309 99.232 C 72.436 98.685 72.499 97.995 72.499 97.162 L 72.499 93.412 C 72.499 92.392 72.333 91.709 71.999 91.362 C 71.873 91.215 71.683 91.095 71.429 91.002 C 71.176 90.915 70.956 90.852 70.769 90.812 C 70.589 90.779 70.499 90.752 70.499 90.732 C 70.499 90.092 70.546 89.772 70.639 89.772 C 70.859 89.772 71.223 89.722 71.729 89.622 C 72.243 89.522 72.909 89.382 73.729 89.202 C 74.549 89.022 75.186 88.885 75.639 88.792 C 75.819 88.739 75.919 88.712 75.939 88.712 C 76.033 88.712 76.126 88.769 76.219 88.882 C 76.306 89.002 76.349 89.099 76.349 89.172 C 76.316 89.392 76.289 89.629 76.269 89.882 C 76.249 90.142 76.233 90.305 76.219 90.372 C 77.113 89.192 78.143 88.602 79.309 88.602 ZM 88.903 90.102 C 88.19 90.102 87.67 90.445 87.343 91.132 C 87.016 91.812 86.853 92.482 86.853 93.142 C 86.853 93.249 86.916 93.302 87.043 93.302 L 90.513 93.302 C 90.766 93.302 90.893 93.129 90.893 92.782 C 90.893 92.089 90.706 91.469 90.333 90.922 C 89.96 90.375 89.483 90.102 88.903 90.102 Z M 89.033 88.602 C 90.68 88.602 92 89.172 92.993 90.312 C 93.986 91.452 94.483 92.612 94.483 93.792 C 94.483 94.212 94.396 94.485 94.223 94.612 C 94.05 94.739 93.706 94.802 93.193 94.802 L 87.013 94.802 C 86.906 94.802 86.853 94.869 86.853 95.002 C 86.853 95.982 87.13 96.865 87.683 97.652 C 88.243 98.432 89.04 98.822 90.073 98.822 C 90.68 98.822 91.256 98.735 91.803 98.562 C 92.35 98.389 92.73 98.235 92.943 98.102 C 93.163 97.962 93.456 97.755 93.823 97.482 C 93.99 97.555 94.073 97.729 94.073 98.002 C 94.073 98.222 94.036 98.405 93.963 98.552 C 93.776 98.992 93.23 99.512 92.323 100.112 C 91.41 100.712 90.386 101.012 89.253 101.012 C 87.58 101.012 86.136 100.402 84.923 99.182 C 83.71 97.962 83.103 96.495 83.103 94.782 C 83.103 93.029 83.65 91.559 84.743 90.372 C 85.836 89.192 87.266 88.602 89.033 88.602 ZM 100.795 99.042 C 101.268 99.042 101.638 98.929 101.905 98.702 C 102.165 98.475 102.295 98.199 102.295 97.872 L 102.295 95.112 C 102.261 95.125 102.085 95.182 101.765 95.282 C 101.445 95.382 101.241 95.452 101.155 95.492 C 101.061 95.525 100.888 95.592 100.635 95.692 C 100.375 95.792 100.195 95.885 100.095 95.972 C 99.995 96.052 99.871 96.155 99.725 96.282 C 99.578 96.409 99.478 96.545 99.425 96.692 C 99.371 96.839 99.345 97.002 99.345 97.182 C 99.345 97.842 99.485 98.319 99.765 98.612 C 100.051 98.899 100.395 99.042 100.795 99.042 Z M 101.885 88.542 C 103.165 88.542 104.145 88.895 104.825 89.602 C 105.511 90.302 105.855 91.572 105.855 93.412 L 105.855 97.842 C 105.855 98.462 106.071 98.772 106.505 98.772 C 106.818 98.772 107.128 98.652 107.435 98.412 C 107.568 98.485 107.635 98.622 107.635 98.822 C 107.635 99.282 107.568 99.622 107.435 99.842 C 107.181 100.075 106.768 100.325 106.195 100.592 C 105.621 100.852 105.078 100.982 104.565 100.982 C 104.131 100.982 103.715 100.852 103.315 100.592 C 102.908 100.325 102.641 100.019 102.515 99.672 C 102.495 99.672 102.421 99.722 102.295 99.822 C 102.168 99.922 102.005 100.035 101.805 100.162 C 101.605 100.295 101.371 100.425 101.105 100.552 C 100.845 100.679 100.531 100.785 100.165 100.872 C 99.798 100.965 99.435 101.012 99.075 101.012 C 98.068 101.012 97.268 100.735 96.675 100.182 C 96.088 99.622 95.795 98.925 95.795 98.092 C 95.795 97.599 95.908 97.145 96.135 96.732 C 96.361 96.325 96.625 95.989 96.925 95.722 C 97.225 95.455 97.631 95.209 98.145 94.982 C 98.651 94.755 99.088 94.582 99.455 94.462 C 99.821 94.342 100.291 94.205 100.865 94.052 C 101.438 93.899 101.835 93.785 102.055 93.712 C 102.215 93.659 102.295 93.522 102.295 93.302 L 102.295 92.322 C 102.295 90.822 101.841 90.072 100.935 90.072 C 99.875 90.072 99.345 90.685 99.345 91.912 C 99.345 92.312 99.181 92.605 98.855 92.792 C 98.528 92.985 98.161 93.082 97.755 93.082 C 96.921 93.082 96.348 92.809 96.035 92.262 C 96.035 91.335 96.651 90.482 97.885 89.702 C 99.111 88.929 100.445 88.542 101.885 88.542 ZM 118.893 88.622 C 120.206 88.622 121.173 89.252 121.793 90.512 C 122.926 89.272 124.566 88.642 126.713 88.622 C 127.773 88.622 128.636 89.069 129.303 89.962 C 129.963 90.855 130.293 92.215 130.293 94.042 L 130.293 96.752 C 130.293 97.919 130.359 98.745 130.493 99.232 C 130.526 99.365 130.769 99.512 131.223 99.672 C 131.683 99.839 131.993 99.922 132.153 99.922 C 132.213 99.922 132.246 100.072 132.253 100.372 C 132.259 100.672 132.246 100.859 132.213 100.932 C 132.013 100.912 131.453 100.872 130.533 100.812 C 129.613 100.745 128.943 100.712 128.523 100.712 C 128.083 100.712 127.413 100.745 126.513 100.812 C 125.606 100.872 125.046 100.912 124.833 100.932 C 124.759 100.859 124.723 100.672 124.723 100.372 C 124.723 100.072 124.759 99.922 124.833 99.922 C 125.033 99.922 125.359 99.839 125.813 99.672 C 126.266 99.512 126.513 99.365 126.553 99.232 C 126.679 98.685 126.743 97.995 126.743 97.162 L 126.743 94.692 C 126.743 93.439 126.556 92.502 126.183 91.882 C 125.809 91.262 125.213 90.952 124.393 90.952 C 123.373 90.952 122.733 91.299 122.473 91.992 C 122.419 92.139 122.403 92.329 122.423 92.562 C 122.456 92.889 122.473 93.382 122.473 94.042 L 122.473 96.752 C 122.473 97.919 122.539 98.745 122.673 99.232 C 122.706 99.365 122.949 99.512 123.403 99.672 C 123.863 99.839 124.173 99.922 124.333 99.922 C 124.393 99.922 124.426 100.072 124.433 100.372 C 124.439 100.672 124.426 100.859 124.393 100.932 C 124.193 100.912 123.633 100.872 122.713 100.812 C 121.793 100.745 121.123 100.712 120.703 100.712 C 120.263 100.712 119.593 100.745 118.693 100.812 C 117.786 100.872 117.226 100.912 117.013 100.932 C 116.939 100.859 116.903 100.672 116.903 100.372 C 116.903 100.072 116.939 99.922 117.013 99.922 C 117.213 99.922 117.539 99.839 117.993 99.672 C 118.446 99.512 118.693 99.365 118.733 99.232 C 118.859 98.685 118.923 97.995 118.923 97.162 L 118.923 94.692 C 118.923 93.345 118.736 92.385 118.363 91.812 C 117.989 91.239 117.393 90.952 116.573 90.952 C 116.006 90.952 115.549 91.055 115.203 91.262 C 114.856 91.475 114.683 91.772 114.683 92.152 L 114.683 96.752 C 114.683 97.919 114.746 98.745 114.873 99.232 C 114.913 99.365 115.156 99.512 115.603 99.672 C 116.049 99.839 116.346 99.922 116.493 99.922 C 116.546 99.922 116.576 100.072 116.583 100.372 C 116.596 100.672 116.583 100.859 116.543 100.932 C 116.323 100.912 115.766 100.872 114.873 100.812 C 113.979 100.745 113.323 100.712 112.903 100.712 C 112.469 100.712 111.786 100.745 110.853 100.812 C 109.926 100.872 109.363 100.912 109.163 100.932 C 109.089 100.859 109.053 100.672 109.053 100.372 C 109.053 100.072 109.089 99.922 109.163 99.922 C 109.363 99.922 109.699 99.839 110.173 99.672 C 110.646 99.512 110.903 99.365 110.943 99.232 C 111.069 98.685 111.133 97.995 111.133 97.162 L 111.133 93.412 C 111.133 92.392 110.966 91.709 110.633 91.362 C 110.506 91.215 110.316 91.095 110.063 91.002 C 109.809 90.915 109.589 90.852 109.403 90.812 C 109.223 90.779 109.133 90.752 109.133 90.732 C 109.133 90.092 109.179 89.772 109.273 89.772 C 109.493 89.772 109.856 89.722 110.363 89.622 C 110.876 89.522 111.543 89.382 112.363 89.202 C 113.183 89.022 113.819 88.885 114.273 88.792 C 114.313 88.792 114.353 88.782 114.393 88.762 C 114.439 88.742 114.483 88.732 114.523 88.732 L 114.573 88.712 C 114.666 88.712 114.759 88.769 114.853 88.882 C 114.939 89.002 114.983 89.099 114.983 89.172 C 114.909 89.685 114.873 89.969 114.873 90.022 C 114.873 90.115 114.883 90.169 114.903 90.182 C 114.936 90.182 114.999 90.139 115.093 90.052 C 116.113 89.099 117.379 88.622 118.893 88.622 ZM 143.506 82.882 C 143.866 82.882 144.38 82.859 145.046 82.812 C 145.713 82.772 146.156 82.742 146.376 82.722 C 146.556 83.302 147.303 85.019 148.616 87.872 C 149.93 90.725 150.903 92.945 151.536 94.532 L 151.596 94.532 C 151.63 94.532 151.646 94.522 151.646 94.502 C 153.053 91.022 154.166 88.152 154.986 85.892 L 155.886 82.832 C 156.213 82.865 156.953 82.882 158.106 82.882 C 158.213 82.882 159.36 82.829 161.546 82.722 C 161.62 82.829 161.656 82.975 161.656 83.162 C 161.656 83.542 161.61 83.732 161.516 83.732 L 161.496 83.732 C 161.036 83.732 160.653 83.842 160.346 84.062 C 160.073 84.262 159.946 84.635 159.966 85.182 C 160 85.909 160.09 87.795 160.236 90.842 C 160.383 93.889 160.473 95.829 160.506 96.662 C 160.566 97.775 160.703 98.615 160.916 99.182 C 160.99 99.349 161.233 99.512 161.646 99.672 C 162.053 99.839 162.34 99.922 162.506 99.922 C 162.58 99.922 162.616 100.102 162.616 100.462 C 162.616 100.669 162.596 100.825 162.556 100.932 C 162.356 100.912 161.846 100.872 161.026 100.812 C 160.206 100.745 159.56 100.712 159.086 100.712 C 158.593 100.712 157.873 100.745 156.926 100.812 C 155.98 100.872 155.38 100.912 155.126 100.932 C 155.033 100.839 154.986 100.692 154.986 100.492 C 154.986 100.112 155.013 99.922 155.066 99.922 C 155.266 99.922 155.576 99.839 155.996 99.672 C 156.416 99.512 156.673 99.339 156.766 99.152 C 156.913 98.879 156.986 98.625 156.986 98.392 C 156.986 97.972 156.966 97.432 156.926 96.772 L 156.706 89.832 C 156.633 88.612 156.56 88.002 156.486 88.002 C 156.453 88.002 156.41 88.065 156.356 88.192 L 151.626 99.972 C 151.553 100.159 151.406 100.355 151.186 100.562 C 150.966 100.769 150.746 100.872 150.526 100.872 C 150.473 100.872 150.393 100.855 150.286 100.822 L 144.266 87.312 L 143.806 97.842 C 143.806 98.369 143.813 98.695 143.826 98.822 C 143.886 99.062 144.29 99.305 145.036 99.552 C 145.783 99.799 146.273 99.922 146.506 99.922 C 146.58 99.922 146.616 100.102 146.616 100.462 C 146.616 100.669 146.6 100.825 146.566 100.932 C 146.42 100.932 145.873 100.895 144.926 100.822 C 143.98 100.749 143.266 100.712 142.786 100.712 C 142.313 100.712 141.66 100.745 140.826 100.812 C 139.986 100.872 139.42 100.912 139.126 100.932 C 139.053 100.859 139.016 100.702 139.016 100.462 C 139.016 100.115 139.043 99.942 139.096 99.942 C 139.43 99.942 139.963 99.805 140.696 99.532 C 141.436 99.259 141.823 98.932 141.856 98.552 C 141.896 98.132 141.933 97.695 141.966 97.242 C 142.026 96.295 142.093 94.895 142.166 93.042 C 142.233 91.195 142.296 89.412 142.356 87.692 C 142.41 85.979 142.446 85.005 142.466 84.772 C 142.466 84.572 142.436 84.409 142.376 84.282 C 142.323 84.135 142.033 84.002 141.506 83.882 C 140.98 83.762 140.596 83.702 140.356 83.702 C 140.283 83.702 140.246 83.512 140.246 83.132 C 140.246 82.932 140.283 82.795 140.356 82.722 C 140.61 82.742 141.08 82.772 141.766 82.812 C 142.446 82.859 143.026 82.882 143.506 82.882 ZM 169.176 99.042 C 169.649 99.042 170.019 98.929 170.286 98.702 C 170.546 98.475 170.676 98.199 170.676 97.872 L 170.676 95.112 C 170.643 95.125 170.466 95.182 170.146 95.282 C 169.826 95.382 169.623 95.452 169.536 95.492 C 169.443 95.525 169.269 95.592 169.016 95.692 C 168.756 95.792 168.576 95.885 168.476 95.972 C 168.376 96.052 168.253 96.155 168.106 96.282 C 167.959 96.409 167.859 96.545 167.806 96.692 C 167.753 96.839 167.726 97.002 167.726 97.182 C 167.726 97.842 167.866 98.319 168.146 98.612 C 168.433 98.899 168.776 99.042 169.176 99.042 Z M 170.266 88.542 C 171.546 88.542 172.526 88.895 173.206 89.602 C 173.893 90.302 174.236 91.572 174.236 93.412 L 174.236 97.842 C 174.236 98.462 174.453 98.772 174.886 98.772 C 175.199 98.772 175.509 98.652 175.816 98.412 C 175.949 98.485 176.016 98.622 176.016 98.822 C 176.016 99.282 175.949 99.622 175.816 99.842 C 175.563 100.075 175.149 100.325 174.576 100.592 C 174.003 100.852 173.459 100.982 172.946 100.982 C 172.513 100.982 172.096 100.852 171.696 100.592 C 171.289 100.325 171.023 100.019 170.896 99.672 C 170.876 99.672 170.803 99.722 170.676 99.822 C 170.549 99.922 170.386 100.035 170.186 100.162 C 169.986 100.295 169.753 100.425 169.486 100.552 C 169.226 100.679 168.913 100.785 168.546 100.872 C 168.179 100.965 167.816 101.012 167.456 101.012 C 166.449 101.012 165.649 100.735 165.056 100.182 C 164.469 99.622 164.176 98.925 164.176 98.092 C 164.176 97.599 164.289 97.145 164.516 96.732 C 164.743 96.325 165.006 95.989 165.306 95.722 C 165.606 95.455 166.013 95.209 166.526 94.982 C 167.033 94.755 167.469 94.582 167.836 94.462 C 168.203 94.342 168.673 94.205 169.246 94.052 C 169.819 93.899 170.216 93.785 170.436 93.712 C 170.596 93.659 170.676 93.522 170.676 93.302 L 170.676 92.322 C 170.676 90.822 170.223 90.072 169.316 90.072 C 168.256 90.072 167.726 90.685 167.726 91.912 C 167.726 92.312 167.563 92.605 167.236 92.792 C 166.909 92.985 166.543 93.082 166.136 93.082 C 165.303 93.082 164.729 92.809 164.416 92.262 C 164.416 91.335 165.033 90.482 166.266 89.702 C 167.493 88.929 168.826 88.542 170.266 88.542 ZM 190.064 90.372 C 188.771 91.125 187.524 92.122 186.324 93.362 C 186.851 93.922 187.534 94.685 188.374 95.652 C 189.207 96.619 189.904 97.412 190.464 98.032 C 191.017 98.652 191.404 99.045 191.624 99.212 C 191.864 99.412 192.174 99.579 192.554 99.712 C 192.934 99.852 193.207 99.922 193.374 99.922 C 193.467 99.922 193.514 100.095 193.514 100.442 C 193.514 100.675 193.494 100.829 193.454 100.902 C 191.267 100.795 190.121 100.742 190.014 100.742 C 189.574 100.742 188.881 100.772 187.934 100.832 C 186.987 100.899 186.467 100.932 186.374 100.932 C 186.301 100.859 186.264 100.672 186.264 100.372 C 186.264 100.072 186.301 99.922 186.374 99.922 C 186.554 99.922 186.764 99.885 187.004 99.812 C 187.237 99.739 187.354 99.655 187.354 99.562 C 187.354 99.529 187.347 99.502 187.334 99.482 L 183.334 94.912 L 183.034 95.002 L 183.034 96.752 C 183.034 97.919 183.101 98.745 183.234 99.232 C 183.267 99.365 183.521 99.512 183.994 99.672 C 184.467 99.839 184.787 99.922 184.954 99.922 C 185.007 99.922 185.037 100.072 185.044 100.372 C 185.057 100.672 185.044 100.859 185.004 100.932 C 184.804 100.912 184.234 100.872 183.294 100.812 C 182.361 100.745 181.684 100.712 181.264 100.712 C 180.824 100.712 180.141 100.745 179.214 100.812 C 178.281 100.872 177.714 100.912 177.514 100.932 C 177.441 100.859 177.404 100.672 177.404 100.372 C 177.404 100.072 177.441 99.922 177.514 99.922 C 177.714 99.922 178.051 99.839 178.524 99.672 C 178.997 99.512 179.254 99.365 179.294 99.232 C 179.421 98.685 179.484 97.995 179.484 97.162 L 179.484 86.302 C 179.484 85.449 179.437 84.792 179.344 84.332 C 179.257 84.039 178.784 83.892 177.924 83.892 L 177.674 83.892 C 177.567 83.892 177.514 83.712 177.514 83.352 C 177.514 83.039 177.567 82.882 177.674 82.882 C 178.241 82.829 178.811 82.755 179.384 82.662 C 179.957 82.575 180.447 82.485 180.854 82.392 C 181.254 82.299 181.614 82.209 181.934 82.122 C 182.247 82.029 182.497 81.955 182.684 81.902 L 182.954 81.822 L 183.014 81.822 C 183.087 81.822 183.161 81.875 183.234 81.982 C 183.301 82.089 183.344 82.189 183.364 82.282 C 183.144 83.102 183.034 84.022 183.034 85.042 L 183.034 93.742 C 183.527 93.615 183.837 93.495 183.964 93.382 C 184.257 93.129 184.574 92.862 184.914 92.582 C 185.247 92.295 185.501 92.075 185.674 91.922 C 185.847 91.769 186.041 91.605 186.254 91.432 C 186.461 91.259 186.611 91.122 186.704 91.022 C 186.791 90.922 186.881 90.822 186.974 90.722 C 187.067 90.622 187.127 90.529 187.154 90.442 C 187.181 90.362 187.194 90.285 187.194 90.212 C 187.194 90.045 187.104 89.935 186.924 89.882 C 186.737 89.829 186.537 89.799 186.324 89.792 C 186.104 89.779 185.974 89.765 185.934 89.752 C 185.901 89.619 185.884 89.425 185.884 89.172 C 185.884 88.919 185.921 88.782 185.994 88.762 C 187.307 88.782 188.344 88.792 189.104 88.792 C 190.184 88.792 191.134 88.772 191.954 88.732 C 192.027 88.772 192.067 88.879 192.074 89.052 C 192.081 89.225 192.077 89.385 192.064 89.532 C 192.044 89.679 192.017 89.752 191.984 89.752 C 191.417 89.752 190.777 89.959 190.064 90.372 ZM 200.866 90.102 C 200.153 90.102 199.633 90.445 199.306 91.132 C 198.98 91.812 198.816 92.482 198.816 93.142 C 198.816 93.249 198.88 93.302 199.006 93.302 L 202.476 93.302 C 202.73 93.302 202.856 93.129 202.856 92.782 C 202.856 92.089 202.67 91.469 202.296 90.922 C 201.923 90.375 201.446 90.102 200.866 90.102 Z M 200.996 88.602 C 202.643 88.602 203.963 89.172 204.956 90.312 C 205.95 91.452 206.446 92.612 206.446 93.792 C 206.446 94.212 206.36 94.485 206.186 94.612 C 206.013 94.739 205.67 94.802 205.156 94.802 L 198.976 94.802 C 198.87 94.802 198.816 94.869 198.816 95.002 C 198.816 95.982 199.093 96.865 199.646 97.652 C 200.206 98.432 201.003 98.822 202.036 98.822 C 202.643 98.822 203.22 98.735 203.766 98.562 C 204.313 98.389 204.693 98.235 204.906 98.102 C 205.126 97.962 205.42 97.755 205.786 97.482 C 205.953 97.555 206.036 97.729 206.036 98.002 C 206.036 98.222 206 98.405 205.926 98.552 C 205.74 98.992 205.193 99.512 204.286 100.112 C 203.373 100.712 202.35 101.012 201.216 101.012 C 199.543 101.012 198.1 100.402 196.886 99.182 C 195.673 97.962 195.066 96.495 195.066 94.782 C 195.066 93.029 195.613 91.559 196.706 90.372 C 197.8 89.192 199.23 88.602 200.996 88.602 ZM 216.618 88.602 C 217.418 88.602 218.202 88.939 218.968 89.612 C 218.968 90.559 218.852 91.259 218.618 91.712 C 218.392 92.172 217.978 92.402 217.378 92.402 C 217.012 92.402 216.592 92.192 216.118 91.772 C 215.645 91.352 215.228 91.142 214.868 91.142 C 214.315 91.142 213.925 91.449 213.698 92.062 C 213.472 92.669 213.358 93.319 213.358 94.012 L 213.358 96.772 C 213.358 97.925 213.422 98.745 213.548 99.232 C 213.588 99.365 213.832 99.512 214.278 99.672 C 214.725 99.839 215.022 99.922 215.168 99.922 C 215.222 99.922 215.252 100.072 215.258 100.372 C 215.272 100.672 215.258 100.859 215.218 100.932 C 214.998 100.912 214.442 100.872 213.548 100.812 C 212.655 100.745 211.998 100.712 211.578 100.712 C 211.145 100.712 210.462 100.745 209.528 100.812 C 208.602 100.872 208.038 100.912 207.838 100.932 C 207.765 100.859 207.728 100.672 207.728 100.372 C 207.728 100.072 207.765 99.922 207.838 99.922 C 208.038 99.922 208.375 99.839 208.848 99.672 C 209.322 99.512 209.578 99.365 209.618 99.232 C 209.745 98.685 209.808 97.995 209.808 97.162 L 209.808 93.412 C 209.808 92.392 209.642 91.709 209.308 91.362 C 209.182 91.215 208.992 91.095 208.738 91.002 C 208.485 90.915 208.265 90.852 208.078 90.812 C 207.898 90.779 207.808 90.752 207.808 90.732 C 207.808 90.092 207.855 89.772 207.948 89.772 C 208.168 89.772 208.532 89.722 209.038 89.622 C 209.552 89.522 210.218 89.382 211.038 89.202 C 211.858 89.022 212.495 88.885 212.948 88.792 C 213.128 88.739 213.228 88.712 213.248 88.712 C 213.342 88.712 213.435 88.769 213.528 88.882 C 213.615 89.002 213.658 89.099 213.658 89.172 C 213.625 89.392 213.598 89.629 213.578 89.882 C 213.558 90.142 213.542 90.305 213.528 90.372 C 214.422 89.192 215.452 88.602 216.618 88.602 ZM 225.172 88.542 C 226.779 88.542 227.962 88.725 228.722 89.092 C 228.909 89.932 229.002 91.062 229.002 92.482 C 229.002 92.649 228.882 92.732 228.642 92.732 C 228.075 92.732 227.775 92.659 227.742 92.512 C 227.575 91.745 227.299 91.142 226.912 90.702 C 226.519 90.269 225.892 90.052 225.032 90.052 C 224.632 90.052 224.305 90.145 224.052 90.332 C 223.792 90.525 223.662 90.805 223.662 91.172 C 223.662 91.592 223.845 91.952 224.212 92.252 C 224.579 92.552 225.119 92.875 225.832 93.222 C 226.319 93.455 226.705 93.655 226.992 93.822 C 227.272 93.989 227.645 94.249 228.112 94.602 C 228.579 94.955 228.925 95.369 229.152 95.842 C 229.379 96.315 229.492 96.845 229.492 97.432 C 229.492 98.632 229.032 99.542 228.112 100.162 C 227.192 100.782 226.019 101.092 224.592 101.092 C 223.959 101.092 223.249 100.992 222.462 100.792 C 221.682 100.592 221.119 100.345 220.772 100.052 C 220.552 98.799 220.442 97.689 220.442 96.722 C 220.515 96.669 220.652 96.642 220.852 96.642 C 221.432 96.642 221.732 96.722 221.752 96.882 C 222.065 98.689 223.049 99.592 224.702 99.592 C 225.142 99.592 225.509 99.492 225.802 99.292 C 226.095 99.092 226.242 98.809 226.242 98.442 C 226.242 97.989 226.045 97.605 225.652 97.292 C 225.259 96.985 224.552 96.575 223.532 96.062 C 222.472 95.555 221.689 94.995 221.182 94.382 C 220.669 93.769 220.412 93.015 220.412 92.122 C 220.412 90.889 220.885 89.982 221.832 89.402 C 222.779 88.829 223.892 88.542 225.172 88.542 ZM 245.186 98.062 C 244.946 97.789 244.536 97.222 243.956 96.362 C 243.369 95.509 242.839 94.725 242.366 94.012 L 241.686 92.942 C 240.846 93.549 240.426 94.689 240.426 96.362 C 240.426 97.329 240.672 98.059 241.166 98.552 C 241.659 99.045 242.259 99.292 242.966 99.292 C 243.826 99.292 244.566 98.882 245.186 98.062 Z M 243.816 84.332 C 243.269 84.332 242.879 84.542 242.646 84.962 C 242.406 85.382 242.286 85.892 242.286 86.492 C 242.286 86.712 242.319 86.949 242.386 87.202 C 242.446 87.462 242.536 87.719 242.656 87.972 C 242.776 88.225 242.879 88.435 242.966 88.602 C 243.059 88.762 243.189 88.975 243.356 89.242 C 243.516 89.509 243.606 89.659 243.626 89.692 C 244.299 89.219 244.792 88.755 245.106 88.302 C 245.412 87.842 245.566 87.239 245.566 86.492 C 245.566 85.985 245.416 85.499 245.116 85.032 C 244.816 84.565 244.382 84.332 243.816 84.332 Z M 240.416 83.992 C 241.356 83.272 242.516 82.902 243.896 82.882 C 245.282 82.869 246.396 83.175 247.236 83.802 C 248.076 84.429 248.496 85.245 248.496 86.252 C 248.496 87.359 248.166 88.295 247.506 89.062 C 246.852 89.829 245.906 90.595 244.666 91.362 C 245.392 92.529 246.406 93.942 247.706 95.602 C 248.666 94.469 249.146 93.822 249.146 93.662 C 249.146 93.475 249.059 93.345 248.886 93.272 C 248.712 93.199 248.509 93.162 248.276 93.162 C 248.036 93.162 247.909 93.162 247.896 93.162 C 247.856 93.015 247.836 92.839 247.836 92.632 C 247.836 92.425 247.862 92.312 247.916 92.292 L 250.736 92.322 C 251.536 92.322 252.549 92.292 253.776 92.232 C 253.862 92.272 253.906 92.429 253.906 92.702 C 253.906 93.049 253.832 93.239 253.686 93.272 C 252.779 93.399 252.169 93.572 251.856 93.792 C 251.749 93.865 251.499 94.132 251.106 94.592 C 250.712 95.045 250.292 95.549 249.846 96.102 C 249.399 96.662 249.076 97.042 248.876 97.242 L 249.016 97.402 C 249.102 97.515 249.182 97.612 249.256 97.692 C 249.329 97.772 249.429 97.872 249.556 97.992 C 249.689 98.112 249.809 98.212 249.916 98.292 C 250.022 98.372 250.156 98.442 250.316 98.502 C 250.469 98.555 250.619 98.582 250.766 98.582 C 251.126 98.582 251.472 98.422 251.806 98.102 C 252.132 97.782 252.386 97.469 252.566 97.162 C 252.692 97.162 252.852 97.239 253.046 97.392 C 253.239 97.545 253.336 97.685 253.336 97.812 C 253.189 98.232 252.746 98.852 252.006 99.672 C 251.266 100.492 250.486 100.902 249.666 100.902 C 249.066 100.902 248.496 100.779 247.956 100.532 C 247.422 100.285 247.036 100.035 246.796 99.782 L 246.446 99.402 C 245.279 100.422 243.802 100.932 242.016 100.932 C 240.556 100.932 239.289 100.559 238.216 99.812 C 237.136 99.065 236.596 97.925 236.596 96.392 C 236.596 95.739 236.719 95.132 236.966 94.572 C 237.212 94.019 237.586 93.509 238.086 93.042 C 238.592 92.575 238.999 92.229 239.306 92.002 C 239.619 91.775 240.049 91.489 240.596 91.142 C 240.536 91.069 240.426 90.892 240.266 90.612 C 240.099 90.325 239.979 90.115 239.906 89.982 C 239.832 89.842 239.729 89.632 239.596 89.352 C 239.456 89.072 239.349 88.829 239.276 88.622 C 239.202 88.422 239.139 88.192 239.086 87.932 C 239.032 87.665 239.006 87.405 239.006 87.152 C 239.006 85.765 239.476 84.712 240.416 83.992 ZM 272.366 99.922 C 272.766 99.922 273.176 99.835 273.596 99.662 C 274.016 99.489 274.226 99.255 274.226 98.962 C 274.226 98.929 273.996 98.319 273.536 97.132 L 272.716 95.132 C 272.643 95.059 272.58 95.022 272.526 95.022 C 272.18 95.009 271.306 95.002 269.906 95.002 C 268.7 95.002 267.776 95.009 267.136 95.022 C 267.063 95.022 267 95.069 266.946 95.162 C 266.946 95.162 266.646 95.855 266.046 97.242 C 265.68 98.062 265.496 98.619 265.496 98.912 C 265.496 99.199 265.663 99.425 265.996 99.592 C 266.323 99.759 266.61 99.855 266.856 99.882 C 267.103 99.909 267.316 99.922 267.496 99.922 C 267.55 99.935 267.576 100.082 267.576 100.362 C 267.576 100.635 267.56 100.825 267.526 100.932 C 267.286 100.912 266.806 100.872 266.086 100.812 C 265.366 100.745 264.78 100.712 264.326 100.712 C 263.866 100.712 263.32 100.745 262.686 100.812 C 262.046 100.872 261.553 100.912 261.206 100.932 C 261.133 100.859 261.096 100.722 261.096 100.522 C 261.096 100.135 261.116 99.942 261.156 99.942 C 261.37 99.942 261.733 99.849 262.246 99.662 C 262.753 99.469 263.073 99.272 263.206 99.072 C 263.353 98.852 263.503 98.582 263.656 98.262 C 263.81 97.942 263.933 97.682 264.026 97.482 L 264.156 97.162 L 270.206 83.272 C 270.406 82.792 270.743 82.552 271.216 82.552 C 271.49 82.552 271.706 82.672 271.866 82.912 L 277.476 96.772 C 277.823 97.612 278.123 98.362 278.376 99.022 C 278.49 99.309 278.79 99.532 279.276 99.692 C 279.77 99.845 280.146 99.922 280.406 99.922 C 280.473 99.922 280.506 100.075 280.506 100.382 C 280.506 100.695 280.49 100.879 280.456 100.932 C 280.383 100.932 279.823 100.895 278.776 100.822 C 277.73 100.749 276.97 100.712 276.496 100.712 C 276.363 100.712 274.986 100.785 272.366 100.932 C 272.293 100.859 272.256 100.672 272.256 100.372 C 272.256 100.072 272.293 99.922 272.366 99.922 Z M 267.876 93.272 C 268.423 93.332 269.1 93.362 269.906 93.362 C 270.633 93.362 271.28 93.342 271.846 93.302 L 271.926 93.162 L 269.956 88.272 L 267.826 93.162 C 267.826 93.235 267.843 93.272 267.876 93.272 ZM 287.732 88.602 C 288.512 88.602 289.246 88.719 289.932 88.952 C 290.612 89.192 291.089 89.415 291.362 89.622 C 291.636 89.835 291.846 90.032 291.992 90.212 C 291.992 91.892 291.502 92.732 290.522 92.732 C 289.809 92.732 289.269 92.275 288.902 91.362 C 288.742 90.942 288.539 90.629 288.292 90.422 C 288.046 90.209 287.702 90.102 287.262 90.102 C 285.802 90.102 285.072 91.469 285.072 94.202 C 285.072 97.282 286.102 98.822 288.162 98.822 C 288.769 98.822 289.346 98.735 289.892 98.562 C 290.439 98.389 290.819 98.235 291.032 98.102 C 291.252 97.962 291.546 97.755 291.912 97.482 C 292.079 97.555 292.162 97.729 292.162 98.002 C 292.162 98.222 292.126 98.405 292.052 98.552 C 291.866 99.005 291.322 99.529 290.422 100.122 C 289.522 100.715 288.506 101.012 287.372 101.012 C 285.626 101.012 284.159 100.399 282.972 99.172 C 281.786 97.939 281.192 96.429 281.192 94.642 C 281.192 92.962 281.826 91.535 283.092 90.362 C 284.359 89.189 285.906 88.602 287.732 88.602 ZM 303.664 88.622 C 304.724 88.622 305.587 89.069 306.254 89.962 C 306.921 90.855 307.254 92.215 307.254 94.042 L 307.254 96.752 C 307.254 97.919 307.317 98.745 307.444 99.232 C 307.477 99.365 307.731 99.512 308.204 99.672 C 308.677 99.839 308.997 99.922 309.164 99.922 C 309.217 99.922 309.251 100.072 309.264 100.372 C 309.271 100.672 309.257 100.859 309.224 100.932 C 309.017 100.912 308.447 100.872 307.514 100.812 C 306.574 100.745 305.894 100.712 305.474 100.712 C 305.034 100.712 304.374 100.745 303.494 100.812 C 302.607 100.872 302.054 100.912 301.834 100.932 C 301.761 100.859 301.724 100.672 301.724 100.372 C 301.724 100.072 301.761 99.922 301.834 99.922 C 302.034 99.922 302.354 99.839 302.794 99.672 C 303.234 99.512 303.471 99.365 303.504 99.232 C 303.631 98.685 303.694 97.995 303.694 97.162 L 303.694 94.692 C 303.694 93.345 303.514 92.385 303.154 91.812 C 302.787 91.239 302.194 90.952 301.374 90.952 C 300.094 90.952 299.454 91.352 299.454 92.152 L 299.454 96.752 C 299.454 97.919 299.521 98.745 299.654 99.232 C 299.687 99.365 299.927 99.512 300.374 99.672 C 300.821 99.839 301.117 99.922 301.264 99.922 C 301.317 99.922 301.347 100.072 301.354 100.372 C 301.367 100.672 301.354 100.859 301.314 100.932 C 301.101 100.912 300.547 100.872 299.654 100.812 C 298.761 100.745 298.104 100.712 297.684 100.712 C 297.244 100.712 296.561 100.745 295.634 100.812 C 294.701 100.872 294.134 100.912 293.934 100.932 C 293.861 100.859 293.824 100.672 293.824 100.372 C 293.824 100.072 293.861 99.922 293.934 99.922 C 294.134 99.922 294.471 99.839 294.944 99.672 C 295.417 99.512 295.674 99.365 295.714 99.232 C 295.841 98.685 295.904 97.995 295.904 97.162 L 295.904 86.302 C 295.904 85.449 295.857 84.792 295.764 84.332 C 295.677 84.039 295.204 83.892 294.344 83.892 L 294.094 83.892 C 293.987 83.892 293.934 83.712 293.934 83.352 C 293.934 83.039 293.987 82.882 294.094 82.882 C 294.661 82.829 295.231 82.755 295.804 82.662 C 296.377 82.575 296.867 82.485 297.274 82.392 C 297.674 82.299 298.034 82.209 298.354 82.122 C 298.667 82.029 298.917 81.955 299.104 81.902 L 299.374 81.822 L 299.434 81.822 C 299.507 81.822 299.581 81.875 299.654 81.982 C 299.721 82.089 299.764 82.189 299.784 82.282 C 299.564 83.102 299.454 84.022 299.454 85.042 L 299.454 90.132 C 299.454 90.259 299.491 90.322 299.564 90.322 C 299.584 90.322 299.631 90.285 299.704 90.212 C 300.104 89.759 300.671 89.382 301.404 89.082 C 302.131 88.775 302.884 88.622 303.664 88.622 ZM 313.02 85.412 C 312.62 85.019 312.42 84.542 312.42 83.982 C 312.42 83.415 312.62 82.935 313.02 82.542 C 313.42 82.149 313.897 81.952 314.45 81.952 C 315.01 81.952 315.487 82.149 315.88 82.542 C 316.267 82.935 316.46 83.415 316.46 83.982 C 316.46 84.542 316.267 85.019 315.88 85.412 C 315.487 85.805 315.01 86.002 314.45 86.002 C 313.897 86.002 313.42 85.805 313.02 85.412 Z M 316.46 91.912 L 316.46 96.752 C 316.46 97.919 316.527 98.745 316.66 99.232 C 316.694 99.365 316.95 99.512 317.43 99.672 C 317.917 99.839 318.234 99.922 318.38 99.922 C 318.454 99.922 318.49 100.072 318.49 100.372 C 318.49 100.672 318.47 100.859 318.43 100.932 C 318.25 100.912 317.687 100.872 316.74 100.812 C 315.794 100.745 315.11 100.712 314.69 100.712 C 314.25 100.712 313.57 100.745 312.65 100.812 C 311.73 100.872 311.16 100.912 310.94 100.932 C 310.887 100.859 310.86 100.672 310.86 100.372 C 310.86 100.072 310.887 99.922 310.94 99.922 C 311.16 99.922 311.504 99.839 311.97 99.672 C 312.43 99.512 312.68 99.365 312.72 99.232 C 312.847 98.685 312.91 97.995 312.91 97.162 L 312.91 93.412 C 312.91 92.392 312.747 91.709 312.42 91.362 C 312.294 91.215 312.107 91.095 311.86 91.002 C 311.614 90.915 311.394 90.852 311.2 90.812 C 311.007 90.779 310.91 90.752 310.91 90.732 C 310.91 90.092 310.957 89.772 311.05 89.772 C 311.417 89.772 312.214 89.649 313.44 89.402 C 314.674 89.155 315.544 88.952 316.05 88.792 C 316.07 88.792 316.127 88.779 316.22 88.752 C 316.307 88.725 316.35 88.712 316.35 88.712 C 316.464 88.712 316.56 88.769 316.64 88.882 C 316.72 89.002 316.76 89.099 316.76 89.172 C 316.747 89.319 316.714 89.592 316.66 89.992 C 316.6 90.392 316.554 90.742 316.52 91.042 C 316.48 91.349 316.46 91.639 316.46 91.912 ZM 325.544 90.102 C 324.83 90.102 324.31 90.445 323.984 91.132 C 323.657 91.812 323.494 92.482 323.494 93.142 C 323.494 93.249 323.557 93.302 323.684 93.302 L 327.154 93.302 C 327.407 93.302 327.534 93.129 327.534 92.782 C 327.534 92.089 327.347 91.469 326.974 90.922 C 326.6 90.375 326.124 90.102 325.544 90.102 Z M 325.674 88.602 C 327.32 88.602 328.64 89.172 329.634 90.312 C 330.627 91.452 331.124 92.612 331.124 93.792 C 331.124 94.212 331.037 94.485 330.864 94.612 C 330.69 94.739 330.347 94.802 329.834 94.802 L 323.654 94.802 C 323.547 94.802 323.494 94.869 323.494 95.002 C 323.494 95.982 323.77 96.865 324.324 97.652 C 324.884 98.432 325.68 98.822 326.714 98.822 C 327.32 98.822 327.897 98.735 328.444 98.562 C 328.99 98.389 329.37 98.235 329.584 98.102 C 329.804 97.962 330.097 97.755 330.464 97.482 C 330.63 97.555 330.714 97.729 330.714 98.002 C 330.714 98.222 330.677 98.405 330.604 98.552 C 330.417 98.992 329.87 99.512 328.964 100.112 C 328.05 100.712 327.027 101.012 325.894 101.012 C 324.22 101.012 322.777 100.402 321.564 99.182 C 320.35 97.962 319.744 96.495 319.744 94.782 C 319.744 93.029 320.29 91.559 321.384 90.372 C 322.477 89.192 323.907 88.602 325.674 88.602 ZM 342.655 90.292 C 342.275 89.912 341.675 89.722 340.855 89.722 C 340.802 89.702 340.775 89.555 340.775 89.282 C 340.775 89.009 340.792 88.819 340.825 88.712 C 341.099 88.725 341.595 88.765 342.315 88.832 C 343.035 88.899 343.595 88.932 343.995 88.932 C 344.435 88.932 344.995 88.899 345.675 88.832 C 346.362 88.765 346.852 88.725 347.145 88.712 C 347.219 88.785 347.255 88.939 347.255 89.172 C 347.255 89.539 347.219 89.722 347.145 89.722 C 346.872 89.722 346.489 89.819 345.995 90.012 C 345.502 90.199 345.165 90.465 344.985 90.812 L 340.165 100.332 C 339.892 100.859 339.619 101.122 339.345 101.122 C 339.132 101.122 338.989 101.049 338.915 100.902 L 334.375 90.682 C 334.229 90.335 333.942 90.089 333.515 89.942 C 333.082 89.795 332.729 89.722 332.455 89.722 C 332.382 89.722 332.345 89.539 332.345 89.172 C 332.345 88.952 332.382 88.799 332.455 88.712 C 332.655 88.725 333.225 88.765 334.165 88.832 C 335.105 88.899 335.785 88.932 336.205 88.932 C 336.659 88.932 337.382 88.895 338.375 88.822 C 339.369 88.749 339.949 88.712 340.115 88.712 C 340.189 88.785 340.225 88.972 340.225 89.272 C 340.225 89.572 340.189 89.722 340.115 89.722 C 339.842 89.722 339.462 89.795 338.975 89.942 C 338.495 90.089 338.255 90.262 338.255 90.462 L 338.305 90.872 L 340.465 96.012 L 342.625 91.472 C 342.905 90.945 342.915 90.552 342.655 90.292 ZM 354.498 90.102 C 353.785 90.102 353.265 90.445 352.938 91.132 C 352.612 91.812 352.448 92.482 352.448 93.142 C 352.448 93.249 352.512 93.302 352.638 93.302 L 356.108 93.302 C 356.362 93.302 356.488 93.129 356.488 92.782 C 356.488 92.089 356.302 91.469 355.928 90.922 C 355.555 90.375 355.078 90.102 354.498 90.102 Z M 354.628 88.602 C 356.275 88.602 357.595 89.172 358.588 90.312 C 359.582 91.452 360.078 92.612 360.078 93.792 C 360.078 94.212 359.992 94.485 359.818 94.612 C 359.645 94.739 359.302 94.802 358.788 94.802 L 352.608 94.802 C 352.502 94.802 352.448 94.869 352.448 95.002 C 352.448 95.982 352.725 96.865 353.278 97.652 C 353.838 98.432 354.635 98.822 355.668 98.822 C 356.275 98.822 356.852 98.735 357.398 98.562 C 357.945 98.389 358.325 98.235 358.538 98.102 C 358.758 97.962 359.052 97.755 359.418 97.482 C 359.585 97.555 359.668 97.729 359.668 98.002 C 359.668 98.222 359.632 98.405 359.558 98.552 C 359.372 98.992 358.825 99.512 357.918 100.112 C 357.005 100.712 355.982 101.012 354.848 101.012 C 353.175 101.012 351.732 100.402 350.518 99.182 C 349.305 97.962 348.698 96.495 348.698 94.782 C 348.698 93.029 349.245 91.559 350.338 90.372 C 351.432 89.192 352.862 88.602 354.628 88.602 ZM 370.25 88.602 C 371.05 88.602 371.833 88.939 372.6 89.612 C 372.6 90.559 372.483 91.259 372.25 91.712 C 372.023 92.172 371.61 92.402 371.01 92.402 C 370.643 92.402 370.223 92.192 369.75 91.772 C 369.277 91.352 368.86 91.142 368.5 91.142 C 367.947 91.142 367.557 91.449 367.33 92.062 C 367.103 92.669 366.99 93.319 366.99 94.012 L 366.99 96.772 C 366.99 97.925 367.053 98.745 367.18 99.232 C 367.22 99.365 367.463 99.512 367.91 99.672 C 368.357 99.839 368.653 99.922 368.8 99.922 C 368.853 99.922 368.883 100.072 368.89 100.372 C 368.903 100.672 368.89 100.859 368.85 100.932 C 368.63 100.912 368.073 100.872 367.18 100.812 C 366.287 100.745 365.63 100.712 365.21 100.712 C 364.777 100.712 364.093 100.745 363.16 100.812 C 362.233 100.872 361.67 100.912 361.47 100.932 C 361.397 100.859 361.36 100.672 361.36 100.372 C 361.36 100.072 361.397 99.922 361.47 99.922 C 361.67 99.922 362.007 99.839 362.48 99.672 C 362.953 99.512 363.21 99.365 363.25 99.232 C 363.377 98.685 363.44 97.995 363.44 97.162 L 363.44 93.412 C 363.44 92.392 363.273 91.709 362.94 91.362 C 362.813 91.215 362.623 91.095 362.37 91.002 C 362.117 90.915 361.897 90.852 361.71 90.812 C 361.53 90.779 361.44 90.752 361.44 90.732 C 361.44 90.092 361.487 89.772 361.58 89.772 C 361.8 89.772 362.163 89.722 362.67 89.622 C 363.183 89.522 363.85 89.382 364.67 89.202 C 365.49 89.022 366.127 88.885 366.58 88.792 C 366.76 88.739 366.86 88.712 366.88 88.712 C 366.973 88.712 367.067 88.769 367.16 88.882 C 367.247 89.002 367.29 89.099 367.29 89.172 C 367.257 89.392 367.23 89.629 367.21 89.882 C 367.19 90.142 367.173 90.305 367.16 90.372 C 368.053 89.192 369.083 88.602 370.25 88.602 ZM 378.804 88.542 C 380.411 88.542 381.594 88.725 382.354 89.092 C 382.541 89.932 382.634 91.062 382.634 92.482 C 382.634 92.649 382.514 92.732 382.274 92.732 C 381.707 92.732 381.407 92.659 381.374 92.512 C 381.207 91.745 380.931 91.142 380.544 90.702 C 380.151 90.269 379.524 90.052 378.664 90.052 C 378.264 90.052 377.937 90.145 377.684 90.332 C 377.424 90.525 377.294 90.805 377.294 91.172 C 377.294 91.592 377.477 91.952 377.844 92.252 C 378.211 92.552 378.751 92.875 379.464 93.222 C 379.951 93.455 380.337 93.655 380.624 93.822 C 380.904 93.989 381.277 94.249 381.744 94.602 C 382.211 94.955 382.557 95.369 382.784 95.842 C 383.011 96.315 383.124 96.845 383.124 97.432 C 383.124 98.632 382.664 99.542 381.744 100.162 C 380.824 100.782 379.651 101.092 378.224 101.092 C 377.591 101.092 376.881 100.992 376.094 100.792 C 375.314 100.592 374.751 100.345 374.404 100.052 C 374.184 98.799 374.074 97.689 374.074 96.722 C 374.147 96.669 374.284 96.642 374.484 96.642 C 375.064 96.642 375.364 96.722 375.384 96.882 C 375.697 98.689 376.681 99.592 378.334 99.592 C 378.774 99.592 379.141 99.492 379.434 99.292 C 379.727 99.092 379.874 98.809 379.874 98.442 C 379.874 97.989 379.677 97.605 379.284 97.292 C 378.891 96.985 378.184 96.575 377.164 96.062 C 376.104 95.555 375.321 94.995 374.814 94.382 C 374.301 93.769 374.044 93.015 374.044 92.122 C 374.044 90.889 374.517 89.982 375.464 89.402 C 376.411 88.829 377.524 88.542 378.804 88.542 Z" transform="matrix(0.6881710290908813, 0, 0, 0.7484750151634216, -27.948509216308594, -14.990883827209473)" style="fill: rgb(202, 255, 248); white-space: pre;"/>
</svg>