<?xml version="1.0" encoding="utf-8"?>
<svg viewBox="0 0 885.183 536.561" xmlns="http://www.w3.org/2000/svg">
  <g transform="matrix(0.136825, 0, 0, -0.132692, 77.572449, 560.872192)" fill="#000000" stroke="none" style="">
    <path d="M2419 4215 c-668 -109 -1180 -595 -1319 -1250 -27 -128 -37 -365 -21 -500 79 -672 577 -1217 1249 -1368 84 -18 128 -21 322 -21 249 -1 324 10 512 75 568 195 980 699 1059 1294 18 142 6 415 -24 545 -29 121 -81 268 -126 358 -223 442 -622 749 -1106 852 -131 28 -419 36 -546 15z m350 -35 c146 -13 241 -33 371 -77 390 -132 705 -408 887 -776 215 -435 214 -922 -3 -1362 -164 -334 -468 -612 -814 -746 -472 -182 -988 -127 -1405 149 -396 263 -641 676 -686 1158 -19 208 13 443 90 651 205 557 719 950 1308 1002 128 12 128 12 252 1z" style="fill: rgb(0, 90, 142);"/>
    <path d="M2463 4149 c-39 -5 -116 -20 -170 -33 -280 -71 -507 -199 -708 -401 -414 -414 -551 -1014 -358 -1568 78 -225 204 -419 379 -587 206 -196 423 -313 715 -386 108 -27 126 -28 329 -28 203 0 221 1 330 28 308 76 540 206 747 417 541 552 582 1406 95 2010 -323 401 -838 609 -1359 548z m-132 -337 c15 -44 37 -58 32 -21 -2 11 7 19 25 22 36 7 38 3 13 -22 -31 -31 -26 -50 19 -69 40 -17 52 -32 26 -32 -8 0 -21 -3 -30 -6 -10 -4 -16 -1 -16 9 0 8 -7 18 -16 21 -24 9 -28 1 -8 -18 9 -9 15 -18 13 -19 -20 -14 -141 -46 -153 -41 -24 9 -19 41 9 66 27 23 25 38 -5 38 -13 0 -17 -5 -14 -15 4 -9 0 -15 -10 -15 -24 0 -19 28 9 46 33 22 54 12 72 -36 16 -39 50 -58 39 -22 -2 9 -12 43 -20 74 -9 31 -22 58 -29 61 -9 3 -9 8 2 21 17 21 22 16 42 -42z m691 41 c23 -20 23 -32 -1 -57 -14 -16 -17 -27 -10 -45 7 -19 12 -21 24 -11 7 6 11 18 8 26 -4 11 0 12 27 2 29 -10 31 -12 14 -21 -41 -22 -54 -39 -43 -58 5 -11 16 -19 24 -19 8 0 15 -4 15 -10 0 -18 -39 -11 -50 9 -8 15 -17 18 -48 14 -28 -4 -43 -1 -55 12 -24 24 -21 62 7 80 17 12 22 22 18 42 -3 18 1 30 13 40 24 17 35 17 57 -4z m-392 -13 c0 -6 8 -5 20 2 15 9 22 10 31 1 16 -16 1 -37 -16 -23 -9 8 -14 6 -19 -6 -11 -28 -7 -84 7 -85 6 0 -3 -5 -22 -10 -31 -9 -61 -2 -33 8 7 3 12 22 12 48 0 25 -5 45 -12 48 -10 4 -9 8 2 16 19 14 30 14 30 1z m155 -3 c11 -9 15 -19 10 -27 -6 -10 -11 -9 -21 4 -7 11 -18 15 -25 10 -9 -5 -3 -15 20 -35 34 -28 38 -54 10 -72 -26 -16 -71 0 -67 24 3 21 23 27 23 7 0 -7 8 -14 18 -16 24 -5 22 25 -3 33 -33 10 -45 43 -24 66 20 22 34 24 59 6z m-245 -17 c29 -29 26 -50 -7 -50 -37 0 -54 -12 -43 -29 5 -9 18 -12 39 -8 35 7 42 -7 12 -23 -29 -15 -49 -12 -71 10 -37 37 -13 120 35 120 8 0 24 -9 35 -20z m-435 -70 c-8 -13 73 -128 94 -132 11 -3 7 -9 -15 -21 -32 -16 -32 -16 -38 11 -3 15 -15 38 -26 52 -18 21 -21 22 -16 5 12 -47 18 -115 10 -115 -5 0 -20 9 -34 21 -14 11 -38 29 -54 41 l-29 22 24 -43 c13 -24 30 -46 37 -48 19 -8 14 -19 -13 -31 -22 -10 -25 -9 -25 8 0 29 -58 140 -72 140 -8 0 -6 6 4 17 16 15 21 13 78 -31 33 -26 60 -43 60 -38 0 5 -5 34 -11 65 -13 62 -8 87 16 87 9 0 13 -5 10 -10z m1172 -100 c-1 -60 -3 -110 -4 -110 -1 0 -18 10 -39 22 -34 20 -35 22 -15 29 28 11 27 33 -3 49 -33 17 -59 7 -51 -21 7 -20 6 -20 -25 -4 l-32 17 28 18 c16 10 54 39 84 64 30 25 56 46 57 46 1 0 1 -49 0 -110z m138 -56 c19 -19 15 -38 -9 -42 -14 -3 -17 1 -11 17 10 31 -30 28 -51 -4 -19 -29 -12 -55 16 -62 11 -3 17 -9 14 -14 -3 -5 1 -9 8 -9 19 0 108 92 108 112 0 20 8 22 29 9 12 -8 9 -15 -13 -41 l-27 -33 23 -11 c34 -17 34 -49 0 -88 -16 -18 -27 -39 -25 -45 8 -21 -12 -15 -37 12 -21 23 -22 25 -5 25 24 0 65 38 65 61 0 9 -9 19 -19 22 -22 6 -61 -30 -61 -56 0 -9 -3 -17 -6 -17 -6 0 -49 33 -96 75 -24 20 -23 46 3 79 24 30 69 35 94 10z m-588 -70 c312 -64 564 -283 667 -580 35 -100 49 -185 49 -304 -1 -403 -277 -754 -672 -857 -129 -33 -297 -35 -424 -4 -651 157 -905 923 -480 1446 120 147 303 256 504 300 88 19 263 18 356 -1z m-915 -29 c16 -14 39 -25 51 -25 20 0 20 0 -3 -25 -13 -14 -28 -25 -33 -25 -6 0 -7 3 -4 7 9 9 -43 63 -60 63 -8 0 -16 -7 -20 -16 -7 -19 44 -75 63 -67 22 8 16 -11 -11 -37 -23 -21 -25 -22 -25 -5 0 24 -38 65 -61 65 -9 0 -20 -7 -23 -17 -8 -20 30 -63 56 -63 24 0 23 -13 -3 -36 -12 -10 -25 -28 -30 -39 -25 -55 -47 -80 -70 -80 -22 0 -24 4 -24 45 0 33 -4 45 -15 45 -9 0 -15 -9 -15 -22 0 -28 -13 -40 -21 -19 -10 25 4 64 26 71 12 4 33 -3 57 -19 38 -26 63 -22 63 12 0 22 -40 62 -62 62 -20 0 -21 1 -12 24 3 9 12 16 19 16 7 0 15 9 18 21 3 11 15 23 26 26 12 3 21 11 21 18 0 18 28 45 47 45 8 0 28 -11 45 -25z m1728 -60 c0 -8 -7 -15 -15 -15 -8 0 -15 7 -15 15 0 8 7 15 15 15 8 0 15 -7 15 -15z m-56 -11 c24 -9 20 -21 -19 -55 -19 -17 -35 -37 -35 -45 0 -22 -16 -17 -34 11 -15 23 -15 25 1 25 20 0 63 38 63 57 0 15 2 15 24 7z m74 -90 c27 -19 29 -55 3 -78 -18 -17 -20 -16 -37 13 -10 17 -23 30 -29 28 -18 -6 -17 -38 1 -58 15 -17 15 -19 1 -19 -23 0 -50 45 -44 72 6 22 50 57 72 58 6 0 21 -7 33 -16z m70 -109 c14 -31 15 -38 4 -31 -5 3 -21 -7 -36 -23 l-26 -28 32 5 c18 3 36 10 40 16 5 7 12 4 22 -9 9 -11 15 -22 16 -25 0 -3 -34 -6 -75 -8 -51 -1 -75 2 -75 9 0 6 16 29 35 50 19 22 35 46 35 54 0 23 16 18 28 -10z m-2060 -34 c12 -7 11 -14 -2 -39 -20 -40 -20 -42 4 -42 14 0 25 11 34 31 10 24 15 27 19 15 4 -9 2 -27 -3 -40 -15 -41 -62 -48 -104 -15 -32 25 -34 62 -4 83 25 18 37 19 56 7z m-78 -116 c0 -8 -5 -15 -11 -15 -20 0 3 -22 39 -37 28 -12 36 -12 43 -2 14 24 19 3 7 -29 -12 -31 -28 -43 -28 -21 0 14 -66 40 -84 33 -11 -4 -16 0 -16 15 0 12 5 21 10 21 6 0 10 6 9 13 -3 26 2 37 16 37 8 0 15 -7 15 -15z m2205 -2 c10 -10 15 -26 12 -41 -3 -16 2 -33 15 -46 11 -13 15 -22 8 -24 -7 -3 -5 -11 6 -23 13 -14 14 -23 7 -30 -15 -15 -34 -2 -26 16 3 11 -2 15 -18 15 -40 0 -69 -12 -69 -26 0 -8 -4 -14 -10 -14 -9 0 -12 11 -14 58 -1 9 -7 23 -13 30 -21 22 -16 69 9 86 29 21 72 20 93 -1z m-2183 -143 c19 -23 22 -56 12 -109 -6 -28 -8 -30 -23 -17 -20 17 -124 39 -150 31 -18 -5 -18 -3 -9 37 5 24 19 54 31 66 19 21 29 23 71 19 36 -3 55 -11 68 -27z m2166 -78 c2 -7 -3 -12 -12 -12 -18 0 -22 -25 -6 -35 5 -3 17 10 27 29 12 26 23 36 40 36 26 0 43 -31 35 -62 -5 -22 -32 -24 -32 -3 0 8 4 15 10 15 5 0 7 7 4 15 -5 12 -10 13 -20 4 -8 -6 -14 -16 -14 -22 0 -13 -30 -47 -41 -47 -16 0 -39 32 -39 54 0 38 37 60 48 28z m-713 -1167 c14 -13 25 -30 25 -38 0 -23 -40 -67 -60 -67 -30 0 -62 34 -62 65 0 30 32 65 59 65 7 0 25 -11 38 -25z m-737 -29 c12 -23 11 -31 -3 -52 -20 -30 -37 -38 -68 -30 -51 12 -54 96 -5 115 32 12 61 -1 76 -33z m386 -42 c37 -36 7 -104 -45 -104 -30 0 -59 31 -59 64 0 48 70 75 104 40z" style="fill: rgb(0, 90, 142);"/>
    <path d="M2262 3688 c-16 -16 -15 -28 2 -28 19 0 27 13 17 28 -5 9 -10 9 -19 0z" style="fill: rgb(0, 90, 142);"/>
    <path d="M2987 3844 c-11 -11 -8 -44 3 -44 15 0 24 30 13 41 -5 5 -12 6 -16 3z" style="fill: rgb(0, 90, 142);"/>
    <path d="M2950 3755 c-19 -23 -8 -50 23 -53 30 -4 33 4 15 43 -13 29 -21 31 -38 10z" style="fill: rgb(0, 90, 142);"/>
    <path d="M2487 3813 c-16 -16 -6 -30 18 -25 20 3 23 7 14 18 -13 15 -22 17 -32 7z" style="fill: rgb(0, 90, 142);"/>
    <path d="M3225 3691 c-16 -19 -17 -24 -5 -31 19 -12 33 2 28 30 l-3 22 -20 -21z" style="fill: rgb(0, 90, 142);"/>
    <path d="M2585 3275 c-33 -7 -75 -18 -93 -23 -192 -61 -321 -235 -322 -434 0 -45 -7 -69 -31 -115 -18 -32 -35 -62 -39 -68 -4 -5 -11 -24 -15 -42 -7 -35 16 -97 40 -107 8 -3 16 -30 20 -70 4 -37 11 -69 16 -72 5 -3 9 -33 9 -68 0 -52 4 -66 23 -83 41 -37 82 -46 173 -40 72 5 84 4 84 -9 0 -9 7 -40 16 -70 12 -42 20 -54 35 -54 11 0 22 6 25 13 5 13 -32 166 -43 177 -2 3 -56 5 -119 5 -130 0 -138 5 -128 68 4 27 1 45 -11 63 -9 14 -15 35 -12 45 3 10 1 22 -5 25 -6 4 -8 23 -4 43 6 42 0 56 -32 65 -46 15 -45 38 5 133 42 79 48 97 54 174 14 184 115 311 296 370 80 27 239 26 313 -1 225 -82 365 -336 306 -556 -33 -124 -131 -244 -241 -298 -33 -16 -63 -34 -67 -40 -9 -12 -5 -36 19 -136 23 -96 32 -110 62 -91 12 8 11 21 -2 88 -9 44 -19 86 -22 94 -3 9 13 23 52 44 66 34 160 123 196 187 47 80 69 165 70 263 0 50 -6 110 -13 135 -55 200 -215 346 -423 385 -91 17 -110 17 -192 0z" style="fill: rgb(0, 90, 142);"/>
    <path d="M2664 3126 c-9 -22 0 -69 13 -73 15 -5 27 38 18 66 -7 24 -23 27 -31 7z" style="fill: rgb(0, 90, 142);"/>
    <path d="M2480 3085 c0 -2 8 -20 17 -40 16 -33 43 -48 43 -25 0 22 -31 70 -45 70 -8 0 -15 -2 -15 -5z" style="fill: rgb(0, 90, 142);"/>
    <path d="M2836 3065 c-19 -29 -21 -55 -3 -55 11 0 47 58 47 75 0 15 -30 1 -44 -20z" style="fill: rgb(0, 90, 142);"/>
    <path d="M2625 2994 c-66 -17 -126 -67 -161 -134 -25 -48 -25 -153 0 -200 77 -148 263 -183 379 -72 54 52 72 95 72 172 0 40 -6 78 -17 100 -18 37 -79 100 -115 119 -25 13 -128 22 -158 15z m160 -82 c56 -39 78 -82 78 -153 -1 -70 -27 -118 -85 -156 -52 -35 -138 -37 -191 -4 -73 45 -109 129 -87 205 36 129 178 183 285 108z" style="fill: rgb(0, 90, 142);"/>
    <path d="M2350 2945 c0 -14 48 -45 70 -45 23 0 8 27 -25 43 -43 21 -45 21 -45 2z" style="fill: rgb(0, 90, 142);"/>
    <path d="M2963 2943 c-31 -16 -45 -43 -23 -43 22 0 70 31 70 45 0 18 -6 18 -47 -2z" style="fill: rgb(0, 90, 142);"/>
    <path d="M2307 2774 c-16 -17 -4 -24 39 -24 32 0 44 4 42 13 -5 13 -69 22 -81 11z" style="fill: rgb(0, 90, 142);"/>
    <path d="M2977 2774 c-16 -17 -4 -24 39 -24 32 0 44 4 42 13 -5 13 -69 22 -81 11z" style="fill: rgb(0, 90, 142);"/>
    <path d="M2373 2603 c-20 -13 -32 -43 -18 -43 17 0 75 36 75 47 0 17 -30 16 -57 -4z" style="fill: rgb(0, 90, 142);"/>
    <path d="M2930 2607 c0 -11 58 -47 75 -47 15 0 1 30 -20 44 -29 19 -55 21 -55 3z" style="fill: rgb(0, 90, 142);"/>
    <path d="M2497 2475 c-21 -43 -21 -45 -2 -45 14 0 45 48 45 70 0 23 -27 8 -43 -25z" style="fill: rgb(0, 90, 142);"/>
    <path d="M2820 2495 c0 -23 30 -65 46 -65 18 0 18 2 -3 45 -17 36 -43 48 -43 20z" style="fill: rgb(0, 90, 142);"/>
    <path d="M2664 2456 c-9 -22 0 -69 13 -73 15 -5 27 38 18 66 -7 24 -23 27 -31 7z" style="fill: rgb(0, 90, 142);"/>
    <path d="M1735 3250 c-7 -12 2 -30 16 -30 5 0 9 9 9 20 0 21 -15 27 -25 10z" style="fill: rgb(0, 90, 142);"/>
    <path d="M3620 3311 c0 -5 6 -14 14 -20 16 -13 32 2 21 19 -8 12 -35 13 -35 1z" style="fill: rgb(0, 90, 142);"/>
    <path d="M1615 3160 c-7 -11 2 -30 14 -30 5 0 11 9 14 20 5 21 -16 29 -28 10z" style="fill: rgb(0, 90, 142);"/>
    <path d="M3757 3050 c7 -28 22 -35 30 -15 3 10 0 21 -8 26 -22 14 -28 11 -22 -11z" style="fill: rgb(0, 90, 142);"/>
    <path d="M3710 3045 c-11 -13 -10 -21 0 -43 8 -15 13 -31 11 -36 -1 -5 12 -6 30 -2 17 3 35 6 40 6 5 0 9 7 9 16 0 11 -6 14 -20 9 -17 -5 -23 0 -35 29 -17 41 -18 41 -35 21z" style="fill: rgb(0, 90, 142);"/>
    <path d="M1488 2918 c-22 -19 -29 -45 -13 -52 7 -2 41 -8 74 -12 61 -7 61 -6 61 19 0 47 -82 77 -122 45z" style="fill: rgb(0, 90, 142);"/>
    <path d="M3001 1666 c-15 -17 1 -56 23 -56 23 0 41 30 29 48 -14 23 -37 26 -52 8z" style="fill: rgb(0, 90, 142);"/>
    <path d="M2255 1654 c-18 -19 -16 -33 7 -48 12 -7 21 -6 32 3 22 18 20 38 -3 51 -15 7 -24 6 -36 -6z" style="fill: rgb(0, 90, 142);"/>
    <path d="M2644 1585 c-10 -25 4 -47 28 -43 17 2 24 11 26 31 3 23 0 27 -23 27 -14 0 -28 -7 -31 -15z" style="fill: rgb(0, 90, 142);"/>
  </g>
  <rect y="427.259" width="875.183" height="100.762" style="stroke-width: 6px; stroke: rgb(0, 88, 141); fill: rgba(255, 255, 255, 0.47);" x="5"/>
  <path d="M 121.715 400.41 C 121.715 398.417 122.582 396.85 124.315 395.71 C 126.055 394.57 128.055 394 130.315 394 C 133.208 394 135.745 394.83 137.925 396.49 C 139.012 397.33 139.852 398.447 140.445 399.84 C 141.045 401.227 141.345 402.76 141.345 404.44 C 141.345 407.747 140.402 410.437 138.515 412.51 C 136.555 414.617 134.102 415.67 131.155 415.67 C 130.502 415.67 129.808 415.587 129.075 415.42 C 128.348 415.253 127.772 415.03 127.345 414.75 C 126.652 415.27 125.768 415.53 124.695 415.53 C 123.622 415.53 122.788 415.233 122.195 414.64 C 121.595 414.04 121.295 413.273 121.295 412.34 C 121.295 410.14 122.965 408.263 126.305 406.71 C 126.398 405.93 126.535 404.87 126.715 403.53 C 126.888 402.197 127.028 401.12 127.135 400.3 C 127.235 399.48 127.305 398.94 127.345 398.68 C 128.112 398.193 128.998 397.95 130.005 397.95 C 130.472 397.95 130.918 397.997 131.345 398.09 L 129.585 410.04 C 129.418 411.107 129.185 411.993 128.885 412.7 C 129.465 412.853 129.932 412.93 130.285 412.93 C 132.432 412.93 134.092 412.117 135.265 410.49 C 136.478 408.79 137.085 406.737 137.085 404.33 C 137.085 401.25 135.975 399.04 133.755 397.7 C 132.522 396.953 131.168 396.58 129.695 396.58 C 127.808 396.58 126.315 397.093 125.215 398.12 C 124.582 398.693 124.265 399.393 124.265 400.22 C 124.265 400.647 124.395 401.05 124.655 401.43 C 124.915 401.817 125.372 402.037 126.025 402.09 L 125.745 403.91 C 124.385 403.837 123.372 403.46 122.705 402.78 C 122.045 402.1 121.715 401.31 121.715 400.41 Z M 123.365 411.98 C 123.365 412.647 123.682 412.98 124.315 412.98 C 124.582 412.98 124.858 412.81 125.145 412.47 C 125.432 412.123 125.632 411.577 125.745 410.83 L 125.995 409.09 C 124.242 410.083 123.365 411.047 123.365 411.98 ZM 150.562 405.62 C 150.562 404.8 150.186 404.39 149.432 404.39 C 148.679 404.39 148.076 404.873 147.622 405.84 C 149.642 407.427 150.652 409.21 150.652 411.19 C 150.652 412.63 150.249 413.723 149.442 414.47 C 148.642 415.217 147.636 415.59 146.422 415.59 C 145.209 415.59 144.322 415.21 143.762 414.45 C 143.202 413.697 142.922 412.74 142.922 411.58 C 142.922 411.227 142.932 410.967 142.952 410.8 L 143.932 402.26 C 144.606 402.053 145.286 401.95 145.972 401.95 C 147.112 401.95 147.682 402.37 147.682 403.21 L 147.682 403.27 C 148.429 402.39 149.382 401.95 150.542 401.95 C 151.382 401.95 152.036 402.143 152.502 402.53 C 152.969 402.91 153.202 403.417 153.202 404.05 C 153.202 404.683 152.962 405.203 152.482 405.61 C 152.009 406.01 151.389 406.21 150.622 406.21 C 150.582 406.21 150.546 406.21 150.512 406.21 C 150.546 406.003 150.562 405.807 150.562 405.62 Z M 148.832 411.05 C 148.832 409.97 148.272 408.887 147.152 407.8 C 146.812 410.493 146.642 411.847 146.642 411.86 C 146.642 412.647 146.962 413.04 147.602 413.04 C 148.422 413.04 148.832 412.377 148.832 411.05 ZM 159.146 409.15 C 160.306 408.903 161.169 408.437 161.736 407.75 C 162.309 407.057 162.596 406.39 162.596 405.75 C 162.596 405.103 162.423 404.663 162.076 404.43 C 161.729 404.197 161.349 404.08 160.936 404.08 C 160.063 404.08 159.293 404.57 158.626 405.55 C 157.966 406.53 157.636 407.697 157.636 409.05 C 157.636 410.403 157.959 411.41 158.606 412.07 C 159.246 412.737 160.043 413.07 160.996 413.07 C 162.396 413.07 163.739 412.583 165.026 411.61 C 166.313 410.643 167.359 409.373 168.166 407.8 C 168.573 408.193 168.946 408.68 169.286 409.26 C 168.666 410.66 167.573 412.033 166.006 413.38 C 165.226 414.033 164.299 414.563 163.226 414.97 C 162.153 415.383 161.046 415.59 159.906 415.59 C 158.039 415.59 156.563 415.02 155.476 413.88 C 154.323 412.647 153.746 411.07 153.746 409.15 C 153.746 407.223 154.469 405.543 155.916 404.11 C 157.363 402.67 159.093 401.95 161.106 401.95 C 162.546 401.95 163.713 402.263 164.606 402.89 C 165.506 403.517 165.963 404.36 165.976 405.42 C 165.976 406.86 165.403 408.027 164.256 408.92 C 163.109 409.82 161.536 410.447 159.536 410.8 L 159.146 409.15 ZM 179.541 415.56 C 177.828 415.56 176.691 414.963 176.131 413.77 C 175.158 414.983 173.911 415.59 172.391 415.59 C 170.871 415.59 169.591 415.077 168.551 414.05 C 167.518 413.023 167.001 411.67 167.001 409.99 C 167.001 407.543 167.721 405.593 169.161 404.14 C 170.594 402.68 172.414 401.95 174.621 401.95 C 174.674 401.95 174.728 401.95 174.781 401.95 C 175.714 401.95 176.574 402.11 177.361 402.43 C 177.868 402.11 178.478 401.95 179.191 401.95 C 179.911 401.95 180.431 402.043 180.751 402.23 C 180.584 403.61 180.408 404.97 180.221 406.31 C 180.034 407.643 179.901 408.59 179.821 409.15 C 179.654 410.417 179.571 411.33 179.571 411.89 C 179.571 412.637 179.871 413.01 180.471 413.01 C 180.938 413.01 181.431 412.697 181.951 412.07 C 182.478 411.45 182.934 410.467 183.321 409.12 C 183.868 409.607 184.241 410.147 184.441 410.74 C 183.901 412.513 183.174 413.76 182.261 414.48 C 181.348 415.2 180.441 415.56 179.541 415.56 Z M 175.041 404.14 C 173.841 404.14 172.891 404.59 172.191 405.49 C 171.491 406.397 171.078 407.747 170.951 409.54 C 170.931 409.707 170.921 409.867 170.921 410.02 C 170.921 410.933 171.141 411.66 171.581 412.2 C 172.021 412.74 172.584 413.01 173.271 413.01 C 174.451 413.01 175.338 412.18 175.931 410.52 L 176.601 404.47 C 176.061 404.25 175.541 404.14 175.041 404.14 ZM 194.032 415.42 L 190.422 415.42 L 191.482 406.12 C 191.482 405.6 191.358 405.167 191.112 404.82 C 190.858 404.473 190.415 404.3 189.782 404.3 C 189.142 404.3 188.618 404.603 188.212 405.21 C 187.798 405.817 187.535 406.457 187.422 407.13 C 186.768 411.777 186.405 414.54 186.332 415.42 L 182.582 415.42 L 184.122 402.26 C 184.908 402.053 185.505 401.95 185.912 401.95 C 187.092 401.95 187.735 402.343 187.842 403.13 C 188.762 402.343 189.762 401.95 190.842 401.95 C 193.008 401.95 194.388 402.593 194.982 403.88 C 195.902 402.573 197.208 401.92 198.902 401.92 C 200.155 401.92 201.145 402.243 201.872 402.89 C 202.598 403.537 202.962 404.343 202.962 405.31 C 202.962 405.59 202.908 406.087 202.802 406.8 C 202.368 409.6 202.152 411.24 202.152 411.72 C 202.152 412.6 202.442 413.04 203.022 413.04 C 203.508 413.04 204.025 412.717 204.572 412.07 C 205.125 411.43 205.568 410.437 205.902 409.09 C 206.542 409.763 206.925 410.297 207.052 410.69 C 206.085 413.937 204.368 415.56 201.902 415.56 C 200.742 415.56 199.882 415.207 199.322 414.5 C 198.762 413.787 198.482 413.04 198.482 412.26 L 199.162 406.07 C 199.162 405.563 199.028 405.143 198.762 404.81 C 198.502 404.47 198.088 404.3 197.522 404.3 C 196.948 404.3 196.448 404.517 196.022 404.95 C 195.595 405.377 195.295 405.927 195.122 406.6 C 194.562 411.34 194.198 414.28 194.032 415.42 ZM 228.947 394.45 L 228.947 394.31 C 229.341 394.157 229.891 394.08 230.597 394.08 C 231.311 394.08 231.947 394.127 232.507 394.22 C 231.927 398.513 231.474 402.403 231.147 405.89 C 230.821 409.37 230.644 411.203 230.617 411.39 C 230.584 411.577 230.567 411.743 230.567 411.89 C 230.587 412.377 230.821 412.62 231.267 412.62 C 232.387 412.62 233.947 411.333 235.947 408.76 C 236.301 409.747 236.507 410.407 236.567 410.74 C 235.667 412.16 234.587 413.323 233.327 414.23 C 232.067 415.137 230.877 415.59 229.757 415.59 C 228.637 415.59 227.864 415.3 227.437 414.72 C 227.004 414.14 226.787 413.497 226.787 412.79 C 226.787 412.623 226.811 412.297 226.857 411.81 C 226.904 411.323 227.274 408.3 227.967 402.74 L 223.377 413.35 L 220.997 413.35 L 219.627 402.9 L 217.667 411.58 C 217.347 412.967 216.827 413.987 216.107 414.64 C 215.387 415.293 214.601 415.62 213.747 415.62 C 212.887 415.62 212.187 415.367 211.647 414.86 C 211.067 414.32 210.777 413.553 210.777 412.56 C 210.777 410.587 212.307 408.9 215.367 407.5 C 217.027 399.527 217.924 395.11 218.057 394.25 C 218.504 394.137 219.104 394.08 219.857 394.08 C 220.617 394.08 221.137 394.1 221.417 394.14 L 221.607 394.14 L 223.347 407.16 L 228.947 394.45 Z M 212.767 412.09 C 212.767 412.683 213.001 412.98 213.467 412.98 C 213.781 412.98 214.041 412.73 214.247 412.23 C 214.507 411.61 214.721 410.797 214.887 409.79 C 213.474 410.597 212.767 411.363 212.767 412.09 ZM 246.622 415.56 C 244.909 415.56 243.772 414.963 243.212 413.77 C 242.239 414.983 240.992 415.59 239.472 415.59 C 237.952 415.59 236.672 415.077 235.632 414.05 C 234.599 413.023 234.082 411.67 234.082 409.99 C 234.082 407.543 234.802 405.593 236.242 404.14 C 237.676 402.68 239.496 401.95 241.702 401.95 C 241.756 401.95 241.809 401.95 241.862 401.95 C 242.796 401.95 243.656 402.11 244.442 402.43 C 244.949 402.11 245.559 401.95 246.272 401.95 C 246.992 401.95 247.512 402.043 247.832 402.23 C 247.666 403.61 247.489 404.97 247.302 406.31 C 247.116 407.643 246.982 408.59 246.902 409.15 C 246.736 410.417 246.652 411.33 246.652 411.89 C 246.652 412.637 246.952 413.01 247.552 413.01 C 248.019 413.01 248.512 412.697 249.032 412.07 C 249.559 411.45 250.016 410.467 250.402 409.12 C 250.949 409.607 251.322 410.147 251.522 410.74 C 250.982 412.513 250.256 413.76 249.342 414.48 C 248.429 415.2 247.522 415.56 246.622 415.56 Z M 242.122 404.14 C 240.922 404.14 239.972 404.59 239.272 405.49 C 238.572 406.397 238.159 407.747 238.032 409.54 C 238.012 409.707 238.002 409.867 238.002 410.02 C 238.002 410.933 238.222 411.66 238.662 412.2 C 239.102 412.74 239.666 413.01 240.352 413.01 C 241.532 413.01 242.419 412.18 243.012 410.52 L 243.682 404.47 C 243.142 404.25 242.622 404.14 242.122 404.14 ZM 262.293 405.34 C 262.293 407.28 261.136 408.763 258.823 409.79 C 258.876 410.13 258.959 410.533 259.073 411 C 259.406 412.38 259.966 413.087 260.753 413.12 C 260.806 413.12 260.863 413.12 260.923 413.12 C 262.416 413.12 263.526 411.807 264.253 409.18 C 264.646 409.533 265.019 410.063 265.373 410.77 C 265.113 411.777 264.743 412.627 264.263 413.32 C 263.789 414.013 263.273 414.507 262.713 414.8 C 261.719 415.327 260.786 415.59 259.913 415.59 C 257.859 415.59 256.423 414.44 255.603 412.14 C 255.283 411.227 255.066 410.293 254.953 409.34 C 256.019 409.08 256.859 408.647 257.473 408.04 C 258.093 407.433 258.403 406.787 258.403 406.1 C 258.403 404.9 257.803 404.3 256.603 404.3 C 255.949 404.3 255.389 404.55 254.923 405.05 C 254.456 405.543 254.149 406.133 254.003 406.82 C 253.889 407.773 253.706 409.273 253.453 411.32 C 253.206 413.36 253.043 414.727 252.963 415.42 L 249.243 415.42 C 250.589 403.98 251.403 396.953 251.683 394.34 C 252.069 394.187 252.599 394.11 253.273 394.11 C 254.733 394.11 255.463 394.54 255.463 395.4 L 255.463 395.57 C 255.089 398.95 254.743 401.533 254.423 403.32 C 255.449 402.373 256.736 401.9 258.283 401.9 C 259.443 401.9 260.399 402.197 261.153 402.79 C 261.913 403.39 262.293 404.24 262.293 405.34 ZM 268.798 409.15 C 269.958 408.903 270.821 408.437 271.388 407.75 C 271.961 407.057 272.248 406.39 272.248 405.75 C 272.248 405.103 272.074 404.663 271.728 404.43 C 271.381 404.197 271.001 404.08 270.588 404.08 C 269.714 404.08 268.944 404.57 268.278 405.55 C 267.618 406.53 267.288 407.697 267.288 409.05 C 267.288 410.403 267.611 411.41 268.258 412.07 C 268.898 412.737 269.694 413.07 270.648 413.07 C 272.048 413.07 273.391 412.583 274.678 411.61 C 275.964 410.643 277.011 409.373 277.818 407.8 C 278.224 408.193 278.598 408.68 278.938 409.26 C 278.318 410.66 277.224 412.033 275.658 413.38 C 274.878 414.033 273.951 414.563 272.878 414.97 C 271.804 415.383 270.698 415.59 269.558 415.59 C 267.691 415.59 266.214 415.02 265.128 413.88 C 263.974 412.647 263.398 411.07 263.398 409.15 C 263.398 407.223 264.121 405.543 265.568 404.11 C 267.014 402.67 268.744 401.95 270.758 401.95 C 272.198 401.95 273.364 402.263 274.258 402.89 C 275.158 403.517 275.614 404.36 275.628 405.42 C 275.628 406.86 275.054 408.027 273.908 408.92 C 272.761 409.82 271.188 410.447 269.188 410.8 L 268.798 409.15 ZM 284.993 405.62 C 284.993 404.8 284.616 404.39 283.863 404.39 C 283.109 404.39 282.506 404.873 282.053 405.84 C 284.073 407.427 285.083 409.21 285.083 411.19 C 285.083 412.63 284.679 413.723 283.873 414.47 C 283.073 415.217 282.066 415.59 280.853 415.59 C 279.639 415.59 278.753 415.21 278.193 414.45 C 277.633 413.697 277.353 412.74 277.353 411.58 C 277.353 411.227 277.363 410.967 277.383 410.8 L 278.363 402.26 C 279.036 402.053 279.716 401.95 280.403 401.95 C 281.543 401.95 282.113 402.37 282.113 403.21 L 282.113 403.27 C 282.859 402.39 283.813 401.95 284.973 401.95 C 285.813 401.95 286.466 402.143 286.933 402.53 C 287.399 402.91 287.633 403.417 287.633 404.05 C 287.633 404.683 287.393 405.203 286.913 405.61 C 286.439 406.01 285.819 406.21 285.053 406.21 C 285.013 406.21 284.976 406.21 284.943 406.21 C 284.976 406.003 284.993 405.807 284.993 405.62 Z M 283.263 411.05 C 283.263 409.97 282.703 408.887 281.583 407.8 C 281.243 410.493 281.073 411.847 281.073 411.86 C 281.073 412.647 281.393 413.04 282.033 413.04 C 282.853 413.04 283.263 412.377 283.263 411.05 ZM 300.046 406.85 C 301.52 407.937 302.256 409.217 302.256 410.69 C 302.256 412.163 301.68 413.347 300.526 414.24 C 299.366 415.14 297.91 415.59 296.156 415.59 C 295.016 415.59 294.07 415.303 293.316 414.73 C 292.556 414.163 292.176 413.46 292.176 412.62 C 292.176 411.78 292.456 411.113 293.016 410.62 C 293.576 410.127 294.276 409.823 295.116 409.71 C 294.723 410.27 294.526 410.807 294.526 411.32 C 294.526 411.833 294.706 412.247 295.066 412.56 C 295.42 412.88 295.866 413.04 296.406 413.04 C 296.946 413.04 297.393 412.84 297.746 412.44 C 298.106 412.04 298.286 411.577 298.286 411.05 C 298.286 410.19 297.883 409.427 297.076 408.76 C 296.59 408.367 296.066 407.997 295.506 407.65 C 294.946 407.303 294.65 407.12 294.616 407.1 C 294.543 407.047 294.466 407 294.386 406.96 C 294.053 407.353 293.57 407.89 292.936 408.57 C 292.303 409.257 291.8 409.803 291.426 410.21 C 290.38 411.35 289.79 412.303 289.656 413.07 C 289.623 413.217 289.606 413.5 289.606 413.92 C 289.606 414.34 289.73 414.773 289.976 415.22 C 290.23 415.673 290.533 416.01 290.886 416.23 C 291.246 416.457 291.596 416.64 291.936 416.78 C 292.283 416.92 292.583 417.017 292.836 417.07 C 293.09 417.13 293.216 417.167 293.216 417.18 C 293.216 417.313 293.01 417.463 292.596 417.63 C 291.83 417.91 291.033 418.05 290.206 418.05 C 289.373 418.05 288.566 417.753 287.786 417.16 C 286.72 416.333 286.186 415.24 286.186 413.88 C 286.186 413.04 286.4 412.21 286.826 411.39 C 287.593 409.93 289.386 407.933 292.206 405.4 C 291.513 404.707 291.166 403.967 291.166 403.18 C 291.166 402.4 291.463 401.74 292.056 401.2 C 292.643 400.653 293.336 400.38 294.136 400.38 C 294.863 400.38 295.5 400.67 296.046 401.25 C 296.4 401.643 296.576 402.14 296.576 402.74 C 296.576 403.333 296.38 404.003 295.986 404.75 C 297.986 405.65 299.34 406.35 300.046 406.85 Z M 293.966 403.69 C 294.42 403.223 294.646 402.887 294.646 402.68 C 294.646 402.213 294.44 401.96 294.026 401.92 C 293.56 401.92 293.326 402.183 293.326 402.71 C 293.326 403.023 293.54 403.35 293.966 403.69 ZM 320.822 415.78 C 320.822 415.333 320.708 414.72 320.482 413.94 C 318.822 415.093 317.072 415.67 315.232 415.67 C 313.398 415.67 311.958 415.153 310.912 414.12 C 309.865 413.08 309.342 411.853 309.342 410.44 C 309.342 408.907 309.835 407.56 310.822 406.4 C 311.568 405.547 312.792 404.613 314.492 403.6 C 313.618 401.907 313.182 400.387 313.182 399.04 C 313.182 397.693 313.685 396.523 314.692 395.53 C 315.698 394.53 317.098 394.03 318.892 394.03 C 320.138 394.03 321.158 394.357 321.952 395.01 C 322.745 395.663 323.142 396.483 323.142 397.47 C 323.142 399.357 321.798 401.393 319.112 403.58 C 319.298 403.873 319.802 404.61 320.622 405.79 C 321.448 406.963 322.065 407.887 322.472 408.56 C 322.845 407.793 323.032 407.093 323.032 406.46 C 323.032 405.173 322.602 404.51 321.742 404.47 C 321.742 404.343 321.788 404.13 321.882 403.83 C 321.975 403.53 322.088 403.287 322.222 403.1 C 322.355 402.913 322.562 402.747 322.842 402.6 C 323.122 402.447 323.438 402.37 323.792 402.37 C 324.465 402.37 325.018 402.627 325.452 403.14 C 325.892 403.653 326.112 404.303 326.112 405.09 C 326.112 405.37 326.085 405.66 326.032 405.96 C 325.712 407.507 324.935 409.12 323.702 410.8 C 324.415 412.367 324.772 413.717 324.772 414.85 C 324.772 415.977 324.595 416.893 324.242 417.6 C 323.622 418.8 322.538 419.603 320.992 420.01 C 320.465 420.143 319.942 420.21 319.422 420.21 L 319.082 420.21 L 319.082 418.5 C 320.242 417.92 320.822 417.013 320.822 415.78 Z M 318.902 396.49 C 318.335 396.49 317.868 396.663 317.502 397.01 C 317.142 397.357 316.942 397.857 316.902 398.51 C 316.902 399.33 317.248 400.383 317.942 401.67 C 318.702 401.077 319.325 400.517 319.812 399.99 C 320.372 399.357 320.652 398.773 320.652 398.24 C 320.652 397.707 320.512 397.293 320.232 397 C 319.918 396.66 319.475 396.49 318.902 396.49 Z M 313.292 409.82 L 313.262 410.16 C 313.262 410.94 313.522 411.633 314.042 412.24 C 314.568 412.847 315.368 413.15 316.442 413.15 C 317.515 413.15 318.575 412.75 319.622 411.95 C 319.075 410.923 318.438 409.86 317.712 408.76 C 316.985 407.653 316.502 406.913 316.262 406.54 L 315.952 406.04 C 314.958 406.807 314.285 407.47 313.932 408.03 C 313.578 408.59 313.365 409.187 313.292 409.82 ZM 349.992 415.48 C 348.952 415.48 348.166 415.137 347.632 414.45 C 347.099 413.77 346.739 412.497 346.552 410.63 C 346.439 409.663 346.326 408.403 346.212 406.85 C 344.906 407.243 343.592 407.653 342.272 408.08 L 341.312 410.72 C 341.126 411.22 340.996 411.577 340.922 411.79 C 340.849 412.01 340.716 412.333 340.522 412.76 C 340.322 413.187 340.152 413.5 340.012 413.7 C 339.872 413.893 339.676 414.14 339.422 414.44 C 339.176 414.74 338.919 414.953 338.652 415.08 C 337.986 415.42 337.269 415.59 336.502 415.59 C 335.736 415.59 335.116 415.313 334.642 414.76 C 334.162 414.213 333.922 413.537 333.922 412.73 C 333.922 412.51 333.942 412.277 333.982 412.03 C 334.222 410.237 336.059 408.603 339.492 407.13 C 340.466 404.65 342.082 400.47 344.342 394.59 C 344.936 394.25 345.692 394.08 346.612 394.08 C 346.812 394.08 347.006 394.08 347.192 394.08 C 347.379 394.08 347.609 394.08 347.882 394.08 C 348.156 394.08 348.496 394.137 348.902 394.25 C 348.922 395.13 349.352 400.573 350.192 410.58 C 350.266 411.42 350.369 411.963 350.502 412.21 C 350.629 412.463 350.852 412.59 351.172 412.59 C 351.692 412.59 352.389 412.237 353.262 411.53 C 354.129 410.817 354.906 409.93 355.592 408.87 L 356.382 410.77 L 355.712 411.67 C 353.752 414.21 351.846 415.48 349.992 415.48 Z M 346.022 404.78 L 345.542 398.96 L 343.112 405.76 C 344.419 405.313 345.389 404.987 346.022 404.78 Z M 338.512 409.57 C 336.779 410.443 335.912 411.3 335.912 412.14 C 335.912 412.74 336.136 413.04 336.582 413.04 C 336.922 413.04 337.192 412.797 337.392 412.31 C 337.639 411.79 338.012 410.877 338.512 409.57 ZM 362.75 405.93 C 362.75 404.717 362.207 404.11 361.12 404.11 C 360.32 404.11 359.603 404.567 358.97 405.48 C 358.297 406.467 357.96 407.623 357.96 408.95 C 357.96 410.277 358.253 411.3 358.84 412.02 C 359.427 412.74 360.233 413.1 361.26 413.1 C 362.493 413.1 363.797 412.593 365.17 411.58 C 366.543 410.573 367.65 409.323 368.49 407.83 C 368.863 408.11 369.227 408.623 369.58 409.37 C 369.04 410.457 368.033 411.67 366.56 413.01 C 365.793 413.723 364.84 414.32 363.7 414.8 C 362.467 415.327 361.233 415.59 360 415.59 C 358.34 415.59 356.937 415.02 355.79 413.88 C 354.643 412.74 354.07 411.257 354.07 409.43 C 354.07 407.21 354.817 405.407 356.31 404.02 C 357.803 402.64 359.473 401.95 361.32 401.95 C 362.76 401.95 363.9 402.25 364.74 402.85 C 365.58 403.443 366 404.227 366 405.2 C 366 405.833 365.773 406.383 365.32 406.85 C 364.5 407.67 363.503 408.08 362.33 408.08 C 362.61 407.147 362.75 406.43 362.75 405.93 ZM 374.859 412.23 L 375.529 406.04 C 375.529 405.533 375.399 405.113 375.139 404.78 C 374.879 404.447 374.459 404.28 373.879 404.28 C 373.299 404.28 372.809 404.507 372.409 404.96 C 372.009 405.42 371.716 406.023 371.529 406.77 C 371.396 407.83 371.199 409.383 370.939 411.43 C 370.679 413.477 370.509 414.807 370.429 415.42 L 366.709 415.42 C 368.056 403.98 368.869 396.953 369.149 394.34 C 369.536 394.187 370.066 394.11 370.739 394.11 C 372.199 394.11 372.929 394.54 372.929 395.4 L 372.929 395.57 C 372.609 398.497 372.272 401.073 371.919 403.3 C 372.906 402.4 374.026 401.95 375.279 401.95 C 376.526 401.95 377.516 402.267 378.249 402.9 C 378.976 403.54 379.339 404.343 379.339 405.31 C 379.339 405.57 379.282 406.057 379.169 406.77 C 378.742 409.57 378.529 411.213 378.529 411.7 C 378.529 412.573 378.816 413.01 379.389 413.01 C 379.876 413.01 380.396 412.69 380.949 412.05 C 381.496 411.403 381.939 410.407 382.279 409.06 C 382.912 409.733 383.296 410.267 383.429 410.66 C 382.456 413.907 380.736 415.53 378.269 415.53 C 377.116 415.53 376.259 415.177 375.699 414.47 C 375.139 413.757 374.859 413.01 374.859 412.23 ZM 383.352 394.8 C 383.785 394.36 384.309 394.14 384.922 394.14 C 385.535 394.14 386.062 394.36 386.502 394.8 C 386.942 395.24 387.162 395.767 387.162 396.38 C 387.162 396.993 386.942 397.517 386.502 397.95 C 386.062 398.377 385.535 398.59 384.922 398.59 C 384.309 398.59 383.785 398.377 383.352 397.95 C 382.925 397.517 382.712 396.993 382.712 396.38 C 382.712 395.767 382.925 395.24 383.352 394.8 Z M 382.202 403.02 C 382.389 402.68 382.745 402.423 383.272 402.25 C 383.792 402.07 384.309 401.98 384.822 401.98 C 385.335 401.98 385.789 402.047 386.182 402.18 C 385.455 407.793 385.092 410.63 385.092 410.69 C 384.999 411.063 384.952 411.377 384.952 411.63 C 384.952 411.877 384.969 412.093 385.002 412.28 C 385.082 412.767 385.425 413.01 386.032 413.01 C 386.639 413.01 387.199 412.613 387.712 411.82 C 388.225 411.027 388.612 410.127 388.872 409.12 C 388.999 409.193 389.202 409.417 389.482 409.79 C 389.762 410.163 389.932 410.443 389.992 410.63 C 389.619 412.123 388.982 413.327 388.082 414.24 C 387.189 415.16 386.115 415.62 384.862 415.62 C 383.615 415.62 382.689 415.31 382.082 414.69 C 381.475 414.077 381.172 413.283 381.172 412.31 C 381.172 412.103 381.182 411.89 381.202 411.67 L 382.202 403.02 ZM 392.998 409.15 C 394.158 408.903 395.022 408.437 395.588 407.75 C 396.162 407.057 396.448 406.39 396.448 405.75 C 396.448 405.103 396.275 404.663 395.928 404.43 C 395.582 404.197 395.202 404.08 394.788 404.08 C 393.915 404.08 393.145 404.57 392.478 405.55 C 391.818 406.53 391.488 407.697 391.488 409.05 C 391.488 410.403 391.812 411.41 392.458 412.07 C 393.098 412.737 393.895 413.07 394.848 413.07 C 396.248 413.07 397.592 412.583 398.878 411.61 C 400.165 410.643 401.212 409.373 402.018 407.8 C 402.425 408.193 402.798 408.68 403.138 409.26 C 402.518 410.66 401.425 412.033 399.858 413.38 C 399.078 414.033 398.152 414.563 397.078 414.97 C 396.005 415.383 394.898 415.59 393.758 415.59 C 391.892 415.59 390.415 415.02 389.328 413.88 C 388.175 412.647 387.598 411.07 387.598 409.15 C 387.598 407.223 388.322 405.543 389.768 404.11 C 391.215 402.67 392.945 401.95 394.958 401.95 C 396.398 401.95 397.565 402.263 398.458 402.89 C 399.358 403.517 399.815 404.36 399.828 405.42 C 399.828 406.86 399.255 408.027 398.108 408.92 C 396.962 409.82 395.388 410.447 393.388 410.8 L 392.998 409.15 ZM 411.484 410.41 C 410.89 411.923 410.05 413.16 408.964 414.12 C 407.87 415.08 406.624 415.56 405.224 415.56 C 403.824 415.56 402.774 415.097 402.074 414.17 C 401.374 413.25 401.024 412.193 401.024 411 C 401.024 410.753 401.034 410.51 401.054 410.27 L 402.004 402.29 C 402.597 402.063 403.23 401.95 403.904 401.95 C 405.137 401.95 405.754 402.407 405.754 403.32 C 405.754 403.36 405.6 404.607 405.294 407.06 C 404.987 409.513 404.834 410.937 404.834 411.33 C 404.834 412.397 405.347 412.93 406.374 412.93 C 407.247 412.93 407.984 412.433 408.584 411.44 C 409.63 409.653 410.18 407.63 410.234 405.37 L 409.984 405.37 C 409.197 405.37 408.6 405.193 408.194 404.84 C 407.727 404.427 407.494 403.93 407.494 403.35 C 407.494 402.77 407.67 402.303 408.024 401.95 C 408.45 401.577 408.964 401.39 409.564 401.39 C 410.984 401.39 411.87 402.127 412.224 403.6 C 412.784 403.527 413.184 403.453 413.424 403.38 L 413.424 404.98 L 412.394 405.14 L 412.394 405.62 C 412.374 407.3 412.07 408.897 411.484 410.41 Z M 409.084 403.35 C 409.084 403.67 409.354 403.83 409.894 403.83 C 409.954 403.83 410.01 403.83 410.064 403.83 C 409.937 403.323 409.74 403.07 409.474 403.07 C 409.214 403.07 409.084 403.163 409.084 403.35 ZM 418.953 409.15 C 420.113 408.903 420.976 408.437 421.543 407.75 C 422.116 407.057 422.403 406.39 422.403 405.75 C 422.403 405.103 422.229 404.663 421.883 404.43 C 421.536 404.197 421.156 404.08 420.743 404.08 C 419.869 404.08 419.099 404.57 418.433 405.55 C 417.773 406.53 417.443 407.697 417.443 409.05 C 417.443 410.403 417.766 411.41 418.413 412.07 C 419.053 412.737 419.849 413.07 420.803 413.07 C 422.203 413.07 423.546 412.583 424.833 411.61 C 426.119 410.643 427.166 409.373 427.973 407.8 C 428.379 408.193 428.753 408.68 429.093 409.26 C 428.473 410.66 427.379 412.033 425.813 413.38 C 425.033 414.033 424.106 414.563 423.033 414.97 C 421.959 415.383 420.853 415.59 419.713 415.59 C 417.846 415.59 416.369 415.02 415.283 413.88 C 414.129 412.647 413.553 411.07 413.553 409.15 C 413.553 407.223 414.276 405.543 415.723 404.11 C 417.169 402.67 418.899 401.95 420.913 401.95 C 422.353 401.95 423.519 402.263 424.413 402.89 C 425.313 403.517 425.769 404.36 425.783 405.42 C 425.783 406.86 425.209 408.027 424.063 408.92 C 422.916 409.82 421.343 410.447 419.343 410.8 L 418.953 409.15 ZM 435.148 405.62 C 435.148 404.8 434.771 404.39 434.018 404.39 C 433.265 404.39 432.661 404.873 432.208 405.84 C 434.228 407.427 435.238 409.21 435.238 411.19 C 435.238 412.63 434.835 413.723 434.028 414.47 C 433.228 415.217 432.221 415.59 431.008 415.59 C 429.795 415.59 428.908 415.21 428.348 414.45 C 427.788 413.697 427.508 412.74 427.508 411.58 C 427.508 411.227 427.518 410.967 427.538 410.8 L 428.518 402.26 C 429.191 402.053 429.871 401.95 430.558 401.95 C 431.698 401.95 432.268 402.37 432.268 403.21 L 432.268 403.27 C 433.015 402.39 433.968 401.95 435.128 401.95 C 435.968 401.95 436.621 402.143 437.088 402.53 C 437.555 402.91 437.788 403.417 437.788 404.05 C 437.788 404.683 437.548 405.203 437.068 405.61 C 436.595 406.01 435.975 406.21 435.208 406.21 C 435.168 406.21 435.131 406.21 435.098 406.21 C 435.131 406.003 435.148 405.807 435.148 405.62 Z M 433.418 411.05 C 433.418 409.97 432.858 408.887 431.738 407.8 C 431.398 410.493 431.228 411.847 431.228 411.86 C 431.228 412.647 431.548 413.04 432.188 413.04 C 433.008 413.04 433.418 412.377 433.418 411.05 ZM 450.201 406.85 C 451.675 407.937 452.411 409.217 452.411 410.69 C 452.411 412.163 451.835 413.347 450.681 414.24 C 449.521 415.14 448.065 415.59 446.311 415.59 C 445.171 415.59 444.225 415.303 443.471 414.73 C 442.711 414.163 442.331 413.46 442.331 412.62 C 442.331 411.78 442.611 411.113 443.171 410.62 C 443.731 410.127 444.431 409.823 445.271 409.71 C 444.878 410.27 444.681 410.807 444.681 411.32 C 444.681 411.833 444.861 412.247 445.221 412.56 C 445.575 412.88 446.021 413.04 446.561 413.04 C 447.101 413.04 447.548 412.84 447.901 412.44 C 448.261 412.04 448.441 411.577 448.441 411.05 C 448.441 410.19 448.038 409.427 447.231 408.76 C 446.745 408.367 446.221 407.997 445.661 407.65 C 445.101 407.303 444.805 407.12 444.771 407.1 C 444.698 407.047 444.621 407 444.541 406.96 C 444.208 407.353 443.725 407.89 443.091 408.57 C 442.458 409.257 441.955 409.803 441.581 410.21 C 440.535 411.35 439.945 412.303 439.811 413.07 C 439.778 413.217 439.761 413.5 439.761 413.92 C 439.761 414.34 439.885 414.773 440.131 415.22 C 440.385 415.673 440.688 416.01 441.041 416.23 C 441.401 416.457 441.751 416.64 442.091 416.78 C 442.438 416.92 442.738 417.017 442.991 417.07 C 443.245 417.13 443.371 417.167 443.371 417.18 C 443.371 417.313 443.165 417.463 442.751 417.63 C 441.985 417.91 441.188 418.05 440.361 418.05 C 439.528 418.05 438.721 417.753 437.941 417.16 C 436.875 416.333 436.341 415.24 436.341 413.88 C 436.341 413.04 436.555 412.21 436.981 411.39 C 437.748 409.93 439.541 407.933 442.361 405.4 C 441.668 404.707 441.321 403.967 441.321 403.18 C 441.321 402.4 441.618 401.74 442.211 401.2 C 442.798 400.653 443.491 400.38 444.291 400.38 C 445.018 400.38 445.655 400.67 446.201 401.25 C 446.555 401.643 446.731 402.14 446.731 402.74 C 446.731 403.333 446.535 404.003 446.141 404.75 C 448.141 405.65 449.495 406.35 450.201 406.85 Z M 444.121 403.69 C 444.575 403.223 444.801 402.887 444.801 402.68 C 444.801 402.213 444.595 401.96 444.181 401.92 C 443.715 401.92 443.481 402.183 443.481 402.71 C 443.481 403.023 443.695 403.35 444.121 403.69 Z" transform="matrix(2.5255730152130127, 0, 0, 3.0165889263153076, -281.5528259277344, -746.7146606445312)" style="fill: rgb(0, 88, 141); stroke: rgb(223, 223, 223); white-space: pre;"/>
</svg>